<svg xmlns="http://www.w3.org/2000/svg" width="126" height="35" viewBox="0 0 126 35"><g><g opacity=".3"><path fill="#c12d30" d="M48.286 23.363c.044 0 .088 0 .088.089-.132 0 .175.755-.22.622.088-.311.044-.4-.087-.622.088 0 .088-.134.22-.09zm0 3.509c.22.044.395.178.702.31-.22-.266.131-.177.22-.31 0 .488.174-.267.306.089-.22.71-1.316.222-1.228-.09zm.833 1.776c.263.09.395-.044.57-.088.044.222.088.444.22.622-.307-.134-.834 0-.79-.533zM38.945 27.36c0-.177-.088-.222-.044-.444.22-.089.22.178.394.133 0 .311-.131.356-.35.311zm8.902 0c.22 0 .395.09.483.222zm4.737-4.397c.088 0 .175-.178.22 0-.132.133-.395.089-.44.311-.13-.266-.175-.178-.087-.533.22-.133.176.133.307.222zm-2.85 5.33c-.044-.31-.088-.089-.308-.089v-.31c.22-.045.132.222.307.222.044-.09 0-.223.088-.223 0 .134.132.134.088.311-.088 0-.132.09-.176.09zm-2.457-4.308c-.219-.222-.789 0-.833-.444.263-.09.176.177.307.222-.044-.444.439-.267.614-.178-.175 0 .088.267-.088.4zm8.816-1.244c.043 0 .131 0 .131-.089-.088-.044 0-.177.088-.222.044.133.131.267.175.4-.087.133-.307.044-.394-.089zm-7.105 2.532c.131-.578.658-.045.92 0zm-6.052-3.776c-.22-.044-.483.267-.527-.133zm6.052 2.399c.22-.089.35.044.526.089-.044.222-.088.355-.175.444 0-.311-.307-.267-.351-.533zm.131 1.599c.22 0 .132-.178.307 0v.222c-.131.178-.087 0-.307 0zm.439 4.708c-.132-.044-.439.133-.482-.089.131-.178.087 0 .306 0 .044-.089 0-.222.088-.222 0 .044 0 .089.088.089zm7.16-8.392c.131.008.27-.002.296.175zm-.116-.018a.557.557 0 0 1-.29.104.652.652 0 0 1-.355-.12c-.018-.06-.084-.075-.084-.19h-.131c.032.02.048.048.051.083-.128-.085-.257-.163-.402-.172-.179-.012-.26.31-.439.31-.107 0 .016-.28-.087-.31-.078-.023-.158.06-.197.147a.717.717 0 0 1-.11-.28c-.009-.084.138-.104.175-.178.026-.054-.034-.13 0-.178.05-.07.207-.049.22-.133.01-.083-.16-.096-.176-.178-.018-.092.044-.184.088-.267.06-.111.106-.253.219-.31.07-.036.184.16.22.088.036-.074-.184-.094-.176-.177.011-.127.136-.215.219-.311.021-.025.088-.012.088-.045 0-.18.039-.404-.088-.533-.078-.079-.2.104-.307.134-.109.03-.654-.128-.307.4.061.093.229-.055.307-.134.033-.033-.044-.086-.044-.133 0-.015.03.005.044 0 .031-.01.065-.068.088-.045.07.071.145.169.131.267-.044.312-.426.515-.658.622-.144.066.114-.31-.131-.133a.756.756 0 0 0-.115.105c.023.023.047.056.071.072.044.03.084.065.132.09.013.006.029 0 .043 0h.088c.03 0 .088-.03.088 0 0 .15-.063.294-.088.443-.005.03 0 .06 0 .09v.043c0 .06.023.124 0 .178-.024.058-.094.083-.131.133-.052.07-.114.138-.132.222-.013.06.105.183.044.178-1.658-.135-3.293-.564-4.956-.577-.221-.002-.395.312-.395.533 0 .15.354.077.395.222.029.102-.278-.014-.307.089-.028.1.322.239.22.222-.266-.045-.575-.103-.746-.311-.08-.098.286-.098.307-.222.02-.125-.282-.2-.22-.311.065-.115.433.126.395 0-.065-.22-.303-.388-.526-.444-.1-.026.103.317 0 .31-1.53-.089-3.07-.224-4.561-.577a.08.08 0 0 1-.058-.05.084.084 0 0 1-.03.05c-.129.102-.34-.091-.438-.222-.11-.146.031-.616-.132-.533-.185.094.163.603-.044.622-.643.06-1.317-.137-1.886-.444-.184-.1.067-.48-.087-.622-.087-.08-.288-.006-.365.102a2.438 2.438 0 0 0-.118-.146c-.103-.12-.298.248-.438.177-.107-.054.285-.266.175-.31a.61.61 0 0 0-.614.133c-.08.081.377.205.263.222a.735.735 0 0 1-.57-.178c-.062-.056.241-.127.175-.178-.393-.306-.905-.427-1.315-.71-.097-.067.263.123.35.044.1-.09-.087-.426.044-.4.157.032.07.325.176.444.048.055.147-.01.22 0 .82.123 1.642.238 2.455.4.03.006-.03.089 0 .089.053 0 .12-.037.132-.089.022-.102-.149-.307-.044-.31.39-.017.792.09 1.14.266.093.047-.085.37 0 .31.291-.202.394-.623.702-.799.116-.066-.133.4 0 .4.241 0 .564-.827.965-.577.151.094-.135.532.044.532.187 0-.006-.484.175-.533.162-.043.401.096.466.26a1.96 1.96 0 0 1 .543-.304c.106-.036.025.275.131.311.169.057.448-.248.527-.089.09.184-.359.335-.307.533.05.197.322.32.526.311a3.067 3.067 0 0 0 1.403-.4c.12-.07-.212-.217-.35-.222-.284-.01-.586.317-.834.178-.172-.097.251-.337.439-.4.075-.025.01.242.087.222.35-.089.115-.355.395-.355.015 0-.008.032 0 .044.023.035.05.073.088.09.213.088.43.18.658.221.346.063.864-.208 1.052.09.151.237-.483.31-.658.532-.066.084.255-.182.307-.089.07.122-.253.469-.131.4.236-.133.259-.67.526-.622.258.046.07.54.22.755.06.089-.007-.258.087-.31.093-.053.207.124.307.088.137-.05.161-.31.307-.31.117 0 .2.098.284.194.083-.081.286-.08.286-.195 0-.126-.307-.096-.307-.222 0-.18.152-.536.307-.444.226.133-.043.755.22.755.324 0 .479-.46.613-.755.211-.462-.266-.464-.482-.4-.233.069-.415.311-.658.311-.108 0 .02-.31-.088-.31-.436 0-.836.346-1.271.31-.188-.015-.167-.403-.351-.444-.4-.09-.819.06-1.228.089h-.044c-.015 0-.043.014-.044 0-.015-.281-.182-.63 0-.844.123-.145.467.041.526.222.05.148-.507.31-.35.31.45 0 .865-.336 1.315-.31.836.05 1.638.713 2.456.533.432-.095.327-.83.57-1.2.035-.051.082.096.132.134.066.05.136.097.208.141.05-.044.118-.097.099-.141-.048-.108-.206-.116-.307-.178a1.024 1.024 0 0 1-.307-.266c-.021-.026-.011-.085-.044-.089-.217-.028-.462-.1-.658 0-.147.075-.212.28-.22.444-.007.187.308.4.176.533-.118.12-.278-.234-.307-.4-.035-.208.229-.433.132-.621-.118-.228-.888-.288-.658-.4.425-.208.92-.16 1.403-.17-.019.062-.022.115 0 .081l.058-.083c.16-.006.316-.018.469-.05.125-.026-.181-.1-.362-.097a1.32 1.32 0 0 0 .14-.235c.172.17.421.336.573.465.065.056.058-.176.131-.222.062-.04.199-.07.22 0 .042.145-.228.5-.088.444.115-.046.27-.823.658-.666.29.118.586.306.745.577.105.18-.111.426-.044.622.061.177.331.576.395.4.142-.39-.152-.833-.088-1.244.024-.15.073.359.22.4.191.054.392-.088.57-.178.03-.015-.077-.09-.044-.089.499.016 1.04-.079 1.491.134.156.073-.091.438-.263.444-.403.013-.738-.384-1.14-.4-.119-.005-.089.277 0 .355.3.266.664.48 1.052.578.1.025-.101-.331 0-.311.483.095.886.444 1.36.577.39.11.12-.407.219-.444.137-.05.284-.08.433-.09-.028-.07.002-.194-.038-.265-.015-.026-.099.027-.088 0 .06-.154.136-.302.219-.445-.011.036-.013.068 0 .09.11.172.323.31.527.31.103 0-.099-.277 0-.31.21-.071.507-.074.657.088.141.152-.149.478 0 .622.218.21.644.031.878.222.137.113-.133.51.043.533.263.033.396-.475.658-.444.179.021.067.354.088.533.008.074.074.226 0 .222-.608-.03-1.19-.31-1.798-.31-.12 0 .279.252.175.31-.283.16-.64.159-.965.133-.824-.064-.755-.633-1.71-.31-.113.038.28.254.175.31-.244.133-.585-.08-.833.045-.138.07-.119.29-.131.444-.004.041.127.077.087.089-.143.042-.29.068-.438.088-.007.014 0 .03 0 .045s-.002.03 0 .044c.028.297.041.595.087.889.013.078.026.173.088.222.084.066.298.195.307.089.019-.225-.275-.397-.263-.622.007-.126.307-.096.307-.222 0-.168-.221-.255-.307-.4-.01-.018.025-.052.044-.044.14.056.276.315.395.222.14-.11-.14-.422 0-.533.22-.176.577-.25.833-.133.162.073-.074.399.044.533.073.083.2-.101.307-.134.042-.013.088-.006.131 0 .177.024.42-.054.527.09.091.123.02.414-.132.443-.273.053-.512-.281-.79-.266-.314.017-.622.169-.877.355-.064.047.009.225.088.222.333-.014.634-.31.965-.266.283.037.525.265.702.488.082.105.122.346 0 .4-.634.279-1.606-.067-2.018.489-.299.403.994.153 1.491.222.044.006.09.014.132 0 .05-.017.08-.075.132-.09.171-.046.397.035.526-.088.159-.152.03-.51.22-.622.125-.074.204.415.306.311.18-.182-.011-.543.132-.755.106-.158.442-.051.526-.222.04-.08-1.001-.807-.088-.933.307-.042.6.244.79.489.068.088-.266.03-.307.133-.066.166-.018.366.044.533.032.088.295.122.219.178-.143.103-.386-.062-.526.044-.076.057.09.18.175.222.133.067.33.191.439.089.167-.157.103-.448.175-.666.014-.042-.041.116 0 .133.03.012.343-.015.263-.178-.014-.03-.083.077-.088.045-.045-.353-.27-.792-.043-1.066.158-.194.576.05.701.266.093.16-.245.305-.263.489-.007.074.252-.111.22-.045-.097.197-.394.275-.44.489-.014.068.071.123.161.142-.038.087-.082.168-.16.213-.092.053-.185-.249-.263-.177-.149.135-.34.46-.176.577.182.13.391-.28.614-.266.329.019.648.539.921.355.277-.187.104-.644.124-.992 0 .005.003.01.008.015.03.03.046-.084.088-.09.088-.01.175.033.263.045.023.004.15-.014.131.045-.016.05-.104.043-.131.089-.065.108-.069.245-.132.355-.041.072-.223.11-.175.178.104.15.318.35.482.266.138-.07-.122-.29-.131-.444-.006-.093.046-.183.087-.267.007-.013.03.005.044 0 .031-.01.076-.074.088-.044.032.083-.084.295 0 .267.106-.036.047-.237.131-.311.055-.049.252.065.22 0-.041-.083-.18-.047-.263-.09-.038-.018-.055-.063-.088-.088-.004-.003-.13-.054-.132-.089-.012-.278.16-.615.051-.853l-.007-.005h.004a.337.337 0 0 0-.048-.075.158.158 0 0 0-.108-.053.897.897 0 0 1-.286-.435c-.066-.257.604-.185.657-.444.043-.205-.408-.205-.482-.4-.038-.1.171-.125.263-.178.034-.02.126.038.132.045.07.095.091.226.175.31.055.057.142.076.22.09.02.003.023-.05.043-.045.052.013.09.057.132.089.016.012.026.033.044.044a.368.368 0 0 0 .087.045c.014.004.038-.014.044 0 .027.054.01.126.044.177.012.018.023-.044.044-.044 0-.015-.002-.03 0-.045.013-.133.083-.271.044-.4-.028-.09-.294-.12-.22-.177.22-.17.892-.008.79-.266-.108-.273-.637-.123-.877.044-.147.101.044.355.044.533 0 .015-.031.006-.044 0-.019-.01-.026-.034-.044-.044-.056-.035-.12-.054-.175-.09-.15-.097-.29-.21-.44-.31a.37.37 0 0 0-.087-.045c-.014-.004-.03.002-.044 0-.088-.012-.21.027-.263-.044-.061-.083.1-.341 0-.311-.199.06-.23.433-.438.444-.426.023-.802-.355-1.228-.355-.12 0 .05.283-.044.355-.085.065-.3.018-.307-.089-.014-.197.124-.392.263-.533.046-.047.023.167.088.178.389.068.802.145 1.184.044.115-.03-.287-.268-.176-.31.274-.104.608-.07.878.044.096.041-.1.222-.044.31.096.152.35.468.438.312.11-.196-.292-.399-.263-.622.015-.117.257-.116.35-.044.083.062-.103.313 0 .31.512-.015.995-.236 1.492-.355.059-.014.115-.044.176-.044.029 0 .057.016.08.036.09-.023.185-.069.27-.036.34.129.241.346.483.31.074-.01.182.021.219-.044.044-.078-.044-.176-.044-.266 0-.047.027-.09.044-.134.012-.03.022-.064.044-.088.096-.11.227-.19.307-.311.018-.028-.071-.07-.044-.09.174-.116.378-.182.57-.266.014-.005.03 0 .044 0 .015 0 .04-.013.044 0 .028.086-.02.203.044.267.075.076.201.075.307.089.02.002.025-.054.044-.045.03.015.033.058.043.09.093.279.167.565.264.843.006.02.024.038.043.044.028.01.068-.02.088 0 .047.047.048.126.088.178.063.083.152.143.22.222.02.025.03.058.043.089.017.044.017.095.044.133.091.127.189.253.307.356.09.077.19.165.307.177.105.01.137-.329.307-.089.052.074.024.179.044.267.01.046.006.105.044.133.035.027.095-.024.131 0 .015.01.198.268.22.311.006.013-.007.031 0 .045.038.077.05.194.131.222.06.02.07-.143.132-.134.082.012.217.25.175.178-.086-.145-.201-.27-.307-.4-.026-.032-.06-.057-.088-.089-.075-.087-.138-.184-.219-.266-.01-.01-.034.01-.044 0-.01-.01-.008-.032 0-.044.023-.035.092-.048.088-.09-.027-.285.007-.621-.176-.843-.122-.15.06.414-.043.577-.05.079-.172-.099-.264-.089-.062.007-.1.188-.131.134-.073-.13.08-.361-.044-.445-.095-.064-.104.267-.22.267-.114 0-.15-.174-.219-.267-.02-.026-.025-.06-.043-.088-.012-.018-.048-.024-.044-.045.013-.078.127-.153.087-.222-.045-.08-.208-.014-.263-.089-.031-.042.098-.048.132-.089.055-.065.09-.147.131-.222.017-.028.027-.06.044-.088.027-.046.062-.087.088-.134.032-.057.07-.114.088-.177.027-.101-.053-.272.044-.311.087-.036.175.316.175.222 0-.16-.153-.287-.175-.444-.01-.066.048-.125.087-.178.009-.012.034-.01.044 0 .023.023.011.083.044.089.08.013.438-.067.35-.267-.047-.108-.28-.062-.306-.177-.056-.238.329-.97-.176-1.155-.097-.036-.204.119-.219.222-.02.139.093.265.132.4.063.22.147.438.175.666.004.032-.062.024-.088.044-.048.04-.069.138-.131.134-.157-.013-.408-.333-.439-.178-.036.184.284.25.395.4.026.035 0 .088 0 .133 0 .089.019.18 0 .266-.011.052-.058.09-.088.134-.029.044-.064.085-.087.133-.05.099-.032.19-.132.266-.023.018-.076.027-.088 0-.084-.198-.108-.417-.175-.621-.01-.029.016.064 0 .088-.046.07-.113.233-.176.178-.13-.115-.113-.327-.175-.489a3.673 3.673 0 0 0-.132-.31c-.009-.02-.037-.025-.043-.045-.01-.028-.021-.068 0-.089.06-.06.294-.092.219-.133-.208-.115-.464-.133-.702-.133a.402.402 0 0 0-.307.133c-.033.042.171.054.132.089-.133.117-.306.236-.483.222-.101-.008-.027-.739-.394-.133a.574.574 0 0 0-.044.444c.016.056.15-.053.175 0 .03.06-.062.117-.087.178-.019.043-.027.09-.044.133-.013.03-.015.074-.044.089-.04.02-.101-.032-.132 0-.031.031.042.147 0 .133-.109-.037-.227-.113-.263-.222-.019-.058.176.016.176-.045 0-.145-.033-.37-.176-.4-.133-.026-.142.25-.263.312-.08.04-.174-.045-.263-.045-.033 0-.074.074-.088.045-.09-.196.029-.553-.175-.622-.174-.059-.349.022-.525.112.015-.19-.115-.394-.265-.512-.067-.053-.09.298-.131.222-.108-.2-.21-.84-.044-1.11.024-.04.102.008.131.044.108.134.091.444.264.444.852 0-.463-.563.043-.666.273-.055.994.272.834.044a.62.62 0 0 0-.263-.206c.03-.004.058-.01.087-.016.133-.03-.197-.319-.087-.4.153-.113.398-.037.57.045.107.051.059.337.175.31.435-.099.777-.44 1.184-.621.095-.042.247-.128.307-.044.104.144-.128.486.044.533.228.061.39-.277.614-.356.166-.058.363-.11.526-.044.165.066.174.414.351.4.296-.024.45-.462.746-.489a.083.083 0 0 1 .028.001c.012-.026.03-.043.06-.045.095-.008.174.048.253.113-.007-.011-.005-.02.01-.024.21-.064.482-.089.657.044.175.133.016.54.22.622.219.089.537-.063.658-.267.09-.151-.366.117-.527.045-.01-.005-.72-.844 0-.844.277 0 .508.247.702.444.044.044-.186.102-.132.133.128.074.33.143.439.045.182-.164-.449-.803.395-.533.03.01.07.046.115.094-.033.095-.037.163.016.128a.625.625 0 0 0 .056-.043c.189.224.397.495.295-.224a.604.604 0 0 0-.028-.121c.105-.166.21-.33.379-.412.126-.06.005.34.132.4.16.076.366-.011.526-.089.188-.09.276-.43.482-.4.158.023-.287.331-.175.445.177.18.498.185.745.133.154-.033.195-.246.307-.356.298-.29.538-.68.921-.843 1.91-.815 2.781-.432 4.737-.844.648-.137 1.25-.438 1.886-.622.184-.054.384-.039.57-.09 3.192-.867 6.415-1.638 9.56-2.664.337-.11.45-.61.79-.71 2.899-.859 5.854-1.523 8.815-2.133 2.583-.531 5.23-.726 7.807-1.288.307-.067.432-.551.745-.577.652-.054 1.28.28 1.93.355.247.029.547-.194.745-.044.838.633 1.555 1.43 2.193 2.265.1.131.04.383-.087.489-.16.131-.732-.082-.614.088.374.542.944.953 1.535 1.244.13.064.175-.254.175-.4 0-.244-.405-.63-.175-.71.737-.259 1.688.45 1.973 1.066.093.201-.143.496 0 .666.314.374 1.018.358 1.228.8.23.481-.105 1.065-.088 1.598.027.832.071 1.669.22 2.488.087.478.064 1.128.482 1.377.321.19.772-.778 1.009-.489.826 1.01 1.215 2.334 1.535 3.598.118.467-.375.952-.263 1.421.196.822.77 1.505 1.14 2.265.113.232.138.516.307.71.067.078.316.103.307 0-.046-.493-.896-1.228-.439-1.42.473-.2.706.756.965 1.199.215.367.22.834.439 1.199.088.147.38.106.438.267.08.224-.003.487-.087.71-.04.108-.242.11-.264.222-.058.291-.069.614.044.889.055.133.469.053.395.177-.157.267-.488.558-.789.489-.238-.055-.141-.47-.176-.71-.112-.782-.124-1.578-.263-2.355-.012-.064-.111-.075-.175-.089-.144-.03-.378-.178-.439-.044-.222.492.277 1.599-.263 1.599-.566 0-.071-1.332-.57-1.6-.358-.191-.705.456-.921.8-.096.153.03.362.087.533.193.587.431 1.158.658 1.733.008.019.026.033.044.044.1.063.19.2.307.178.224-.041.167-.23.176-.356.027-.39.017-.768.263-1.11.03-.043.098.047.131.089.086.11.137.243.22.355.009.012.03-.006.043 0 .019.01.025.053.044.045.097-.043.326-.263.263-.178-.1.136-.248.23-.376.34.025-.025.06-.067.026-.074-.072-.014-.147 0-.22 0-.044 0-.107-.036-.131 0-.05.076-.124.226-.044.267.1.05.241-.223.307-.133.328.447.666.956.702 1.51.028.436-.131 1.384-.527 1.199-.555-.26-.379-1.166-.614-1.732-.012-.03-.055.036-.087.044a.148.148 0 0 1-.088 0c-.165-.064-.307-.206-.483-.222-.059-.005-.002.119 0 .178.027.844.258 1.704.088 2.532-.1.488-.183-.983-.307-1.466-.139-.54-.074-1.22-.482-1.6-.013-.011-.688.59-.658.89.065.64.307 1.264.307 1.909 0 .485-.081 1.85-.307 1.421-.432-.82-.17-1.854-.395-2.753-.046-.182-.348-.582-.395-.4-.319 1.243-.222 2.563-.482 3.82-.067.325-.004-2.45-.482-2.044-.517.44-.396 1.305-.702 1.91-.013.027-.04.042-.072.048a.121.121 0 0 1 .072-.048c-.088-.133-.175-.133-.263-.266-.07.035-.098.092-.101.164-.333-.384-.453-1.058-.338-1.497.044-.165.485-.101.439-.266-.047-.17-.374.044-.526-.045-.155-.09-.155-.54-.307-.444-.274.173-.367.566-.395.889-.01.11.28.025.307.133.089.36.153.773 0 1.11a.216.216 0 0 1-.12.104c-.02-.123-.1-.203-.275-.148l-.024.158a.235.235 0 0 1-.107-.07 1.64 1.64 0 0 1-.351-1.11c.01-.17.587-.183.438-.266-.242-.137-.628-.144-.833.044-.198.181-.093.532-.088.8.01.505.225 1.013.132 1.51-.037.196-.364.516-.483.355-.177-.239.1-.59.088-.888-.018-.463-.057-.93-.175-1.377-.046-.174-.232-.608-.307-.444-.424.923-.207 2.132-.834 2.931-.301.384-.35-.933-.35-1.421 0-.138.364-.085.35-.222-.015-.15-.246-.25-.394-.222-.466.084-.875.36-1.316.533-1.489.582-2.977 1.167-4.473 1.732-1.092.412-2.145.974-3.29 1.2-.481.094-.957-.261-1.447-.267-.75-.01-1.51.038-2.237.222-.116.03.055.287-.043.355-.323.227-.712.356-1.097.444-.4.092-.818.061-1.228.09-.248.016-.496.044-.745.044-.118 0-.233-.049-.351-.045-.367.011-.74.176-1.097.089-.183-.045-.163-.462-.35-.444-.399.038-.712.368-1.053.577-.63.387-.926.892-1.842.8-.248-.025-.28-.49-.526-.533-.493-.087-.991.191-1.491.177-.059-.001-.122-.391-.307-.266-.147.1-.206.298-.351.4a4.185 4.185 0 0 1-.921.488c-.084.031-.176-.06-.263-.044a2.06 2.06 0 0 0-.31.085c-.033-.004-.049-.004-.041.004l.037-.002c-.143.049-.285.103-.432.135-.032.007-.092-.012-.088-.045.014-.098.21-.206.132-.266-.178-.135-.448-.21-.658-.133-.112.04.06.237.044.355-.005.032-.071-.016-.088-.044-.03-.053-.015-.124-.044-.178-.104-.2-.337-.353-.35-.577-.007-.119.19-.193.307-.178.074.01.007.156.043.222.04.073.093.178.176.178.056 0 .57-.18.526-.4-.047-.24-.199-.447-.307-.666-.024-.048-.04-.11-.088-.134-.052-.026-.118.012-.175 0-.02-.004-.03-.059-.044-.044a.494.494 0 0 0-.086.127c.009-.11.033-.238-.045-.305-.138-.117-.375-.232-.527-.133-.15.098.09.5-.087.533-.195.036-.206-.387-.395-.444-.1-.03-.1.222-.044.31.138.222.822.47.57.534-.728.184-.53-.9-1.228-.489-.09.053-.132.255-.044.311.114.072.324-.203.395-.089.084.136-.145.288-.175.444-.015.074.115.247.043.223-.138-.047-.18-.24-.307-.311-.117-.067-.327.028-.394-.09-.076-.13.17-.317.087-.443-.065-.1-.097.22-.175.31-.03.036-.087.034-.132.045-.072.018-.202.117-.219.044-.046-.204.114-.414.088-.621-.034-.265-.145-.517-.263-.756-.021-.042-.01.102-.044.134-.147.136-.362.196-.483.355-.045.06-.029.204.044.222.159.04.324-.129.483-.089.073.019.1.172.044.222-.101.09-.27.04-.395.09-.33.128-.647.288-.965.443-.077.038-.299.165-.22.134.27-.105.502-.332.79-.356.135-.01.35.138.307.267-.287.87-.661.177-1.052.177-.087 0-.175.148-.132.223.13.224.818.611.57.533-.47-.15-1.112-.29-1.272-.756-.026-.076.001-.122.061-.15-.076-.017-.138-.057-.148-.116-.058-.333.352-.652.263-.977-.046-.165-.389.034-.483.177-.137.208.092 1.148-.614.933-.027-.008-.034-.043-.03-.087-.043.162-.041.312.162.398.108.046.302-.063.35.045.075.163.08.598-.087.533-.34-.135-.367-.696-.702-.844-.162-.072.17.479 0 .533-.183.058-.343-.158-.519-.26.415-.325.427-1.022-.139-1.384a.139.139 0 0 0-.016-.009c.108-.153-.017-.494-.641-1.19-.191-.212-.166.552-.307.8-.03.052-.136.09-.176.044-.092-.106.007-.42-.131-.4-.158.023-.072.324-.176.444-.112.13-.397.433-.438.267-.069-.277.235-.523.307-.8.018-.073.03-.23-.044-.222-.295.03-.547.237-.834.311a3.516 3.516 0 0 1-.877.133c-.062 0 .142-.071.132-.133-.025-.15-.068-.386-.22-.4-.146-.013-.218.215-.262.356-.063.198-.19.474-.044.622.224.227.696.039.92.266.121.122-.31.185-.482.178-.217-.01-.43-.107-.614-.222-.04-.025.065-.092.044-.134-.02-.041-.121.001-.131-.044-.04-.173.141-.426 0-.533-.117-.089-.212.22-.351.266-.062.021-.185-.024-.176-.088.015-.103.187-.124.22-.222.02-.063-.023-.17-.088-.178-.64-.086-.78.217-.877.844-.01.065.12.052.175.089.012.008-.047-.015-.044 0 .016.064.117.118.088.177-.06.122-.173.249-.307.267-.13.017-.223-.205-.35-.178-.264.056-.446.32-.703.4-.082.026.217-.207.132-.222-.29-.052-.797.371-.877.089-.08-.284.497-.363.79-.4.123-.016.223.385.262.266.048-.144-.33-.296-.219-.4.173-.158.49.058.702-.044.114-.054.226-.271.131-.355-.12-.107-.389.176-.482.044-.085-.12.287-.21.263-.355-.021-.13-.228-.223-.35-.178-.12.044-.076.469-.132.356-.092-.186.177-.515 0-.622-.161-.098-.356.186-.439.355-.132.267-.197.427-.216.51-.123-.094-.137-.436-.31-.465-.139-.024-.194.273-.132.4.085.17.653.224.483.31-.207.105-.446-.13-.658-.222-.02-.008.055-.027.044-.044-.144-.234-.225-.573-.483-.666-.385-.14-.821-.006-1.228.044a.308.308 0 0 0-.219.133c-.13.215-.11 1.291-.877.222-.093-.129.336-.119.395-.266.037-.096-.222.102-.307.044-.126-.085-.267-.255-.22-.4.044-.131.297-.034.395-.133.053-.054.03-.236-.044-.222-.229.042-.444.145-.658.247-.153-.007-.214.008-.438-.025-.023.09-.045.158-.067.226a1.25 1.25 0 0 1-.24.04.236.236 0 0 1-.132-.032.437.437 0 0 1-.044-.056.047.047 0 0 0-.017.015c-.137-.108-.257-.295-.421-.282-.134.01.155.325.044.4-.315.213-.717.302-1.097.311-.291.007-.546-.315-.833-.266-.132.022.167.346.044.4-.135.058-.209-.303-.351-.267-.183.046-.176.515-.351.444-.17-.069.094-.354.132-.533.02-.103.14-.27.043-.311-.269-.115-.6-.141-.877-.044-.162.056-.298.275-.263.444.03.14.538.159.395.177-.798.106-1.617-.036-2.412.09-.111.017-.02.315-.132.31-.329-.014-.681-.13-.92-.355-.093-.087.18-.212.306-.222.106-.009.23.278.263.177.088-.267-.138-.578-.043-.843.057-.162.278-.208.438-.267.031-.011.03.06.044.089.044.089.081.181.132.266.007.013-.013-.036 0-.044.125-.085.407-.373.394-.222-.024.29-.505.472-.438.755.052.221.498.34.658.178.154-.157-.322-.428-.22-.622.097-.186.408-.094.614-.133.077-.015.15.032.22-.045.12-.134.128-.421.307-.444.132-.017-.084.357.043.4.36.121.784.13 1.14 0 .127-.046-.177-.4-.043-.4.198 0 .27.297.438.4.063.038.149.018.22 0 .114-.03.925-.316.175-.667-.155-.072-.271.303-.439.267-.142-.031-.04-.345-.175-.4-.097-.04.06.301-.044.311-.17.016-.327-.396-.438-.266-.139.16.274.465.131.621-.148.163-.498.107-.658-.044-.15-.143.118-.491-.043-.622-.124-.1-.296.143-.395.267-.1.124-.11.299-.176.444-.008.019-.023.04-.043.044-.073.012-.157.038-.22 0-.038-.023.037-.158 0-.133-.071.048-.071.283-.131.222-.132-.133.01-.512-.176-.533-.25-.028-.402.306-.614.444-.012.008.006-.03 0-.044-.038-.091-.035-.291-.131-.267-.4.102-.69.505-1.097.578-.186.033.521-.363.351-.444-.33-.158-.76-.058-1.096.088-.142.062.02.414-.132.445-.134.027.046-.427-.088-.4-.15.03-.003.358-.131.444-.112.075-.32.024-.395-.089-.062-.094.244-.3.132-.31-1.222-.123-2.476.176-3.684-.045-.09-.016-.075-.1-.038-.206-.013.017-.03.028-.05.028-1.337.015-2.654-.37-3.991-.4-.112-.002-.019.311-.131.311-.31 0-.7-.056-.878-.31-.146-.21.158-.502.132-.756-.008-.078-.174-.153-.22-.088-.17.245-.02.755-.306.843-.281.087-.462-.363-.702-.533-.054-.037-.154-.026-.175-.088-.103-.3-.21-.619-.176-.933.08-.756.463-.089.614-.089.08 0 .088-.142.088-.222 0-.21-.259-.5-.088-.622.166-.118.347.213.526.311.013.007.044-.015.044 0 0 .105-.134.258-.044.31.164.098.404-.09.57 0 .092.05-.095.352 0 .312a.974.974 0 0 0 .527-.533c.12-.33-.559-.374-.614-.444-.017-.021-.005-.035.02-.045-.083-.01-.172-.09-.24-.044-.093.063-.104.201-.131.31-.003.014.026.034.04.043-.148-.083-.309-.15-.435-.264-.024-.022.062-.062.044-.09-.08-.12-.307-.164-.307-.31 0-.112.336-.025.307-.133-.06-.232-.245-.499-.482-.533-.153-.022.022.428-.132.444-.103.01-.167-.087-.22-.198-.049-.026-.1-.05-.13-.024-.227.19.255.485.262.533.018.117-.268.236-.175.31-.179 0-.18.663-.22.49-.079-.348.133-.713.088-1.067-.017-.134-.213-.437-.263-.31-.069.173.247.36.176.532-.079.188-.47.507-.527.311-.103-.355.11-.753.307-1.066.057-.09.287.194.307.09.038-.19-.03-.496-.219-.534-.162-.033-.056.468-.22.444-.218-.031-.174-.508-.394-.533-.197-.022-.316.626-.395.444-.153-.354-.102-.818.088-1.154.102-.18.408-.067.614-.09.412-.043.64.154 1.053.4.063.038.059.166.131.178.062.01.071-.118.132-.133.257-.062.543-.186.79-.089.123.049-.126.354 0 .4.165.061.33-.132.482-.222.028-.017.01-.084.044-.09.088-.012.176.023.263.045.273.07-.101.279.219.533.455.363.58-.31.92-.31.113 0 .02.3.133.31.272.027.522-.163.789-.222a.452.452 0 0 1 .22 0c.04.012.051.11.087.09.073-.046.14-.137.131-.223-.003-.038-.037-.067-.074-.094-.183-.03-.371-.052-.54-.128-.094-.043-.115-.21-.219-.222-.18-.022-.345.144-.526.133-.094-.005-.242-.086-.22-.178.029-.114.373-.078.308-.177-.09-.137-.325-.133-.483-.09-.14.04-.212.202-.307.312-.01.011.015.046 0 .044-.105-.015-.203-.065-.307-.089-.16-.036-.319-.082-.482-.088-.234-.01-.485.133-.702.044-.289-.119-.393-.57-.702-.622-.184-.03.307.4.176.533-.125.126-.31-.184-.483-.222-.046-.01-1.506.035-1.447-.533.092-.886 1.012-.155 1.228-.178.126-.013.173-.428.22-.31.067.17-.162.352-.132.533.012.072.191.067.22 0 .067-.165-.167-.47 0-.533.424-.16.9-.059 1.359-.045 0 .215.07.434.175.622.029.05.172.058.176 0 .029-.46-.206-.933-.088-1.377.039-.146.322.354.395.222.103-.189.015-.522-.176-.622-.293-.152-.632-.158-.97-.174a.08.08 0 0 0 .005-.003c.103-.066-.027-.316.088-.356a2.978 2.978 0 0 1 1.316-.133c.118.014.057.293.175.311a.43.43 0 0 0 .32-.096c.022.096.03.188-.013.274-.08.162-.526-.048-.526.133 0 1.042 1.011.028 1.052.044.121.047.089.206.062.363a.024.024 0 0 0-.018-.007c-.26 0-.635-.013-.745.222-.11.233.051.675.307.71 1.339.188.847-.822 1.008-1.376.019-.063.163.024.176.088.041.21.036.43.032.647l-.032-.025.031.063c-.004.27-.001.537.1.781.074.176.102-.28.18-.527.026.002.053 0 .083-.006l-.062-.05a.346.346 0 0 1 .019-.039c.02-.036.05.07.087.089.026.013.072-.024.088 0 .08.122.231.265.175.4-.088.212-.54.215-.526.444.013.216.36.364.57.31.199-.05.207-.71.307-.532.14.248.02.602-.131.844-.07.111-.303-.094-.395 0a.16.16 0 0 0-.044.11c.016.002.03.01.044.023.069.07.04.18.006.292.019.055.075.115.038.152-.022.022-.051.028-.084.026-.007.059 0 .112.04.152.102.103.171-.364.307-.311.185.072.1.42.263.533.21.147.315-.225.439-.267.083-.028.175-.007.263 0 .26.022.332.09.614.09.103 0 .203-.045.307-.045.02 0-.061.056-.044.044.105-.07.272-.1.307-.222.05-.173.08-.465-.088-.533-.143-.058-.023.334-.131.444-.22.223-.632.104-.877.09-.137-.009-.368.089-.395-.134-.074-.595.507.23.745-.444.07-.197-.532-.197-.482-.4.08-.324.417-.614.746-.666.177-.029.144.362.087.533-.035.106-.312.022-.307.133.014.264.087.71.351.71.244 0-.32-.514-.175-.71.118-.16.377.229.57.178.201-.053.253-.35.438-.444.06-.03.022.177.088.177.094 0 .151-.242.22-.177.234.223.409.528.482.843.018.077-.169-.067-.26-.103a2.843 2.843 0 0 0-.266-.296c-.034-.032-.132-.002-.132.044 0 .212.21.425.132.622-.044.11-.197-.22-.307-.178-.098.037-.144.279-.044.311.446.146.953 0 1.403.133.103.031-.01.266.088.311.146.069.489.117.482-.044-.015-.396-.257-.775-.526-1.066-.085-.092-.155.226-.132.352-.236-.092-.413-.19-.131-.619.076-.116.304-.028.395-.133.052-.06-.129-.153-.088-.222.037-.063.168-.052.22 0 .051.053.032.156 0 .222-.047.093-.306.163-.22.222.262.183.696.04.92.267.116.116-.35.083-.438.222-.22.348.436.812.614.8.149-.011-.094-.5.044-.445.173.07.025.422.176.533.13.096.404.097.482-.044.121-.221-.288-.817-.044-.755.434.11.517.784.921.977.195.092-.373-.536-.175-.622.21-.091.259.438.482.489.133.03-.166-.289-.088-.4.062-.087.28.191.307.089.121-.443-.003-.92.044-1.377.027-.257-.081-.783.176-.755.456.05.796.507 1.052.888.07.105-.183.245-.307.222-.117-.021-.152-.428-.175-.31-.036.179-.03.445.131.532.144.079.388-.066.439-.222.075-.229-.19-.477-.132-.71.025-.1.264-.093.307 0 .134.284-.169 1.023.132.932.354-.107-.002-.862.307-1.066.21-.139.454-.187.71-.206a.167.167 0 0 1-.096-.06c-.173-.226-.382-.708-.132-.844.378-.206.868.073 1.272.222.105.038-.379.048-.307.133a.611.611 0 0 0 .57.178c.101-.024-.014-.208 0-.311.002-.015.03.002.044 0 .074-.013.145-.045.22-.045.02 0 .04.024.043.045.013.103-.086.253 0 .31.072.049.06-.173.132-.221.038-.026.087.03.131.044.146.046.292.093.439.133.014.004.03-.006.044 0 .149.069.387.378.438.222.297-.9-.604-.568-.833-.533-.055.009-.182-.023-.175-.088.013-.132.293-.296.175-.356-.13-.066-.222.196-.35.267-.066.036-.16.087-.22.044-.114-.08-.093-.296-.22-.355-.31-.147-.669-.281-1.008-.222-.237.041-.17.844-.526.266-.032-.052.027-.119.044-.177.024-.088.04-.176.131-.222.013-.007-.014.048 0 .044.355-.09.831-.02 1.053-.311.135-.178-.393-.236-.614-.266-.124-.018-.258.05-.351.133-.056.05-.002.159-.044.222-.052.078-.163.102-.22.178-.017.023-.086.399-.087.4-.095.074-.306.2-.35.088-.094-.236.108-.502.087-.755-.007-.086-.047.21-.132.222-.082.012-.094-.194-.175-.177-.074.014-.052.146-.044.222.022.21-.017.47.132.621.123.126.434-.106.526.045.097.16 0 .466-.175.533-.137.051-.038-.447-.176-.4-.213.072-.137.505-.35.577-.192.065-.372-.333-.55-.275.063-.153.058-.364-.065-.39-.357-.08-.727.012-1.088.117a.285.285 0 0 0-.008-.029c-.054-.163-.194-.287-.263-.444-.014-.03.058.03.087.044.059.03.113.07.176.09.078.022.195-.01.263-.045.018-.01.024-.038.044-.045a1.62 1.62 0 0 1 .35-.088c.006-.001.098.067.132.044.078-.053.15-.114.22-.178.076-.07.236-.12.219-.222-.024-.144-.162-.31-.307-.31-.105 0 .069.208.044.31-.023.092-.103.163-.176.222-.016.013-.03-.03-.044-.044-.029-.03-.078-.048-.087-.089-.023-.101.072-.237 0-.311-.218-.22-.48-.488-.79-.488-.273 0 .508.26.658.488.082.124.048.327-.044.444-.063.08-.206-.014-.307 0-.014.002.013.038 0 .045-.056.028-.182-.037-.22-.045-.086-.02-.174-.057-.262-.044-.033.005-.039.121-.044.089-.034-.205.09-.464-.044-.622-.082-.097-.196.186-.22.31-.038.205-.039.432.045.623.047.108.405.111.307.177a1.198 1.198 0 0 1-.834.178c-.102-.016.093-.264 0-.311-.157-.08-.413.18-.526.044-.133-.16-.141-.528.044-.621.178-.09.285.323.482.355.137.022.347-.084.351-.222a2.558 2.558 0 0 0-.307-1.244c-.063-.12-.307-.191-.394-.089-.168.197-.053.528-.176.755-.053.098-.21.188-.307.134-.042-.024-.064-.063-.079-.11a.058.058 0 0 1-.009.02c-.059.084-.3.103-.307 0-.015-.265.107-.538.264-.754.046-.064.194.163.219.089.03-.09-.081-.222-.176-.222-.138 0-.281.102-.35.222-.133.23-.058.576-.206.781-.016-.077-.037-.14-.058-.204-.073-.012-.122.006-.16.04-.025-.073-.057-.143-.103-.173-.178-.117-.404-.215-.614-.178-.11.02-.023.28-.131.311-.367.102-.793.2-1.14.044-.163-.072.116-.37.043-.533-.036-.08-.176.025-.263.045-.045.01-.099.011-.131.044-.133.134-.164.425-.351.444-.136.014.044-.365-.088-.4-.41-.107-.859-.05-1.272.045-.188.044-.341.198-.504.313l-.154-.09c.022.066.064.1.115.117zm-4.106-6.514c.016-.103-.118-.197-.219-.222l-.009-.002c-.036.119.05.25.182.38a.64.64 0 0 0 .046-.156zm-1.622-.4c-.469-.014-.954.22-1.404.09-.176-.052-.196-.363-.131-.534.1-.263.312-.51.57-.621.127-.056.215.249.35.222.106-.022-.016-.287.088-.311a2.513 2.513 0 0 1 1.228 0c.147.04.079.342.22.4.096.038-.09-.362 0-.311.192.108.173.532.394.532.205 0 .13-.636.307-.532.33.193.276.731.527 1.021.07.081.11-.206.087-.31-.054-.253-.323-.454-.307-.711.008-.117.274-.088.351 0 .088.1-.13.373 0 .4.176.035.279-.23.439-.312.047-.024-.078.081-.088.134-.006.032.03.059.044.088.03.06.113.117.088.178-.06.145-.43.26-.307.355.147.116.345.104.544.09.011.135.037.283-.062.31-.48.132-1.151-.452-1.491-.089a.225.225 0 0 0-.053.087 6.782 6.782 0 0 0-1.394-.176zm3.088-.137a.208.208 0 0 1-.09-.034l.002.04.088-.006zm-.106-.085a.216.216 0 0 1 .02-.042.44.44 0 0 0-.004.093c-.016-.013-.023-.03-.016-.05zm.307-.444c-.046-.14-.294.07-.439.045-.052-.01-.125-.096-.087-.134.143-.145.325-.275.526-.31.246-.044.55-.067.746.088.177.14.1.46.215.65-.027.015-.046.036-.04.06.027.125.33.374.22.312-.24-.135-.693-.945-1.141-.4-.087.105.224.4.088.4-.165 0-.148-.429-.297-.402.107-.101.249-.188.209-.309zm1.009.4c.106.101.341.066.438-.044.019-.022.018-.053.006-.088-.133.013-.267.028-.4.043a.267.267 0 0 0-.092.029.284.284 0 0 0 .048.06zm.35-.4c.096.012.17.142.237.254l-.143.014c-.037-.117-.187-.28-.094-.268zm.439.4a.198.198 0 0 0 .053-.168l-.255.022c.07.118.13.218.202.146zm-.088-.755c.028-.123.246-.333.307-.222.123.22-.056.568 0 .795l-.166.014c-.018-.179-.182-.405-.14-.587zm.395.71c.277.216.725.082 1.053-.044.063-.024.084-.1.097-.182a5.185 5.185 0 0 1-.054.004c-.394.027-.79.053-1.184.085.014.054.04.1.088.138zm1.272-.488c.08-.012.047.13.037.248a6.58 6.58 0 0 1-.159.014c.02-.117.026-.248.122-.262zm.088.4c.397.034.781-.19 1.174-.254-.406-.014-.817.06-1.225.102-.007.079-.004.147.05.152zm1.447-.267c.03.003.049.022.061.05a.06.06 0 0 0-.017-.005 2.401 2.401 0 0 0-.317-.032c.09-.014.181-.02.273-.013zm.175.4c.188-.016.39-.26.351-.444a.281.281 0 0 0-.016-.053c.22-.013.464-.15.674-.08.218.07.257.45.482.488.155.026.17-.281.307-.355.13-.07.296-.08.439-.045.236.058.42.265.658.311.46.09.948-.022 1.403.09.084.02-.208.182-.131.221.1.05.245-.226.307-.133.098.149.012.364-.044.533-.014.042-.091-.017-.132 0-.038.016-.082.13-.088.089-.018-.148.14-.33.044-.444-.072-.086-.196.117-.307.133-.029.004.03-.093 0-.089-.11.016-.2.165-.307.133-.277-.082-.487-.575-.745-.444-.285.144.045.754-.22.933-.208.141.122-.564-.043-.755-.125-.144-.41-.058-.57.044-.08.05.309.15.219.178-.21.064-.496.104-.658-.045-.107-.098.25-.274.175-.4-.06-.101-.189.19-.307.178-.195-.02-.33-.266-.526-.266-.348 0-.663.308-1.009.266-.071-.008-.054-.113-.042-.213.008.091.019.175.086.169zm-.175-.844c-.107-.049-.258.07-.351 0-.116-.088-.293-.314-.175-.4.304-.22.722-.305 1.096-.266.145.015.062.309.175.4.117.092.3.142.439.088.204-.078.292-.337.482-.444.09-.05.22-.053.307 0 .066.04.055.154.088.222-.073.018-.148.04-.22.045-.043.003-.106-.036-.13 0-.091.13-.03.381-.176.444-.204.087-.451-.01-.658-.089-.157-.06-.227-.31-.395-.31-.119 0 .208.195.176.31-.023.082-.167.146-.27.199-.11-.086-.265-.143-.388-.199zm2.105-.355c.18.081.237.037.256-.048-.091-.043-.195-.023-.3.003a.09.09 0 0 0 .044.045zm.482-.4c.142.032.032.38.176.4.076.01.151.016.227.018-.138.139-.272.321-.446.337-.145.013-.046-.334-.176-.4a.268.268 0 0 0-.007-.003c.034-.146-.043-.413.226-.352zm1.93.267c.128-.002.257.01.386.027.011-.053.01-.097-.035-.116-.214-.095-.513-.094-.702.044a.31.31 0 0 0-.073.078c.142-.018.283-.032.424-.034zM51.756 27.51a.075.075 0 0 1-.05-.017.07.07 0 0 1 .05.017zm4.962-5.7a.447.447 0 0 1-.116-.018l.04-.027zm.9.638c-.13.074-.241.197-.297.026zm.229-.019l-.229.02c.073-.041.15-.067.229-.02zm-1.886-.622c-.088.045-.175.178-.22.311.045.045.088.09.088.222-.373-.075-.016-.472-.036-.671.055.036.109.074.164.107a.11.11 0 0 1 .004.031zm-2.149-8.794c.175-.222.439-.089.526.089 0-.222.307-.489.439-.222-.263.355-.658.533-.965.133zm-7.335-3.906c.15.008.31-.001.362.13zm-.252-.091l.252.09c-.102-.005-.199-.018-.252-.09zm-.614 5.507c.175.045.307-.044.35-.178-.087-.31.045-.532-.13-.843.35-.311.218.755.7.355-.043.266 0 .4.045.533-.351.089-.746.444-.965.133zm.658-2.176c.131.133.438.044.394.444zm-6.754 15.368c.044-.533.307-.134.395.044zm7.719-15.324c-.168.085-.229.062-.307.057zm-.307.057l-.176.032a.369.369 0 0 1 .176-.032zm.964 1.72c-.295.133.048.34.093.622h-.005a.422.422 0 0 0 .005.005.385.385 0 0 1-.093.305.538.538 0 0 1-.438-.222c.131 0 .175-.088.22-.222-.176-.222-.352.222-.352-.222 0-.177.263.045.351-.222-.22-.133-.307.089-.438-.222.175.045.57-.133.657.178zm-.789 2.487c.263.178.044-.444.22-.4-.045.311.13.222.13.444-.043.09-.35.267-.35-.044zm.965-7.329c-.044-.266.175-.177.22-.31-.089.355.262.044.218.31-.175.267-.219-.044-.438 0zm-1.272 6.53c-.044-.222.088-.222.132-.311-.044 0-.132 0-.132-.09.044-.088.35-.266.35 0-.218.045-.087.667-.35.4zm.482-.178c.307.044-.087-.267.22-.311.087.133.044.489.131.622-.219 0-.394 0-.35-.311zm-.394-1.155c0 .045.044.089.087.089 0-.133 0-.267.132-.222.044.266-.175.71-.307.4.22 0-.175-.356.088-.267zm-.263-.8c-.088.045-.176-.044-.22-.088v-.222c.088.089.22-.311.263 0-.087.044-.087.177-.043.31zm.264 2.719c.025-.143.053-.276.174-.276zm-.22.346l.22-.346c-.03.166-.055.346-.22.346zm-.395-1.155c.087-.044.087-.088.087-.222.132.045.22.09.264.222-.044.09-.351.267-.351 0zm3.245.267c.351-.178.482.31.658.089v.31c-.307-.044-.439-.177-.526-.221.043 0 .087 0 .087-.09-.087 0-.219.045-.219-.088zm.702 2.843c.263.089.307-.09.395-.222-.044.31.131.266.087.533-.22 0-.35-.09-.482-.311zm-2.632-3.198c.395-.045.439.4.746.133 0 .133.132.133.088.31-.263 0-.351-.044-.658.09 0-.178-.132-.267-.176-.533zm4.386.088c-.175.09-.35.09-.526-.088zm-12.894 13.77c.132-.445.877-.489.833-.045zm8.908-14.608v-.005c.345.041.26-.31.521-.09.132-.088-.043-.621.22-.532.087.222-.22.355 0 .444.087 0 .044-.178.131-.222-.087.355.307.444.307.31 0-.044.044-.088.088-.088-.13.662-.997.447-1.267.183zm2.232-2.093c-.088-.488.175.178.131-.31.044.088.527.088.351.221-.263-.089-.307.178-.482.089zm-1.755.222c.088-.044.088-.089.088-.222-.482.089-.92-.044-1.272-.222.483-.089.746-.31 1.228.133-.044-.133-.044-.266.088-.31 0 .266.263.221.439.221 0 .311-.439.533-.57.4zm4.43-3.287c-.088.311.088.4-.175.533 0-.222-.132-.266-.132-.533zm-.526 3.154c.307.044.702-.044.745.31zm-1.009.533a.333.333 0 0 0-.22.089c-.13-.356.22-.4.132-.844-.175-.045-.263 0-.35.089-.044-.4.306-.222.35-.444-.044 0-.131 0-.131-.09.35-.177.131.534.438.4 0 .445-.438.267-.219.8zm-35.258-4.83c.145.117.374-.063.217.255zm-.046-.056l.046.056a.205.205 0 0 1-.046-.056zm4.692-1.688c-.175-.355-.614.134-.438-.488.175.4.263-.09.526-.178-.307.444.131.4-.088.666zm.702.134c-.088.222-.22.31-.307.177 0-.222.175-.266.307-.444.263.31.35.355.57.666-.22-.044-.702.134-.57-.4zm-.307-2.177c.22 0 .438 0 .35.311zm-.263 5.419c.394.222 1.272.222 1.315.844zm2.807-2.132c.087-.267.087-.533.131-.755.176.178.088.533.088.844zm1.724 9.853c.079.043.171.076.074.274zm-.058-.215l.058.215c-.063-.035-.116-.077-.058-.215zm-3.29-11.46c.132-.621-.175-.354.308-.577.088-.266-.307.09-.088-.31.132.044.263.133.263.266-.131.31-.263.533-.482.622zm1.141 7.019c.044-.134.044-.223.044-.311.526-.045.746.444.439.755-.088-.222.043-.222 0-.355l-.132-.045c-.132.178.044.444-.132.4.088-.267-.219.222-.307.089.044-.178.22-.222.132-.311-.614.355-.79-.4-1.228-.533.132-.133.22-.533.395-.4.219.044-.263.222-.044.31.131-.088.263-.354.482-.132-.219.266-.175.355-.087.533.131-.09.35.133.438 0zm-1.403-.178c-.132-.267-.307-.089-.527 0-.087-.4.088-.489.132-.977.088.31.614.044.702.444-.176.133-.395-.044-.57.089.043.31.394.133.263.444zm1.815-2.191c.18.06.406-.093.334.237zm-.105-.074l.105.074a.22.22 0 0 1-.105-.074zm-4.342-.755c.132-.267.307-.533.176-.622-.176.089-.57-.045-.307-.4.35-.089.395.267.614.355 0-.044.044-.088.088-.044-.395.178-.176.844-.57.71zm1.316-1.733c-.088 0-.175.223-.263.356-.175-.045.044-.356.088-.533.087.044.219.044.175.177zm.132-3.997c-.22.355.175.355.175.577-.088 0-.175.045-.263.09-.088-.134-.22-.534.088-.667zm-.658 5.774c-.088-.31-.57 0-.22-.577.307.133.57.088.658.222-.131.089-.307.133-.438.355zm3.114-3.287c.131-.177.219-.4.35-.31l-.175.4zm4.824 9.772c-.132.089-.263.044-.439 0zm-1.316-3.331c.088-.223 0-.311-.044-.445h-.088c.176-.222.57-.177.614-.088-.087.31-.307.266-.482.533zm-.132-.444s-.043 0-.043.044v-.044h.043zm.527-1.066c.175.044.22-.267.395-.223 0 .223.131.356.131.578-.263-.089-.482-.178-.526-.355zm-3.64.044c.044-.4-.132-.178-.176-.089.044-.31-.307-.31-.35-.133.087-.533-.79-.089-.483-.666.614.4 1.447.31 1.886 1.021-.395.045-.526-.4-.877-.133zm4.166-2.71c.22 0-.22.49-.307.667.132-.533-.307-.178-.395-.489.176-.31.351-.355.57-.355-.043.444-.263-.045-.306.355.131.089.263.045.35-.089-.043-.044-.043-.089 0-.222.264 0 .702-.222.614.311-.087-.044-.35-.355-.526-.178zm-.549 8.358c.204.062.513.038.55.26zm-.109-.052l.11.052a.345.345 0 0 1-.11-.052zm.263-4.53c.132.178.351-.044.263.4zm-1.973-5.33c.175.044.088.31-.044.577zm.824 1.412c-.154-.06-.559.076-.298-.302zm.053.054l-.053-.054c.027.01.046.027.053.054zm-1.71 3.064c.131-.177.175-.133.438-.266.22.355 1.228.444 1.667.488a.72.72 0 0 0 0 .533c-.483 0-1.228-.355-1.58-.755-.218.444-.35-.177-.525 0zm.306-3.508c.044-.267-.263.044-.175-.311.176.088.263-.134.439-.134-.088.178-.176.178-.22.356 0 0 0 .089-.043.089zm1.535-1.066c.22 0-.263-.223.044-.311-.043.222.22.177.176.4-.044 0-.263.177-.22-.09zm-.307-.134c.088-.089.307-.044.22.222zm21.71 9.239c0-.222.043-.311.219-.311.044.089 0 .222.088.222.087-.044.131-.178.131.089-.22-.089-.307.222-.438 0zM14.034 1.954c.395-.266.044-.31.307-.577.22-.089.132.133.132.266-.176.178-.307.311-.439.311zm-2.456 9.106c.132-.045.57.088.307.355zm-.513-6.374c.127-.184.166-.422.382-.422zm-.1.111l.1-.111a.527.527 0 0 1-.1.111zm4.297 15.945c-.132.356-.526.178-.307-.133zm-.579-12.205c.105-.139.21-.293.316-.32zm-.21.213l.21-.213c-.07.092-.14.177-.21.213zm.526 2.043c.088-.31.57-.044.307.178zm-3.816 9.105c-.131.09-.482-.088-.35-.355zm4.255-9.949c-.088-.177.306-.977.438-.71zM9.09 20.58c.192.062.463-.045.426.252zm-.1-.059l.1.06a.24.24 0 0 1-.1-.06zm.482.445c.22-.09.482.222.526.444zm-6.081-4.45c.32.341.95.63.73 1.074zm-.147-.214l.147.215a.7.7 0 0 1-.147-.215zm7.237 4.13c.087-.044.482.267.57.445-.263.222-.307-.445-.483-.045-.131-.044-.131-.133-.175-.222zm-.044 2.354c-.351 0-.132-.666-.395-.222-.088-.533-.658-.444-.702-.932.22-.178.22.488.483.044.175.489.745.577.614 1.11zm.088.134c.35-.622.745.4.219.355-.132-.222.307-.178.131-.4-.131-.044-.219.178-.35.045zm11.578-7.373c-.307.044-.351-.09-.702-.178zm-.813 3.215c.158.109.63.043.462.382zm-.02-.017l.02.017a.142.142 0 0 1-.02-.017zm.789-4.93c-.044.133-.132.266-.044.31l.263.09c0-.267.088-.178.132-.534.131.444.877.222 1.14.578-.395-.09-.132.31-.044.31.351.09.22.09.526.311.439.311 1.184.311 1.184.622-.789 0-1.622-.4-2.368-.666-.79-.31-1.447-.577-1.886-1.021.307 0 .702.532 1.097 0zm.614.266c-.132.044-.351.133-.263.355zm-1.798.489c.131-.134.438-.223.263.222-.395-.311-.044.31-.307.31.044-.133-.088-.133-.044-.266.175.044-.044-.178.088-.267zm5.131-1.555c.132 0 .526-.133.439.355-.176-.133-.22.09-.395-.044 0-.178-.044-.222-.044-.311zm.263 3.02c-.307 0-.658-.089-1.009-.444zm-7.894-6.662c.263.089-.22.577-.307.533zM16.05 21.275c.176.045.088.223.132.311.22.045.307-.088.263.222-.131-.044-.263.09-.438 0 .044-.177-.044-.31.044-.533zm-.087-1.288c.35.222.877.356.92.711zm12.762-7.728c-.263-.044-.833.089-.877-.355.395.088.57.044.92.044-.043.133.045.178-.043.31zm-3.29 1.51c.132-.044.746-.089.44.178zm-6.578-2.62c.176-.223.527.133.527-.311.087 1.021.877.355 1.49.888-.175.577.132.622.22.933-.614.088-.746-.667-1.36-.533.044-.178.22-.178.132-.267-.35.355-.395-.266-.702-.355-.175 0-.35.222-.526.31 0-.266-.22-.399-.439-.488.22-.488.44-.355.658-.355.088.044-.044.178 0 .178zm-.92.044c.13-.311.087-.178.263-.444zm-.527-.178c.132-.4.482-.177.22.133zm25.656 7.107c.395.133.614-.045.79.266a2.62 2.62 0 0 1-.834.267zm.702-.222c.088-.4-.351-.133-.263-.533.175-.222.482-.09.745-.09-.043.134 0 .223.044.312-.22.089-.307 0-.526.31zm-1.248-1.734c.195-.018.396-.223.327.09zm-.156-.043l.156.043a.206.206 0 0 1-.156-.043zm2.193-2.487c.044.444-.833.355-.79.089-.087 0-.043.222-.13.222-.044-.09 0-.356-.176-.311 0 .178.088.266 0 .31 0-.266-.176-.266-.263-.132.044-.267-.22-.223-.088-.622.347.22.737-.17.873.338-.068-.292.355-.246.355-.072-.088-.044-.307.222-.132.222.264-.089.439-.31.834-.266-.132.533.087.222.131.621-.35.09-.263-.4-.614-.4zm-3.99 1.954l-.044.4c-.132-.089-.395-.089-.395-.356.175 0 .22-.177.438-.044zm.001-1c-.243.055-.454.267-.484-.155zm.35.112l-.35-.112a.329.329 0 0 1 .35.112zm-.79-2.887c.35.133.745-.489.877.177-.22.045-.307-.044-.614.045.175-.4-.483.089-.263-.222zm-2.325 18.21c0 .223-.044.489-.219.489zm.614-11.503c-.482-.134-.394.4-.307.71-.614.4-.087-.977-.701-.844.219-.622.964.045 1.008.134zm2.062-1.11c-.702-.934-1.623-.223-2.5-.756.088-.533.35-.133.526-.133.746.089 1.623.089 2.237.222-.132-.222-.176-.755 0-1.155.087.444.965.533 1.052.311.044.355.176.577-.131.71.087-.4-.834-.577-.834-.044.088.444.79.222 1.053.178-.175.489-.044.8-.35 1.022.262-.445-.264-.4-.089-.756-.087-.044-.087-.088-.131-.133-.132.533-.614-.044-.614.578-.044-.134-.088-.222-.132-.311-.044.222.176.355-.087.266zm.35-3.021c.132-.71.615 0 .746-.666-.044.4-.088.355.044.621-.307-.088-.482-.133-.79.045zm4.255-.933c.043-.089.482-.444.35-.178-.087 0-.043.311-.131.311.044-.31-.22.267-.22-.133zm-2.5 3.953c-.044-.355.263-.133.175-.533.351-.044.395.311.57.444-.131.134-.482-.044-.394.489-.307.089-.044-.533-.351-.4zm-1.886-4.353c-.088.045-.175.134-.175.311-.176-.177-.483-.177-.57-.488.438.4.877.089 1.14-.444.044.31.087.133.263.133-.088.444.395.533.526.355-.044-.089-.263-.044-.175-.31.482.221.92.932 1.228.177-.088-.044-.22 0-.22-.133.176-.09.351-.045.483.133-.263-.044 0 .178 0 .31-.263-.133-.22.267-.22.534-.219-.133-.175.133-.306.178-.044-.178-.22-.178-.308-.356-.131.489-.438.178-.394-.133-.22.089-.965.089-1.272-.267zm5.175-.4c.132-.754-.965-.666-1.184-1.287.307.133 1.052.044 1.535.266-.088.533-.044 1.2-.351 1.022zm-5.35-1.865c.35-.089.438.71.613.045.176 0 .176.177.395.133-.175.71-.833.355-1.009-.178zm1.666.222c.482-.044.877-.089 1.053.489zm-.438-.044c.087-.133.394-.133.394.133zm3.157 1.243c.044.445.483-.088.614.356-.702.266-1.272-.578-1.403.266-.044-.355-.088-.666-.307-.755-.746.622-2.193.09-2.72-.266.615.089 1.229-.09 1.623.31 0-.221.088-.355.22-.31.658.444 1.447-.4 2.236.31-.044.356-.263-.266-.263.09zm-.044-2.975c.22-.4.746.177 1.009-.267-.044.133 0 .222.044.311-.351.31-.702.089-1.053-.044zm1.14 6.928h.308c-.044.178-.044.445-.176.533.088-.355-.175-.222-.131-.532zM37.41 30.693c.131-.134.438.044.57.177zm.438-16.834c.176 0 .263.089.307.266zm1.097-2.31c-.044-.533.482-.133.263.045zm.833.311c-.088-.4-.132-.044-.22.089-.087-.267.045-.355.132-.533-.175 0-.307 0-.307-.222.263.178.57 0 .395.266.088 0 .132-.133.22-.177.13.177-.088.222.043.31.176.09.132-.221.22-.31.175 0 .175.177.394.133-.088.533-.658-.044-.877.444zm.175.755c.044.045.044.045.044.133-.526-.133-.614-.31-1.096 0 0-.31.131-.266.131-.532.351.088.439.177.746-.045-.044.311-.044.489.175.444zm.483 1.022c.22.044.131.266.088.533zm-1.71-2.932c.087 0 .613-.266.701.178zm.928.005c.139.076.517-.13.43.262zm-.008-.005l.008.005a.099.099 0 0 1-.008-.005zM30.54 9.96c.264.086.729.2.906.345zm-.146-.055l.146.055a1.122 1.122 0 0 1-.146-.055zm4.473 1.643c0 .045 0 .133-.175.09.087-.267.043-.4-.132-.356-.044.4-.088.266-.088.622-.087.133-.219.088-.394.044-.088-.71-.834-.622-1.36-.71 0-.356.22-.045.22-.4-.045-.045-.088-.045-.088-.134.263.222.482.045.701.045 0 .177-.087.4 0 .444.22-.133.22.178.351-.044-.088 0-.131-.09-.131-.223.087 0 .131-.177.219-.177.22.444.965.044 1.009.844zm-1.009 4.264c.088.045.22.133.22.267-.176-.09-.044.577-.22.488.088-.31-.35-.089-.219-.444 0-.178.175-.044.22-.178-.045 0-.088 0 0-.133zm1.842 7.906c.044-.177.088-.355.22-.4 0 .223.35.09.263.356-.088.089-.263.089-.483.044zm.088-10.216c.175-.088.395 0 .57.178-.263-.089-.482.222-.57-.178zm.307 8.528c-.307.045-.35-.177-.658-.177 0-.4.351-.222.57-.222-.044.177.176.133.088.4zm-2.544 1.466c.483-.133 1.184.578 1.316 0-.35-.222-.746.222-.965-.355.614-.045 1.14.222 1.71.444-.306.178.088.355.088.533-.79.4-1.052-.178-1.93-.178-.175-.177 0-.222-.087-.355 0 .178-.088.044-.132-.089zm1.842.4c.132-.355-.394-.267-.438-.178zm-3.178-13.328c.234.022.467-.075.59.27zm-.286-.13l.286.13a.436.436 0 0 1-.286-.13zm1.403-.8c-.044-.4.35-.355.35-.133zm-5.175-1.154c.044-.578.658-.356.57-.045zm.482 1.288c.132.133-.219.31-.087.533-.132-.134-.307-.533 0-.667-.088-.089-.088-.266-.22-.31-.044.221-.131.177-.219.266.22-.133.35.133.132.266-.044-.088-.264.09-.264-.31.044 0 .088-.134.132-.267.439-.133 1.316-.044 1.14.444-.087-.133-.35-.266-.614.045zm2.105 3.153c-.175-.044-.043-.444 0-.755zm2.895 1.51c-.132-.177-.307.4-.35 0l.13.045.088-.4c.088 0 .132.089.176.133zm-.307.444c.044.311.175-.222.307-.044-.132.267.088.222.044.444-.351-.177-.044.222-.263.267a.341.341 0 0 0-.088-.222c0 .044-.044.133-.088.088.088-.177-.087-.444.088-.533zm-1.053-1.643c0-.4-.087.311-.175.178-.22-.222-.395-.09-.79-.311.045-.133 0-.222 0-.311.308-.4.878.444.922-.311.263-.133.263.133.526 0-.088.4 0 .71.22.8.13-.445.218.044.482-.134-.132.444.307.444.438.311-.395.533-1.096-.133-1.535-.089.22-.222.044-.71-.175-.444-.044.133.35.222.087.311zm4.825-1.022c-.132.222.131.4-.044.4 0-.31-.176.311-.263-.044.043-.222.087-.489.307-.356zm-.535-1.523c-.265-.426-.74-.212-1-.564.219.044 1.184-.044 1.184.31-.212-.128-.26.117-.184.254zm.008.013zm-.263 1.732c-.438-.088-.833-.044-1.052-.4zm.462 5.975c-.05.03-.106.044-.155-.023zm.152.022l-.152-.022c.083-.05.152-.145.152.022zm-.087-7.329c.175.045.263.222.394.045-.175.621.307-.045.351.355-.22.089-.79.133-.746-.4zm-2.081 10.461c.185.04.458-.041.458.154zm-.068-.023l.068.023a.28.28 0 0 1-.068-.023zm4.297-10.305c-.043 0-.087.178-.087.311-.351 0-.132.356-.395.489.088 0 0 .177.088.222.088.044.088-.178.175-.178 0 .133.088.133.176.133-.307.578 0 .533-.351.711-.307-.4-.746-.266-.79-.844.614.045.79-.755.834-1.066.044.311.307-.177.35.222zm-4.385 11.016c-.22.888-.132.31-.395-.045zm-.395-2.71c.044.267.176.355.395.267 0 .177.088.266.088.444-.351-.045-.483-.222-.878-.222.088-.267.264-.356.395-.489zm-.032-1.084c.15-.029.306-.17.34.063zm-.143-.026l.143.026c-.05.01-.1.007-.143-.026zm0 4.086a.232.232 0 0 1-.031-.135zm-.031-.135l-.1-.442c.28.071.11.257.1.442zm-.003-8.745c.308.08.781-.132.955.263zm-.01-.003l.01.003a.432.432 0 0 1-.01-.003zm.188 7.633c.113.056.302.08.338.229zm-.057-.038l.057.038a.208.208 0 0 1-.057-.038zm-.087-6.13c0-.044.044-.133.087-.088 0 .177.132.088.22.044-.044.133 0 .222 0 .311-.176.178-.132-.044-.351-.044 0-.045 0-.134.044-.223zM28.6 27.65c-.206-.092-.7.04-.577-.334zm.037.021l-.037-.021a.186.186 0 0 1 .037.021zm1.798-12.525c0 .488.395-.222.439.31-.088 0-.132.09-.175.178-.132-.088-.527-.31-.263-.488zm-2.368 0c.088-.311.22-.578.439-.622zm4.561 3.909l-.043.31c-.132-.088-.307-.266-.483-.088.088-.356.35-.178.526-.222zm-1.578 9.238c.043-.266.219-.222.35-.222 0 .133.088.133.044.311zm1.93 2.932c-.176.133-.396-.134-.483-.311zm-.264-2.62c-.482.132-.877.043-1.14-.312zm.263 1.82c0-.178-.263-.089-.22-.4l.308-.266c0-.133-.132-.089-.132-.222.395-.089.088.444.439.4 0 .355-.307.266-.395.488zm-3.64-11.504c-.307.045-.614.622-.833.09zm-.965-3.109c-.175-.044-.263-.133-.175-.4zm2.061 12.17c.132-.177.702-.044.527.311zm.614-3.553c.044.31.044.622.044.977zm1.404-6.796c.263.444.877.045.92.8-.832-.4-1.753-.489-2.981-.8.57-.666 1.666.71 2.06 0zm.482 7.373c.132-.089.527.045.439.4-.132-.044-.176 0-.263.044 0-.133.044-.266-.044-.31-.044.133-.132 0-.132-.134zm-4.912 5.641l-.087.311c-.439-.4-1.01.045-1.404-.533.57-.222.79.355 1.491.222zM26.73 16.033c.174.066.372.123.505.312zm-.285-.176l.285.176c-.113-.043-.216-.09-.285-.176zm0 14.568c-.087.089-.263.089-.438 0zm-1.36-9.346c.282.144.832.084.79.463zm-.043-.026l.044.026a.42.42 0 0 1-.044-.026zm.526-2.887c.088-.31 0-.666.307-.577zm4.561 9.55c-.043.222.044.266 0 .444-.526-.267-1.008-.045-1.14-.578.263-.088.658.09 1.14.134zm.61 3.001c-.191-.057-.522 0-.522-.203zm.048.019l-.049-.019a.296.296 0 0 1 .05.019zm-5.394-.355c-.263 0-.35.4-.658.355-.044-.267.044-.178.044-.533.22-.133.57.089.614.178zm3.451-.916c.15.067.357.07.19.383zm-.118-.24l.118.24c-.084-.037-.15-.095-.118-.24zm-.965-10.393c-.175-.044-.175-.266-.263-.4.22-.044.395 0 .482.223-.087 0-.131.089-.219.178zm.987 12.326c-.055.067-.11.133-.241.067zm.241-.067l-.241.067c.055-.067.11-.133.241-.067zm2.005-.8a.247.247 0 0 1-.119 0zm.407 0h-.407c.111-.024.21-.1.407 0zm10.35-1.82c.088 0 .088-.089.176-.089 0 .577.614-.178.614.355-.22.222-.702 0-.877-.133.088 0 .131 0 .088-.133zm1.185 2.532c-.176.177-.483.044-.57-.134zm-.044-2.221c.131-.222.702 0 .877.266zm-.483 1.11l.044-.4c.395.489.965-.177 1.272.489-.614.178-.702-.222-1.316-.089zm-.307-.4v.311c-.657-.222-1.096.134-1.666-.533.438-.089.965.178 1.666.222zm-.219 1.466c-.22.178-.614 0-.658-.266zm5.614-2.31c0 .267.044.4.087.533-.526.356-.789-.577-1.052-.133 0-.222-.044-.355-.132-.444-.044.133-.482-.044-.57-.133.746.044 1.097-.222 1.667.178zm.482 2.399c0 .133.132.133.088.31-.395.49-1.184-.088-1.71-.132.306-.667 1.008.133 1.622-.178zm-1.893-5.4c-.158-.01-.387.072-.387-.108zm.095.026l-.095-.027a.19.19 0 0 1 .095.027zm1.096 7.506c-.219.222-.35-.267-.482-.444zm-6.973-2.31c-.044-.666.57-.4.483.045zm5.79-.088c.043.088 0 .222.087.222 0-.134.132-.09.088.088-.22-.044-.176.222-.351.222-.088-.133-.088-.577.175-.532zm-12.017-6.485c-.22.089-.746.044-.439-.267zm2.587 2.487c-.22 0-.22-.178-.175-.444zm-.614-.178c.044-.133-.044-.133-.044-.31l.22.044-.044.31c-.132-.133-.307.267-.307-.044zm-.131-2.531c.482.133.789-.711 1.271-.178-.131 0-.131.133-.263.089 0 .133.088.133.044.31-.482-.266-.965.445-1.052-.221zm-.176 6.351c-.307-.089-.965.178-.702-.31zm21.972-13.991c.088.31.307-.133.351-.222-.088-.267-.438.089-.22.222zM38.681 31.269c.308.089.658.089.702.444-.131.178-.395-.089-.745-.044zm1.448 0c-.22-.044-.483 0-.483-.267zm.79-6.707c-.176.133-.659.089-.702-.178zm-3.816-8.128c.263-.178.657-.267.745.089zm1.403 14.88h-.044c-.307.444-.745.044-1.096 0 .22-.311 1.009-.267 1.14 0zm-.263-.445c0-.355.263-.488.088-.755.57.222.964.045 1.535.355-.395.445-.483.09-1.01.045-.13.133-.087.488-.218.622-.22 0-.263-.178-.395-.267zm-22.586-5.64c.395.222.438.266.877.4-.088.177-.175.31-.263.354-.132-.444-.79-.177-.614-.755zm-2.237.444c-.175-.178-.745-.178-.482-.489zm-4.386-3.376c.614.533.834.31 1.36.844a.723.723 0 0 0-.132.4c-.087 0-.175-.09-.219 0-.044-.889-.658-.178-1.052-1.022-.307.31.043.4.043.622-.175-.045-.263-.178-.307-.311zm3.158-4.753c-.438-.266-.92-.533-1.096-.932.394.089.79.577 1.272.666zm.483-13.59c-.176.177-.351.31-.483.266zm-.921 20.653c-.307-.134-1.71-.311-1.36-.889zm-1.053.977c.307-.267-.175-.533.22-.533-.088.355.219-.178.13-.267.308.267-.043.444-.087.933zm1.886-24.118c.175.133-.132.4-.263.622zm2.149 19.054c-.176-.044-.044.311-.307.222.044-.533-.57-.355-.614-.8.394.223.79.445.92.578zm-.57 4.087c-.132-.045-.307-.178-.132-.178.22.266.22.089.351.31-.132.267-.263.223-.439.267-.044-.266.044-.133.22-.4zM12.894.31L13.2 0c.088.178.131.266.395.222-.088.089-.132.178-.176.267-.131-.178-.307-.311-.526-.178zm.92 18.788c.323 0 .48.216.731.4zm.731.4l.322.177a1.287 1.287 0 0 1-.322-.176zm-.335 7.64c-.264-.09-.308-.667-.044-.711 0 .177-.132.4.175.444zM13.196 6.56a.194.194 0 0 1-.083-.032zm.268.101l-.268-.101c.103.014.199-.039.268.101zM2.588 16.034c-.483-.444-.965-.888-1.097-1.288zm-.264 3.51c-.219-.267-.701.044-.35-.445zM1.14 15.99c-.087.133-.131.222-.087.31l-.351-.31c.175-.133.92-.267.658.178zm1.184-1.6a.286.286 0 0 0 0-.266c-.087.045-.219-.044-.131-.133.175.178.35-.178.526.178-.175.133-.307.222-.395.222zm22.674 12.748c-.307-.044-.482-.222-.482-.488zM5.088 17.19c-.088-.355-.615-.044-.44-.622.22-.133.396.267.615.356zm2.236 3.82c.044-.044.088-.178.175-.133-.35.4.395.488.088.844-.307-.045-.482-.445-.57-.755.132.044.22.177.307.044zm-1.623-3.331c-.175-.134-.438-.267-.263-.489zm-1.36 2.398c-.043-.044-.13-.133 0-.266-.087-.09-.175.044-.262-.09.175-.354.57.179.263.356zm-1.14-1.599c.395.178.878.578 1.492 1.022zm4.386 3.776c-.175-.09-.307.133-.482-.09a.546.546 0 0 0 .175-.399c.22.133.351.267.307.489zm-6.933-5.6c-.313-.231-.654-.418-.654-.84zm.486.625l-.486-.625c.214.158.415.337.486.625zm20.305 2.368c.25.055.602.004.571.386zm-.218-.147l.218.147c-.098-.021-.181-.06-.218-.147zm1.096-1.955c.175-.355-.35-.044-.22-.444.308.045.483.222.57.578zm-.22 6.796c-.175.089-.526 0-.438-.266zm-2.411 3.02c.27-.068.447.027.65.124zm.65.124l.753.143c-.342.043-.56-.05-.753-.143zm.446-1.99c-.439.045-.833-.266-1.096-.399zm-.745-10.26c.087-.177.482.045.394.178zm.438 8.484c.132.045.264.1.395.156zm.395.156l.394.155a5.79 5.79 0 0 1-.394-.155zm2.631-3.176c.307-.089.351.133.614-.133-.088.222.044.355-.175.488-.088-.177-.439-.177-.439-.355zm1.009-3.02c-.263-.045-.351 0-.351-.356zm-1.447-2.221l.394.133-.131.311c-.176-.31-.395.31-.746-.044.044-.533.526.044.483-.4zm.745 11.193c-.263.089-.614-.045-.57-.4zm-.482-8.128c-.22-.09-.263-.356-.088-.489zM18.77 28.16c-.22-.089-.527-.133-.439-.4zm29.12 1.11c0-.355-.438-.71 0-.755.044.133 0 .311.088.311h.175c.132-.266-.087-.355.088-.533.044.311.263-.178.307.222-.087 0-.175 0-.175.09.395.043.263.266.57 0-.22.354-.044.62-.263.754-.263.089-.57-.444-.79-.089zm-31.313-7.55c.088-.045.22 0 .395.088-.044.222-.176.356-.307.311.131-.222-.132-.222-.088-.4zm-1.36 4.22c.22-.09.526.221.614.399zm2.763-3.599l-.131.311c-.527 0-.877-.222-.746-.8.395.045.483.134.877.49zm-1.71 4.753c-.263.044-.307-.044-.307-.355zm.92-.844c.22.044.44 0 .703.178zm1.536-3.287c-.263-.178-.702-.089-.658-.533zm-2.895 3.864c-.614-.177-1.096-.4-1.666-.888zm1.93-14.657c.044.044.482-.178.263.266zm.702.355c.614.134 1.228.444 2.017 1.022.175-.222 0-.578.263-.444-.044.222-.088.488-.131.755-.395-.267-.834-.4-1.228-.578-.395-.177-.79-.355-.921-.755zm-1.01 10.527c.22.044.396.044.396.31zm14.298-6.84c-.175-.222.263-.267.088-.4-.22.4-.263-.533-.526-.133.131 0 .263.089.219.266-.22-.133-.57-.133-.614-.444.088 0 .088-.177.132-.31.307.221.394-.267.219-.4.263.177.658.888.92.533-.262-.045-.262-.311-.394-.489.132 0 .263.044.263-.178-.263-.222-.35-.089-.395-.488-.307.8-.526 0-.92-.089-.483-.089-1.01.178-1.229-.533-.438.533-1.14-.444-1.842.044.176-.4-.175.045-.087-.222.22-.133-.351-.4 0-.666.175.267.35.444.57.178.35.932 1.36-.045 1.666.666.264 0 .483-.045.702-.045.044.134-.044.4.088.445.175-.489.175 0 .395.089.219-.489 1.49-.134 1.535.222.131.044.131-.267.307-.134.131.222.394.667.131 1.022.044-.222 0-.355-.131-.355-.088.4-.176 0-.263.355.219-.178.482.133.306.266.044-.177-.263-.044-.307.045.176.089.264.266.439.31.307-.666.439.267.877-.577 0 .178.176.222.044.533-.175.09-.395.134-.439.578-.789-.267-1.052-.444-1.754-.09zm45.985-6.578c.148-.098.293-.212.196-.04zm-.242.049l.242-.05c-.12.08-.242.149-.242.05zm3.859-.489c-.175.045.044.444-.132.444 0-.4-.394-.089-.438-.444.175 0 .482-.222.57 0zm13.42 25.673c-.22.133-.263-.133-.395.089 0-.178-.087-.222-.131-.311.22-.045.482-.134.526.222zM81.836 8.972c.22.044.132-.31.395-.266 0 .577-.044.222.176.621-.132.134-.22.045-.483.178 0-.31 0-.222-.088-.533zm-3.596.489c.176 0 .307.088.395.266zm39.383 20.12l.064-.42a.45.45 0 0 0 .3-.01c.045.277-.212.768-.364.43zM94.818 34.29c.22-.133.132-.089.395-.089zm24.209-4.708c-.053-.16-.106-.304-.101-.413.031.037.065.071.101.102a.25.25 0 0 0 .19.048c-.064.09-.014.263-.19.263zm-19.21 3.953l-.394.09c-.088-.223.044-.223.088-.356-.351-.267.307-.045.307.266zM58.243 13.77c-.264-.044-.395-.267-.527-.489zm.131-1.599c-.088.266-.35.222-.57.044zm1.71 0c.088-.222.527-.044.658.044zm-3.771 1.288c.175.044.614.755.22.489.043 0 .087 0 .087-.09-.088-.088-.483-.221-.307-.399zm1.096-.222c-.35 0 .176.578-.175.622-.132-.311-.263-.178-.395-.311.088 0 .088-.222.132-.311.175.044.57-.31.438 0zm-.833.222c-.088-.266.307-.444.35-.222zM75.828 9.55c.22.267.526-.31.526.134.088-.222.307-.311.483-.4.175.31.35-.089.482.266-.658.223-1.14.311-1.403.311.263-.044-.307-.133-.088-.31zm-20.393 3.732c-.176.088-.527.4-.57-.09zm.175-.09c.044-.044.57-.177.57.178zm-.307-.133c-.044-.222-.175-.266-.175-.533h.35c-.175.578.615.134.395.4-.263 0-.394.089-.57.133zm.877 2.088c0-.311-.175-.311-.394-.311zm14.034-4.753c0-.533-.307.267-.438-.177.175-.178.263-.444.614-.4-.044.178.044.577-.176.577zm.79-.31c0-.356.263-.356.438-.49zm-3.29 0c.176-.045.22.222.264.4zm7.061.666c.176.044.351.177.483.266zm.527-1.2a.334.334 0 0 1-.028.022zm-.028.022l-.498.378c-.043-.557.242-.204.498-.378zm-15.76.378c-.176.09-.395.222-.702.222zm-1.185.578c0-.311-.394-.622-.57-.311.088.044.132.044.132.222-.176.044-.439-.222-.702.044.044 0 .088.045 0 .09 0-.223-.175-.179-.22-.4.57-.356.79-.09 1.448-.4-.132.266.132.621-.088.755zm1.535 2.176c.088.533-.438.267-.701.355.087-.4-.264-.577-.044-1.066.219-.044.307.045.394.178-.087.089-.307.133-.35.311.219 0 .307.266.438.4-.088-.311.176-.178.263-.178zm1.623-2.354c.263 0 .175-.444.395-.444.043.266-.132.31-.088.622-.132 0-.22-.045-.307-.178zm-1.754-.222c.35-.355.877-.489 1.272-.489-.044.311-.527.045-.483.444.439.045.79-.533 1.14-.266-.35.133-.614.489-1.184.489-.087-.667-.438-.223-.745-.178zm.613 13.436a1.333 1.333 0 0 1-.306-.156zm.308.155l-.308-.155c.11.044.22.089.308.155zM93.546 35c-.175-.444.351-.444.395-.089zM60.654 22.83c0-.044-.044-.133-.088-.089-.307 0-.307.311-.35.444-.045-.133-.133-.177-.176-.31.219-.267.087-.623.175-1.067.175-.044.175.178.395.09.088.354-.263.177-.22.443.044.178.395.444.264.489zm-6.447 9.016c0-.044.088-.133.088 0-.088.045-.088.09-.088.222h-.22c0-.31-.131-.222 0-.444.132 0 .132.178.22.222zm.307-1.021c.088.31.263.178.263.4 0-.045 0-.09.088-.09.087.4-.439.09-.483.312-.175-.222-.044-.578.132-.622zm-1.14.933v.31c-.527-.088-1.229.134-1.536-.266.44-.355 1.01-.044 1.536-.044zm-1.93-3.776c-.02.042-.042.084-.064.126a.574.574 0 0 1 .064-.126zm-.064.126c-.16.457.514.729.151.851-.043-.088 0-.222-.087-.222-.088.045-.132.134-.176.222 0 .222.22.222.307.4-.263.089-.35-.133-.614-.089.078-.51.258-.846.42-1.162zm-1.34.94a.263.263 0 0 1 .06-.026c-.009.026-.034.026-.06.026zm.06-.026c.006-.019.003-.051-.016-.107-.175.044-.22-.089-.22-.31.483 0 .571.177.878-.09.088.178.132.356.176.622-.201 0-.587-.186-.818-.115zm.817 2.869c-.219.044-.175-.267-.307-.4h.307zm4.255-.489c0-.4.614-.355.877-.355 0-.267-.132-.178 0-.4.57.267 1.052 0 1.535.267-.132.266-.263.044-.395.222.132 0 .263.044.307.178-.614.266-1.491.133-2.324.088zm8.2-6.929c.264-.088-.087-.31.176-.444.132.267.044.222.132.533-.088 0-.263.045-.307-.089zm-.262.489c-.351-.178-.263-1.288.087-.755zm-1.667-2.665c-.22.133-.35.089-.482-.178.126-.032.139-.226.235-.314.049.139.08.293.16.225a.347.347 0 0 0 .057-.062c.018.086.03.19.03.329zm18.77 10.793c.111 0 .214-.07.31-.13.107.028.218.048.33.06-.036.04-.063.09-.025.203-.22.09-.483.09-.614-.133zm.31-.13c-.255-.064-.489-.175-.66-.359-.175-.187.405-.353.658-.4.121-.022.793.205 1.134.13-.078.126-.148.33-.257.404-.044.03-.073-.185-.088-.134-.04.143.148.445 0 .445a3.91 3.91 0 0 1-.457-.025.647.647 0 0 1 .019-.02c-.102-.18-.219-.121-.35-.04zm-.09.796c-.088.134-.395.134-.439-.177zm1.447.489a.976.976 0 0 1 .921-.267c-.131.045-.307.045-.219.267.132-.044.526.133.35.266-.087-.222-.175.222-.394.178-.088-.4-.438-.266-.658-.444zm11.49.178c-.087.133-.262.133-.482.177-.044-.222-.131-.222-.175-.4.088-.177.482 0 .658.223zm-2.85.222c.22-.045.35.133.482.222zm-2.72-.667c-.087 0-.218 0-.218.134.175.044.92-.178.701.177-.219-.266-.745.178-.877-.177.176-.134.22-.622.395-.134zm-.35-.71c.088-.133.483-.133.526.222zM56.093 33c-.351 0-.746 0-.878-.31zm33.947 1.42h-.01l.004-.002.006.001zm0 0l.787-.043c-.072.183-.62.065-.787.042zm-29.962-2.875c-.182.042-.375.235-.345-.188zm.225.123l-.225-.123c.085-.02.169-.005.225.123zm3.07.622l.01.002zm.01.002l.823.175c-.475.044-.61-.127-.823-.175zm-1.282-.758c-.307.09-.22.09-.526.267-.132-.089-.264-.133-.264-.4.395.133.658-.222.79.133zm-5.044 1.51c-.263.134-.657.09-.745-.31zm1.362-1.57c-.148-.007-.616.176-.616-.25zm.042.016l-.042-.017c.021.001.036.006.042.017zm15.406.864c-.123.13-.178.363-.363.113zm.207-.064l-.207.064c.052-.055.116-.09.207-.064zm-3.465-.889c.022-.087.043-.153.065-.218a3.05 3.05 0 0 0 .505-.202c.056.003.125.009.22.02l.043.311c-.307.09-.438.222-.658-.044 0 .355-.482.444-.613.178.12 0 .02-.225.07-.296.02.016.04.03.061.041.085.092.196.135.307.21zm-20.393.178c-.658.266-1.447.044-1.93-.222zm24.735 1.555c0 .133.044.266-.044.31-.22-.177-.482-.133-.658-.044.088-.444.395-.222.702-.267zm1.886-.356c-.044 0-.088-.044 0-.089.175.356.745-.044.877.311-.351.178-.746.045-.965.045.088-.045.088-.134.088-.267zm-23.42-15.235a.104.104 0 0 1 .016.03.584.584 0 0 0 .072-.163c.027-.103-.264.009-.307-.089-.045-.103.02-.322.132-.31.28.028.56.186.745.4.074.084-.019.31-.131.31-.108 0 0-.248-.088-.31-.064-.047-.147.057-.22.088.017.118-.163.355-.043.355.079 0 1.892-.546.877-1.288-.244-.178-.532.34-.833.356-.104.005.039-.215 0-.311-.065-.157-.374-.42-.527-.09-.074.162.075.372 0 .534a.28.28 0 0 1-.147.13c.169.101.334.206.454.358zm-1.107-1.873c-.035.05-.072.098-.107.147l-.058.001c.018-.06.05-.13.088-.14a.348.348 0 0 1 .077-.008zm16.94-2.524c-.012.045.104.007.131.045.009.011.01.025.01.039.119-.056.313.026.385-.084.052-.078-.188-.089-.22-.178a.555.555 0 0 1-.03-.189c-.071.096-.247.259-.276.367zm.657.444c.03 0 .06.005.088 0 .074-.01.149-.02.22-.044.02-.007.022-.044.043-.044.021 0 .04.024.044.044a.27.27 0 0 1 .003.086c.01-.005.038.016.041.003.043-.175.206-.398.088-.533-.101-.115-.352.007-.439.133-.064.093.101.203.132.311.004.014-.03-.002-.044 0-.074.012-.145.036-.22.044l-.028.004c.023.003.048-.004.072-.004zm.351.311c-.006.014-.004.03 0 .045.026.09.01.216.088.266.111.072.336.163.395.045.056-.114-.21-.143-.307-.222a.747.747 0 0 1-.132-.134c-.009-.012 0-.03 0-.044-.004.02-.035.026-.044.044zm-.175-.977c.055.019-.076-.043-.163-.1.052.042.105.08.163.1zm54.18 11.089a1.585 1.585 0 0 1 0 0zM88.9 32.773a.704.704 0 0 0-.002.05c0 .021-.053.064-.044.045l.046-.095zm-4.256.406c.078-.036.213-.192.132-.222-.193-.071-.447.163-.614.044-.108-.076.29-.289.175-.355-.148-.086-.411.022-.482.178-.063.138.299.27.22.4a.12.12 0 0 1-.022.024c.204-.01.45-.004.591-.07zm-2.668.45a.835.835 0 0 1-.44.17c.129-.125.231-.218.258-.22a.314.314 0 0 1 .182.05zm-1.147.838c-.138-.233.349-.444.394-.71.042-.242-.596-.362 0-.578.984-.356-.155.601.132.622.063.004.124.004.181-.002-.28.274-.688.7-.707.668zm-5.55-2.654c.046-.125.077-.275.155-.366.507-.587.145-.007-.155.366zm-.187.21c-.073.067-.116.077-.093-.022a.111.111 0 0 0 .093.022zM58.24 29.98c-.048-.098-.016.165-.049.327.045-.117.09-.243.05-.327zm-4.517-2.62c.062.02.124.049.176.088.012.01-.005.03 0 .045.01.031.02.065.044.088.051.053.123.081.175.134.023.023.01.089.044.089.042 0 .053-.066.088-.09.012-.007.029 0 .044 0 .029 0 .061-.013.087 0 .013.007-.01.035 0 .045.01.01.04-.014.044 0 .014.042.023.095 0 .133-.07.117-.237.178-.263.311-.015.078.144-.114.22-.089.089.03.082.204.175.223.06.012-.004-.14.043-.178.046-.037.117 0 .176 0 .014 0 .033-.01.044 0 .01.01-.015.042 0 .044.173.03.35.026.526.045.103.01.204.044.307.044.046 0 .087-.033.132-.044.014-.004.036-.013.043 0 .085.142.058.411.22.444.13.026-.125-.447 0-.4.199.076.14.498.35.533.164.028-.127-.328-.087-.488.017-.072.114.092.175.133.027.018.06.028.088.044.074.043.177.06.22.133.067.119-.035.339.087.4.096.049-.01-.267.088-.31.284-.126.615-.08.92-.134.033-.006.058-.057.088-.044.087.037.136.22.22.177.093-.047.007-.212.044-.31.011-.031.06-.027.087-.045.018-.012.03-.06.044-.044.119.135.129.418.307.444.132.019-.132-.42 0-.4.247.039.322.459.57.489.145.017.053-.322.176-.4.07-.045.147.099.175.177.05.14-.103.468.044.445.247-.039.399-.319.526-.533.032-.054-.112-.074-.131-.134-.015-.044.002-.154.043-.133.159.08.22.248.264.4.016.059.05.117.043.178-.009.093-.136.187-.087.266.056.09.204.119.307.089.057-.017 0-.119 0-.178v-.044c0-.045-.009-.09 0-.133.006-.033.054-.058.044-.09-.01-.03-.075-.014-.088-.044-.035-.083-.031-.177-.044-.266-.002-.015-.015-.046 0-.045.177.015.354.046.526.09.015.003-.012.036 0 .044.068.04.151.049.22.089.036.02.058.059.087.088.03.03.065.054.088.09.008.011-.013.037 0 .044.026.013.059-.003.088 0 .336.027.674.044 1.008.088.015.002-.01.055 0 .045.061-.056.115-.12.168-.184-.112-.159-.026-.496-.211-.571-.166-.067.2.446.043.533-.268.15-.68.147-.92-.045-.087-.07-.06-.181-.015-.302-.04-.087-.055-.278-.117-.23-.106.08.014.267 0 .4-.002.014-.03.006-.044 0-.047-.025-.085-.064-.132-.09-.085-.048-.188-.069-.263-.133-.118-.102-.158-.305-.307-.355-.085-.03.1.195.044.266-.046.059-.176.016-.219-.044-.09-.126-.023-.335-.132-.444-.056-.057-.035.161-.087.222a.37.37 0 0 1-.22.133c-.052.007-.108-.041-.131-.089-.069-.138-.023-.334-.132-.444-.055-.056-.157.137-.219.089-.114-.09-.122-.265-.176-.4-.005-.014-.014-.044 0-.044.033 0 .063.023.088.044.049.04.074.157.132.133.074-.03.102-.144.087-.222-.046-.248-.12-.502-.263-.71-.035-.052-.122.07-.131.133-.023.162.044.325.044.488 0 .021-.032.028-.044.045-.061.082-.13.153-.088.266.059.155.141.299.22.444.01.019.026.033.043.045.086.062.183.11.263.178.012.01 0 .03 0 .044 0 .06.033.128 0 .178-.018.027-.061-.065-.087-.045-.053.04-.024.162-.088.178-.052.013-.056-.09-.088-.133-.012-.017-.037-.025-.044-.045-.009-.028.022-.069 0-.089-.278-.253-.519-.594-.877-.71-.132-.043-.121.256-.219.355-.03.031-.09-.01-.132 0-.02.005-.034.026-.043.044a1.704 1.704 0 0 0-.088.223c-.005.014.014.04 0 .044-.347.117-.688.344-1.053.31-.136-.012.206-.33.088-.399-.203-.117-.47.015-.702.045-.014.001.015.048 0 .044-.063-.016-.14-.034-.175-.089-.033-.05.046-.14 0-.178-.136-.113-.31-.26-.483-.222-.105.024.073.205.088.311.002.015-.03-.004-.044 0-.03.01-.058.03-.087.045-.03.015-.068.07-.088.044-.058-.073 0-.236-.088-.266-.079-.027-.104.134-.175.177-.018.011-.042-.024-.044-.044-.017-.154.141-.847-.482-.355-.085.066.072.204.087.31.002.015-.03 0-.044 0-.029 0-.059.005-.087 0-.06-.01-.15.01-.176-.044-.033-.068.008-.156.044-.222.04-.073.202-.099.175-.178-.27-.823-.34-.013-.35 0-.028.035-.124.043-.132 0-.043-.218-.074-.457 0-.666.051-.146.24.097.307.089.208-.026.427-.228.614-.133.167.084.04.404.175.533.12.112.321.114.483.088.054-.008.052-.088.072-.146-.25-.21-.376-.596-.686-.697-.26-.086-.517.247-.79.222-.118-.011-.062-.273-.175-.311-.075-.026-.012.196-.088.222-.1.034-.209-.132-.307-.09-.068.03-.016.15 0 .223.058.256.157.5.22.755.005.02-.03-.03-.044-.044-.015-.015-.044-.024-.044-.045 0-.014.051.013.044 0-.12-.214-.178-.507-.395-.622-.16-.084-.491-.044-.526.134-.032.16.383-.041.482.089.073.094-.087.23-.175.31a.244.244 0 0 1-.026.021c.05-.018.113-.035.157-.02zm7.982.755c.002-.033-.03-.059-.044-.09-.03-.073-.087-.142-.087-.221 0-.03.085.029.087 0 .015-.178.026-.37-.043-.533-.031-.073-.14-.09-.22-.09-.041 0-.096.049-.087.09.025.13.125.233.175.355.053.13.084.268.132.4.01.03.04.056.043.088.004.033.013.07.023.108a.469.469 0 0 0 .021-.108zm-5.35-.978c.018-.01.025-.034.044-.044a4.396 4.396 0 0 1 .36-.18l-.053.002c-.015 0-.044.015-.044 0 0-.12.115-.26.044-.355-.061-.082-.25-.085-.307 0-.11.16-.035.39-.088.577-.009.032-.057.032-.088.045a.52.52 0 0 0 .132-.045zm.658-.089c.022.01.084.039.163.07-.039-.044-.079-.093-.12-.114a1.266 1.266 0 0 0-.263-.089c.077.039.142.097.22.133zm.701.134c.088-.1.06-.28 0-.4-.035-.071-.012.197-.087.222a.306.306 0 0 1-.22-.018.305.305 0 0 1-.077.186c.157.048.325.078.384.01zm-4.74.575l.004.002a.106.106 0 0 1-.004-.002zm-.873-.398c.1.038.123.21.087.311-.048.138-.17.362-.307.311-.142-.052-.036-.39-.126-.47.103-.002.234-.193.346-.152zm7.941-2.235c.107.134.205.275.304.414.102.145-.326-.224-.351-.4-.004-.027.016-.027.047-.014zm.698.19c.071.027.149.055.22.091.07.036-.204-.011-.22-.089v-.003zm6.272-1.774c-.083-.006.243.129.175.177a.644.644 0 0 1-.203.095c.275-.01.556-.002.817-.05-.27-.036-.516-.203-.79-.222zm-1.864-.187a.284.284 0 0 1-.11.142.058.058 0 0 1-.012.005.204.204 0 0 1 .1-.138.129.129 0 0 1 .022-.01zm-.11.63c0 .02.007.045.016.073-.145-.284-.328-.558-.367-.872-.018-.15.201.356.339.316-.035.14.012.337.012.484zm.016.073c.026.05.05.1.072.15.025.056-.04-.058-.072-.15zm-1.06-.976c.015.072.01.17-.052.193-.1.038-.41-.06-.307-.089.118-.032.238-.069.359-.104zm-2.113-1.54c-.047-.047.022.051.066.153a.296.296 0 0 0-.066-.152zm-7.214.104c.081.14.174.278.153.43a.21.21 0 0 1-.076.126c-.038-.158-.12-.325-.1-.481a.275.275 0 0 1 .023-.075zm.653 1.37c.045.045-.01.281-.018.215a.785.785 0 0 1 .018-.215zm-1.991.792c0-.058.233-.002.175 0a2.826 2.826 0 0 1-.175 0zm-.965-1.377c-.223-.042-.707.044-.658-.178.055-.253.488-.249.746-.222.107.012.045.212.087.311.006.014.03-.005.044 0 .061.027.122.103.18.133a3.059 3.059 0 0 1-.4-.044zm-8.42-2.354c-.123 0 .009.199.059.36.005-.157.058-.36-.06-.36zm-2.91-.564a.685.685 0 0 1 .137.26c-.09-.055-.172-.117-.166-.184a.154.154 0 0 1 .03-.076zm.322.43a.632.632 0 0 1-.374-.018c.122.002.209-.036.189-.153.132.08.28.142.185.172zm-.374-.018c-.246-.002-.631-.165-.547-.159.183.014.367.106.547.16zm31.747-7.653c-.08.126-.159.252-.267.345a2.693 2.693 0 0 0-.072-.085c.066-.192.254-.493.34-.26zm8.925 20.06c.048-.077.1-.124.165-.094-.034.049-.092.078-.165.094zm-6.564-.308a2.08 2.08 0 0 0 .187-.21c-.039.106-.088.194-.187.21zm-22.326-9.55l.077.005c-.025.013-.05.009-.077-.004zm3.595 1.118c-.138-.009-.213-.124-.28-.254V23.3l.3.236a.67.67 0 0 0-.02.056zm7.846-10.355c-.042-.005-.027.046-.011.104.27.042.538.084.801.045-.233-.104-.536-.117-.79-.149zm0 .222c-.01.027-.067-.02-.088 0-.033.033-.002.112-.043.133-.042.021-.118 0-.132-.044-.022-.067.02-.162.035-.239l.217.032c.011.043.023.089.011.118zm-1.053.311c.118.131.481-.214.527-.044.057.213-.186.605-.395.533-.34-.119-.43-.62-.684-.862.189-.025.378-.058.567-.082-.09.133-.112.346-.015.455zm-.745-.489c-.13-.037-.237.045-.343.152a3.47 3.47 0 0 0 .536-.036.468.468 0 0 0-.193-.116zm-3.026.8c.064.032.132.04.203.036a.378.378 0 0 0-.122-.148c-.086.044-.145.08-.081.112zm-5.438.444c-.042.013-.061.047-.069.091a.445.445 0 0 1 .08-.093.091.091 0 0 0-.011.002zm4.906 2.263c.01.023.024.04.05.047.155.046.324.026.493.004a1.699 1.699 0 0 0-.543-.051zm.62.358c.196.014.698-.173.526-.267-.18-.097-.39-.067-.603-.04.084.044-.027.3.076.307zm-3.114 1.598c.01-.018.064-.046.044-.044-.149.017-.587.106-.439.09.131-.016.264-.028.395-.046zm6.403.667c.003-.02.044-.065.044-.044 0 .034-.043.073-.051.104a.738.738 0 0 1 .007-.06zm-.088-.755c-.08.307.7.312.263.533-.039.02-.088 0-.131 0-.015 0-.035.01-.044 0-.111-.126-.442-.3-.307-.4a1.67 1.67 0 0 1 .22-.137v.004zm.618-.193l.003.006c.128.1.264.195.385.301.076-.14.159-.27.047-.292a1.445 1.445 0 0 0-.435-.015zm.303.548c.006.094.081.222.176.222.086 0 .18-.151.131-.222a1.331 1.331 0 0 0-.222-.24c-.046.084-.089.171-.085.24zm.658-1.377c0 .012.002.027.005.043l-.004-.052a.048.048 0 0 0-.001.01zm-.395-.089c-.13.066.237.184.307.311.02.037-.062.057-.088.09-.032.04-.05.095-.087.132-.023.024-.07.072-.088.045-.116-.177-.084-.466-.263-.578-.107-.066-.358.107-.307.222.117.268.421.407.658.578.038.027-.053-.087-.044-.133.008-.041.065-.054.088-.09.036-.054.054-.12.087-.177.03-.05.116-.077.132-.133-.155-.035-.253-.338-.395-.267zm1.527-1.429a.46.46 0 0 1-.036.008c-.014.003.054.01.044 0a.202.202 0 0 0-.008-.008zm-1.13 1.509c.002-.016.01-.035-.002-.035l.001.035zm-.002.187c.046.01.018-.072.005-.135a.376.376 0 0 1-.005.135zm-5.114-3.548c.02.046.023.115.028.18.01-.08.017-.157-.028-.18z"/></g></g></svg>