<svg xmlns="http://www.w3.org/2000/svg" width="82" height="23" viewBox="0 0 82 23"><g><g opacity=".3"><path fill="#c12d30" d="M31.424 14.994c.029 0 .057 0 .057.057-.085 0 .114.484-.142.399.057-.2.028-.257-.057-.4.057 0 .057-.085.142-.056zm0 2.252c.143.028.257.114.457.2-.143-.172.086-.115.143-.2 0 .313.114-.171.2.057-.143.456-.857.142-.8-.057zm.543 1.14c.17.057.257-.029.37-.057.03.142.058.285.143.399-.2-.086-.542 0-.513-.342zm-6.622-.827c0-.114-.057-.142-.029-.285.143-.057.143.114.257.086 0 .2-.085.228-.228.2zm5.794 0c.143 0 .257.057.314.143zm3.082-2.822c.058 0 .115-.114.143 0-.085.086-.257.057-.285.2-.086-.171-.115-.114-.057-.342.142-.086.114.085.2.142zm-1.855 3.42c-.028-.199-.057-.056-.2-.056v-.2c.143-.028.086.143.2.143.029-.057 0-.143.057-.143 0 .086.086.086.057.2-.057 0-.085.057-.114.057zm-1.598-2.764c-.143-.143-.514 0-.542-.285.17-.057.114.114.2.142-.03-.285.285-.17.399-.114-.114 0 .057.171-.057.257zm5.737-.798c.028 0 .085 0 .085-.057-.057-.029 0-.114.057-.143.029.086.086.171.115.257-.058.085-.2.028-.257-.057zm-4.624 1.624c.086-.37.428-.028.6 0zm-3.939-2.423c-.143-.028-.314.172-.342-.085zm4.167 1.882c0-.2-.2-.171-.228-.342.143-.057.228.028.342.057-.028.142-.057.228-.114.285zm-.142.684c.142 0 .085-.114.2 0v.142c-.086.114-.058 0-.2 0zm.285 3.021c-.086-.028-.285.086-.314-.057.086-.114.057 0 .2 0 .028-.057 0-.142.057-.142 0 .028 0 .057.057.057zm4.66-5.385c.085.005.176-.002.192.112zm-.076-.012a.366.366 0 0 1-.189.067.429.429 0 0 1-.23-.077c-.012-.039-.055-.048-.055-.123h-.086a.067.067 0 0 1 .034.054.56.56 0 0 0-.262-.11c-.116-.008-.17.199-.285.199-.07 0 .009-.18-.058-.2-.05-.014-.102.04-.128.095a.456.456 0 0 1-.071-.18c-.006-.054.09-.066.114-.114.017-.034-.022-.083 0-.114.032-.045.135-.03.143-.086.007-.053-.104-.06-.115-.114-.011-.059.029-.118.057-.17.04-.073.07-.164.143-.2.046-.023.12.103.143.057.024-.048-.12-.06-.114-.114.007-.082.089-.138.142-.2.015-.016.058-.007.058-.028 0-.116.024-.26-.058-.342-.05-.051-.13.066-.2.085-.067.019-.424-.08-.2.257.041.06.15-.035.2-.086.022-.021-.028-.055-.028-.085 0-.01.02.003.029 0 .02-.007.042-.044.057-.029.045.045.094.108.085.171-.028.201-.279.332-.428.4-.094.042.074-.2-.085-.086a.49.49 0 0 0-.075.067c.015.015.03.037.046.047.029.019.055.041.086.057.008.004.019 0 .028 0h.057c.02 0 .057-.02.057 0 0 .097-.04.19-.057.285-.003.019 0 .038 0 .057v.028c0 .038.015.08 0 .114-.016.037-.061.054-.085.086-.034.044-.074.088-.086.142-.008.039.068.118.029.114-1.079-.086-2.143-.361-3.226-.37-.142-.001-.256.2-.256.342 0 .098.23.048.256.142.02.067-.18-.01-.2.058-.018.064.21.153.143.142-.172-.029-.373-.065-.485-.2-.052-.062.187-.061.2-.142.013-.08-.183-.129-.143-.2.043-.074.282.082.257 0-.043-.142-.198-.249-.342-.285-.065-.016.066.204 0 .2-.996-.057-1.998-.144-2.969-.37a.052.052 0 0 1-.037-.034.054.054 0 0 1-.02.033c-.084.066-.22-.058-.285-.142-.072-.093.02-.395-.086-.342-.12.06.104.387-.028.399-.419.038-.857-.088-1.228-.285-.118-.063.043-.309-.057-.4-.057-.05-.188-.004-.237.066a1.55 1.55 0 0 0-.077-.094c-.067-.077-.193.16-.285.114-.069-.034.185-.17.114-.2a.4.4 0 0 0-.4.086c-.052.053.245.132.172.143a.482.482 0 0 1-.371-.114c-.04-.036.157-.082.114-.114-.257-.197-.59-.274-.856-.456-.064-.044.17.079.228.028.064-.057-.056-.273.028-.256.1.02.046.209.115.285.031.035.095-.007.142 0 .534.078 1.07.152 1.599.256.018.004-.02.057 0 .057.034 0 .078-.023.085-.057.015-.065-.095-.197-.028-.2.253-.01.515.058.742.172.06.03-.055.237 0 .2.189-.13.257-.402.456-.514.075-.042-.085.257 0 .257.164 0 .364-.533.628-.37.098.059-.085.341.029.341.12 0-.002-.311.114-.342.105-.028.262.061.304.167.11-.081.224-.153.353-.195.068-.023.017.176.085.2.11.036.29-.161.343-.058.059.118-.234.214-.2.342.034.128.21.206.342.2.316-.015.64-.098.914-.257.077-.045-.139-.14-.229-.142-.184-.007-.38.203-.542.114-.112-.062.164-.217.285-.257.049-.016.008.155.058.143.085-.022.105-.142.17-.2a.131.131 0 0 1 .086-.028c.01 0-.005.02 0 .028.015.022.033.047.058.057.139.057.28.116.428.143.225.04.56-.136.685.057.099.153-.314.2-.428.342-.044.054.165-.117.2-.057.044.078-.165.3-.086.256.153-.085.17-.43.342-.399.166.03.046.347.143.485.04.056-.003-.166.057-.2.06-.033.135.08.2.057.088-.031.105-.2.2-.2.075 0 .13.064.184.126.055-.053.187-.05.187-.125 0-.082-.2-.061-.2-.143 0-.116.1-.343.2-.285.145.085-.026.485.142.485.21 0 .312-.295.4-.485.139-.3-.179-.296-.314-.256-.151.044-.27.2-.428.2-.07 0 .012-.2-.057-.2-.284 0-.545.222-.828.2-.121-.01-.11-.26-.228-.286-.26-.058-.533.039-.8.057h-.028c-.01 0-.028.01-.029 0-.009-.18-.117-.405 0-.542.081-.093.304.026.343.143.032.096-.33.2-.228.2.293 0 .563-.217.856-.2.544.032 1.066.458 1.598.342.279-.06.213-.533.371-.77.023-.033.054.061.086.086.043.033.089.062.136.09.032-.028.076-.062.064-.09-.031-.07-.134-.075-.2-.114-.03-.018-.06-.035-.086-.057a.966.966 0 0 1-.114-.114c-.014-.016-.007-.054-.028-.057-.28-.035-.554-.102-.571.285-.006.12.199.257.114.342-.077.077-.181-.15-.2-.257-.023-.134.149-.278.086-.399-.077-.147-.578-.184-.428-.256.277-.134.599-.103.913-.11-.012.04-.014.074 0 .053a1.56 1.56 0 0 1 .038-.054 1.8 1.8 0 0 0 .304-.032c.082-.016-.117-.064-.235-.062a.84.84 0 0 0 .091-.151c.112.11.275.216.373.299.042.035.038-.113.085-.143.04-.025.13-.045.143 0 .028.093-.147.321-.057.285.083-.033.174-.529.428-.427.19.075.382.195.485.37.057.095-.03.22-.036.331-.209-.01-.64.239-.649.24-.066.003.026-.139 0-.2-.025-.062-.076-.132-.142-.143-.34-.056-.144.308-.2.428a.18.18 0 0 1-.096.083c.11.065.217.133.296.23a.066.066 0 0 1 .01.019.373.373 0 0 0 .047-.104c.017-.067-.172.006-.2-.057-.03-.066.014-.207.086-.2a.773.773 0 0 1 .485.257c.047.054-.013.2-.086.2-.069 0 0-.16-.057-.2-.042-.03-.096.037-.143.057.011.076-.105.228-.028.228.196 0 .43-.067.542-.228.12-.173.189-.3.222-.393.066.099.15.182.178.108.092-.25-.099-.535-.057-.798.015-.097.048.23.142.256.125.035.256-.056.371-.114.02-.01-.05-.057-.028-.057.324.01.676-.05.97.086.1.046-.06.281-.171.285-.262.008-.48-.247-.742-.257-.076-.003-.057.178 0 .228.195.171.433.308.685.37.064.017-.065-.211 0-.199.314.061.577.286.885.371.258.072.072-.26.142-.285.09-.033.186-.052.283-.059-.018-.044 0-.124-.026-.17-.01-.016-.064.019-.057 0 .04-.098.09-.193.143-.285-.007.023-.009.044 0 .058.071.11.21.2.342.2.067 0-.063-.18 0-.2.137-.046.33-.048.429.057.09.097-.097.307 0 .399.142.135.418.02.57.142.09.072-.085.328.029.343.17.02.258-.305.428-.285.115.013.044.227.057.342.006.047.048.144 0 .142-.395-.02-.774-.2-1.17-.2-.077 0 .181.163.114.2-.185.103-.417.102-.628.086-.538-.042-.49-.407-1.113-.2-.073.024.182.164.114.2-.16.085-.38-.053-.542.028-.089.044-.077.186-.086.285-.002.027.083.05.057.057a1.878 1.878 0 0 1-.285.057c-.004.009 0 .02 0 .029v.028c.018.19.027.382.057.57.008.05.017.111.057.143.055.042.194.126.2.057.012-.144-.179-.255-.171-.4.004-.081.2-.06.2-.142 0-.108-.144-.163-.2-.256-.007-.012.016-.034.028-.029.091.036.18.203.257.143.09-.07-.09-.272 0-.342.144-.114.375-.16.542-.086.105.047-.047.257.029.342.048.054.13-.065.2-.085.027-.009.057-.004.085 0 .115.015.273-.036.343.057.06.079.012.266-.086.285-.177.033-.333-.18-.514-.171-.204.01-.404.108-.57.228-.042.03.006.144.057.142.216-.009.413-.2.628-.17.183.023.34.169.456.313.054.066.079.222 0 .256-.412.18-1.042-.046-1.313.314-.196.261.647.099.97.142.03.004.06.01.086 0 .033-.01.053-.048.086-.057.112-.03.258.023.343-.057.102-.096.02-.328.142-.399.082-.047.133.266.2.2.116-.116-.007-.35.086-.485.07-.102.287-.032.342-.142.025-.05-.647-.519-.057-.599.199-.027.39.156.514.314.045.057-.173.018-.2.085-.043.106-.012.235.029.342.021.057.192.079.142.114-.093.067-.25-.04-.342.029-.049.036.06.115.114.142.087.044.214.123.285.057.109-.1.068-.287.115-.427.009-.027-.027.075 0 .085.015.006.224-.007.17-.114-.009-.019-.054.05-.056.029-.03-.227-.175-.51-.029-.684.104-.125.374.03.457.17.06.103-.16.196-.171.314-.005.048.164-.072.142-.028-.063.126-.255.175-.285.313-.01.044.046.08.104.092-.025.056-.053.107-.104.136-.06.034-.12-.16-.171-.114-.097.087-.22.297-.115.37.12.084.255-.178.4-.17.213.012.421.346.6.228.178-.119.066-.414.08-.637 0 .003.002.007.005.01.019.019.03-.054.057-.057.058-.007.114.02.171.028.015.002.099-.009.086.029-.01.032-.068.027-.086.057-.041.07-.044.158-.085.228-.027.046-.145.07-.114.114.068.097.207.224.314.17.088-.044-.08-.185-.086-.284-.004-.06.03-.118.057-.171.004-.009.02.003.029 0 .02-.007.049-.049.057-.029.02.053-.055.19 0 .171.068-.023.03-.152.085-.2.036-.03.164.043.143 0-.027-.053-.117-.03-.171-.056-.024-.012-.036-.041-.057-.057-.002-.002-.085-.035-.086-.057-.008-.178.102-.395.033-.547l-.005-.004h.003a.214.214 0 0 0-.031-.048.104.104 0 0 0-.071-.034.574.574 0 0 1-.186-.28c-.043-.166.393-.117.428-.284.028-.133-.265-.131-.314-.257-.024-.064.112-.08.172-.114.022-.013.082.024.085.028.046.062.06.146.114.2.037.036.092.049.143.057.013.002.016-.032.029-.028.033.008.058.036.085.057.011.008.018.02.029.028a.241.241 0 0 0 .057.029c.009.003.024-.009.028 0 .018.035.007.08.029.114.007.01.015-.029.028-.029v-.028c.009-.086.054-.175.029-.257-.018-.058-.191-.077-.143-.114.143-.11.581-.004.514-.171-.07-.177-.414-.08-.57.028-.095.065.028.228.028.343 0 .009-.02.004-.029 0-.012-.007-.017-.022-.028-.029-.037-.022-.079-.034-.114-.057-.098-.063-.19-.135-.286-.2a.241.241 0 0 0-.057-.028c-.009-.003-.02.001-.029 0-.057-.008-.136.018-.17-.029-.04-.053.063-.218 0-.2-.13.04-.152.279-.286.286-.277.014-.522-.228-.8-.228-.076 0 .033.182-.028.228-.055.041-.195.012-.2-.057-.009-.127.081-.252.172-.342.03-.03.015.107.057.114.253.044.521.093.77.028.074-.019-.186-.172-.114-.2a.8.8 0 0 1 .57.03c.063.025-.064.142-.028.199.063.098.228.3.286.2.072-.126-.19-.256-.171-.4.01-.076.167-.074.228-.028.053.04-.067.201 0 .2.332-.01.647-.152.97-.229.038-.009.075-.028.114-.028.02 0 .038.01.052.023.06-.014.121-.044.177-.023.223.084.157.222.314.2.048-.007.118.013.142-.03.03-.05-.028-.112-.028-.17 0-.03.017-.058.028-.086.008-.02.015-.04.029-.057.063-.07.148-.12.2-.2.012-.017-.046-.044-.029-.056.114-.076.246-.118.371-.171.009-.004.02 0 .029 0 .01 0 .025-.01.028 0 .019.055-.012.13.029.17.049.05.131.05.2.058.013.001.016-.035.028-.029.02.01.022.037.029.057.06.18.108.363.171.542a.048.048 0 0 0 .029.028c.018.006.043-.013.057 0 .03.03.03.08.057.114.041.053.099.092.142.143.014.016.021.037.029.057.011.028.01.061.029.085.059.082.123.163.2.229.058.05.123.106.2.114.069.006.088-.213.199-.057.034.047.016.114.028.17.007.03.005.068.029.086.023.017.062-.016.086 0 .01.006.128.172.142.2.005.008-.004.02 0 .028.025.05.033.125.086.143.038.012.046-.092.086-.086.053.008.141.16.114.114-.056-.093-.131-.173-.2-.256-.017-.021-.04-.037-.057-.057-.05-.056-.09-.119-.143-.171-.007-.007-.022.006-.028 0-.007-.007-.006-.021 0-.029.015-.022.06-.03.057-.057-.018-.184.004-.4-.114-.542-.08-.095.038.267-.029.371-.032.05-.111-.064-.171-.057-.04.004-.066.12-.086.086-.047-.083.051-.233-.028-.286-.062-.04-.069.172-.143.172-.074 0-.098-.112-.143-.172-.013-.017-.017-.039-.028-.057-.008-.01-.031-.015-.029-.028.009-.05.083-.098.057-.143-.03-.052-.135-.008-.171-.057-.02-.027.063-.03.086-.057.036-.042.058-.094.085-.142.01-.019.018-.039.029-.057.017-.03.04-.056.057-.086.02-.037.046-.073.057-.114.018-.065-.034-.174.028-.2.057-.022.115.204.115.143 0-.102-.1-.183-.115-.285-.006-.042.032-.08.058-.114.005-.007.021-.006.028 0 .015.015.008.054.029.057.05.009.286-.041.228-.17-.031-.07-.182-.04-.2-.115-.037-.156.215-.622-.114-.74-.063-.024-.133.075-.143.142-.013.089.06.17.086.256.041.142.096.281.114.428.003.02-.04.015-.057.028-.032.025-.045.089-.086.086-.102-.008-.265-.215-.285-.114-.024.118.184.16.257.256.017.023 0 .057 0 .086 0 .057.012.115 0 .17-.008.034-.038.058-.057.086-.02.029-.042.055-.057.086-.033.064-.02.122-.086.17-.015.012-.05.018-.057 0-.055-.126-.07-.267-.114-.398-.006-.018.01.041 0 .057-.03.045-.074.15-.114.114-.084-.073-.074-.21-.115-.314a2.337 2.337 0 0 0-.085-.2c-.006-.011-.025-.015-.029-.028-.006-.018-.013-.043 0-.057.04-.039.192-.059.143-.085-.136-.074-.302-.086-.457-.086a.263.263 0 0 0-.2.086c-.02.026.112.034.086.057-.086.075-.2.151-.314.142-.069-.005-.015-.477-.257-.085a.365.365 0 0 0-.028.285c.01.036.097-.034.114 0 .019.038-.04.075-.057.114-.012.027-.018.057-.029.085-.008.02-.01.048-.028.057-.026.013-.066-.02-.086 0-.02.02.027.095 0 .086-.07-.024-.148-.072-.171-.143-.013-.037.114.011.114-.028 0-.094-.022-.238-.114-.257-.086-.017-.093.16-.171.2-.052.026-.114-.029-.172-.029-.02 0-.048.048-.057.029-.058-.126.017-.356-.114-.4-.113-.037-.227.015-.341.073.01-.123-.075-.253-.173-.329-.043-.034-.059.191-.085.143-.07-.13-.137-.54-.029-.713.016-.025.067.005.086.029.07.085.06.285.171.285.552 0-.3-.362.029-.428.177-.035.647.176.542.029a.403.403 0 0 0-.17-.133.826.826 0 0 0 .056-.01c.085-.019-.128-.205-.057-.257.1-.072.258-.024.37.029.07.033.04.216.115.2.282-.064.506-.283.77-.4.062-.027.16-.082.2-.028.068.092-.082.313.029.342.148.04.254-.178.4-.228.108-.037.236-.071.342-.029.106.043.114.266.228.257.192-.015.294-.296.485-.314l.02.001c.007-.016.019-.028.038-.03.062-.004.114.032.165.074-.005-.007-.004-.013.006-.016.137-.041.313-.057.428.028.113.085.011.347.143.4.142.057.349-.04.428-.172.059-.098-.238.075-.343.029-.006-.003-.469-.542 0-.542.18 0 .33.159.457.285.028.029-.12.066-.086.086.083.047.214.092.286.028.122-.108-.298-.516.257-.342.02.007.046.03.075.062-.021.06-.023.103.01.08a.405.405 0 0 0 .036-.026c.123.144.258.316.193-.144a.387.387 0 0 0-.019-.078c.069-.107.137-.212.247-.264.081-.039.004.218.086.256.104.05.238-.007.342-.057.122-.058.18-.275.314-.256.101.014-.187.213-.114.285.116.116.324.119.485.085.099-.02.127-.158.2-.228.194-.186.35-.437.6-.541 1.24-.522 1.81-.277 3.082-.542.42-.087.813-.28 1.227-.399.12-.034.25-.025.37-.057 2.079-.557 4.175-1.052 6.223-1.71.218-.07.294-.392.514-.456 1.887-.551 3.81-.978 5.737-1.369 1.681-.34 3.403-.465 5.08-.826.199-.043.282-.354.485-.37.424-.035.833.179 1.256.227.161.019.355-.125.485-.028.545.406 1.011.917 1.427 1.454.065.084.026.246-.057.313-.104.085-.477-.053-.4.057.245.35.616.612 1 .798.084.041.114-.163.114-.256 0-.157-.263-.405-.114-.456.475-.165 1.096.283 1.284.684.06.129-.092.319 0 .427.205.242.662.228.8.513.148.309-.07.684-.058 1.027.018.534.046 1.07.143 1.596.056.307.044.725.314.884.209.122.501-.5.656-.314.536.645.79 1.497 1 2.309.076.3-.245.611-.172.912.128.529.501.966.742 1.454.073.149.09.331.2.456.044.05.206.066.2 0-.03-.317-.58-.79-.286-.912.306-.127.46.485.628.77.14.235.144.535.286.769.057.095.247.067.285.171.052.144-.003.313-.057.456-.027.07-.157.07-.171.143-.038.186-.045.394.028.57.036.086.305.033.257.114-.103.172-.318.358-.514.313-.153-.034-.091-.3-.114-.456-.073-.501-.08-1.012-.171-1.51-.008-.042-.073-.049-.114-.057-.094-.02-.246-.116-.286-.03-.144.316.176 1.027-.171 1.027-.364 0-.05-.856-.371-1.026-.233-.123-.459.29-.6.513-.061.098.021.232.058.342.125.377.28.743.428 1.112.005.012.017.021.028.028.065.04.125.128.2.114.146-.026.109-.147.114-.228.018-.25.013-.494.172-.712.02-.028.064.03.085.057.056.07.09.156.143.228.006.007.02-.005.028 0 .012.006.017.033.029.028.063-.027.212-.169.171-.114-.066.088-.162.148-.245.218.016-.015.04-.042.017-.047-.047-.01-.095 0-.143 0-.028 0-.07-.024-.085 0-.033.048-.08.145-.029.171.065.033.157-.143.2-.085.213.286.433.613.457.969.018.28-.088.887-.343.77-.358-.165-.247-.75-.4-1.112-.008-.02-.036.023-.057.028a.097.097 0 0 1-.057 0c-.107-.04-.2-.132-.314-.142-.038-.004 0 .076 0 .114.018.541.168 1.094.057 1.625-.065.313-.118-.63-.2-.941-.09-.346-.05-.785-.313-1.026-.006-.005-.448.375-.428.57.042.412.2.812.2 1.226 0 .31-.054 1.186-.2.912-.28-.525-.11-1.19-.257-1.768-.03-.117-.227-.373-.257-.256-.208.797-.145 1.645-.314 2.451-.043.205-.003-1.572-.314-1.31-.334.28-.258.837-.457 1.225-.009.017-.026.027-.047.03a.08.08 0 0 1 .047-.03c-.057-.086-.114-.086-.171-.171-.046.023-.064.06-.066.106-.216-.246-.295-.678-.22-.961.03-.108.316-.065.286-.171-.032-.11-.243.028-.343-.029-.1-.058-.101-.346-.2-.285-.176.11-.238.363-.256.57-.007.072.182.015.2.086.057.23.1.497 0 .712a.141.141 0 0 1-.078.067c-.013-.079-.065-.13-.18-.095l-.015.102a.155.155 0 0 1-.07-.045 1.044 1.044 0 0 1-.228-.713c.007-.11.382-.117.285-.17-.158-.089-.408-.094-.542.028-.128.115-.06.34-.057.513.006.324.146.65.085.969-.024.127-.236.331-.314.228-.114-.153.065-.38.058-.57a4.014 4.014 0 0 0-.115-.884c-.03-.112-.15-.39-.2-.285-.275.592-.136 1.37-.542 1.882-.195.245-.228-.6-.228-.913 0-.09.237-.053.228-.142-.01-.098-.16-.16-.257-.143-.302.055-.57.232-.856.342-.969.374-1.938.75-2.911 1.112-.71.265-1.396.625-2.14.77-.314.06-.624-.168-.943-.171-.487-.006-.982.024-1.455.142-.075.019.034.185-.029.228-.21.146-.463.229-.713.285-.26.06-.533.04-.8.057-.161.011-.323.029-.485.029-.076 0-.151-.031-.228-.029-.239.008-.482.113-.714.057-.118-.028-.107-.296-.228-.285-.258.024-.463.237-.685.37-.413.25-.602.573-1.199.514-.16-.016-.183-.315-.342-.342-.321-.056-.645.123-.97.114-.043-.001-.077-.253-.2-.171-.096.063-.134.191-.229.256a2.737 2.737 0 0 1-.6.314c-.053.02-.113-.038-.17-.029a1.354 1.354 0 0 0-.202.055c-.021-.002-.031-.002-.027.002h.024c-.092.03-.185.066-.28.086-.021.004-.06-.008-.058-.029.01-.063.137-.132.086-.17-.116-.088-.291-.135-.428-.086-.072.026.04.152.028.228-.003.02-.046-.01-.057-.029-.02-.033-.01-.079-.028-.114-.068-.128-.22-.225-.228-.37-.005-.077.123-.124.2-.114.047.006.004.1.028.142.026.047.06.114.114.114.033 0 .371-.114.343-.256-.031-.154-.13-.287-.2-.428-.016-.03-.027-.07-.057-.085-.034-.017-.077.007-.115 0-.013-.003-.019-.038-.028-.029a.318.318 0 0 0-.056.082c.005-.071.02-.153-.03-.196-.09-.076-.243-.149-.342-.085-.097.062.056.321-.057.342-.126.023-.135-.249-.257-.285-.065-.02-.065.142-.029.2.09.141.535.3.371.341-.484.121-.34-.58-.799-.313-.058.034-.085.164-.028.2.074.046.21-.132.257-.058.054.087-.095.185-.115.285-.01.048.075.158.029.143-.09-.03-.118-.154-.2-.2-.076-.043-.213.019-.257-.057-.049-.083.111-.204.057-.285-.042-.064-.063.142-.114.2-.02.022-.056.021-.085.028-.048.012-.132.076-.143.029-.03-.131.074-.266.057-.4a1.55 1.55 0 0 0-.171-.484c-.014-.027-.007.065-.029.086-.095.087-.235.125-.314.228-.03.038-.018.13.029.142.103.026.21-.083.314-.057.047.012.065.11.028.143-.066.057-.175.025-.257.057-.214.083-.42.185-.628.285-.05.024-.194.105-.142.085.175-.067.327-.213.513-.228.088-.007.228.088.2.171-.186.559-.432.114-.685.114-.055 0-.114.095-.085.143.085.145.531.392.37.342-.305-.095-.722-.183-.827-.485-.017-.048 0-.078.037-.096-.048-.012-.088-.037-.094-.075-.037-.213.23-.418.171-.627-.03-.107-.252.022-.314.114-.094.14.061.737-.4.599-.017-.006-.021-.028-.019-.057-.028.105-.027.201.105.256.071.03.196-.04.229.029.048.105.05.384-.058.342-.22-.086-.24-.447-.456-.542-.105-.045.109.308 0 .342-.123.039-.23-.11-.35-.173a.45.45 0 0 0 .179-.226c.07-.224-.059-.53-.257-.655a.085.085 0 0 0-.015-.008c.071-.098-.009-.317-.413-.762-.124-.136-.108.354-.2.513-.02.034-.089.058-.114.029-.06-.068.003-.27-.086-.257-.101.015-.047.208-.114.285-.073.084-.259.279-.286.171-.044-.178.154-.335.2-.513.012-.047.02-.147-.028-.142-.192.019-.356.151-.543.2a2.317 2.317 0 0 1-.57.085c-.04 0 .092-.046.085-.086-.016-.096-.045-.248-.143-.256-.094-.01-.142.137-.17.228-.041.127-.124.304-.03.399.148.146.453.024.6.17.079.08-.203.12-.314.115a.853.853 0 0 1-.4-.143c-.025-.016.042-.058.029-.085-.013-.027-.079 0-.086-.029-.025-.111.092-.274 0-.342-.076-.057-.138.141-.228.171-.04.014-.12-.015-.114-.057.01-.066.121-.079.143-.142.013-.04-.015-.109-.057-.114-.413-.055-.507.134-.571.541-.007.042.078.034.114.057.008.005-.031-.009-.029 0 .01.041.076.076.057.114-.039.079-.113.16-.2.171-.084.011-.145-.131-.228-.114-.17.036-.29.205-.456.257-.053.016.14-.133.085-.143-.188-.033-.518.241-.57.057-.053-.184.323-.233.513-.256.08-.01.146.247.171.17.031-.092-.215-.19-.142-.256.113-.102.318.037.456-.028.074-.035.147-.175.086-.228-.08-.07-.253.114-.314.028-.055-.077.187-.134.171-.228-.014-.084-.148-.143-.228-.114-.076.028-.05.3-.086.228-.06-.119.114-.33 0-.399-.104-.063-.23.12-.285.228-.085.17-.128.273-.14.327-.08-.061-.091-.28-.203-.298-.089-.015-.126.176-.085.256.055.111.425.144.314.2-.135.067-.29-.084-.428-.143-.013-.005.035-.017.028-.028-.094-.15-.147-.368-.314-.428-.25-.09-.534-.003-.799.029a.2.2 0 0 0-.143.085c-.087.142-.07.83-.57.143-.061-.084.218-.076.256-.171.025-.063-.144.065-.2.028-.081-.054-.173-.164-.142-.256.028-.086.193-.022.257-.086.034-.034.019-.151-.029-.142-.149.027-.289.093-.428.158-.1-.005-.14.005-.285-.016-.015.058-.03.101-.044.145a.824.824 0 0 1-.156.026.155.155 0 0 1-.086-.021.28.28 0 0 1-.028-.036.03.03 0 0 0-.012.01c-.09-.07-.167-.19-.274-.181-.086.007.1.209.029.257-.206.136-.467.194-.714.2-.19.003-.355-.203-.542-.172-.085.014.108.223.029.257-.088.037-.137-.194-.229-.171-.118.03-.115.33-.228.285-.11-.044.061-.227.085-.342.014-.066.091-.174.029-.2a.825.825 0 0 0-.57-.028c-.106.036-.195.176-.172.285.02.091.35.102.257.114-.52.067-1.053-.024-1.57.057-.072.01-.013.202-.086.2a.956.956 0 0 1-.599-.229c-.06-.056.118-.136.2-.142.068-.006.15.179.171.114.057-.172-.09-.372-.028-.542.037-.104.18-.133.285-.171.02-.007.019.038.028.057.029.057.053.116.086.171.005.008-.008-.023 0-.028.082-.055.265-.24.257-.143-.016.187-.329.302-.285.485.034.143.323.218.428.114.1-.1-.21-.275-.143-.4.064-.12.266-.06.4-.085.05-.01.097.02.142-.028.078-.086.085-.271.2-.286.085-.01-.053.23.029.257.234.078.509.084.742 0 .08-.03-.115-.257-.029-.257.128 0 .176.191.286.257.04.024.096.012.142 0 .069-.017.605-.201.114-.428-.1-.046-.177.195-.285.171-.092-.02-.027-.221-.114-.256-.063-.025.038.193-.029.2-.11.01-.212-.255-.285-.172-.09.103.178.3.086.4-.098.105-.324.069-.429-.029-.097-.091.076-.316-.028-.4-.19-.151-.37.454-.371.457-.006.012-.016.026-.029.029-.047.007-.102.024-.142 0-.025-.015.023-.102 0-.086-.047.03-.047.182-.086.143-.085-.085.005-.33-.114-.343-.163-.018-.262.197-.4.286-.008.005.004-.02 0-.029-.025-.059-.024-.187-.085-.171-.26.065-.45.324-.714.37-.12.022.338-.233.228-.284-.216-.102-.494-.037-.713.057-.091.039.011.265-.086.285-.086.017.029-.274-.057-.257-.097.02-.003.23-.086.285-.073.049-.208.016-.256-.057-.04-.06.157-.192.085-.2-.795-.078-1.61.114-2.397-.028-.058-.01-.048-.066-.023-.136-.009.014-.02.022-.034.022-.87.01-1.728-.238-2.598-.257-.072-.001-.013.2-.085.2-.202 0-.454-.035-.571-.2-.095-.133.103-.321.086-.484-.006-.051-.114-.099-.143-.057-.111.157-.016.485-.2.541-.182.056-.3-.233-.457-.342-.035-.024-.1-.017-.114-.057-.067-.192-.136-.396-.114-.598.052-.484.302-.057.4-.057.05 0 .057-.092.057-.143 0-.134-.168-.322-.057-.399.108-.076.226.137.342.2.008.004.029-.01.029 0 0 .067-.087.165-.029.2.107.061.262-.06.371 0 .059.03-.061.224 0 .199a.63.63 0 0 0 .343-.342c.077-.21-.366-.243-.4-.285-.01-.014-.004-.023.013-.03-.054-.005-.112-.057-.156-.027-.06.04-.068.129-.085.2-.002.008.017.02.026.026-.097-.053-.201-.096-.283-.17-.016-.014.04-.039.028-.056-.052-.079-.2-.106-.2-.2 0-.072.22-.015.2-.085-.04-.15-.16-.32-.314-.342-.098-.014.014.275-.085.285-.067.006-.109-.056-.142-.127-.033-.017-.067-.033-.086-.016-.147.122.166.314.17.342.012.076-.173.152-.113.2-.115 0-.117.425-.143.313-.052-.223.086-.457.057-.684-.011-.087-.139-.28-.171-.2-.045.112.16.232.114.343-.052.121-.305.326-.343.2-.067-.229.072-.485.2-.685.037-.058.186.125.2.057.024-.121-.022-.318-.143-.342-.104-.02-.037.3-.142.285-.142-.02-.116-.326-.257-.342-.128-.014-.206.402-.257.285-.1-.227-.066-.526.057-.741.067-.117.266-.043.4-.057.267-.028.416.098.684.256.041.025.04.107.086.114.04.007.046-.076.086-.085.167-.04.353-.12.513-.057.08.03-.08.227 0 .256.108.04.215-.084.314-.142.019-.01.008-.054.029-.057.057-.008.115.014.171.028.178.045-.071.174.143.343.298.233.374-.2.6-.2.072 0 .013.193.085.2.177.016.34-.105.514-.143a.298.298 0 0 1 .142 0c.026.007.034.07.057.057.048-.029.092-.087.086-.143-.002-.024-.024-.043-.048-.06-.12-.019-.242-.033-.351-.082-.062-.027-.077-.135-.143-.143-.117-.013-.225.093-.343.086-.06-.004-.157-.055-.142-.114.018-.074.242-.05.2-.114-.188-.28-.434.05-.514.142-.007.008.009.03 0 .029-.069-.01-.133-.042-.2-.057-.104-.023-.208-.053-.314-.057-.153-.006-.315.086-.457.028-.187-.076-.257-.365-.456-.399-.119-.02.199.257.114.342-.082.082-.202-.118-.314-.142-.024-.005-.98.022-.942-.342.06-.569.66-.1.799-.114.081-.009.112-.276.143-.2.043.11-.105.226-.086.342.008.047.124.044.143 0 .044-.105-.107-.302 0-.342.277-.103.586-.037.885-.028 0 .138.045.279.114.399.019.033.111.038.114 0 .019-.295-.134-.599-.057-.884.025-.094.21.228.257.143.067-.121.009-.336-.114-.4-.191-.097-.412-.101-.631-.112a.047.047 0 0 0 .003-.001c.066-.042-.017-.203.057-.228.271-.094.571-.12.856-.086.076.009.038.188.114.2a.282.282 0 0 0 .208-.062c.015.062.02.121-.008.176-.053.105-.343-.033-.343.085 0 .669.66.018.685.029.078.03.057.131.04.232a.015.015 0 0 0-.011-.004c-.169 0-.413-.01-.485.142-.072.15.035.434.2.456.873.12.549-.52.656-.883.012-.041.106.015.114.057.027.134.024.275.021.415l-.02-.016.02.04c-.003.173-.001.345.065.501.047.113.066-.179.117-.338.017.001.034 0 .054-.004l-.04-.032a.221.221 0 0 1 .012-.025c.013-.023.033.045.057.057.017.009.046-.016.057 0 .052.078.15.17.114.257-.058.137-.351.137-.343.285.009.14.235.233.371.2.129-.033.135-.457.2-.343.09.159.012.387-.085.542-.046.072-.197-.06-.257 0a.102.102 0 0 0-.029.071c.01.001.02.006.029.014.044.045.026.116.003.188.013.035.05.074.025.097-.014.014-.033.018-.054.017-.005.038 0 .072.026.097.066.067.112-.233.2-.2.118.047.066.27.17.343.139.095.204-.144.286-.171.054-.018.115-.005.171 0 .17.014.215.057.4.057.067 0 .132-.029.2-.029.013 0-.04.036-.029.029.068-.045.177-.064.2-.143.033-.11.05-.299-.057-.342-.092-.036-.015.215-.086.285-.143.143-.411.067-.57.057-.087-.005-.24.058-.257-.085-.048-.379.335.134.485-.285.045-.127-.347-.126-.314-.257.052-.209.272-.394.485-.427.114-.018.094.232.057.342-.023.069-.204.013-.2.085.01.17.059.456.229.456.156 0-.209-.33-.114-.456.077-.103.245.147.37.114.13-.034.166-.225.286-.285.038-.019.015.114.057.114.06 0 .098-.155.143-.114.152.143.266.339.314.542.012.05-.11-.044-.17-.067a1.832 1.832 0 0 0-.173-.19c-.022-.02-.085-.001-.085.029 0 .136.136.273.085.399-.028.071-.128-.141-.2-.114-.063.023-.092.179-.028.2.29.093.62-.001.913.085.067.02-.006.17.057.2.096.044.318.076.314-.029-.01-.255-.168-.498-.342-.684-.056-.059-.101.146-.086.226-.152-.058-.269-.123-.085-.397.05-.075.197-.018.256-.086.034-.038-.083-.098-.057-.142.025-.041.11-.034.143 0 .034.033.021.1 0 .142-.03.06-.198.105-.143.143.172.117.453.024.6.17.075.076-.228.054-.286.143-.146.227.292.521.4.514.095-.007-.06-.321.028-.286.112.045.018.271.115.343.084.062.262.063.314-.029.078-.141-.186-.524-.03-.485.281.07.339.505.6.628.126.058-.241-.345-.114-.4.136-.058.17.282.314.314.086.019-.108-.185-.057-.257.04-.056.181.124.2.057.078-.284-.002-.59.028-.883.018-.165-.05-.502.115-.485.295.032.517.325.685.57.046.068-.12.157-.2.143-.076-.014-.1-.275-.114-.2-.023.116-.018.287.085.342.094.05.252-.041.286-.142.049-.147-.124-.306-.086-.456.016-.065.171-.06.2 0 .087.182-.108.656.085.598.228-.068.001-.554.2-.684a.954.954 0 0 1 .46-.132.11.11 0 0 1-.06-.039c-.113-.144-.247-.455-.086-.541.247-.133.565.047.828.142.068.025-.247.03-.2.086a.4.4 0 0 0 .371.114c.065-.015-.01-.134 0-.2.001-.01.02.002.029 0 .047-.008.094-.028.142-.028.014 0 .027.015.029.028.008.066-.055.163 0 .2.046.03.04-.112.086-.143.025-.017.056.02.085.029.095.029.19.06.286.085.009.003.02-.004.028 0 .097.044.252.244.286.143.193-.58-.4-.364-.543-.342-.035.005-.118-.015-.114-.057.009-.085.19-.19.114-.228-.085-.043-.144.126-.228.17-.043.024-.103.057-.143.03-.073-.052-.061-.191-.142-.229-.204-.094-.436-.18-.657-.142-.156.026-.11.542-.342.17-.021-.033.017-.076.028-.113.016-.057.026-.113.086-.143.008-.004-.01.03 0 .029.23-.058.54-.012.685-.2.088-.115-.256-.151-.4-.171-.08-.011-.167.032-.228.086-.036.032-.002.102-.029.142-.034.05-.106.065-.142.114-.012.015-.057.256-.058.257-.062.048-.199.13-.228.057-.06-.151.07-.323.057-.485-.004-.055-.03.135-.085.143-.054.007-.062-.125-.115-.114-.047.009-.033.094-.028.142.014.135-.01.303.086.4.08.08.282-.07.342.028.063.102-.002.3-.114.342-.088.033-.026-.286-.114-.257-.138.046-.091.325-.229.37-.124.042-.242-.214-.357-.176.04-.098.037-.234-.042-.25-.233-.052-.474.007-.709.075a.177.177 0 0 0-.005-.019c-.035-.105-.126-.184-.171-.285-.009-.02.038.02.057.029.038.019.073.045.114.057.051.014.127-.007.171-.029.012-.006.016-.024.029-.028.074-.025.15-.05.228-.057.004 0 .064.043.086.028.05-.034.097-.073.143-.114.05-.045.153-.076.142-.142-.015-.093-.105-.2-.2-.2-.067 0 .045.134.03.2-.016.059-.068.104-.115.142-.01.008-.02-.019-.029-.028-.019-.02-.05-.031-.057-.057-.014-.065.047-.153 0-.2-.142-.142-.313-.314-.513-.314-.177 0 .33.167.428.314.053.08.03.21-.029.285-.042.052-.134-.01-.2 0-.009.001.009.024 0 .029-.037.018-.118-.024-.142-.029-.057-.013-.114-.037-.172-.028-.02.003-.025.078-.028.057-.022-.132.058-.298-.029-.4-.053-.062-.127.12-.142.2a.685.685 0 0 0 .028.4c.031.07.264.07.2.113a.788.788 0 0 1-.542.114c-.066-.01.06-.17 0-.2-.103-.05-.269.117-.343.03-.086-.103-.09-.34.029-.4.115-.058.186.208.314.228.088.014.225-.053.228-.142a1.624 1.624 0 0 0-.2-.799c-.041-.077-.2-.123-.257-.057-.108.126-.034.34-.114.485-.035.063-.136.12-.2.086-.027-.015-.041-.041-.05-.072a.037.037 0 0 1-.007.015c-.038.054-.196.066-.2 0-.01-.172.07-.347.172-.485.03-.041.126.105.142.057.02-.058-.053-.143-.114-.143-.09 0-.183.065-.228.143-.086.147-.038.37-.134.501-.01-.05-.024-.09-.037-.13-.048-.008-.08.004-.104.026-.017-.048-.038-.093-.068-.112-.116-.075-.263-.138-.4-.114-.07.012-.015.18-.085.2-.238.065-.515.128-.742.028-.105-.046.076-.238.029-.342-.024-.053-.115.016-.172.028-.029.007-.064.008-.085.029-.086.086-.107.273-.228.285-.088.009.027-.235-.058-.257-.267-.069-.558-.033-.827.029-.123.028-.222.127-.328.2l-.1-.057a.111.111 0 0 0 .074.075zm-2.672-4.18c.01-.067-.077-.127-.142-.143l-.006-.001c-.024.076.033.16.118.244a.407.407 0 0 0 .03-.1zm-1.056-.257c-.305-.01-.62.14-.913.057-.113-.032-.128-.232-.086-.342a.727.727 0 0 1 .371-.399c.083-.035.14.16.229.143.068-.014-.01-.184.057-.2.26-.06.542-.07.799 0 .094.026.052.22.143.257.061.024-.059-.232 0-.2.124.07.114.342.257.342.132 0 .085-.408.2-.342.213.123.18.47.342.656.045.052.072-.132.057-.2-.035-.162-.21-.29-.2-.456.005-.076.178-.057.228 0 .057.064-.083.24 0 .257.114.022.182-.148.286-.2.03-.015-.05.052-.057.086-.004.02.019.038.028.057.02.038.074.074.057.114-.039.093-.28.166-.2.228.097.074.226.066.355.058.007.086.023.181-.04.198-.313.085-.748-.292-.97-.057a.143.143 0 0 0-.035.056 4.473 4.473 0 0 0-.908-.113zm2.01-.088a.138.138 0 0 1-.058-.021l.001.025.057-.004zm-.069-.054a.14.14 0 0 1 .013-.028.28.28 0 0 0-.002.06c-.01-.008-.015-.019-.01-.032zm.2-.285c-.03-.091-.191.044-.286.028-.033-.006-.08-.061-.057-.085a.671.671 0 0 1 .343-.2c.16-.028.357-.043.485.057.115.09.066.296.14.417-.017.01-.03.023-.026.04.018.079.215.238.143.199-.16-.089-.45-.606-.742-.257-.056.067.145.257.057.257-.106 0-.096-.275-.193-.258.07-.065.162-.12.136-.198zm.656.256c.07.066.222.043.286-.028.012-.014.011-.034.004-.056l-.261.027a.177.177 0 0 0-.06.018.182.182 0 0 0 .031.04zm.229-.256c.062.007.11.09.153.163l-.092.009c-.024-.076-.121-.18-.061-.172zm.285.256a.125.125 0 0 0 .034-.108l-.166.015c.045.075.086.14.132.093zm-.057-.484c.018-.08.16-.214.2-.143.08.141-.036.365 0 .51l-.109.01c-.011-.115-.118-.26-.091-.377zm.257.456c.181.139.471.052.685-.029.04-.015.054-.064.064-.116l-.036.002c-.256.017-.513.034-.77.054a.154.154 0 0 0 .057.089zm.828-.314c.052-.007.03.084.024.16a4.275 4.275 0 0 1-.103.009c.013-.076.017-.16.079-.169zm.057.257c.258.022.508-.122.764-.163-.264-.009-.532.038-.797.065-.004.05-.002.095.033.098zm.942-.171c.019.001.03.013.039.032a1.585 1.585 0 0 0-.217-.023.742.742 0 0 1 .178-.01zm.114.256c.121-.01.253-.166.228-.285a.182.182 0 0 0-.01-.033c.142-.009.301-.097.438-.052.14.045.168.289.314.313.1.017.11-.18.2-.228a.419.419 0 0 1 .285-.028c.153.036.274.17.428.2.3.056.617-.015.914.056.054.013-.135.118-.086.143.065.032.16-.146.2-.086.063.095.008.234-.029.342-.009.027-.059-.01-.085 0-.025.01-.054.084-.057.057-.012-.095.09-.212.028-.285-.047-.055-.128.075-.2.086-.018.002.02-.06 0-.057-.071.01-.13.105-.2.085-.18-.052-.317-.369-.485-.285-.183.092.028.485-.142.599-.135.09.078-.363-.029-.485-.082-.093-.266-.037-.37.029-.053.032.2.096.142.114-.137.04-.322.067-.428-.029-.07-.063.162-.176.114-.256-.04-.066-.124.122-.2.114-.127-.014-.215-.171-.342-.171-.227 0-.432.198-.657.17-.046-.005-.035-.072-.027-.137.005.06.012.113.056.11zm-.114-.541c-.07-.032-.168.045-.229 0-.075-.057-.19-.203-.114-.257.2-.142.47-.196.714-.171.093.01.04.199.114.257.076.06.194.091.285.057.132-.05.19-.217.314-.286a.212.212 0 0 1 .2 0c.042.026.035.1.057.143-.048.012-.096.025-.143.029-.028.001-.069-.024-.085 0-.059.083-.02.245-.114.285-.133.055-.294-.007-.429-.057-.101-.038-.148-.2-.256-.2-.077 0 .135.126.114.2-.016.052-.108.093-.175.127-.073-.055-.173-.091-.253-.127zm1.37-.228c.122.054.157.025.168-.03-.06-.029-.128-.016-.197 0a.058.058 0 0 0 .029.03zm.313-.257c.092.02.022.244.115.257.049.006.098.01.148.011-.09.09-.178.206-.291.217-.093.008-.03-.215-.114-.257a.189.189 0 0 0-.003-.002c.017-.095-.039-.267.145-.226zm1.256.171c.084-.001.167.007.251.018.007-.034.006-.063-.022-.075-.14-.061-.333-.06-.457.029a.198.198 0 0 0-.047.05c.092-.012.183-.02.275-.022zm-7.703 9.133a.05.05 0 0 1-.032-.011c.014 0 .024.004.032.011zm3.23-3.658a.294.294 0 0 1-.076-.012.86.86 0 0 0 .026-.017zm.586.41c-.085.047-.157.126-.194.016zm.148-.013l-.148.012c.047-.026.098-.042.148-.012zm-1.227-.399c-.057.029-.114.114-.143.2.029.028.057.057.057.142-.242-.048-.01-.303-.023-.43l.106.068a.07.07 0 0 1 .003.02zm-1.398-5.644c.114-.143.285-.057.342.057 0-.143.2-.314.285-.143-.17.228-.428.343-.628.086zm-4.774-2.507c.097.005.201 0 .235.084zm-.164-.058l.164.058c-.066-.003-.13-.012-.164-.058zm-.4 3.534c.114.029.2-.028.229-.114-.057-.2.028-.342-.086-.541.228-.2.143.484.457.228a.607.607 0 0 0 .028.342c-.228.057-.485.285-.628.085zm.428-1.397c.086.086.286.029.257.285zm-4.395 9.863c.029-.342.2-.085.257.029zm5.023-9.834c-.109.054-.148.04-.2.036zm-.2.036l-.114.02a.243.243 0 0 1 .114-.02zm.628 1.104c-.192.085.031.219.06.4h-.003a.264.264 0 0 0 .004.002.245.245 0 0 1-.06.197.352.352 0 0 1-.286-.143c.086 0 .114-.057.143-.142-.114-.143-.229.142-.229-.143 0-.114.172.029.229-.142-.143-.086-.2.057-.286-.143.115.029.371-.085.428.114zm-.513 1.596c.17.114.028-.285.142-.256-.028.2.086.142.086.285-.029.057-.228.17-.228-.029zm.628-4.703c-.029-.171.114-.114.142-.2-.057.229.172.029.143.2-.114.171-.143-.028-.285 0zm-.828 4.19c-.029-.142.057-.142.086-.2-.029 0-.086 0-.086-.056.028-.057.228-.171.228 0-.142.028-.057.427-.228.256zm.314-.114c.2.029-.057-.17.143-.2.057.086.028.314.085.4-.142 0-.257 0-.228-.2zm-.257-.74c0 .028.029.056.057.056 0-.085 0-.17.086-.142.028.17-.115.456-.2.256.143 0-.114-.228.057-.17zm-.171-.514c-.057.029-.114-.028-.143-.057V8.61c.057.057.143-.2.171 0-.057.028-.057.114-.028.2zm.171 1.744c.017-.091.035-.176.114-.176zm-.143.223l.143-.223c-.019.107-.035.223-.143.223zm-.257-.741c.057-.029.057-.057.057-.143.086.029.143.057.172.143-.029.057-.229.17-.229 0zm2.113.17c.228-.113.313.2.428.058v.2c-.2-.03-.286-.115-.343-.143.029 0 .057 0 .057-.057-.057 0-.143.028-.143-.057zm.456 1.825c.171.057.2-.057.257-.142-.028.2.086.17.057.342-.143 0-.228-.057-.314-.2zm-1.712-2.052c.257-.029.285.256.485.085 0 .086.086.086.057.2-.171 0-.228-.029-.428.057 0-.114-.086-.171-.114-.342zm2.854.057c-.114.057-.228.057-.343-.057zM25.43 18.87c.085-.285.57-.313.542-.028zm5.797-9.375a.26.26 0 0 0 0-.002c.224.026.169-.2.339-.058.086-.057-.029-.399.143-.342.057.143-.143.228 0 .285.057 0 .028-.114.085-.142-.057.228.2.285.2.2 0-.03.029-.058.057-.058-.085.425-.649.287-.824.117zm1.452-1.343c-.057-.313.114.114.086-.2.028.058.342.058.228.143-.171-.057-.2.114-.314.057zm-1.142.143c.057-.029.057-.057.057-.143-.313.057-.599-.028-.827-.142.314-.057.485-.2.799.085-.029-.085-.029-.17.057-.2 0 .172.171.143.285.143 0 .2-.285.342-.37.257zm2.883-2.11c-.057.2.057.257-.114.343 0-.143-.086-.171-.086-.342zM34.08 8.21c.2.029.456-.028.485.2zm-.514-.17c0 .284-.285.17-.143.513a.218.218 0 0 0-.142.057c-.086-.229.142-.257.085-.542-.114-.029-.171 0-.228.057-.029-.257.2-.143.228-.285-.028 0-.085 0-.085-.057.228-.114.085.342.285.256zM10.477 5.451c.094.075.243-.04.14.163zm-.03-.036l.03.036a.132.132 0 0 1-.03-.036zM13.5 4.333c-.114-.228-.4.085-.285-.314.114.257.171-.057.342-.114-.2.285.086.257-.057.428zm.457.085c-.057.143-.143.2-.2.114 0-.142.114-.17.2-.285.171.2.228.228.37.428-.142-.029-.456.085-.37-.257zm-.2-1.396c.143 0 .285 0 .228.2zm-.171 3.477c.257.143.828.143.856.542zm1.826-1.368c.057-.171.057-.342.086-.485.114.114.057.342.057.542zm1.123 6.323c.05.028.111.049.048.176zm-.038-.138l.038.138c-.041-.022-.076-.05-.038-.138zm-2.14-7.354c.085-.399-.115-.228.2-.37.056-.171-.2.057-.058-.2.086.029.171.086.171.171-.085.2-.17.342-.314.4zm.742 4.504c.028-.086.028-.143.028-.2.342-.028.485.286.285.485-.057-.142.029-.142 0-.228l-.085-.029c-.086.115.028.286-.086.257.057-.171-.142.143-.2.057.029-.114.143-.142.086-.2-.4.229-.514-.256-.8-.342.087-.085.144-.342.258-.256.143.028-.171.142-.029.2.086-.058.172-.229.314-.086-.142.171-.114.228-.057.342.086-.057.228.086.285 0zm-.914-.114c-.086-.171-.2-.057-.342 0-.057-.257.057-.314.085-.627.057.2.4.028.457.285-.114.085-.257-.029-.371.057.029.2.257.085.171.285zm1.181-1.406c.118.039.265-.06.218.152zm-.068-.048l.068.048a.143.143 0 0 1-.068-.048zm-2.825-.484c.085-.171.2-.342.114-.4-.114.058-.371-.028-.2-.256.228-.057.257.171.4.228 0-.028.028-.057.057-.028-.257.114-.114.541-.371.456zm.856-1.112c-.057 0-.114.142-.171.228-.114-.029.028-.228.057-.342.057.028.143.028.114.114zm.085-2.566c-.142.229.115.229.115.371a.405.405 0 0 0-.171.057c-.058-.085-.143-.342.056-.428zm-.428 3.706c-.057-.2-.37 0-.142-.37.2.085.37.057.428.142-.086.057-.2.086-.286.228zm2.027-2.11c.086-.113.143-.256.228-.199l-.114.257zm3.14 6.272c-.086.057-.172.028-.286 0zm-.857-2.138c.057-.143 0-.2-.028-.285h-.057c.114-.143.37-.114.4-.057-.058.2-.2.171-.315.342zm-.085-.285s-.029 0-.029.028v-.028h.029zm.342-.684c.114.028.143-.171.257-.143 0 .143.086.228.086.37-.172-.056-.314-.113-.343-.227zm-2.369.028c.029-.256-.085-.114-.114-.057.029-.2-.2-.2-.228-.085.057-.342-.514-.057-.314-.428.4.257.941.2 1.227.656-.257.028-.343-.257-.57-.086zm3.054-1.624c-.057-.029-.228-.228-.342-.114.142 0-.143.313-.2.427.085-.342-.2-.114-.257-.313.114-.2.228-.228.371-.228-.029.285-.171-.029-.2.228.086.057.171.028.228-.057-.028-.029-.028-.057 0-.143.172 0 .457-.143.4.2zm-.7 5.25c.133.039.334.024.358.166zm-.07-.034l.07.033a.225.225 0 0 1-.07-.033zm.17-2.908c.086.114.229-.028.172.257zm-1.284-3.42c.114.028.057.2-.028.37zm.537.906c-.1-.038-.364.049-.194-.194zm.034.035l-.034-.035c.017.007.03.017.034.035zm-1.113 1.966c.086-.114.114-.085.285-.17.143.227.8.284 1.085.313-.057.17-.029.256 0 .342-.314 0-.8-.228-1.028-.485-.142.285-.228-.114-.342 0zm.2-2.252c.028-.17-.171.029-.114-.2.114.058.17-.085.285-.085-.057.114-.114.114-.143.228 0 0 0 .057-.028.057zm.999-.684c.143 0-.171-.142.028-.2-.028.143.143.115.114.257-.028 0-.17.114-.142-.057zm-.2-.085c.057-.057.2-.029.143.142zm14.128 5.929c0-.143.029-.2.143-.2.028.057 0 .143.057.143.057-.029.086-.114.086.057-.143-.057-.2.142-.286 0zM9.133 1.254c.257-.17.029-.2.2-.37.143-.057.086.085.086.17-.114.115-.2.2-.286.2zM7.535 7.098c.086-.029.371.057.2.228zm-.334-4.09c.083-.119.108-.272.248-.272zm-.066.07l.066-.07a.34.34 0 0 1-.066.07zm2.797 10.234c-.085.228-.342.114-.2-.086zm-.376-7.833c.068-.09.137-.188.205-.206zm-.137.136l.137-.136a.484.484 0 0 1-.137.136zm.342 1.312c.057-.2.371-.029.2.114zM7.278 12.77c-.086.057-.314-.057-.228-.228zm2.769-6.385c-.057-.114.2-.627.285-.456zm-4.13 6.822c.124.04.3-.03.277.162zm-.066-.038l.065.038a.157.157 0 0 1-.065-.038zm.314.285c.143-.057.314.143.342.285zM2.207 10.6c.208.219.618.405.476.689zm-.095-.138l.095.138a.45.45 0 0 1-.095-.138zm4.71 2.651c.057-.028.313.171.37.285-.17.143-.2-.285-.313-.028-.086-.029-.086-.086-.115-.143zm-.03 1.511c-.227 0-.085-.427-.256-.142-.057-.342-.428-.285-.457-.599.143-.114.143.314.314.029.114.313.486.37.4.712zm.058.086c.228-.4.485.256.143.228-.086-.143.2-.114.085-.257-.085-.028-.142.114-.228.029zm7.535-4.732c-.2.028-.228-.057-.457-.114zm-.529 2.063c.103.07.41.028.3.246zm-.013-.01l.013.01a.093.093 0 0 1-.013-.01zm.513-3.165c-.028.086-.085.171-.028.2l.171.057c0-.171.057-.114.086-.342.085.285.57.142.742.37-.257-.057-.086.2-.029.2.229.057.143.057.343.2.285.199.77.199.77.398-.513 0-1.056-.256-1.54-.427-.515-.2-.943-.37-1.228-.656.2 0 .457.342.713 0zm.4.171c-.086.029-.228.086-.171.228zm-1.17.314c.085-.086.285-.143.171.142-.257-.2-.028.2-.2.2.029-.086-.057-.086-.028-.171.114.028-.029-.114.057-.171zm3.34-.998c.085 0 .342-.086.285.228-.115-.086-.143.057-.257-.028 0-.115-.029-.143-.029-.2zm.17 1.938a.888.888 0 0 1-.656-.285zM11.96 6.015c.171.057-.143.37-.2.342zm-1.513 7.639c.114.028.057.142.086.2.143.028.2-.058.171.142-.086-.029-.171.057-.285 0 .028-.114-.029-.2.028-.342zm-.057-.827c.228.143.571.228.6.456zm8.306-4.96c-.171-.028-.542.057-.571-.228.257.057.371.029.6.029-.03.085.028.114-.03.2zm-2.14.97c.085-.029.484-.057.284.114zm-4.282-1.682c.114-.143.342.085.342-.2.057.656.571.228.97.57-.113.37.086.4.143.599-.4.057-.485-.428-.884-.342.028-.114.142-.114.085-.171-.228.228-.257-.171-.456-.228-.115 0-.229.142-.343.2 0-.172-.143-.257-.285-.314.142-.314.285-.228.428-.228.057.028-.029.114 0 .114zm-.6.028c.086-.2.058-.114.172-.285zm-.342-.114c.086-.256.314-.114.143.086zm16.697 4.561c.257.086.4-.028.514.171a1.724 1.724 0 0 1-.543.171zm.457-.143c.057-.256-.229-.085-.172-.341.114-.143.314-.058.486-.058-.03.086 0 .143.028.2-.143.057-.2 0-.343.2zm-.813-1.112c.127-.012.258-.143.213.058zm-.1-.028l.1.028a.135.135 0 0 1-.1-.028zm1.426-1.596c.029.285-.542.228-.514.057-.057 0-.028.143-.085.143-.029-.057 0-.228-.114-.2 0 .114.057.171 0 .2 0-.171-.114-.171-.171-.086.028-.171-.143-.142-.058-.399.226.141.48-.109.568.217-.043-.187.232-.158.232-.046-.057-.028-.2.143-.086.143.171-.057.285-.2.542-.171-.085.342.057.142.086.399-.228.057-.171-.257-.4-.257zm-2.597 1.254l-.029.257c-.085-.057-.256-.057-.256-.228.114 0 .142-.114.285-.029zm.001-.642c-.158.036-.296.172-.315-.099zm.227.072l-.227-.072a.216.216 0 0 1 .227.072zm-.513-1.853c.228.086.485-.313.57.114-.142.029-.2-.028-.4.029.115-.257-.313.057-.17-.143zM24.603 19.27c0 .143-.029.314-.143.314zm.4-7.382c-.314-.086-.257.256-.2.456-.4.256-.057-.627-.457-.542.143-.399.628.029.656.086zm1.34-.713c-.456-.599-1.055-.142-1.626-.485.057-.342.228-.085.343-.085.485.057 1.056.057 1.455.142-.085-.142-.114-.484 0-.74.057.284.628.341.685.199.029.228.114.37-.085.456.057-.257-.543-.37-.543-.029.057.285.514.143.685.114-.114.314-.028.514-.228.656.171-.285-.171-.256-.057-.485-.057-.028-.057-.057-.086-.085-.085.342-.4-.029-.4.37-.028-.085-.056-.142-.085-.2-.029.143.114.229-.057.172zm.23-1.938c.085-.456.399 0 .484-.428-.028.257-.057.228.029.4-.2-.058-.314-.086-.514.028zm2.768-.599c.028-.057.314-.285.228-.114-.057 0-.028.2-.085.2.028-.2-.143.17-.143-.086zm-1.627 2.537c-.029-.228.171-.086.114-.342.228-.029.257.2.371.285-.086.085-.314-.029-.257.313-.2.057-.028-.342-.228-.256zM26.487 8.38c-.057.029-.115.086-.115.2-.114-.114-.314-.114-.37-.314.285.257.57.057.742-.285.028.2.057.086.17.086-.056.285.258.342.343.228-.028-.057-.171-.029-.114-.2.314.143.6.599.8.114-.058-.028-.144 0-.144-.085.115-.057.229-.029.314.085-.17-.028 0 .114 0 .2-.17-.086-.142.171-.142.342-.143-.085-.114.086-.2.114-.029-.114-.143-.114-.2-.228-.085.314-.285.114-.257-.085-.142.057-.628.057-.827-.172zm3.368-.256c.085-.485-.628-.428-.771-.827.2.086.685.029.999.171-.057.342-.029.77-.228.656zm-3.483-1.197c.229-.057.286.456.4.028.114 0 .114.114.257.086-.114.456-.542.228-.657-.114zm1.085.142c.314-.028.57-.057.685.314zm-.285-.028c.057-.086.257-.086.257.085zm2.055.798c.028.285.314-.057.4.228-.457.171-.828-.37-.914.171-.029-.228-.057-.428-.2-.485-.485.4-1.427.057-1.77-.17.4.056.8-.058 1.057.199 0-.143.057-.228.142-.2.428.285.942-.256 1.456.2-.029.228-.171-.171-.171.057zm-.029-1.91c.143-.257.485.114.656-.171-.028.086 0 .143.029.2-.228.2-.457.057-.685-.029zm.742 4.447h.2c-.029.114-.029.285-.114.342.057-.228-.114-.143-.086-.342zm-5.594 9.321c.086-.086.285.029.371.114zm.285-10.803c.115 0 .172.057.2.17zm.714-1.483c-.029-.342.314-.085.171.029zm.542.2c-.057-.257-.085-.029-.143.057-.057-.171.03-.228.086-.342-.114 0-.2 0-.2-.143.172.114.371 0 .257.171.057 0 .086-.085.143-.114.086.114-.057.143.028.2.115.057.086-.143.143-.2.114 0 .114.114.257.086-.057.342-.428-.029-.57.285zm.114.484c.029.029.029.029.029.086-.343-.086-.4-.2-.714 0 0-.2.086-.171.086-.342.228.057.285.114.485-.029-.028.2-.028.314.114.285zm.314.656c.143.029.086.171.057.342zM25.202 6.87c.057 0 .4-.171.457.114zm.605.003c.09.048.336-.084.28.168zm-.005-.003l.005.003a.063.063 0 0 1-.005-.003zm-5.928-.478c.172.055.475.129.59.221zm-.095-.035l.095.035a.737.737 0 0 1-.095-.035zm2.912 1.054c0 .029 0 .086-.115.057.057-.17.029-.256-.085-.228-.029.257-.057.171-.057.4-.057.085-.143.056-.257.028-.057-.456-.542-.4-.885-.456 0-.228.143-.029.143-.257-.029-.028-.057-.028-.057-.085.17.142.314.028.456.028 0 .114-.057.257 0 .285.143-.085.143.114.229-.028-.057 0-.086-.057-.086-.143.057 0 .086-.114.143-.114.142.285.628.029.656.542zm-.657 2.737c.057.028.143.085.143.17-.114-.056-.029.371-.143.314.057-.2-.228-.057-.143-.285 0-.114.115-.028.143-.114-.028 0-.057 0 0-.085zm1.199 5.074c.028-.114.057-.228.143-.257 0 .143.228.057.17.228-.056.057-.17.057-.313.029zm.419-6.445c-.167-.047-.306.14-.362-.111zm.009.003l-.01-.003a.21.21 0 0 1 .01.003zm-.171 5.359c-.2.028-.229-.114-.428-.114 0-.257.228-.143.37-.143-.028.114.115.086.058.257zm-1.656.94c.314-.085.77.37.857 0-.229-.142-.486.143-.628-.228.4-.028.742.143 1.113.285-.2.114.057.228.057.342-.514.257-.685-.114-1.256-.114-.114-.114 0-.142-.057-.228 0 .114-.057.029-.086-.057zm1.2.257c.085-.228-.258-.171-.286-.114zm-2.07-8.553c.153.013.305-.049.385.172zm-.186-.084l.187.084a.286.286 0 0 1-.187-.084zm.914-.513c-.029-.257.228-.228.228-.086zm-3.368-.742c.028-.37.428-.228.37-.028zm.314.827c.085.086-.143.2-.057.342-.086-.085-.2-.342 0-.427-.057-.057-.057-.171-.143-.2-.029.143-.086.114-.143.171.143-.085.228.086.086.171-.029-.057-.172.057-.172-.2.03 0 .058-.085.086-.17.286-.086.856-.029.742.285-.057-.086-.228-.171-.4.028zm1.37 2.024c-.114-.029-.029-.285 0-.485zm1.883.97c-.085-.115-.2.256-.228 0l.086.028.057-.257c.057 0 .085.057.114.086zm-.2.284c.03.2.115-.142.2-.028-.085.17.058.142.029.285-.228-.114-.029.142-.171.17a.217.217 0 0 0-.057-.142c0 .029-.029.086-.057.057.057-.114-.058-.285.057-.342zm-.684-1.054c0-.257-.058.199-.115.114-.142-.143-.256-.057-.513-.2.028-.086 0-.143 0-.2.2-.256.57.286.6-.2.17-.085.17.086.342 0-.058.257 0 .457.142.514.086-.285.143.029.314-.086-.085.286.2.286.286.2-.257.342-.714-.085-1-.057.143-.143.03-.456-.113-.285-.029.085.228.142.057.2zm3.14-.656c-.086.142.085.256-.03.256 0-.2-.114.2-.17-.028.028-.143.057-.314.2-.228zm-.349-.978c-.172-.273-.481-.136-.65-.362.142.029.77-.028.77.2-.138-.083-.17.074-.12.162zm.006.009zm-.172 1.111c-.285-.057-.542-.028-.685-.256zm.3 3.834c-.032.02-.068.029-.1-.014zm.1.015l-.1-.015c.055-.032.1-.093.1.015zm-.057-4.704c.114.029.171.143.257.029-.114.399.2-.029.228.228-.143.057-.514.085-.485-.257zM22.62 13.84c.12.025.298-.027.298.099zm-.045-.015l.045.015a.184.184 0 0 1-.045-.015zm2.797-6.613c-.028 0-.057.114-.057.2-.228 0-.085.227-.256.313.057 0 0 .114.057.142.057.029.057-.114.114-.114 0 .086.057.086.114.086-.2.37 0 .342-.228.456-.2-.257-.486-.171-.514-.542.4.029.514-.484.542-.684.029.2.2-.114.228.143zM22.52 14.28c-.142.57-.085.2-.257-.029zm-.257-1.739c.029.171.115.228.257.171 0 .114.057.171.057.285-.228-.028-.314-.142-.57-.142.057-.171.17-.228.256-.314zm-.02-.695c.097-.02.199-.11.22.04zm-.094-.017l.093.017c-.032.006-.064.004-.093-.017zm0 2.622a.147.147 0 0 1-.02-.086zm-.02-.086l-.065-.284c.183.045.072.165.065.284zm-.001-5.613c.2.052.508-.085.62.17zm-.007-.002l.007.002a.316.316 0 0 1-.007-.002zm.122 4.899c.074.036.196.051.22.146zm-.037-.025l.037.025a.135.135 0 0 1-.037-.025zm-.057-3.933c0-.029.029-.086.057-.057 0 .114.086.057.143.028-.029.086 0 .143 0 .2-.114.114-.086-.029-.228-.029 0-.028 0-.085.028-.142zm-3.535 8.053c-.134-.06-.455.026-.375-.214zm.025.014l-.025-.014a.122.122 0 0 1 .025.014zm1.17-8.039c0 .314.257-.142.285.2-.057 0-.085.057-.114.114-.086-.057-.342-.2-.171-.314zm-1.541 0c.057-.2.142-.37.285-.399zm2.968 2.509l-.029.2c-.085-.058-.2-.172-.314-.058.057-.228.229-.114.343-.142zm-1.027 5.929c.028-.171.142-.143.228-.143 0 .086.057.086.028.2zm1.255 1.881c-.114.086-.257-.086-.314-.2zm-.171-1.682c-.314.086-.57.029-.742-.2zm.029.912l.2-.17c0-.086-.086-.058-.086-.143.257-.057.057.285.285.256 0 .228-.2.171-.257.314 0-.114-.171-.057-.142-.257zm-2.227-7.126c-.2.029-.4.4-.542.057zm-.628-1.995c-.114-.029-.17-.086-.114-.257zm1.342 7.81c.086-.114.457-.028.342.2zm.4-2.28c.028.2.028.399.028.627zm.913-4.362c.171.286.57.029.6.514-.543-.257-1.143-.314-1.942-.514.371-.427 1.085.457 1.342 0zm.314 4.732c.085-.057.342.029.285.257-.086-.029-.114 0-.171.028 0-.085.028-.17-.029-.2-.028.086-.085 0-.085-.085zm-3.197 3.62l-.057.2c-.285-.256-.656.029-.913-.342.37-.143.513.228.97.143zm-.842-9.379c.113.043.242.08.328.2zm-.185-.113l.185.113a.406.406 0 0 1-.185-.113zm0 9.35c-.057.057-.172.057-.286 0zm-.885-5.998c.183.092.54.054.513.297zm-.029-.017l.029.017a.276.276 0 0 1-.029-.017zm.343-1.852c.057-.2 0-.428.2-.371zm2.968 6.128c-.029.143.029.171 0 .285-.342-.17-.656-.028-.742-.37.171-.057.428.057.742.085zm.396 1.926c-.124-.036-.339 0-.339-.13zm.032.012l-.032-.012a.194.194 0 0 1 .032.012zm-3.51-.228c-.172 0-.229.257-.428.228-.03-.17.028-.114.028-.342.143-.085.371.057.4.115zm2.246-.587c.097.043.232.045.123.245zm-.077-.154l.077.154c-.055-.024-.098-.061-.077-.154zm-.628-6.67c-.114-.028-.114-.17-.171-.256.142-.029.257 0 .314.142-.057 0-.086.057-.143.114zm.642 7.91c-.036.043-.071.086-.157.043zm.157-.043l-.157.043c.036-.043.071-.085.157-.043zm1.305-.513a.163.163 0 0 1-.078 0zm.265 0h-.265c.072-.016.136-.064.265 0zm6.736-1.168c.057 0 .057-.057.114-.057 0 .37.4-.114.4.228-.143.142-.457 0-.571-.086.057 0 .085 0 .057-.085zm.77 1.625c-.114.114-.314.028-.37-.086zm-.028-1.426c.085-.142.456 0 .57.171zm-.314.713l.028-.257c.257.314.628-.114.828.314-.4.114-.457-.143-.856-.057zm-.2-.257v.2c-.428-.143-.714.085-1.085-.342.286-.057.628.114 1.085.142zm-.143.941c-.143.114-.4 0-.428-.171zm3.653-1.482c0 .17.03.256.058.342-.343.228-.514-.37-.685-.086 0-.142-.029-.228-.086-.285-.029.086-.314-.028-.371-.085.485.028.714-.143 1.085.114zm.314 1.539c0 .086.086.086.058.2-.257.313-.771-.057-1.114-.086.2-.427.657.086 1.056-.114zm-1.232-3.466c-.102-.006-.252.047-.252-.069zm.062.017l-.062-.017a.125.125 0 0 1 .062.017zm.714 4.817c-.143.143-.228-.17-.314-.285zm-4.538-1.482c-.029-.428.37-.257.314.029zm3.767-.057c.029.057 0 .142.057.142 0-.085.086-.057.057.057-.142-.028-.114.143-.228.143-.057-.086-.057-.37.114-.342zm-7.82-4.162c-.143.057-.485.029-.286-.17zm1.684 1.597c-.143 0-.143-.114-.114-.285zm-.4-.114c.029-.086-.028-.086-.028-.2l.142.029-.028.199c-.086-.086-.2.171-.2-.029zm-.085-1.625c.313.085.513-.456.827-.114-.085 0-.085.085-.171.057 0 .085.057.085.029.2-.314-.172-.628.284-.685-.143zm-.115 4.076c-.2-.057-.628.114-.456-.2zm14.3-8.98c.057.2.2-.085.228-.142-.057-.17-.285.057-.143.143zm-12.387 9.522c.2.057.428.057.456.285-.085.114-.256-.057-.485-.029zm.942 0c-.143-.029-.314 0-.314-.172zm.513-4.305c-.114.086-.428.057-.456-.114zm-2.483-5.216c.171-.114.428-.171.485.057zm.913 9.55h-.028c-.2.284-.485.028-.714 0 .143-.2.657-.172.742 0zm-.17-.286c0-.228.17-.314.056-.485.371.143.628.029 1 .228-.258.286-.315.058-.657.029-.086.086-.057.314-.143.399-.143 0-.171-.114-.257-.171zm-14.7-3.62c.257.142.286.17.571.256-.057.114-.114.2-.171.228-.086-.285-.514-.114-.4-.484zm-1.455.285c-.114-.114-.485-.114-.314-.314zM5.88 14.31c.4.342.542.2.884.541a.46.46 0 0 0-.085.257c-.057 0-.114-.057-.143 0-.029-.57-.428-.114-.685-.656-.2.2.029.257.029.4-.115-.03-.172-.115-.2-.2zm2.055-3.05c-.286-.172-.6-.343-.714-.6.257.058.514.371.828.428zm.314-8.723c-.115.114-.229.2-.314.171zm-.6 13.255c-.2-.086-1.113-.2-.885-.57zm-.685.627c.2-.171-.114-.342.143-.342-.057.228.143-.114.085-.171.2.17-.028.285-.057.598zM8.191.94c.115.085-.085.256-.17.399zM9.59 13.169c-.114-.028-.029.2-.2.143.029-.342-.37-.228-.4-.513.257.142.514.285.6.37zm-.371 2.623c-.086-.029-.2-.114-.086-.114.143.17.143.057.229.2-.086.17-.172.142-.286.17-.028-.17.029-.085.143-.256zM8.39.2l.2-.2c.057.114.086.171.257.143-.057.057-.086.114-.114.17C8.648.2 8.534.115 8.39.2zm.6 12.057c.21 0 .311.139.475.257zm.475.257l.21.114a.841.841 0 0 1-.21-.114zm-.219 4.903c-.17-.057-.2-.428-.028-.457 0 .114-.086.257.114.286zM8.588 4.21a.127.127 0 0 1-.054-.02zm.174.065l-.174-.065c.067.009.13-.025.174.065zM1.684 10.29c-.314-.285-.628-.57-.714-.826zm-.171 2.252c-.143-.17-.457.029-.229-.285zm-.77-2.28c-.058.085-.087.142-.058.2l-.228-.2c.114-.086.599-.171.428.114zm.77-1.026a.181.181 0 0 0 0-.171c-.057.028-.143-.029-.086-.086.114.114.228-.114.343.114-.115.086-.2.143-.257.143zm14.756 8.18c-.2-.028-.314-.142-.314-.313zM3.31 11.032c-.057-.228-.4-.028-.286-.399.143-.085.257.171.4.228zm1.455 2.452c.029-.029.058-.114.115-.086-.229.257.256.314.057.542-.2-.028-.314-.285-.371-.485.085.029.142.114.2.029zM3.71 11.345c-.114-.086-.285-.171-.17-.314zm-.884 1.54c-.029-.03-.086-.086 0-.172-.057-.057-.115.029-.172-.057.115-.228.371.114.172.228zm-.742-1.027c.256.114.57.37.97.656zm2.854 2.423c-.114-.057-.2.086-.314-.057a.348.348 0 0 0 .114-.257c.143.086.228.171.2.314zM.426 10.687C.222 10.54 0 10.42 0 10.147zm.316.402l-.316-.402c.139.102.27.216.316.402zm13.215 1.52c.162.035.391.002.37.247zm-.143-.095l.143.095c-.065-.014-.119-.039-.143-.095zm.714-1.255c.114-.228-.229-.028-.143-.285.2.029.314.143.371.371zm-.143 4.362c-.114.057-.343 0-.285-.171zm-1.57 1.938c.176-.044.291.017.423.08zm.423.08l.49.091a.81.81 0 0 1-.49-.092zm.29-1.277c-.285.028-.542-.171-.713-.257zm-.485-6.585c.058-.114.315.029.257.114zm.286 5.445c.086.028.171.064.257.1zm.257.1l.257.1a3.806 3.806 0 0 1-.257-.1zm1.712-2.039c.2-.057.229.086.4-.085-.057.142.028.228-.114.313-.057-.114-.286-.114-.286-.228zm.657-1.938c-.171-.029-.229 0-.229-.228zm-.942-1.425l.257.085-.086.2c-.114-.2-.257.2-.485-.029.029-.342.342.029.314-.256zm.485 7.183c-.171.057-.4-.029-.371-.257zm-.314-5.216c-.143-.057-.171-.228-.057-.314zm-2.968 6.185c-.143-.057-.343-.085-.286-.256zm18.951.713c0-.228-.285-.456 0-.485.029.086 0 .2.057.2h.115c.085-.171-.057-.228.057-.342.028.2.171-.114.2.142-.058 0-.115 0-.115.057.257.029.172.171.371 0-.142.228-.028.4-.17.485-.172.057-.372-.285-.515-.057zM10.79 13.939c.057-.029.142 0 .257.057-.029.142-.115.228-.2.2.085-.143-.086-.143-.057-.257zm-.885 2.708c.143-.057.342.143.4.257zm1.798-2.309l-.086.2c-.342 0-.57-.143-.485-.514.257.029.314.086.571.314zm-1.113 3.05c-.171.029-.2-.028-.2-.228zm.6-.542c.142.029.285 0 .456.114zm.998-2.109c-.171-.114-.456-.057-.428-.342zm-1.883 2.48a2.666 2.666 0 0 1-1.085-.57zm1.255-9.407c.029.029.314-.114.172.171zm.457.228c.4.086.8.285 1.313.656.114-.142 0-.37.171-.285-.028.143-.057.314-.085.485-.257-.171-.543-.257-.8-.371-.256-.114-.513-.228-.599-.485zm-.656 6.756c.142.029.256.029.256.2zm9.304-4.39c-.114-.142.171-.17.057-.256-.143.256-.171-.342-.342-.086.085 0 .17.057.142.171-.142-.085-.37-.085-.4-.285.058 0 .058-.114.087-.2.2.143.256-.17.142-.256.171.114.428.57.6.342-.172-.028-.172-.2-.257-.313.085 0 .17.028.17-.114-.17-.143-.227-.057-.256-.314-.2.513-.343 0-.6-.057-.313-.057-.656.114-.799-.342-.285.342-.742-.285-1.198.029.114-.257-.114.028-.057-.143.142-.086-.229-.257 0-.428.114.171.228.285.37.114.229.6.886-.028 1.085.428.172 0 .314-.028.457-.028.029.085-.029.256.057.285.114-.314.114 0 .257.057.143-.314.97-.086.999.142.086.029.086-.17.2-.085.085.142.257.427.085.655.029-.142 0-.228-.085-.228-.057.257-.114 0-.172.228.143-.114.314.086.2.171.029-.114-.171-.028-.2.029.115.057.172.17.286.2.2-.428.285.17.57-.371 0 .114.115.142.03.342-.115.057-.258.085-.286.37-.514-.17-.685-.285-1.142-.057zm29.927-4.221c.096-.063.19-.136.127-.026zm-.158.031l.158-.031c-.078.05-.158.095-.158.031zm2.426-.028c0-.257-.257-.057-.285-.285.114 0 .314-.143.37 0-.114.028.03.285-.085.285zm8.82 16.19c-.143.086-.172-.085-.257.057 0-.114-.058-.142-.086-.2.143-.028.314-.085.342.143zm-8.42-16.618c.142.029.085-.2.257-.171 0 .37-.03.143.114.4-.086.085-.143.028-.314.113 0-.2 0-.142-.057-.342zm-2.34.314c.113 0 .199.057.256.17zm25.63 12.912l.04-.268c.06.02.138.018.196-.007.03.178-.138.492-.236.275zm-14.842 3.022c.143-.086.086-.057.257-.057zm15.755-3.022c-.034-.102-.069-.195-.066-.264a.65.65 0 0 0 .066.065.165.165 0 0 0 .124.03c-.042.06-.01.17-.124.17zM64.76 21.35c-.228-.17.2-.028.2.171l-.257.057c-.057-.142.028-.142.057-.228zM37.903 8.837c-.171-.029-.257-.171-.342-.314zm.086-1.027c-.057.171-.228.143-.371.029zm1.113 0c.057-.142.343-.028.428.029zM36.79 8.95c.029 0 .057 0 .057-.056-.057-.057-.314-.143-.2-.257.115.029.4.485.143.314zm.57-.455c-.227 0 .115.37-.113.399-.086-.2-.171-.114-.257-.2.057 0 .057-.142.085-.2.115.029.372-.199.286 0zm-.541.142c-.057-.171.2-.285.228-.143zm12.53-2.508c.142.17.342-.2.342.085.057-.142.2-.2.314-.256.114.2.228-.057.314.17-.428.143-.742.2-.914.2.172-.028-.2-.085-.057-.2zM36.076 8.523c-.115.057-.343.257-.371-.057zm.114-.057c.028-.029.37-.114.37.114zm-.2-.086c-.029-.142-.114-.17-.114-.342h.228c-.114.371.4.086.257.257-.171 0-.257.057-.371.085zm.57 1.34c0-.2-.113-.2-.256-.2zm9.134-3.05c0-.342-.2.171-.285-.114.114-.114.17-.285.4-.256-.03.114.028.37-.115.37zm.514-.2c0-.227.171-.227.285-.313zm-2.14 0c.113-.028.142.143.17.257zm4.594.428c.115.029.229.114.314.171zm.343-.77a.216.216 0 0 1-.018.014zm-.018.014l-.325.243c-.027-.357.158-.131.325-.243zm-10.257.243c-.114.057-.257.143-.457.143zm-.77.37c0-.199-.258-.398-.372-.199.057.029.086.029.086.143-.114.028-.286-.143-.457.028.029 0 .057.029 0 .057 0-.142-.114-.114-.143-.256.372-.228.514-.057.942-.257-.085.171.086.4-.057.485zm.998 1.397c.057.343-.285.171-.456.228.057-.256-.172-.37-.029-.684.143-.028.2.029.257.114-.057.057-.2.086-.228.2.142 0 .2.171.285.256-.057-.2.114-.114.171-.114zm1.056-1.51c.172 0 .115-.285.257-.285.029.17-.085.2-.057.399-.085 0-.143-.029-.2-.114zm-1.141-.143c.228-.228.57-.313.827-.313-.028.2-.342.028-.314.285.286.028.514-.342.743-.171-.229.085-.4.313-.771.313-.057-.427-.286-.142-.485-.114zm.399 8.623c-.071-.029-.143-.057-.2-.1zm.2.1l-.2-.1c.071.028.143.057.2.1zm21.406 7.24c-.114-.285.229-.285.257-.057zm-21.406-7.81c0-.029-.029-.086-.057-.057-.2 0-.2.2-.228.285-.029-.086-.086-.114-.115-.2.143-.17.058-.399.115-.684.114-.029.114.114.257.057.057.228-.172.114-.143.285.028.114.257.285.171.314zm-4.196 5.786c0-.028.057-.085.057 0-.057.029-.057.057-.057.143h-.142c0-.2-.086-.143 0-.285.085 0 .085.114.142.142zm.2-.655c.057.199.172.113.172.256 0-.029 0-.057.057-.057.057.257-.286.057-.314.2-.115-.143-.029-.371.085-.4zm-.742.598v.2c-.342-.057-.799.085-.999-.171.286-.228.657-.029 1-.029zm-1.297-2.342c-.104.293.334.468.098.546-.028-.057 0-.142-.057-.142-.057.028-.085.085-.114.142 0 .143.143.143.2.257-.171.057-.228-.086-.4-.057.05-.327.168-.543.273-.746zm.041-.08a6.233 6.233 0 0 1-.04.08.366.366 0 0 1 .04-.08zm-.913.683a.172.172 0 0 1 .039-.017c-.006.017-.022.017-.039.017zm.039-.017c.003-.012.001-.032-.01-.068-.115.028-.143-.057-.143-.2.314 0 .37.114.57-.057.058.114.086.228.115.4-.131 0-.382-.12-.532-.075zm.532 1.842c-.143.028-.114-.171-.2-.257h.2zm3.34-.542c0-.171-.086-.114 0-.257.37.172.684 0 .998.172-.086.17-.171.028-.257.142.086 0 .171.029.2.114-.4.171-.97.086-1.513.057 0-.257.4-.228.571-.228zm4.766-4.219c.17-.057-.057-.2.114-.285.085.171.028.143.085.342-.057 0-.17.029-.2-.057zm-.172.314c-.228-.114-.17-.827.057-.485zm-1.084-1.71c-.143.085-.229.056-.314-.115.082-.02.09-.144.153-.201.032.089.052.187.104.144a.222.222 0 0 0 .037-.04c.012.055.02.122.02.211zm12.615 7.012c-.142.057-.314.057-.4-.086.072 0 .14-.045.2-.082.071.017.144.03.216.038-.023.026-.04.057-.016.13zm-.2-.168a.873.873 0 0 1-.428-.231c-.114-.121.265-.227.428-.257.075-.013.52.134.74.08-.051.08-.097.214-.169.262-.028.02-.047-.118-.057-.085-.026.091.095.285 0 .285a2.6 2.6 0 0 1-.298-.016l.013-.013c-.067-.116-.143-.078-.228-.025zm-.057.51c-.057.085-.257.085-.285-.114zm1.541.142c-.085.029-.2.029-.142.171.085-.028.342.086.228.171-.057-.142-.114.143-.257.114-.057-.256-.285-.17-.428-.285a.64.64 0 0 1 .6-.17zm6.88.285c-.058.086-.172.086-.315.114-.028-.142-.086-.142-.114-.256.057-.114.314 0 .428.142zm-1.856.143c.143-.029.228.085.314.142zm-1.77-.428c-.057 0-.142 0-.142.086.114.028.599-.114.456.114-.142-.171-.485.114-.57-.114.114-.086.142-.4.256-.086zm-.228-.456c.057-.085.314-.085.342.143zm-20.407-.17c-.229 0-.486 0-.571-.2zm22.093.91h-.007.007zm0 0l.512-.027c-.047.117-.404.041-.512.027zm-19.5-1.845c-.118.027-.244.15-.224-.12zm.147.08l-.147-.08c.056-.012.11-.003.147.08zm1.998.398l.006.002zm.006.002l.536.112c-.31.028-.397-.082-.536-.112zm-.834-.486c-.2.057-.143.057-.343.17-.085-.056-.17-.085-.17-.256.256.086.427-.142.513.086zm-3.282.969c-.172.085-.429.057-.486-.2zm.886-1.009c-.097-.004-.401.114-.401-.16zm.027.011l-.027-.01c.014 0 .023.003.027.01zm10.026.555c-.08.083-.116.233-.236.072zm.135-.042l-.135.042c.034-.035.076-.059.135-.042zm-2.255-.57c.014-.056.028-.098.042-.14.112-.03.22-.08.329-.13.036.002.081.006.143.013l.028.2c-.2.057-.285.143-.428-.028 0 .228-.314.285-.4.114.08 0 .013-.145.046-.19a.3.3 0 0 0 .04.026c.055.06.128.087.2.135zm-13.272.114c-.428.171-.942.029-1.256-.142zm16.098.998c0 .085.028.17-.029.2-.143-.115-.314-.086-.428-.03.057-.284.257-.142.457-.17zm1.227-.228c-.029 0-.057-.029 0-.057.114.228.485-.029.57.2-.228.113-.485.028-.627.028.057-.029.057-.086.057-.171zm-15.962-10.98l-.07.094-.037.001c.012-.039.033-.084.057-.09a.23.23 0 0 1 .05-.005zm11.024-1.62c-.008.03.068.005.086.029a.037.037 0 0 1 .006.025c.078-.036.203.017.25-.054.035-.05-.121-.056-.142-.114a.348.348 0 0 1-.02-.122c-.045.061-.16.166-.18.236zm.428.286c.02 0 .039.002.057 0 .048-.007.097-.014.143-.029.013-.004.015-.028.029-.028.013 0 .025.015.028.028a.17.17 0 0 1 .002.055c.006-.003.025.01.027.002.028-.112.134-.256.057-.342-.066-.074-.229.004-.286.086-.041.059.066.13.086.199.003.01-.02-.002-.029 0-.047.008-.094.023-.142.029l-.019.002c.015.002.032-.002.047-.002zm.229.2c-.005.008-.003.018 0 .028.016.057.006.138.057.17.072.047.218.106.257.03.036-.074-.136-.092-.2-.143a.482.482 0 0 1-.086-.086c-.006-.008 0-.019 0-.028-.002.013-.022.016-.028.028zm-.114-.628c.035.012-.05-.028-.107-.064a.362.362 0 0 0 .106.064zm35.26 7.116c-.01.01-.018.015-.012.01l.012-.01zm-23.015 5.622a.45.45 0 0 0-.001.032c0 .014-.035.04-.029.029l.03-.061zm-2.77.26c.05-.023.138-.123.086-.142-.126-.046-.29.105-.4.028-.07-.049.188-.186.114-.228-.096-.055-.267.013-.314.114-.04.089.195.174.143.257a.078.078 0 0 1-.012.015c.132-.006.292-.002.383-.044zm-1.748.283a.673.673 0 0 1-.268.11.77.77 0 0 1 .161-.136.196.196 0 0 1 .107.026zm-.735.544c-.09-.15.227-.284.257-.456.027-.155-.388-.232 0-.37.65-.232-.114.384.086.398.04.003.081 0 .124-.006-.183.175-.454.455-.467.434zm-3.613-1.702c.03-.08.051-.178.103-.236.327-.374.092-.003-.103.236zm-.12.133c-.049.045-.077.052-.06-.014a.073.073 0 0 0 .06.014zm-10.966-1.31c-.032-.064-.01.113-.034.216.03-.077.062-.161.034-.216zm-2.94-1.682a.4.4 0 0 1 .115.057c.007.006-.003.02 0 .029.006.02.013.042.028.057.034.033.08.052.114.085.015.015.008.057.029.057.027 0 .035-.042.057-.057.008-.005.019 0 .029 0 .019 0 .04-.008.057 0 .008.004-.007.022 0 .029.006.006.025-.01.028 0 .01.027.015.06 0 .085-.045.075-.154.114-.171.2-.01.05.094-.073.143-.057.057.019.054.13.114.142.038.008-.002-.09.028-.114.03-.024.076 0 .114 0 .01 0 .022-.007.029 0 .007.007-.01.027 0 .029.113.019.229.016.342.028.067.007.133.029.2.029.03 0 .057-.022.086-.029.01-.002.024-.008.028 0 .055.091.039.264.143.285.084.017-.08-.286 0-.256.129.048.093.32.228.342.105.017-.082-.21-.057-.314.012-.046.075.06.115.086.058.038.165.055.2.114.044.075-.022.217.056.256.062.031-.006-.172.057-.2.186-.08.401-.05.6-.085.02-.003.037-.037.057-.028.056.024.088.141.143.114.06-.03.005-.137.028-.2.008-.02.04-.017.057-.028.012-.008.02-.039.029-.029.077.087.085.269.2.285.084.012-.085-.27 0-.256.16.024.21.294.37.313.094.011.035-.207.115-.256.046-.029.096.063.114.114.032.09-.066.3.029.285.16-.025.259-.204.342-.342.02-.035-.073-.048-.086-.086-.01-.028.002-.099.029-.085.103.051.143.158.171.256.011.038.033.075.029.114-.006.06-.09.12-.057.171.036.059.133.076.2.057.036-.01 0-.076 0-.114v-.028c0-.029-.006-.058 0-.086.004-.02.035-.037.028-.057-.007-.02-.049-.009-.057-.028-.023-.053-.02-.114-.029-.171 0-.01-.01-.03 0-.029.116.01.23.03.343.057.01.002-.008.024 0 .029.044.026.098.031.143.057.023.013.038.038.057.057.019.019.042.034.057.057.005.008-.009.024 0 .028.017.009.038-.001.057 0 .219.018.439.029.656.057.01.002-.007.035 0 .029.04-.036.075-.077.11-.118-.073-.102-.019-.32-.138-.367-.106-.042.129.287.028.342-.175.097-.442.096-.6-.028-.055-.044-.038-.116-.008-.194-.027-.056-.036-.179-.077-.148-.068.051.01.171 0 .256 0 .01-.02.005-.028 0-.03-.015-.056-.04-.086-.057-.056-.03-.122-.044-.171-.085-.077-.066-.104-.196-.2-.228-.055-.019.065.126.029.17-.03.039-.115.011-.143-.028-.059-.08-.016-.215-.086-.285-.036-.036-.023.104-.057.143a.242.242 0 0 1-.143.085c-.034.004-.07-.026-.085-.057-.045-.089-.016-.215-.086-.285-.036-.036-.102.089-.142.057-.074-.057-.08-.17-.115-.256-.003-.01-.01-.029 0-.029.022 0 .04.015.057.029.032.025.049.1.086.085.048-.019.067-.092.057-.142a1.188 1.188 0 0 0-.171-.457c-.023-.033-.08.046-.086.086-.015.104.029.209.029.314 0 .013-.02.017-.029.028-.04.052-.085.099-.057.171.038.1.092.192.143.285.006.012.018.02.028.029.056.04.119.07.172.114.007.006 0 .019 0 .028 0 .038.02.083 0 .114-.012.018-.04-.041-.057-.028-.034.025-.016.103-.057.114-.034.008-.037-.058-.058-.086-.008-.01-.024-.016-.028-.028-.006-.018.014-.045 0-.057-.181-.163-.339-.382-.57-.456-.086-.028-.08.164-.144.228-.02.02-.058-.007-.085 0-.013.003-.023.016-.029.028-.023.046-.04.094-.057.143-.003.009.01.025 0 .028-.225.075-.448.221-.685.2-.087-.008.133-.213.057-.257-.132-.075-.305.01-.456.029-.01 0 .009.03 0 .028-.042-.01-.091-.021-.115-.057-.02-.031.03-.09 0-.114-.089-.073-.201-.167-.314-.142-.067.015.048.13.057.2.002.009-.019-.004-.028 0-.02.006-.038.018-.057.028-.02.01-.044.045-.057.028-.038-.047 0-.152-.057-.17-.051-.018-.068.086-.114.113-.012.007-.028-.015-.029-.028-.012-.104.092-.544-.314-.228-.055.042.047.13.057.2.002.009-.019 0-.028 0-.02 0-.039.002-.058 0-.038-.007-.096.006-.114-.03-.021-.043.005-.1.029-.142.026-.047.131-.063.114-.114-.177-.53-.22-.01-.228 0-.018.022-.08.028-.086 0-.028-.14-.048-.293 0-.428.034-.094.156.063.2.058.135-.017.278-.147.4-.086.107.054.026.26.114.342.077.073.208.073.314.057.034-.005.033-.057.046-.094-.162-.135-.245-.383-.446-.448-.17-.054-.337.16-.514.143-.076-.007-.041-.175-.114-.2-.048-.016-.008.127-.057.143-.066.022-.136-.084-.2-.057-.043.019-.01.096 0 .142.038.165.102.322.143.485.003.013-.02-.019-.029-.028-.01-.01-.028-.015-.028-.029 0-.01.033.008.028 0-.078-.137-.116-.326-.257-.399-.104-.055-.319-.03-.342.086-.02.104.249-.027.314.057.047.06-.057.148-.114.2a.16.16 0 0 1-.017.012c.033-.012.074-.022.102-.013zm5.195.485c.001-.021-.02-.038-.029-.057-.02-.047-.057-.092-.057-.143 0-.019.056.02.057 0 .01-.114.017-.237-.028-.342-.02-.047-.092-.057-.143-.057-.027 0-.062.03-.057.057.017.083.082.15.114.228.035.083.055.172.086.257.007.02.026.036.029.057.002.02.008.044.014.069a.3.3 0 0 0 .014-.07zm-3.482-.627c.012-.006.017-.022.028-.029a2.875 2.875 0 0 1 .235-.116l-.035.002c-.01 0-.028.01-.028 0 0-.077.074-.167.028-.228-.04-.053-.162-.055-.2 0-.07.103-.022.25-.057.37-.005.021-.037.021-.057.03a.342.342 0 0 0 .086-.03zm.428-.057c.015.006.055.024.106.044-.025-.028-.05-.06-.077-.073a.83.83 0 0 0-.172-.057c.05.025.093.062.143.086zm.457.085c.057-.064.038-.18 0-.257-.023-.045-.009.127-.057.143a.2.2 0 0 1-.143-.011.195.195 0 0 1-.05.119c.102.031.21.05.25.006zm-3.085.37h.002a.069.069 0 0 1-.002 0zm-.569-.256c.065.024.08.134.058.2-.032.088-.112.231-.2.2-.092-.034-.025-.25-.083-.303.068 0 .153-.123.225-.097zm5.169-1.435c.069.086.133.177.197.266.067.094-.212-.143-.228-.256-.003-.018.01-.018.03-.01zm.454.122c.047.018.097.036.143.059.046.023-.133-.007-.143-.057v-.002zm4.082-1.138c-.054-.004.157.082.114.114a.424.424 0 0 1-.13.06c.178-.006.36-.001.53-.032-.177-.023-.337-.13-.514-.142zm-1.214-.12a.181.181 0 0 1-.07.091.038.038 0 0 1-.008.003.13.13 0 0 1 .078-.094zm-.07.405c0 .012.003.028.01.046-.095-.182-.214-.358-.24-.56-.011-.097.132.23.222.203-.023.09.007.217.007.31zm.01.046c.016.032.032.064.046.096.016.036-.026-.037-.046-.096zm-.69-.626c.01.046.005.109-.034.124-.065.024-.267-.04-.2-.057.077-.021.155-.045.233-.067zm-1.376-.988c-.03-.03.015.033.044.098a.19.19 0 0 0-.044-.098zm-4.695.066c.054.09.114.178.1.276a.134.134 0 0 1-.05.081c-.024-.101-.078-.208-.064-.309a.174.174 0 0 1 .014-.048zm.425.88c.03.027-.006.18-.011.137a.503.503 0 0 1 .01-.138zm-1.295.508c0-.038.152-.002.114 0a1.863 1.863 0 0 1-.114 0zm-.628-.884c-.145-.027-.46.03-.429-.114.037-.165.318-.16.486-.143.068.008.03.136.057.2.004.009.02-.004.028 0 .04.017.08.065.118.085a2.01 2.01 0 0 1-.26-.028zm-5.48-1.51c-.079 0 .007.128.039.23.003-.1.036-.23-.04-.23zm-1.893-.363c.054.073.08.127.087.167-.057-.035-.11-.075-.107-.118a.1.1 0 0 1 .02-.05zm.209.277a.42.42 0 0 1-.246-.013c.08.001.137-.023.124-.097.086.051.183.09.122.11zm-.246-.013c-.16-.002-.412-.106-.354-.101.119.009.237.067.354.101zm20.663-4.91c-.051.08-.103.162-.174.22a1.862 1.862 0 0 0-.046-.053c.043-.123.165-.318.22-.168zm5.81 12.87c.03-.046.062-.074.102-.059a.169.169 0 0 1-.101.06zm-4.273-.195a1.36 1.36 0 0 0 .12-.133c-.025.067-.057.123-.12.133zm-14.53-6.128l.05.002c-.016.01-.033.007-.05-.002zm2.34.717c-.09-.006-.139-.08-.182-.163v-.024l.195.151a.426.426 0 0 0-.013.036zm-1.116-4.45a.73.73 0 0 0 .079.148c.055-.155.006-.212-.087-.217a.173.173 0 0 0 .008.068zm6.222-2.195c-.027-.004-.017.03-.007.066.175.027.35.054.522.03-.152-.068-.35-.076-.515-.096zm0 .142c-.007.018-.044-.013-.057 0-.021.021-.002.072-.029.086-.027.013-.076 0-.085-.029-.015-.043.012-.104.022-.153l.142.02c.007.028.014.057.007.076zm-.685.2c.077.084.312-.14.342-.029.038.138-.122.389-.257.342-.219-.075-.28-.397-.445-.553.123-.016.246-.037.37-.053-.058.086-.073.223-.01.293zm-.485-.314c-.084-.024-.154.028-.223.097a2.29 2.29 0 0 0 .348-.023.304.304 0 0 0-.125-.074zm-1.97.513c.042.02.086.026.132.024a.242.242 0 0 0-.078-.096c-.057.028-.095.051-.054.072zm-3.539.285c-.026.008-.039.03-.044.058a.288.288 0 0 1 .051-.06l-.007.002zm3.194 1.452a.048.048 0 0 0 .031.03c.101.03.212.017.322.003a1.12 1.12 0 0 0-.353-.033zm.402.23c.128.009.455-.11.343-.171-.117-.063-.254-.044-.392-.026.053.028-.017.192.05.197zm-2.026 1.026c.006-.012.042-.03.028-.028-.096.01-.381.067-.285.057.086-.01.172-.018.257-.03zm4.167.428c.002-.014.029-.042.029-.029 0 .023-.029.048-.034.068a.47.47 0 0 1 .005-.04zm-.057-.485c-.053.197.455.2.171.342-.025.013-.057 0-.085 0-.01 0-.023.007-.029 0-.072-.08-.288-.193-.2-.256.045-.033.093-.062.144-.088l-.001.002zm.402-.124l.002.005c.083.064.172.125.25.192.05-.09.103-.173.03-.187a.954.954 0 0 0-.282-.01zm.197.352c.004.061.054.143.115.143.055 0 .117-.097.085-.143a.857.857 0 0 0-.145-.155c-.03.055-.057.111-.055.155zm.428-.883c0 .007.002.017.004.027l-.003-.034a.03.03 0 0 0 0 .006zm-.256-.058c-.085.043.154.118.2.2.012.024-.04.036-.058.057-.021.027-.033.061-.057.086-.015.015-.045.046-.057.028-.075-.113-.055-.3-.171-.37-.07-.043-.233.067-.2.142.077.172.275.261.428.37.025.018-.034-.055-.028-.085.005-.026.042-.035.057-.057.023-.035.035-.078.057-.114.02-.033.075-.049.085-.086-.1-.022-.164-.216-.256-.17zm.993-.917a.298.298 0 0 1-.023.005c-.01.002.035.007.028 0a.136.136 0 0 0-.005-.005zm-.736.968c.002-.01.007-.022 0-.022v.022zm0 .12c.029.007.011-.045.003-.086a.237.237 0 0 1-.004.087zm-3.329-2.276c.013.029.015.073.019.115.006-.051.01-.101-.019-.115z"/></g></g></svg>