<svg xmlns="http://www.w3.org/2000/svg" width="20" height="20" viewBox="0 0 20 20"><g><g><g/><g><path d="M17.5 0A2.5 2.5 0 0 1 20 2.5v15a2.5 2.5 0 0 1-2.5 2.5h-15A2.5 2.5 0 0 1 0 17.5v-15A2.5 2.5 0 0 1 2.5 0zM1.25 17.679c0 .591.56 1.071 1.25 1.071h15c.69 0 1.25-.48 1.25-1.071V4.82c0-.591-.56-1.071-1.25-1.071h-15c-.69 0-1.25.48-1.25 1.071z"/></g><g><path d="M7.246 8.384a1.25 1.25 0 1 1 1.768-1.768 1.25 1.25 0 0 1-1.768 1.768zm3.75 0a1.25 1.25 0 1 1 1.768-1.768 1.25 1.25 0 0 1-1.768 1.768zm3.75 0a1.25 1.25 0 1 1 1.768-1.768 1.25 1.25 0 0 1-1.768 1.768zm-11.25 3.75a1.25 1.25 0 1 1 1.768-1.768 1.25 1.25 0 0 1-1.768 1.768zm3.75 0a1.25 1.25 0 1 1 1.768-1.768 1.25 1.25 0 0 1-1.768 1.768zm3.75 0a1.25 1.25 0 1 1 1.768-1.768 1.25 1.25 0 0 1-1.768 1.768zm3.75 0a1.25 1.25 0 1 1 1.768-1.768 1.25 1.25 0 0 1-1.768 1.768zm-11.25 3.75a1.25 1.25 0 1 1 1.768-1.768 1.25 1.25 0 0 1-1.768 1.768zm3.75 0a1.25 1.25 0 1 1 1.768-1.768 1.25 1.25 0 0 1-1.768 1.768zm3.75 0a1.25 1.25 0 1 1 1.768-1.768 1.25 1.25 0 0 1-1.768 1.768z"/></g></g></g></svg>