<svg xmlns="http://www.w3.org/2000/svg" width="18" height="18" viewBox="0 0 18 18"><g><g><g/><g><path fill="#c02524" d="M4.957 1.51A6.221 6.221 0 0 1 9 0c3.026 0 5.538 2.25 5.812 5.151C16.602 5.405 18 6.904 18 8.745c0 2.02-1.685 3.63-3.727 3.63H11.25a.562.562 0 1 1 0-1.125h3.024c1.452 0 2.601-1.139 2.601-2.505 0-1.368-1.147-2.507-2.602-2.507h-.563v-.562C13.711 3.178 11.62 1.125 9 1.125a5.096 5.096 0 0 0-3.309 1.238c-.851.733-1.297 1.617-1.297 2.311v.504l-.5.055c-1.572.173-2.769 1.463-2.769 3 0 1.65 1.384 3.017 3.129 3.017H6.75a.563.563 0 0 1 0 1.125H4.254C1.92 12.375 0 10.537 0 8.233 0 6.249 1.424 4.607 3.31 4.19c.16-.971.785-1.939 1.647-2.681z"/></g><g><path fill="#c02524" d="M8.6 17.84a.564.564 0 0 0 .796 0l3.375-3.374a.563.563 0 0 0-.796-.797l-2.414 2.416V6.193a.563.563 0 1 0-1.125 0v9.892L6.02 13.669a.563.563 0 0 0-.796.797z"/></g></g></g></svg>