<svg xmlns="http://www.w3.org/2000/svg" width="206" height="56" viewBox="0 0 206 56"><g><g opacity=".3"><path fill="#00768d" d="M78.944 37.38c.072 0 .143 0 .143.143-.215 0 .287 1.208-.358.995.143-.498.072-.64-.144-.995.144 0 .144-.213.359-.142zm0 5.615c.358.071.645.284 1.147.497-.358-.426.215-.284.359-.497 0 .782.287-.426.502.142-.359 1.137-2.151.355-2.008-.142zm1.362 2.843c.43.142.646-.071.932-.143.072.356.144.711.359.995-.502-.213-1.362 0-1.29-.852zm-16.635-2.061c0-.285-.143-.356-.071-.711.358-.142.358.284.645.213 0 .498-.215.569-.574.498zm14.556 0c.358 0 .645.142.789.355zm7.744-7.036c.143 0 .287-.284.358 0-.215.213-.645.142-.717.498-.215-.427-.287-.285-.143-.853.358-.213.287.213.502.355zm-4.66 8.528c-.073-.497-.144-.142-.503-.142v-.498c.359-.07.215.356.502.356.072-.142 0-.356.144-.356 0 .214.215.214.143.498-.143 0-.215.142-.287.142zm-4.016-6.893c-.359-.356-1.29 0-1.363-.711.43-.142.287.284.502.355-.071-.71.717-.426 1.004-.284-.287 0 .144.426-.143.64zm14.412-1.99c.072 0 .215 0 .215-.142-.143-.071 0-.285.143-.356.072.214.216.427.287.64-.143.213-.502.071-.645-.142zm-11.616 4.05c.215-.923 1.076-.07 1.506 0zm-9.895-6.04c-.358-.071-.788.426-.86-.213zm9.895 3.837c.359-.142.574.072.86.143-.071.355-.143.568-.286.71 0-.497-.502-.426-.574-.852zm.215 2.559c.359 0 .215-.284.502 0v.355c-.215.284-.143 0-.502 0zm.717 7.533c-.215-.071-.717.213-.788-.142.215-.285.143 0 .502 0 .071-.142 0-.356.143-.356 0 .071 0 .142.143.142zM92.73 34.898c.214.013.442-.004.483.28zm-.191-.03a.924.924 0 0 1-.474.167c-.207.006-.396-.08-.58-.192-.029-.095-.137-.12-.137-.305h-.215a.166.166 0 0 1 .084.134c-.209-.136-.421-.261-.657-.276-.29-.019-.426.497-.717.497-.173 0 .022-.45-.144-.497-.125-.036-.258.097-.322.236-.085-.144-.164-.291-.18-.45-.013-.133.227-.163.287-.284.043-.084-.055-.207 0-.284.081-.113.339-.075.359-.213.019-.133-.26-.152-.287-.284-.03-.147.072-.295.143-.427.098-.18.176-.406.359-.497.115-.057.3.257.358.142.06-.12-.299-.15-.286-.284.018-.204.223-.344.358-.498.035-.04.143-.017.143-.07 0-.29.062-.65-.143-.854-.13-.128-.326.166-.502.214-.168.045-1.065-.198-.502.64.102.15.373-.086.502-.214.053-.053-.072-.138-.072-.213 0-.024.05.007.072 0 .05-.017.106-.109.144-.071.113.112.237.269.215.426-.073.503-.706.828-1.076.995-.236.107.186-.497-.215-.213-.069.049-.13.106-.188.168.039.037.078.09.116.116.072.048.138.104.215.142.022.01.048 0 .072 0h.144c.047 0 .143-.048.143 0 0 .242-.103.473-.143.711-.008.047 0 .095 0 .142v.071c0 .095.037.197 0 .284-.04.093-.155.133-.216.214-.083.11-.184.22-.215.355-.021.095.17.292.072.284-2.71-.216-5.384-.902-8.102-.924-.357-.003-.646.497-.646.853 0 .246.578.12.646.355.048.168-.454-.024-.502.143-.047.161.524.382.358.355-.433-.072-.936-.162-1.219-.498-.132-.156.468-.153.502-.355.034-.201-.46-.32-.358-.497.107-.187.707.206.645 0-.108-.356-.5-.622-.86-.711-.161-.04.165.507 0 .497-2.501-.142-5.017-.358-7.457-.923a.13.13 0 0 1-.094-.084.134.134 0 0 1-.05.084c-.211.162-.554-.145-.717-.356-.179-.232.048-.983-.215-.853-.298.148.26.966-.072.995-1.05.095-2.15-.217-3.083-.71-.296-.157.106-.77-.143-.995-.144-.13-.473-.013-.597.162a3.833 3.833 0 0 0-.192-.233c-.17-.193-.487.398-.717.284-.171-.085.465-.427.287-.497-.318-.126-.761-.028-1.004.213-.132.13.614.329.43.355a1.216 1.216 0 0 1-.932-.284c-.1-.09.394-.203.287-.284-.645-.492-1.48-.683-2.151-1.138-.16-.107.429.199.573.072.161-.142-.138-.682.072-.64.25.05.115.522.287.71.08.09.24-.017.358 0 1.342.197 2.685.381 4.016.64.046.01-.048.142 0 .142.086 0 .196-.058.215-.142.037-.163-.24-.49-.072-.497.637-.025 1.293.143 1.864.426.149.074-.137.591 0 .498.474-.323.647-1 1.148-1.28.186-.103-.213.64 0 .64.417 0 .908-1.332 1.577-.924.244.149-.213.853.072.853.3 0-.003-.776.287-.853.263-.07.657.152.762.416.276-.202.565-.38.887-.487.171-.057.043.44.215.498.276.09.73-.402.86-.143.149.295-.586.534-.502.853.085.32.53.513.86.498.794-.036 1.608-.242 2.295-.64.195-.112-.349-.347-.573-.355-.464-.017-.956.508-1.363.284-.28-.154.413-.54.717-.64.122-.04.02.387.144.356.212-.053.265-.353.43-.498a.331.331 0 0 1 .215-.07c.024 0-.013.05 0 .07.038.056.081.117.143.142.35.143.704.29 1.076.356.567.1 1.408-.341 1.72.142.25.384-.787.497-1.075.853-.109.135.415-.293.502-.142.113.194-.412.748-.215.64.384-.212.429-1.071.86-.996.414.073.117.865.359 1.208.1.141-.008-.414.143-.497.153-.084.338.2.502.142.222-.079.267-.497.502-.497.19 0 .327.158.464.312.137-.132.468-.126.468-.312 0-.205-.502-.15-.502-.356 0-.29.251-.856.502-.71.364.21-.061 1.208.359 1.208.523 0 .783-.734 1.004-1.208.35-.753-.458-.736-.789-.64-.38.11-.68.497-1.076.497-.172 0 .03-.497-.143-.497-.713 0-1.369.555-2.08.497-.303-.024-.276-.645-.573-.71-.655-.145-1.338.096-2.008.142-.023.002-.047 0-.071 0-.024 0-.07.024-.072 0-.024-.45-.294-1.01 0-1.35.203-.235.762.06.86.355.081.24-.826.497-.573.497.736 0 1.416-.54 2.15-.497 1.367.079 2.679 1.141 4.016.853.695-.15.536-1.329.932-1.919.057-.084.135.152.215.213.109.082.224.155.342.226.081-.07.192-.155.16-.226-.078-.175-.336-.186-.502-.284-.073-.044-.15-.087-.215-.142a2.42 2.42 0 0 1-.286-.285c-.035-.04-.02-.135-.072-.142-.698-.086-1.39-.256-1.434.711-.014.3.5.642.287.853-.193.19-.455-.373-.502-.64-.059-.334.373-.694.215-.995-.194-.369-1.452-.46-1.076-.64.697-.333 1.506-.256 2.295-.272-.03.1-.037.184 0 .13l.094-.133c.26-.008.517-.029.766-.08.205-.041-.295-.16-.59-.155.087-.12.17-.245.228-.377.281.273.69.54.936.746.106.088.097-.283.215-.356.101-.063.324-.114.358 0 .07.232-.368.8-.143.711.217-.086.433-1.32 1.075-1.066.474.188.958.486 1.22.924.14.236-.077.548-.093.827-.524-.03-1.614.593-1.628.594-.166.009.064-.344 0-.497-.066-.155-.193-.328-.359-.356-.856-.141-.358.76-.502 1.066a.452.452 0 0 1-.24.207c.275.163.545.33.742.575.012.015.02.03.027.047a.927.927 0 0 0 .116-.26c.045-.168-.43.016-.501-.142-.074-.165.035-.516.215-.498.456.046.915.296 1.219.64.12.135-.035.497-.216.497-.172 0-.002-.397-.143-.497-.105-.074-.24.092-.358.142.027.189-.263.568-.072.568.492 0 1.081-.164 1.362-.568.3-.43.475-.75.557-.98.166.246.378.455.447.27.232-.624-.248-1.334-.143-1.99.038-.242.123.574.358.64.313.085.641-.141.932-.285.048-.024-.124-.144-.071-.142.815.024 1.696-.128 2.437.213.252.116-.153.702-.43.71-.656.02-1.208-.614-1.864-.639-.19-.007-.143.444 0 .568.492.427 1.089.768 1.72.924.162.04-.162-.528 0-.497.789.151 1.45.71 2.224.924.654.18.175-.645.358-.71.225-.082.466-.13.71-.147-.045-.111 0-.31-.065-.423-.023-.04-.16.045-.143 0 .1-.246.224-.482.358-.712-.018.058-.022.11 0 .144.18.278.53.497.861.497.166 0-.157-.445 0-.497.343-.113.827-.12 1.075.142.228.241-.241.768 0 .995.36.338 1.05.047 1.435.355.222.179-.212.818.071.853.427.053.65-.76 1.076-.71.286.033.11.566.143.852.014.118.118.361 0 .356-.993-.048-1.946-.498-2.94-.498-.191 0 .455.405.287.498-.465.256-1.048.253-1.577.213-1.354-.103-1.231-1.015-2.797-.498-.181.06.456.408.287.498-.402.212-.955-.131-1.362.07-.222.11-.194.465-.215.712-.006.067.208.123.143.142-.234.068-.474.11-.717.141-.01.022 0 .048 0 .072 0 .024-.002.047 0 .071.046.474.068.951.143 1.421.02.126.043.278.144.356.138.106.487.315.502.142.03-.36-.45-.634-.43-.995.01-.205.502-.15.502-.356 0-.27-.362-.407-.502-.64-.018-.028.04-.083.071-.07.229.09.451.505.646.355.225-.173-.224-.677 0-.853.362-.283.942-.4 1.362-.213.26.116-.119.64.072.853.121.135.327-.161.502-.213.068-.02.144-.01.215 0 .288.038.685-.09.86.142.15.197.028.665-.215.71-.445.085-.838-.45-1.29-.426-.514.027-1.016.27-1.435.569-.103.074.016.36.144.355.544-.022 1.037-.497 1.577-.426.46.06.857.421 1.147.781.134.166.196.556 0 .64-1.037.447-2.616-.12-3.298.782-.495.654 1.624.246 2.438.355.071.01.147.022.215 0 .082-.027.132-.12.215-.142.281-.074.648.056.86-.142.258-.24.054-.819.36-.995.203-.118.334.663.501.497.29-.288-.017-.87.215-1.208.176-.255.72-.078.86-.355.06-.12-1.618-1.293-.143-1.493.499-.067.978.388 1.29.782.114.143-.433.045-.501.213-.107.265-.03.586.072.853.054.143.483.196.358.284-.235.167-.63-.1-.86.071-.122.091.15.288.287.356.218.108.537.307.717.142.27-.25.169-.717.286-1.066.023-.067-.066.187 0 .213.03.012.567-.015.431-.284-.024-.048-.137.124-.144.071-.075-.564-.438-1.27-.072-1.706.263-.312.94.076 1.148.427.152.256-.401.485-.431.781-.012.122.414-.18.359-.07-.16.315-.642.436-.717.781-.024.111.114.198.261.228-.062.14-.134.269-.261.34-.15.085-.302-.398-.43-.284-.24.215-.552.74-.287.924.299.208.641-.447 1.004-.426.536.03 1.058.864 1.506.568.446-.294.168-1.03.202-1.587a.042.042 0 0 0 .013.024c.048.047.076-.134.143-.142.144-.018.286.05.43.07.037.006.247-.021.215.072-.027.081-.17.069-.215.142-.105.173-.112.394-.215.569-.068.116-.365.174-.287.284.172.244.521.559.789.426.222-.11-.2-.463-.215-.71-.01-.15.076-.293.143-.427.01-.021.05.008.072 0 .05-.016.123-.12.143-.07.053.131-.135.47 0 .426.172-.057.08-.38.216-.498.09-.078.412.107.358 0-.068-.135-.295-.075-.43-.142-.06-.03-.09-.102-.144-.142-.004-.003-.212-.086-.215-.142-.02-.443.256-.985.084-1.363a7.801 7.801 0 0 1-.014-.01l.008-.002a.53.53 0 0 0-.078-.118.265.265 0 0 0-.18-.086c-.218-.196-.392-.415-.465-.695-.108-.416.987-.29 1.076-.711.07-.331-.666-.324-.789-.64-.062-.16.28-.2.43-.284.055-.031.206.059.215.071.115.153.151.363.287.498.091.09.231.12.358.142.033.005.04-.08.072-.071.083.02.146.09.215.142.027.02.044.052.072.07.044.03.092.055.143.072.023.007.061-.022.072 0 .044.087.017.203.072.284.019.028.038-.07.072-.07 0-.025-.002-.048 0-.072.021-.213.135-.435.071-.64-.045-.145-.48-.191-.358-.284.36-.274 1.46-.006 1.29-.426-.18-.444-1.038-.198-1.434.07-.236.161.072.568.072.854 0 .024-.05.01-.072 0-.03-.015-.042-.054-.071-.071-.092-.055-.197-.085-.287-.143-.245-.156-.474-.337-.717-.497a.612.612 0 0 0-.144-.071c-.022-.008-.048.003-.071 0-.144-.02-.343.045-.431-.071-.1-.132.159-.545 0-.498-.323.096-.38.694-.717.711-.694.036-1.312-.569-2.007-.569-.191 0 .081.455-.072.57-.14.103-.49.03-.502-.143-.023-.318.204-.629.43-.853.075-.075.04.267.144.284.637.11 1.31.233 1.936.071.185-.047-.466-.43-.287-.497.449-.167.992-.113 1.434.071.155.065-.163.357-.072.497.158.245.572.75.717.498.18-.313-.478-.637-.43-.995.026-.191.42-.186.574-.071.133.099-.166.502 0 .497.834-.024 1.626-.377 2.438-.568.096-.022.188-.071.286-.071.048 0 .094.026.13.059.15-.037.304-.111.444-.06.566.211.394.554.789.498.12-.017.297.035.358-.07.072-.126-.071-.283-.071-.427 0-.075.043-.144.071-.213.02-.05.037-.103.072-.142.157-.176.37-.302.502-.498.03-.044-.116-.113-.072-.142.285-.188.618-.293.932-.426.022-.01.048 0 .072 0 .024 0 .064-.023.072 0 .046.136-.031.325.071.426.123.122.33.12.502.142.033.004.042-.086.072-.071.048.024.055.092.072.142.15.448.273.905.43 1.35a.12.12 0 0 0 .072.071c.045.015.11-.033.143 0 .075.075.078.201.143.285.104.132.249.228.359.355.035.04.052.093.072.142.028.07.027.153.071.213.15.204.31.405.502.569.147.124.31.265.502.284.178.018.222-.53.502-.142.084.117.04.286.072.426.016.074.01.169.071.214.058.043.156-.04.216 0 .025.016.323.427.358.497.01.021-.01.05 0 .071.062.124.084.312.215.355.096.032.115-.227.215-.213.133.02.357.4.287.285-.14-.232-.33-.431-.502-.64-.043-.052-.099-.092-.143-.142-.123-.14-.227-.296-.359-.427-.017-.016-.054.017-.071 0-.017-.016-.013-.05 0-.07.037-.056.15-.076.143-.143-.044-.458.01-.998-.287-1.35-.199-.236.095.664-.072.924-.082.127-.28-.159-.43-.142-.1.01-.165.3-.215.213-.119-.206.127-.58-.072-.71-.155-.103-.172.426-.358.426s-.247-.279-.359-.427c-.032-.042-.041-.098-.071-.142-.019-.028-.078-.038-.072-.07.021-.127.207-.246.143-.356-.075-.131-.339-.022-.43-.142-.052-.069.159-.078.215-.143.09-.104.146-.235.215-.355.027-.046.044-.097.072-.142.045-.073.101-.139.144-.213.053-.092.115-.182.143-.284.044-.162-.084-.436.072-.498.141-.056.286.507.286.355 0-.255-.25-.457-.286-.71-.015-.105.079-.2.143-.285.014-.019.055-.016.072 0 .038.038.019.134.071.143.12.02.72-.1.574-.427-.079-.175-.457-.097-.502-.284-.095-.395.541-1.55-.287-1.848-.158-.057-.334.19-.358.356-.032.222.151.423.215.64.104.352.241.7.287 1.065.007.053-.102.038-.144.071-.08.063-.114.221-.215.213-.256-.02-.667-.536-.717-.284-.06.297.463.398.646.64.043.056 0 .142 0 .213 0 .142.031.288 0 .426-.019.084-.096.142-.144.214-.048.07-.104.136-.143.213-.08.159-.052.305-.215.426-.039.029-.125.044-.144 0-.137-.317-.177-.668-.287-.995-.015-.045.026.103 0 .142-.075.112-.185.373-.286.285-.21-.182-.186-.524-.287-.782a5.8 5.8 0 0 0-.215-.498c-.015-.03-.061-.039-.072-.07-.015-.046-.034-.11 0-.143.099-.098.48-.147.358-.213-.22-.119-1.306-.425-1.649 0-.054.067.28.086.215.142-.218.19-.5.377-.788.355-.176-.013-.038-1.194-.646-.213-.125.203-.14.483-.071.711.028.092.244-.085.287 0 .048.095-.102.187-.144.284-.03.069-.044.144-.072.213-.02.05-.024.119-.071.143-.064.032-.164-.05-.215 0-.05.05.067.235 0 .213-.177-.059-.371-.18-.431-.356-.032-.093.287.028.287-.07 0-.234-.058-.595-.287-.64-.215-.043-.234.4-.43.497-.13.065-.285-.07-.43-.07-.053 0-.12.118-.143.07-.146-.313.04-.886-.287-.995-.284-.094-.57.036-.858.18.024-.306-.19-.632-.433-.82-.11-.084-.148.477-.215.356-.176-.32-.344-1.345-.072-1.777.04-.063.167.013.215.071.176.214.154.711.431.711 1.388 0-.754-.902.071-1.066.446-.088 1.629.44 1.363.071a1.012 1.012 0 0 0-.426-.33 2.09 2.09 0 0 0 .139-.025c.214-.046-.321-.512-.144-.64.253-.182.65-.06.933.071.173.081.1.54.286.498.708-.159 1.271-.704 1.936-.995.155-.068.402-.207.502-.071.169.23-.204.78.072.853.372.098.64-.444 1.004-.569.272-.093.593-.177.86-.071.266.106.288.662.574.64.481-.039.738-.739 1.219-.782a.129.129 0 0 1 .047.002c.019-.041.05-.07.096-.073.155-.013.286.078.416.181-.013-.018-.01-.032.014-.04.345-.102.788-.142 1.076.072.283.21.03.865.358.995.359.142.876-.097 1.076-.427.15-.245-.597.188-.86.072-.013-.006-1.181-1.35 0-1.35.45 0 .828.393 1.147.71.072.071-.303.163-.215.213.209.119.537.23.717.071.311-.274-.755-1.29.645-.853.05.016.116.077.189.156-.052.149-.058.255.026.2a1.01 1.01 0 0 0 .09-.068c.307.358.649.788.484-.359a.96.96 0 0 0-.045-.194c.171-.266.343-.53.618-.658.204-.096.01.545.215.64.264.121.598-.018.861-.143.306-.145.454-.687.789-.64.253.036-.468.531-.287.711.293.29.815.297 1.219.213.248-.05.32-.394.502-.568.487-.466.883-1.09 1.505-1.35 3.118-1.302 4.553-.692 7.744-1.35 1.058-.22 2.044-.701 3.083-.996.302-.085.628-.06.932-.142 5.22-1.388 10.487-2.621 15.632-4.264.546-.174.74-.977 1.29-1.137 4.742-1.373 9.572-2.436 14.412-3.41 4.225-.852 8.549-1.162 12.763-2.062.499-.106.71-.882 1.219-.924 1.065-.086 2.093.448 3.155.569.404.046.892-.313 1.219-.071 1.366 1.01 2.539 2.285 3.585 3.624.163.209.063.616-.143.782-.263.212-1.199-.134-1.004.142.616.872 1.548 1.526 2.509 1.99.21.101.287-.406.287-.64 0-.39-.657-1.01-.287-1.137 1.19-.408 2.751.7 3.227 1.706.152.321-.231.796 0 1.066.516.603 1.661.565 2.008 1.279.373.768-.172 1.705-.144 2.558.044 1.332.116 2.67.359 3.98.142.767.115 1.81.789 2.203.526.306 1.259-1.248 1.649-.782 1.342 1.606 1.984 3.73 2.509 5.757.193.747-.612 1.524-.43 2.274.32 1.32 1.26 2.408 1.864 3.624.184.371.228.827.502 1.137.11.126.518.167.502 0-.075-.791-1.452-1.97-.717-2.274.765-.316 1.153 1.208 1.578 1.919.35.586.36 1.336.717 1.919.145.237.621.165.717.426.131.359-.007.78-.144 1.137-.067.174-.393.173-.43.355-.094.465-.112.984.072 1.422.091.216.767.083.645.284-.26.43-.8.892-1.291.782-.381-.086-.23-.75-.286-1.137-.183-1.25-.203-2.524-.431-3.767-.02-.105-.182-.12-.286-.142-.235-.05-.616-.29-.717-.071-.362.785.434 2.558-.431 2.558-.908 0-.128-2.136-.932-2.558-.583-.306-1.151.724-1.506 1.28-.155.242.052.579.144.852.316.94.704 1.853 1.075 2.772.013.03.043.053.072.07.164.102.313.319.502.285.367-.066.272-.366.287-.569.045-.622.032-1.234.43-1.776.05-.07.161.075.215.142.14.174.224.39.359.568.014.02.05-.01.071 0 .03.015.041.085.072.071.158-.067.534-.42.43-.284-.165.219-.406.367-.616.544.042-.04.1-.106.043-.117-.117-.024-.24 0-.359 0-.072 0-.175-.06-.215 0-.08.12-.201.362-.072.426.163.08.393-.359.502-.213.534.714 1.088 1.526 1.147 2.416.046.7-.223 2.21-.86 1.919-.894-.409-.62-1.867-1.004-2.772-.02-.049-.091.058-.143.071a.247.247 0 0 1-.144 0c-.27-.102-.501-.33-.788-.355-.094-.009-.003.19 0 .284.045 1.35.421 2.729.143 4.051-.165.782-.298-1.572-.502-2.345-.227-.863-.128-1.959-.789-2.559-.01-.008-1.126.932-1.075 1.422.106 1.027.502 2.023.502 3.056 0 .776-.134 2.957-.502 2.274-.703-1.307-.277-2.968-.645-4.406-.075-.294-.57-.933-.646-.64-.52 1.987-.363 4.102-.788 6.112-.107.505-.01-3.918-.789-3.27-.836.697-.648 2.09-1.147 3.056-.022.044-.067.069-.12.079a.2.2 0 0 1 .12-.079c-.144-.213-.287-.213-.431-.426-.115.057-.16.148-.165.264-.54-.61-.742-1.69-.552-2.396.072-.268.794-.16.717-.426-.08-.277-.61.072-.86-.071-.252-.145-.255-.864-.502-.711-.442.274-.6.903-.645 1.421-.016.181.458.037.502.213.145.575.25 1.24 0 1.777a.355.355 0 0 1-.195.168c-.032-.197-.163-.327-.451-.239l-.04.254a.392.392 0 0 1-.175-.112 2.59 2.59 0 0 1-.573-1.776c.018-.278.96-.293.717-.427-.399-.22-1.024-.233-1.363.071-.32.287-.151.85-.143 1.28.016.808.368 1.622.215 2.416-.061.318-.593.827-.789.568-.287-.38.163-.945.144-1.421-.03-.74-.093-1.488-.287-2.203-.076-.28-.379-.973-.502-.71-.69 1.474-.344 3.419-1.362 4.69-.489.61-.574-1.493-.574-2.275 0-.225.597-.131.574-.355-.025-.244-.404-.398-.646-.355-.76.135-1.43.577-2.151.852-2.434.933-4.868 1.868-7.313 2.772-1.785.66-3.509 1.559-5.378 1.919-.787.152-1.565-.417-2.366-.427-1.225-.014-2.468.061-3.657.356-.185.046.086.46-.072.568-.53.364-1.165.57-1.792.711-.655.147-1.338.098-2.008.142-.406.027-.812.071-1.219.071-.192 0-.38-.077-.573-.07-.6.017-1.21.281-1.793.141-.296-.07-.27-.739-.574-.71-.648.06-1.162.589-1.72.923-1.04.625-1.512 1.428-3.012 1.28-.402-.04-.462-.785-.86-.853-.806-.14-1.62.306-2.438.284-.113-.003-.19-.633-.502-.426-.239.158-.337.478-.574.64-.467.318-.975.586-1.506.781-.136.05-.287-.096-.43-.071-.173.03-.34.081-.507.137-.052-.007-.078-.007-.066.005l.06-.003c-.234.079-.465.166-.706.216-.052.011-.15-.018-.143-.07.023-.158.343-.332.215-.427-.294-.218-.731-.335-1.076-.213-.18.063.099.38.072.568-.008.053-.115-.025-.143-.07-.05-.085-.026-.199-.072-.285-.171-.32-.552-.562-.574-.924-.011-.192.311-.308.502-.284.12.015.013.25.072.355.066.118.152.284.287.284.078 0 .932-.283.86-.64-.078-.384-.325-.715-.502-1.065-.039-.077-.066-.175-.143-.213-.086-.043-.193.018-.287 0-.033-.007-.048-.095-.072-.072a.79.79 0 0 0-.14.203c.013-.177.051-.38-.075-.487-.226-.19-.611-.372-.86-.213-.243.155.14.802-.143.853-.315.057-.34-.62-.646-.71-.16-.049-.161.355-.071.497.226.355 1.34.751.932.852-1.234.306-.849-1.451-2.008-.781-.145.084-.214.409-.072.497.187.116.528-.328.646-.142.136.216-.236.46-.287.71-.024.12.186.394.071.356-.223-.074-.295-.383-.501-.497-.193-.108-.534.047-.646-.143-.123-.208.279-.51.144-.71-.107-.16-.16.354-.287.497-.05.057-.142.053-.215.071-.118.03-.331.19-.359.071-.076-.326.187-.662.144-.995-.055-.424-.238-.826-.431-1.208-.034-.067-.016.163-.071.213-.24.219-.59.313-.789.569-.074.095-.045.326.072.355.26.065.529-.206.788-.142.117.03.163.276.072.356-.166.144-.44.063-.645.142-.539.206-1.057.462-1.578.71-.125.06-.488.263-.358.214.44-.168.822-.532 1.29-.569.219-.017.572.218.502.426-.467 1.391-1.087.285-1.72.285-.139 0-.287.236-.216.355.215.362 1.335.977.933.853-.766-.237-1.814-.452-2.08-1.208-.042-.12-.002-.195.09-.241-.12-.029-.216-.091-.233-.186-.093-.532.576-1.043.43-1.563-.076-.27-.633.052-.789.284-.242.36.155 1.837-1.004 1.492-.044-.013-.055-.068-.048-.139-.072.261-.069.5.264.637.178.073.492-.103.573.071.122.261.126.956-.143.853-.551-.213-.605-1.115-1.147-1.35-.26-.114.272.768 0 .852-.31.096-.58-.276-.88-.432.211-.146.378-.34.449-.563.177-.558-.149-1.323-.645-1.634a.208.208 0 0 0-.043-.021c.182-.246-.016-.79-1.032-1.898-.31-.337-.27.884-.502 1.28-.05.084-.222.144-.287.07-.149-.168.008-.67-.215-.64-.253.037-.118.52-.287.712-.184.208-.649.695-.717.426-.112-.444.385-.836.502-1.28.03-.116.048-.367-.072-.355-.481.048-.894.379-1.362.498-.468.119-.95.213-1.434.213-.1 0 .232-.114.215-.213-.04-.241-.115-.618-.359-.64-.237-.021-.357.342-.43.569-.102.316-.308.76-.072.995.37.367 1.135.059 1.506.426.199.197-.51.295-.789.284-.354-.014-.7-.17-1.003-.355-.064-.039.105-.146.071-.213-.034-.068-.198.002-.215-.071-.064-.277.228-.683 0-.853-.191-.142-.347.352-.573.426-.101.034-.302-.036-.287-.142.024-.166.304-.196.358-.355.034-.1-.038-.27-.143-.284-1.032-.137-1.271.33-1.434 1.35-.017.105.198.083.287.142.02.013-.078-.023-.072 0 .026.103.19.19.143.284-.099.196-.284.398-.502.427-.211.028-.364-.328-.573-.285-.429.089-.728.512-1.147.64-.132.04.351-.332.215-.355-.473-.083-1.3.603-1.434.142-.133-.461.814-.58 1.29-.64.2-.025.365.618.43.427.078-.232-.54-.476-.358-.64.285-.256.8.092 1.147-.071.183-.086.368-.436.215-.569-.2-.172-.634.286-.788.072-.139-.193.47-.335.43-.57-.036-.21-.373-.356-.574-.283-.19.068-.124.75-.215.568-.15-.296.285-.825 0-.995-.262-.156-.58.296-.717.569-.213.423-.32.679-.354.814-.198-.153-.227-.697-.506-.743-.222-.037-.317.439-.216.64.14.277 1.067.359.789.497-.338.168-.728-.208-1.075-.355-.03-.013.089-.043.071-.071-.236-.374-.372-.918-.788-1.066-.631-.225-1.343-.01-2.008.07a.504.504 0 0 0-.358.214c-.223.36-.176 2.073-1.435.355-.153-.208.55-.187.646-.426.063-.157-.361.164-.502.07-.204-.134-.437-.407-.359-.639.072-.215.485-.053.646-.213.086-.085.047-.377-.072-.355-.374.067-.725.232-1.076.394-.251-.011-.35.013-.717-.039-.036.145-.073.253-.109.361a2.08 2.08 0 0 1-.392.065.393.393 0 0 1-.216-.053.702.702 0 0 1-.071-.089.077.077 0 0 0-.028.024c-.225-.173-.421-.47-.689-.45-.214.016.25.521.071.64-.517.341-1.172.483-1.792.497-.476.01-.893-.504-1.363-.426-.212.034.27.555.072.64-.22.092-.342-.485-.573-.427-.296.073-.29.822-.574.71-.273-.107.154-.566.215-.852.035-.164.227-.433.072-.498-.442-.184-.981-.226-1.434-.07-.262.089-.488.44-.43.71.05.23.878.254.645.284-1.305.169-2.644-.058-3.944.142-.179.028-.034.505-.215.498-.536-.023-1.111-.206-1.506-.569-.15-.139.298-.34.502-.355.171-.013.375.447.43.284.144-.427-.225-.927-.071-1.35.095-.262.455-.332.717-.427.05-.018.048.095.072.143.072.142.133.29.215.426.012.02-.02-.058 0-.071.205-.136.666-.6.645-.355-.04.466-.826.752-.717 1.208.086.36.812.545 1.075.284.25-.248-.524-.684-.358-.995.161-.302.668-.15 1.004-.213.125-.024.245.052.358-.071.196-.214.214-.675.502-.711.213-.026-.132.572.072.64.59.195 1.279.208 1.864 0 .202-.073-.287-.64-.072-.64.32 0 .442.476.717.64.103.06.243.028.359 0 .165-.041 1.525-.5.287-1.066-.253-.116-.445.484-.717.426-.229-.049-.07-.554-.287-.64-.156-.061.095.483-.072.498-.277.025-.533-.635-.717-.426-.225.254.446.746.215.994-.245.263-.812.174-1.075-.07-.244-.227.189-.789-.072-.996-.477-.378-.926 1.125-.932 1.138-.014.03-.039.065-.072.07-.118.02-.255.062-.358 0-.061-.036.06-.252 0-.213-.115.077-.117.453-.215.356-.213-.211.011-.82-.287-.853-.408-.045-.658.49-1.004.71-.02.013.01-.049 0-.07-.063-.147-.06-.465-.215-.427-.653.162-1.13.808-1.793.924-.3.052.85-.582.574-.71-.543-.254-1.241-.093-1.793.141-.228.097.028.663-.215.711-.214.043.071-.682-.143-.64-.243.049-.008.575-.215.711-.184.122-.523.041-.646-.142-.1-.15.396-.48.216-.497-1.998-.196-4.047.283-6.023-.071-.147-.027-.118-.169-.055-.344-.022.037-.05.059-.089.06-2.185.022-4.34-.594-6.525-.64-.18-.004-.034.497-.215.497-.506 0-1.14-.086-1.434-.497-.238-.333.259-.802.215-1.208-.013-.128-.284-.247-.358-.143-.279.391-.042 1.212-.502 1.35-.456.138-.756-.58-1.147-.852-.088-.061-.252-.042-.287-.142-.168-.478-.341-.99-.287-1.493.13-1.206.76-.142 1.004-.142.128 0 .143-.227.143-.355 0-.335-.419-.804-.143-.995.272-.189.568.341.86.497.021.012.072-.023.072 0 0 .168-.217.414-.072.498.27.155.658-.146.932 0 .147.078-.153.56 0 .497.374-.154.72-.474.86-.852.195-.522-.922-.611-1.003-.711-.027-.034-.01-.056.032-.072-.135-.015-.28-.143-.39-.07-.151.1-.171.322-.216.497-.005.022.04.052.063.066-.24-.131-.502-.24-.708-.421-.04-.035.101-.098.072-.142-.132-.196-.502-.262-.502-.498 0-.181.549-.037.502-.213-.1-.374-.406-.798-.789-.853-.245-.034.031.687-.215.71-.166.017-.272-.137-.357-.315-.081-.042-.166-.081-.217-.04-.367.304.42.789.43.853.03.19-.436.379-.286.498-.287 0-.294 1.06-.359.782-.13-.556.217-1.14.144-1.706-.029-.217-.349-.7-.43-.497-.113.278.403.576.286.852-.13.305-.766.815-.86.498-.169-.568.182-1.207.502-1.706.094-.146.467.313.502.142.06-.302-.056-.793-.359-.852-.26-.052-.096.747-.358.71-.353-.05-.291-.814-.646-.853-.318-.035-.516 1.004-.645.711-.25-.565-.165-1.312.143-1.848.17-.292.668-.107 1.004-.142.671-.07 1.044.243 1.721.64.103.06.098.265.215.284.1.017.117-.19.215-.213.422-.1.887-.298 1.29-.142.2.076-.2.567 0 .64.272.097.54-.212.79-.356.046-.027.019-.135.071-.142.144-.02.29.036.43.07.45.112-.19.426.359.854.751.585.936-.498 1.506-.498.18 0 .035.48.215.498.444.042.854-.262 1.29-.356a.753.753 0 0 1 .359 0c.065.019.086.177.143.143.12-.071.23-.218.216-.356-.007-.061-.062-.107-.122-.15-.299-.048-.606-.083-.882-.205-.154-.068-.192-.336-.359-.355-.293-.035-.565.23-.86.213-.152-.01-.396-.137-.359-.284.047-.187.61-.125.502-.285-.469-.697-1.085.123-1.29.356-.016.017.023.074 0 .07-.173-.024-.333-.104-.502-.141-.261-.058-.522-.133-.79-.143-.382-.014-.79.215-1.146.071-.47-.189-.648-.912-1.148-.994-.296-.05.5.641.287.852-.205.203-.507-.294-.788-.355-.053-.011-2.463.056-2.367-.853.15-1.416 1.661-.248 2.008-.284.203-.021.282-.687.359-.498.11.272-.264.564-.216.853.02.118.313.11.359 0 .11-.262-.267-.754 0-.853.696-.256 1.473-.093 2.223-.07 0 .345.114.695.287.994.047.083.28.096.286 0 .048-.734-.336-1.493-.143-2.203.064-.237.525.57.645.356.169-.301.021-.839-.287-.995-.48-.245-1.034-.255-1.585-.28a.126.126 0 0 0 .008-.005c.166-.103-.042-.505.143-.568a4.964 4.964 0 0 1 2.151-.213c.19.022.098.468.287.497a.713.713 0 0 0 .522-.152c.038.153.049.3-.02.436-.133.264-.86-.082-.86.214 0 1.666 1.655.046 1.72.07.195.075.143.329.1.58a.038.038 0 0 0-.028-.01c-.423 0-1.035-.027-1.219.355-.179.373.092 1.08.502 1.137 2.198.3 1.378-1.288 1.65-2.203.03-.103.265.037.286.142.068.335.06.686.053 1.035l-.053-.04.052.101c-.007.432-.002.86.163 1.249.12.282.167-.447.295-.843.041.003.086 0 .136-.01l-.103-.08a.548.548 0 0 1 .03-.062c.035-.058.084.112.144.142.043.021.117-.04.144 0 .13.194.378.425.287.64-.146.342-.883.339-.861.71.02.352.59.583.932.498.32-.08.337-1.139.502-.853.228.395.03.966-.215 1.35-.116.182-.493-.151-.645 0a.254.254 0 0 0-.071.177.119.119 0 0 1 .07.036c.112.111.065.288.01.468.031.088.122.184.062.243-.035.035-.083.044-.135.042-.012.094 0 .18.064.242.167.166.282-.581.502-.497.297.113.167.673.43.853.347.238.51-.358.717-.427.136-.045.287-.011.43 0 .427.036.542.142 1.004.142.169 0 .333-.07.502-.07.033 0-.1.089-.072.07.171-.113.444-.158.502-.355.082-.276.125-.746-.143-.853-.23-.09-.04.537-.215.71-.36.358-1.035.166-1.435.143-.213-.012-.6.145-.645-.213-.118-.94.849.316 1.219-.71.115-.32-.871-.312-.789-.64.132-.524.686-.983 1.22-1.066.284-.045.234.58.143.852-.058.173-.512.032-.502.214.022.424.149 1.137.573 1.137.391 0-.522-.826-.286-1.137.196-.26.617.365.932.284.326-.084.415-.561.717-.71.095-.048.037.284.143.284.153 0 .247-.389.359-.285.381.355.668.843.788 1.35.03.126-.276-.11-.425-.167a4.578 4.578 0 0 0-.435-.472c-.055-.051-.215-.005-.215.071 0 .34.342.68.215.995-.072.178-.322-.351-.502-.284-.157.058-.231.446-.072.497.732.234 1.557-.002 2.295.213.165.049-.014.426.143.498.24.11.8.192.789-.071-.026-.637-.423-1.243-.86-1.706-.139-.146-.254.364-.216.565-.381-.146-.674-.308-.215-.991.127-.188.496-.044.646-.213.084-.096-.21-.247-.144-.356.062-.102.274-.084.359 0 .084.084.053.25 0 .356-.076.15-.498.26-.359.355.431.294 1.135.059 1.506.426.19.188-.572.132-.717.356-.37.57.745 1.297 1.004 1.279.237-.017-.15-.799.071-.71.279.11.044.676.287.852.214.155.66.16.789-.071.197-.352-.464-1.305-.072-1.208.702.174.85 1.257 1.506 1.563.313.146-.605-.86-.287-.995.34-.145.427.702.789.782.213.047-.272-.462-.144-.64.102-.14.455.31.502.143.197-.708-.005-1.473.072-2.204.043-.411-.125-1.251.287-1.208.74.079 1.3.808 1.721 1.422.116.169-.3.391-.502.355-.188-.034-.249-.685-.287-.497-.058.287-.044.714.215.852.235.126.632-.102.717-.355.123-.366-.31-.763-.215-1.137.041-.162.43-.15.502 0 .218.453-.267 1.636.215 1.492.568-.169.004-1.384.502-1.705.343-.222.74-.3 1.155-.331a.275.275 0 0 1-.151-.096c-.281-.358-.617-1.135-.215-1.35.62-.33 1.418.117 2.079.355.171.062-.62.076-.502.214.212.245.615.356.932.284.162-.037-.024-.334 0-.498.003-.023.048.004.072 0 .12-.02.237-.07.359-.07.033 0 .067.037.071.07.02.165-.138.406 0 .498.115.076.1-.28.215-.355.063-.042.143.049.215.07.238.073.476.149.717.214.023.006.05-.01.072 0 .243.11.632.608.717.355.486-1.445-1.01-.906-1.362-.853-.09.014-.298-.035-.287-.142.021-.211.477-.474.287-.568-.214-.106-.364.314-.574.426-.107.057-.258.14-.358.071-.184-.128-.155-.475-.359-.568-.51-.235-1.095-.45-1.649-.356-.397.068-.275 1.354-.86.427-.052-.083.044-.19.071-.285.04-.142.066-.28.215-.355.021-.01-.023.077 0 .071.58-.144 1.355-.026 1.721-.497.223-.288-.644-.378-1.004-.427-.202-.027-.42.079-.573.214-.09.08-.005.255-.072.355-.085.126-.266.163-.358.284-.059.078-.05.189-.072.284-.027.118.024.282-.072.356-.156.12-.5.324-.573.142-.152-.376.177-.804.143-1.208-.012-.138-.078.336-.215.355-.133.019-.155-.31-.287-.284-.119.023-.085.235-.072.355.036.338-.026.756.215.995.205.203.709-.173.861.071.158.255-.006.748-.287.853-.219.081-.065-.713-.287-.64-.344.114-.229.81-.573.924-.313.104-.608-.538-.9-.44.1-.244.093-.583-.104-.626-.584-.127-1.19.02-1.78.19a.436.436 0 0 0-.013-.048c-.088-.262-.317-.458-.43-.71-.022-.049.095.047.143.07.096.048.184.114.287.143.128.036.32-.016.431-.071.03-.015.04-.06.071-.071.187-.062.378-.123.574-.142.012-.002.158.108.215.07.127-.083.244-.182.358-.284.126-.112.387-.189.359-.355-.039-.232-.266-.497-.502-.497-.168 0 .113.335.072.497-.037.148-.168.26-.287.355-.026.021-.048-.047-.072-.07-.048-.048-.128-.077-.143-.143-.036-.162.118-.38 0-.497-.357-.354-.788-.782-1.291-.782-.443 0 .829.414 1.076.782.133.197.078.525-.072.71-.105.13-.336-.023-.502 0-.023.004.021.06 0 .071-.092.046-.297-.057-.358-.07-.142-.032-.287-.092-.431-.072-.052.008-.062.195-.071.142-.055-.328.146-.743-.072-.994-.134-.155-.32.296-.359.497-.063.326-.064.692.072.995.079.175.662.178.502.284a1.988 1.988 0 0 1-1.362.284c-.164-.025.149-.423 0-.497-.258-.128-.674.29-.861.071-.216-.253-.226-.847.072-.995.29-.144.469.518.789.569.222.034.566-.131.573-.356.02-.683-.178-1.387-.502-1.99-.104-.193-.5-.307-.645-.142-.272.312-.086.847-.287 1.208-.088.16-.342.3-.502.214-.068-.037-.104-.102-.128-.177a.091.091 0 0 1-.015.035c-.098.135-.492.167-.502 0-.025-.427.176-.865.43-1.209.077-.103.318.264.359.143.049-.145-.135-.356-.287-.356-.225 0-.46.162-.574.356-.215.366-.097.922-.335 1.249-.027-.124-.06-.225-.095-.326-.12-.02-.2.01-.261.065-.043-.118-.094-.23-.169-.278-.292-.188-.661-.344-1.004-.284-.178.031-.04.45-.215.497-.6.164-1.294.32-1.864.071-.262-.114.19-.593.072-.852-.061-.133-.289.04-.43.07-.074.017-.162.019-.216.072-.216.214-.27.68-.573.71-.218.022.068-.585-.144-.64-.672-.171-1.403-.082-2.08.072-.306.07-.557.317-.823.5l-.252-.145c.036.108.104.16.187.188zm-6.712-10.421c.027-.166-.195-.316-.358-.356-.005 0-.01-.002-.014-.003-.06.19.082.4.297.608a1.01 1.01 0 0 0 .075-.25zm-2.653-.64c-.766-.024-1.557.351-2.294.142-.282-.08-.321-.58-.215-.853.164-.423.514-.817.932-.995.207-.087.353.4.574.356.169-.034-.025-.459.143-.498.652-.15 1.362-.174 2.008 0 .236.064.13.55.358.64.154.061-.145-.577 0-.497.312.171.289.852.645.852.33 0 .216-1.017.502-.853.534.307.453 1.173.86 1.635.115.13.181-.329.144-.497-.089-.405-.528-.724-.502-1.137.012-.191.446-.143.574 0 .142.158-.21.598 0 .64.285.056.456-.37.717-.498.077-.038-.127.129-.144.213-.01.052.048.095.072.142.048.095.185.186.144.284-.098.233-.703.416-.502.569.243.186.566.167.89.145.017.215.057.452-.102.494-.786.211-1.875-.73-2.437-.142a.356.356 0 0 0-.086.14 11.317 11.317 0 0 0-2.28-.282zm5.051-.22a.352.352 0 0 1-.148-.053c0 .02.002.042.004.063l.144-.01zm-.175-.135a.347.347 0 0 1 .034-.07.695.695 0 0 0-.007.152c-.027-.021-.038-.048-.027-.082zm.502-.71c-.077-.229-.48.11-.717.07-.084-.014-.204-.153-.143-.213.235-.233.533-.442.86-.497.403-.07.896-.109 1.219.142.287.222.167.737.352 1.04-.044.023-.074.056-.065.097.045.2.537.596.358.497-.405-.223-1.131-1.51-1.864-.64-.14.168.362.64.143.64-.264 0-.243-.684-.484-.643.174-.162.406-.3.341-.494zm1.65.639c.175.163.556.107.716-.071.03-.034.029-.084.01-.14-.218.02-.437.044-.655.069a.446.446 0 0 0-.15.045.453.453 0 0 0 .078.097zm.573-.64c.155.02.276.227.385.407l-.232.022c-.06-.188-.302-.447-.153-.429zm.717.64c.076-.075.095-.167.085-.27l-.417.037c.114.189.216.348.332.233zm-.144-1.208c.046-.2.401-.534.502-.356.2.351-.088.91.002 1.272l-.275.023c-.03-.285-.295-.648-.229-.94zm.646 1.137c.456.348 1.183.13 1.72-.071.103-.039.137-.16.16-.291l-.088.006c-.644.043-1.29.085-1.934.135a.383.383 0 0 0 .142.22zm2.08-.782c.129-.018.076.208.06.397a10.94 10.94 0 0 1-.26.023c.034-.188.044-.398.2-.42zm.142.64c.65.055 1.279-.304 1.92-.406-.663-.022-1.334.095-2.002.163-.01.126-.005.235.082.243zm2.367-.427c.048.004.078.034.098.08a.097.097 0 0 0-.027-.009 4.014 4.014 0 0 0-.518-.05c.148-.023.297-.033.447-.02zm.287.64c.303-.025.636-.413.573-.71a.451.451 0 0 0-.026-.084c.359-.022.757-.24 1.102-.13.352.113.423.721.788.782.25.04.278-.451.502-.569.213-.111.483-.127.717-.071.384.091.688.424 1.076.497.753.143 1.549-.036 2.294.143.135.032-.34.293-.215.355.163.08.4-.364.502-.213.16.236.019.582-.072.852-.023.068-.148-.026-.215 0-.062.025-.135.21-.143.143-.03-.237.228-.53.072-.711-.119-.138-.322.188-.502.213-.047.007.047-.149 0-.142-.18.025-.327.264-.502.213-.452-.13-.798-.92-1.219-.71-.458.227.068 1.21-.359 1.492-.337.222.196-.906-.071-1.208-.206-.234-.668-.093-.933.07-.13.081.505.242.359.285-.344.103-.809.17-1.075-.07-.174-.157.407-.44.286-.64-.1-.165-.31.304-.502.284-.318-.033-.54-.427-.86-.427-.568 0-1.085.494-1.65.427-.114-.014-.087-.183-.068-.344.013.147.032.282.14.273zm-.287-1.35c-.175-.078-.42.114-.574 0-.188-.14-.477-.505-.287-.64.502-.355 1.182-.49 1.793-.426.232.023.102.496.287.64.192.149.489.227.717.141.33-.125.478-.54.788-.71a.536.536 0 0 1 .502 0c.106.063.09.245.144.354-.12.03-.242.064-.359.072-.071.005-.174-.059-.215 0-.147.209-.051.612-.287.71-.334.14-.736-.016-1.075-.142-.255-.094-.374-.497-.646-.497-.191 0 .34.314.287.497-.038.133-.27.235-.439.318-.181-.138-.434-.227-.636-.318zm3.441-.57c.316.14.403.067.425-.073-.152-.072-.322-.04-.496.002a.144.144 0 0 0 .071.072zm.789-.639c.228.05.055.609.287.64.124.017.248.026.372.029-.226.223-.447.514-.731.54-.233.02-.077-.536-.286-.64a.385.385 0 0 0-.006-.003c.038-.239-.114-.671.364-.566zm3.155.427c.21-.003.42.016.63.044.018-.085.015-.156-.056-.186-.352-.153-.836-.152-1.148.07a.492.492 0 0 0-.118.125c.23-.029.461-.05.692-.053zm-19.351 22.77a.125.125 0 0 1-.08-.03c.034 0 .06.011.08.03zm8.113-9.12a.744.744 0 0 1-.191-.03l.065-.043zm1.471 1.02c-.213.118-.394.315-.486.04zm.374-.03l-.374.03c.118-.065.246-.107.374-.03zm-3.083-.996c-.144.071-.287.285-.359.498.072.07.144.142.144.355-.61-.12-.027-.756-.06-1.074.09.058.178.117.268.171a.173.173 0 0 1 .007.05zm-3.514-14.07c.287-.356.717-.143.86.141 0-.355.503-.781.718-.355-.43.569-1.076.853-1.578.213zm-11.992-6.25c.244.012.507-.002.592.209zm-.412-.147l.412.146c-.166-.008-.325-.03-.412-.146zM74.57 23.24c.287.07.502-.071.574-.285-.144-.497.071-.852-.215-1.35.573-.497.358 1.208 1.147.569-.072.426 0 .64.072.852-.574.143-1.22.711-1.578.214zm1.076-3.483c.215.213.717.071.645.711zm-11.042 24.59c.071-.854.502-.214.645.07zm12.62-24.519c-.275.136-.374.1-.503.09zm-.503.09l-.287.053a.615.615 0 0 1 .287-.052zM78.3 22.67c-.483.213.077.545.15.996l-.007-.001a.65.65 0 0 0 .008.008c.023.15-.01.313-.151.49-.287 0-.574-.143-.717-.356.215 0 .286-.142.358-.355-.287-.356-.573.355-.573-.356 0-.284.43.072.573-.355-.358-.213-.502.142-.717-.355.287.07.932-.213 1.076.284zm-1.291 3.98c.43.284.072-.71.358-.64-.071.498.216.355.216.71-.072.143-.574.427-.574-.07zm1.578-11.726c-.072-.426.286-.284.358-.498-.143.569.43.071.358.498-.286.426-.358-.071-.716 0zm-2.08 10.447c-.072-.356.144-.356.215-.498-.071 0-.215 0-.215-.142.072-.142.574-.426.574 0-.359.071-.144 1.066-.574.64zm1.362.213c-.358 0-.645 0-.573-.498.502.071-.144-.426.358-.497.144.213.072.782.215.995zm-1.218-2.345c0 .07.071.142.143.142 0-.213 0-.427.215-.356.072.427-.287 1.137-.502.64.359 0-.287-.569.144-.426zm-.43-1.28c-.144.071-.287-.07-.36-.142v-.355c.144.142.36-.497.431 0-.143.071-.143.284-.072.497zm.43 4.35c.042-.23.088-.441.286-.441zm-.359.554l.36-.555c-.048.266-.09.555-.36.555zm-.645-1.848c.143-.07.143-.142.143-.355.215.071.359.142.43.355-.071.142-.573.427-.573 0zm5.306.427c.573-.285.788.497 1.075.142v.497c-.502-.07-.717-.284-.86-.355.071 0 .143 0 .143-.142-.143 0-.358.07-.358-.142zm1.147 4.548c.43.142.502-.142.645-.355-.071.497.215.426.144.852-.359 0-.574-.142-.79-.497zm-4.302-5.117c.645-.071.717.64 1.219.213 0 .214.215.214.143.498-.43 0-.574-.071-1.076.142 0-.284-.215-.426-.286-.853zm7.17.142c-.287.142-.574.142-.86-.142zm-21.08 22.03c.215-.71 1.434-.781 1.362-.07zM78.45 23.674v-.007c.565.065.424-.497.853-.143.215-.142-.072-.995.358-.853.143.355-.358.569 0 .71.143 0 .072-.284.215-.355-.143.569.502.711.502.498 0-.071.072-.142.143-.142-.213 1.059-1.63.715-2.07.292zm3.649-3.348c-.144-.782.287.284.215-.498.072.142.86.142.574.356-.43-.142-.502.284-.79.142zm-1.936-.284c0 .497-.717.852-.932.64.143-.072.143-.143.143-.356-.789.142-1.506-.071-2.08-.355.79-.143 1.22-.498 2.008.213-.071-.213-.071-.427.144-.498 0 .427.43.356.717.356zm6.31-4.62c-.144.498.143.64-.287.853 0-.355-.215-.426-.215-.853zm-.86 5.046c.501.071 1.147-.071 1.218.497zm-1.65.853a.55.55 0 0 0-.358.142c-.216-.569.358-.64.215-1.35-.287-.071-.43 0-.574.142-.072-.64.502-.356.574-.71-.072 0-.215 0-.215-.143.573-.284.215.853.717.64 0 .71-.717.426-.359 1.279zM26.32 13.59c.236.188.61-.1.353.409zm-.077-.088l.077.088a.33.33 0 0 1-.077-.089zm7.672-2.701c-.287-.569-1.004.213-.717-.782.287.64.43-.142.86-.284-.501.71.216.64-.143 1.066zm1.147.213c-.143.356-.358.498-.502.284 0-.355.287-.426.502-.71.43.497.574.568.932 1.066-.358-.071-1.147.213-.932-.64zm-.502-3.482c.359 0 .717 0 .574.497zm-.43 8.67c.645.355 2.08.355 2.151 1.35zm4.59-3.411c.142-.426.142-.853.214-1.208.287.284.144.853.144 1.35zm2.818 15.764c.129.07.28.122.12.439zm-.094-.343l.094.343c-.102-.056-.19-.123-.094-.343zM36.066 9.878c.215-.995-.287-.568.502-.924.144-.426-.502.142-.143-.497.215.07.43.213.43.426-.215.498-.43.853-.789.995zm1.864 11.229c.072-.214.072-.356.072-.498.86-.07 1.219.71.717 1.208-.143-.355.072-.355 0-.568l-.215-.071c-.215.284.072.71-.215.64.143-.427-.359.355-.502.141.072-.284.358-.355.215-.497-1.004.569-1.29-.64-2.008-.853.215-.213.359-.853.646-.64.358.072-.43.356-.072.498.215-.142.43-.568.789-.213-.359.426-.287.568-.144.853.215-.142.574.213.717 0zm-2.294-.285c-.215-.426-.502-.142-.86 0-.144-.64.143-.781.215-1.563.143.497 1.003.071 1.147.71-.287.214-.645-.07-.932.143.071.497.645.213.43.71zm2.967-3.505c.295.097.665-.15.546.378zm-.17-.119l.17.119a.36.36 0 0 1-.17-.119zm-7.1-1.208c.216-.426.503-.853.288-.995-.287.142-.932-.071-.502-.64.573-.142.645.427 1.004.569 0-.071.071-.142.143-.071-.645.284-.287 1.35-.932 1.137zm2.152-2.772c-.143 0-.287.356-.43.569-.287-.071.071-.569.143-.853.144.071.359.071.287.284zm.215-6.396c-.358.569.287.569.287.924-.144 0-.287.071-.43.142-.144-.213-.359-.852.143-1.066zm-1.076 9.239c-.143-.497-.932 0-.358-.924.502.213.932.142 1.076.355-.216.142-.502.214-.718.569zm5.091-5.259c.215-.284.359-.64.574-.497l-.287.64zm7.887 15.634c-.215.143-.43.072-.716 0zm-2.15-5.33c.143-.355 0-.497-.072-.71h-.144c.287-.355.933-.284 1.004-.142-.143.497-.502.426-.789.853zm.645-2.416c.287.071.358-.426.645-.355 0 .355.215.569.215.924-.43-.142-.789-.284-.86-.569zm-5.952.071c.072-.64-.215-.284-.286-.142.071-.497-.502-.497-.574-.213.144-.853-1.29-.142-.789-1.066 1.004.64 2.366.498 3.083 1.635-.645.07-.86-.64-1.434-.214zm6.812-4.335c.359 0-.358.782-.502 1.066.215-.852-.502-.284-.645-.781.287-.498.574-.569.932-.569-.072.71-.43-.07-.502.569.215.142.43.07.574-.143-.072-.07-.072-.142 0-.355.43 0 1.147-.355 1.004.498-.144-.071-.574-.569-.86-.285zm-.897 13.372c.334.099.838.061.897.415zm-.178-.082l.178.082a.569.569 0 0 1-.178-.082zm.43-7.249c.215.284.574-.071.43.64zm-1.147-.071h.071s-.071 0-.071.071v-.071zm-2.08-8.457c.287.071.144.498-.071.924zm1.347 2.26c-.252-.097-.913.12-.486-.483zm.087.085l-.087-.086c.045.017.077.044.087.086zm-2.796 4.904c.215-.284.287-.213.717-.427.359.569 2.008.711 2.725.782-.144.426-.072.64 0 .853-.79 0-2.008-.569-2.582-1.208-.358.71-.573-.284-.86 0zm.502-5.614c.072-.427-.43.07-.287-.498.287.142.43-.213.717-.213-.143.284-.287.284-.358.569 0 0 0 .142-.072.142zm2.51-1.706c.358 0-.43-.355.071-.497-.072.355.359.284.287.64-.072 0-.43.283-.359-.143zm-.502-.213c.143-.142.501-.071.358.355zm35.492 14.781c0-.355.072-.497.358-.497.072.142 0 .355.144.355.143-.07.215-.284.215.142-.358-.142-.502.356-.717 0zm-54.78-23.31c.645-.425.071-.497.502-.923.358-.142.215.213.215.426-.287.285-.502.498-.717.498zm-4.016 14.57c.215-.072.933.142.502.568zM18.09 7.496c.208-.294.272-.675.624-.675zm-.165.178l.165-.178a.85.85 0 0 1-.165.178zm7.027 25.513c-.215.568-.86.284-.502-.213zm-.946-19.53c.172-.22.344-.468.516-.51zm-.344.342l.344-.341c-.115.148-.23.284-.344.341zm.86 3.269c.143-.497.932-.071.502.284zm-6.238 14.569c-.215.142-.789-.143-.574-.569zm6.955-15.92c-.143-.284.502-1.563.717-1.136zm-10.377 17.01c.314.098.757-.074.697.402zm-.163-.095l.164.094a.395.395 0 0 1-.164-.094zm.789.71c.358-.142.788.356.86.71zm-9.943-7.118c.523.545 1.553 1.008 1.195 1.717zm-.239-.344l.24.344a1.12 1.12 0 0 1-.24-.344zm11.83 6.61c.144-.072.79.426.933.71-.43.355-.502-.71-.789-.071-.215-.071-.215-.213-.287-.355zm-.07 3.766c-.574 0-.216-1.066-.646-.356-.144-.852-1.076-.71-1.147-1.492.358-.284.358.782.788.071.287.782 1.22.924 1.004 1.777zm.143.213c.573-.995 1.218.64.358.569-.215-.356.502-.285.215-.64-.215-.071-.358.284-.574.071zm18.929-11.797c-.502.071-.574-.142-1.147-.284zm-1.329 5.144c.259.174 1.029.07.755.612zm-.033-.027l.033.027a.231.231 0 0 1-.033-.027zm1.29-7.888c-.072.213-.215.426-.072.497l.43.142c0-.426.144-.284.216-.853.215.711 1.434.356 1.864.924-.645-.142-.215.498-.072.498.574.142.359.142.86.497.718.498 1.937.498 1.937.995-1.291 0-2.653-.64-3.872-1.066-1.29-.497-2.366-.924-3.083-1.635.501 0 1.147.853 1.792 0zm1.004.426c-.215.071-.574.213-.43.568zm-2.94.782c.215-.214.717-.356.43.355-.645-.497-.071.497-.502.497.072-.213-.143-.213-.071-.426.287.071-.072-.284.143-.426zm8.39-2.488c.214 0 .86-.213.716.569-.286-.213-.358.142-.645-.071 0-.285-.072-.356-.072-.498zm.43 4.833c-.502 0-1.076-.142-1.65-.71zm-12.907-10.66c.43.142-.358.924-.502.853zm-3.8 19.046c.287.07.143.355.215.497.359.071.502-.142.43.355-.215-.07-.43.142-.717 0 .072-.284-.072-.497.072-.852zM26.1 31.98c.573.355 1.434.568 1.505 1.137zm20.865-12.366c-.43-.07-1.363.142-1.434-.568.645.142.932.07 1.506.07-.072.214.071.285-.072.498zm-5.378 2.416c.215-.07 1.22-.142.717.285zm-10.755-4.192c.287-.356.86.213.86-.498.144 1.635 1.434.569 2.438 1.421-.287.924.215.995.359 1.493-1.004.142-1.22-1.066-2.223-.853.072-.284.358-.284.215-.426-.574.568-.645-.427-1.147-.569-.287 0-.574.355-.86.498 0-.427-.36-.64-.718-.782.359-.782.717-.569 1.076-.569.143.071-.072.285 0 .285zm-1.506.07c.215-.497.143-.284.43-.71zm-.86-.284c.215-.64.788-.284.358.214zm41.945 11.37c.646.214 1.004-.07 1.291.427-.43.214-.86.356-1.362.427zm1.148-.354c.143-.64-.574-.214-.43-.853.286-.355.788-.142 1.218-.142-.071.213 0 .355.072.497-.358.142-.502 0-.86.498zm-2.041-2.774c.32-.03.647-.357.535.144zm-.254-.069l.254.069a.342.342 0 0 1-.254-.069zm3.585-3.98c.072.71-1.362.569-1.29.142-.144 0-.072.356-.215.356-.072-.142 0-.569-.287-.498 0 .284.143.427 0 .498 0-.427-.287-.427-.43-.214.071-.426-.359-.355-.144-.994.568.351 1.205-.271 1.427.541-.11-.468.58-.394.58-.115-.143-.071-.501.355-.214.355.43-.142.717-.497 1.362-.426-.215.853.143.355.215.995-.573.142-.43-.64-1.004-.64zm-6.525 3.127l-.071.64c-.215-.142-.646-.142-.646-.569.287 0 .359-.284.717-.07zm.003-1.6c-.397.088-.743.428-.791-.248zm.571.179l-.57-.179a.545.545 0 0 1 .57.179zm-1.29-4.62c.573.214 1.218-.781 1.433.285-.358.07-.502-.071-1.003.07.286-.639-.79.143-.43-.354zm-3.8 29.138c0 .355-.072.781-.36.781zm1.003-18.406c-.789-.214-.645.64-.502 1.137-1.004.64-.143-1.564-1.147-1.35.358-.996 1.577.07 1.649.212zm3.513-2.204c-.071.356.287.569-.143.427-1.147-1.492-2.653-.355-4.087-1.208.143-.853.574-.213.86-.213 1.22.142 2.653.142 3.657.355-.215-.356-.287-1.208 0-1.848.144.71 1.578.853 1.721.498.072.568.287.923-.215 1.137.143-.64-1.362-.924-1.362-.071.143.71 1.29.355 1.72.284-.286.782-.071 1.28-.573 1.634.43-.71-.43-.64-.144-1.208-.143-.07-.143-.142-.215-.213-.215.853-1.004-.071-1.004.924a3.446 3.446 0 0 0-.215-.497zm1.721-4.477c-.502-.142-.789-.213-1.29.071.215-1.137 1.003 0 1.219-1.066-.072.64-.144.569.071.995zm6.023-1.208c.072-.497-.358.427-.358-.213.071-.142.788-.71.573-.284-.143 0-.071.497-.215.497zm-4.445 6.112c-.072-.569.43-.213.286-.853.574-.071.646.498.933.71-.215.214-.79-.07-.646.783-.502.142-.071-.853-.573-.64zm-1.004-6.538c-.359.142-1.578.142-2.08-.427-.143.071-.286.214-.286.498-.287-.284-.789-.284-.932-.782.717.64 1.434.142 1.864-.71.071.497.143.213.43.213-.143.71.645.853.86.568-.071-.142-.43-.07-.286-.497.788.355 1.505 1.492 2.007.284-.143-.071-.358 0-.358-.213.287-.142.573-.071.788.213-.43-.071 0 .284 0 .497-.43-.213-.358.427-.358.853-.359-.213-.287.213-.502.284-.072-.284-.358-.284-.502-.568-.215.782-.717.284-.645-.213zm6.955-2.7c-.143.852-.072 1.918-.574 1.634.215-1.208-1.577-1.066-1.936-2.061.502.213 1.721.071 2.51.426zm-9.321-1.351c.573-.142.717 1.137 1.004.071.286 0 .286.284.645.213-.287 1.137-1.362.569-1.65-.284zm2.724.355c.79-.07 1.434-.142 1.721.782zm-.717-.07c.144-.214.646-.214.646.213zm5.163 1.99c.072.71.789-.143 1.004.568-1.148.426-2.08-.924-2.295.426-.071-.569-.143-1.066-.502-1.208-1.219.995-3.585.142-4.445-.426 1.004.142 2.007-.143 2.653.497 0-.355.143-.569.358-.497 1.076.71 2.367-.64 3.657.497-.072.568-.43-.426-.43.142zm-.072-4.762c.359-.64 1.22.284 1.65-.427-.072.214 0 .356.071.498-.574.497-1.147.142-1.72-.071zm1.865 11.086h.501c-.071.284-.071.71-.286.853.143-.569-.287-.356-.215-.853zM61.162 49.107c.215-.214.717.07.932.284zm.717-26.934c.287 0 .43.142.502.426zm1.792-3.696c-.071-.853.79-.213.43.071zm2.797-.213c-.144.853-1.076-.071-1.434.71-.144-.639-.215-.07-.359.143-.143-.427.072-.569.215-.853-.286 0-.502 0-.502-.355.43.284.933 0 .646.426.143 0 .215-.213.358-.284.215.284-.143.355.072.497.287.142.215-.355.359-.497.286 0 .286.284.645.213zm-1.147 1.919c.071.07.071.07.071.213-.86-.213-1.004-.497-1.792 0 0-.497.215-.426.215-.853.574.142.717.284 1.219-.07-.072.497-.072.78.287.71zm.788 1.634c.359.071.215.427.144.853zm-2.796-4.69c.143 0 1.004-.426 1.147.284zm1.519.008c.226.12.844-.209.704.418zm-.013-.008l.013.008a.16.16 0 0 1-.013-.008zm-14.89-1.19c.43.137 1.191.32 1.481.55zm-.24-.09l.24.09a1.858 1.858 0 0 1-.24-.09zm7.314 2.63c0 .071 0 .213-.287.142.144-.426.072-.64-.215-.568-.071.64-.143.426-.143.995-.144.213-.359.142-.645.07-.144-1.136-1.363-.994-2.223-1.136 0-.569.358-.071.358-.64-.071-.071-.143-.071-.143-.213.43.355.789.071 1.147.071 0 .284-.143.64 0 .71.359-.213.359.285.574-.07-.144 0-.215-.143-.215-.356.143 0 .215-.284.358-.284.359.71 1.578.071 1.65 1.35zM55.354 25.3c.143.072.358.214.358.427-.286-.142-.071.924-.358.782.143-.498-.574-.142-.358-.711 0-.284.286-.071.358-.284-.072 0-.143 0 0-.213zm3.011 12.65c.072-.284.144-.568.359-.64 0 .356.574.143.43.57-.143.141-.43.141-.789.07zm1.053-16.068c-.42-.117-.768.351-.91-.277zm.023.007l-.023-.007a.532.532 0 0 1 .023.007zm-.43 13.36c-.502.072-.574-.283-1.076-.283 0-.64.574-.356.932-.356-.071.284.287.213.144.64zm-4.159 2.346c.789-.213 1.936.924 2.151 0-.573-.355-1.219.355-1.577-.569 1.004-.07 1.864.356 2.796.711-.502.284.144.569.144.853-1.291.64-1.721-.284-3.155-.284-.287-.285 0-.356-.144-.569 0 .284-.143.071-.215-.142zm3.012.64c.215-.569-.646-.427-.717-.285zM52.668 16.91c.383.034.763-.12.965.43zm-.469-.21l.469.21a.72.72 0 0 1-.469-.21zm2.295-1.279c-.072-.64.573-.568.573-.213zm-8.461-1.847c.071-.924 1.075-.569.932-.071zm.788 2.06c.216.214-.358.498-.143.853-.215-.213-.502-.853 0-1.066-.143-.142-.143-.426-.358-.497-.072.355-.216.284-.359.426.358-.213.574.213.215.427-.072-.143-.43.142-.43-.498.072 0 .143-.213.215-.426.717-.213 2.151-.071 1.864.71-.143-.213-.573-.426-1.004.071zm3.442 5.046c-.287-.07-.072-.71 0-1.208zm4.733 2.416c-.216-.284-.502.64-.574 0l.215.071.143-.64c.144 0 .215.143.287.214zm-.502.711c.071.498.286-.355.502-.071-.216.426.143.355.071.71-.573-.284-.072.356-.43.427a.54.54 0 0 0-.143-.355c0 .07-.072.213-.144.142.144-.284-.143-.71.144-.853zm-1.721-2.63c0-.639-.144.498-.287.285-.359-.355-.645-.142-1.29-.497.071-.214 0-.356 0-.498.501-.64 1.433.71 1.505-.497.43-.214.43.213.86 0-.143.64 0 1.137.359 1.279.215-.71.358.07.789-.213-.215.71.502.71.717.497-.646.853-1.793-.213-2.51-.142.359-.355.072-1.137-.287-.71-.071.212.574.355.144.497zm7.887-1.634c-.215.355.215.64-.072.64 0-.498-.287.497-.43-.071.072-.356.143-.782.502-.569zm-.874-2.438c-.433-.682-1.21-.34-1.636-.902.359.071 1.936-.071 1.936.497-.346-.206-.425.186-.3.405zm.014.022zm-.43 2.771c-.718-.142-1.363-.07-1.721-.64zm.753 9.559c-.081.048-.172.07-.252-.036zm.25.035l-.25-.035c.137-.08.25-.232.25.035zm-.143-11.726c.287.072.43.356.645.072-.287.995.502-.071.574.568-.359.142-1.291.213-1.22-.64zm-3.402 16.738c.302.063.749-.066.749.247zm-.112-.037l.112.037a.465.465 0 0 1-.112-.037zm7.027-16.487c-.072 0-.143.284-.143.497-.574 0-.215.569-.646.782.144 0 0 .284.144.355.143.071.143-.284.287-.284 0 .213.143.213.286.213-.502.924 0 .853-.573 1.137-.502-.64-1.22-.426-1.29-1.35 1.003.071 1.29-1.208 1.362-1.706.071.498.501-.284.573.356zm-7.17 17.624c-.359 1.421-.215.498-.645-.071zm-.645-4.335c.071.426.286.569.645.426 0 .285.143.427.143.711-.573-.071-.788-.355-1.434-.355.144-.427.43-.569.646-.782zm-.053-1.734c.245-.047.5-.274.555.1zm-.234-.043l.234.043c-.082.015-.162.01-.234-.043zm0 6.539a.364.364 0 0 1-.05-.216zm-.05-.216l-.165-.708c.46.114.181.411.165.708zm-.005-13.993c.503.13 1.277-.21 1.56.422zm-.017-.005l.017.005a.717.717 0 0 1-.017-.005zm.308 12.214c.184.089.493.128.552.365zm-.093-.062l.093.062a.342.342 0 0 1-.093-.061zm-.143-9.807c0-.07.072-.213.143-.142 0 .285.215.142.359.071-.072.214 0 .356 0 .498-.287.284-.215-.071-.574-.071 0-.071 0-.213.072-.356zM46.76 44.24c-.338-.147-1.145.065-.943-.534zm.06.034l-.06-.034c.022.01.042.02.06.034zm2.94-20.04c0 .781.645-.356.717.497-.143 0-.215.142-.287.284-.215-.142-.86-.497-.43-.782zm-3.872 0c.144-.498.359-.924.717-.995zm7.457 6.253l-.071.498c-.215-.142-.502-.427-.79-.142.144-.569.575-.285.861-.356zm-2.58 14.782c.07-.426.358-.355.573-.355 0 .213.143.213.071.497zm3.154 4.69c-.287.214-.645-.213-.789-.497zm-.43-4.193c-.789.214-1.434.072-1.865-.497zm.071 2.275l.502-.427c0-.213-.215-.142-.215-.355.646-.142.144.71.717.64 0 .568-.502.426-.645.781 0-.284-.43-.142-.359-.64zM47.97 30.274c-.502.071-1.004.995-1.363.142zM46.39 25.3c-.287-.07-.43-.213-.287-.64zm3.37 19.473c.215-.285 1.147-.071.86.497zm1.004-5.686c.072.498.072.995.072 1.564zm2.294-10.873c.43.71 1.435.071 1.506 1.28-1.362-.64-2.868-.782-4.875-1.28.932-1.066 2.724 1.137 3.37 0zm.79 11.797c.214-.142.86.071.716.64-.215-.071-.286 0-.43.07 0-.212.072-.426-.072-.497-.071.214-.215 0-.215-.213zm-8.031 9.026l-.144.497c-.717-.64-1.649.071-2.294-.853.932-.355 1.29.569 2.438.355zm-2.116-23.384c.284.106.607.198.825.5zm-.466-.281l.466.281c-.185-.068-.353-.142-.466-.281zm0 23.31c-.143.141-.43.141-.717 0zm-2.223-14.955c.46.23 1.36.135 1.291.741zm-.071-.04l.071.04a.691.691 0 0 1-.071-.04zm.86-4.62c.144-.497 0-1.066.502-.924zm7.457 15.28c-.071.355.072.426 0 .71-.86-.427-1.649-.071-1.864-.924.43-.142 1.076.142 1.864.213zm.996 4.801c-.312-.091-.852 0-.852-.325zm.08.03l-.08-.03a.49.49 0 0 1 .08.03zm-8.82-.568c-.43 0-.573.64-1.075.569-.072-.427.072-.285.072-.853.358-.213.932.142 1.004.284zm5.643-1.465c.244.107.584.113.309.612zm-.193-.383l.193.383c-.138-.06-.245-.152-.193-.383zm-1.22-16.913c-.142 0-.214.142-.358.284-.286-.071-.286-.426-.43-.64.359-.07.645 0 .789.356zm1.256 20.005c-.09.106-.18.213-.395.106zm.394-.107l-.394.107c.09-.107.179-.213.394-.107zm3.278-1.279a.413.413 0 0 1-.195 0zm.666 0h-.666c.182-.04.343-.16.666 0zm16.921-2.914c.144 0 .144-.142.287-.142 0 .924 1.004-.284 1.004.569-.358.355-1.147 0-1.434-.213.143 0 .215 0 .143-.214zm1.936 4.051c-.287.284-.788.071-.932-.213zm-.071-3.553c.215-.356 1.147 0 1.434.426zm-.79 1.776l.073-.64c.645.782 1.577-.284 2.079.782-1.004.285-1.147-.355-2.151-.142zm-.501-.64v.498c-1.076-.355-1.793.214-2.725-.852.717-.143 1.578.284 2.725.355zm-.359 2.346c-.358.284-1.003 0-1.075-.426zm9.178-3.695c0 .426.072.64.144.852-.86.569-1.29-.923-1.721-.213 0-.355-.072-.568-.215-.71-.072.213-.789-.072-.932-.214 1.219.071 1.792-.355 2.724.285zm.79 3.837c0 .213.214.213.142.498-.645.781-1.935-.142-2.796-.214.502-1.066 1.65.214 2.653-.284zm-3.097-8.641c-.257-.015-.633.116-.633-.171zm.156.042l-.156-.042c.061.003.115.015.156.042zm1.793 12.01c-.359.356-.574-.426-.789-.71zm-11.4-3.695c-.072-1.066.931-.64.788.07zm9.464-.142c.072.142 0 .355.143.355 0-.213.215-.142.144.142-.359-.07-.287.355-.574.355-.143-.213-.143-.923.287-.852zM55.713 38.873c-.359.142-1.22.071-.718-.426zm4.23 3.98c-.359 0-.359-.284-.287-.71zm-1.004-.285c.072-.213-.072-.213-.072-.497l.359.071-.072.498c-.215-.214-.502.426-.502-.071zm-.215-4.05c.789.213 1.29-1.137 2.08-.284-.216 0-.216.213-.43.142 0 .213.142.213.07.497-.788-.426-1.577.71-1.72-.355zm-.287 10.162c-.502-.142-1.577.284-1.147-.497zM94.36 26.294c.143.498.502-.213.573-.355-.143-.426-.717.142-.358.355zM63.24 50.031c.502.142 1.076.142 1.147.71-.215.284-.645-.142-1.219-.07zm2.366 0c-.358-.072-.788 0-.788-.427zM66.898 39.3c-.287.213-1.075.142-1.147-.285zM60.66 26.294c.43-.284 1.076-.426 1.219.142zm2.294 23.808h-.071c-.502.71-1.22.07-1.793 0 .359-.498 1.65-.427 1.864 0zm-.43-.711c0-.569.43-.782.144-1.208.932.355 1.577.07 2.51.568-.646.71-.79.142-1.65.071-.215.213-.143.782-.358.995-.359 0-.43-.284-.646-.426zm-36.926-9.026c.645.356.717.427 1.434.64-.144.284-.287.497-.43.569-.216-.711-1.291-.285-1.004-1.208zm-3.657.711c-.287-.284-1.22-.284-.789-.782zm-7.17-5.4c1.003.852 1.362.497 2.222 1.35a1.14 1.14 0 0 0-.215.639c-.143 0-.286-.142-.358 0-.072-1.421-1.076-.284-1.721-1.635-.502.498.072.64.072.995-.287-.07-.43-.284-.502-.497zm5.162-7.605c-.717-.426-1.506-.853-1.792-1.492.645.142 1.29.924 2.079 1.066zm.789-21.746c-.287.284-.574.497-.789.426zM19.216 39.37c-.502-.214-2.796-.498-2.223-1.422zm-1.72 1.563c.501-.426-.287-.853.358-.853-.144.569.358-.284.215-.426.502.426-.072.71-.143 1.492zm3.082-38.589c.287.213-.215.64-.43.995zm3.514 30.488c-.287-.072-.072.497-.502.355.072-.853-.932-.569-1.004-1.28.645.356 1.29.711 1.506.925zm-.932 6.538c-.215-.071-.502-.285-.215-.285.358.427.358.142.573.498-.215.426-.43.355-.717.426-.071-.426.072-.213.359-.64zM21.94.78c-.214-.284-.501-.497-.86-.284L21.582 0c.144.284.215.426.646.355-.144.142-.216.285-.287.427zm.646 29.777c.527 0 .783.345 1.194.641zm1.194.641l.527.283a2.118 2.118 0 0 1-.527-.283zm-.549 12.222c-.43-.142-.501-1.066-.071-1.137 0 .285-.215.64.287.71zm-1.656-32.924a.322.322 0 0 1-.136-.05zm.438.163l-.438-.163c.167.024.325-.061.437.163zM4.23 25.655c-.788-.71-1.577-1.421-1.792-2.061zm-.43 5.614c-.358-.426-1.147.071-.573-.71zm-1.936-5.685c-.143.213-.215.355-.143.497l-.574-.497c.287-.213 1.506-.427 1.076.284zM3.8 23.025a.45.45 0 0 0 0-.426c-.143.071-.358-.071-.215-.213.287.284.574-.284.86.284-.286.213-.501.355-.645.355zm37.07 20.396c-.502-.07-.789-.355-.789-.781zM8.317 27.503c-.143-.569-1.003-.071-.717-.995.359-.214.646.426 1.004.568zm3.657 6.111c.072-.07.144-.284.287-.213-.574.64.645.782.143 1.35-.502-.07-.788-.71-.932-1.208.215.071.359.284.502.071zm-2.653-5.33c-.287-.213-.717-.426-.43-.781zm-2.223 3.838c-.071-.071-.215-.213 0-.427-.143-.142-.286.071-.43-.142.287-.568.932.285.43.569zm-1.864-2.558c.646.284 1.434.923 2.438 1.634zm7.17 6.04c-.286-.142-.501.213-.788-.142.215-.213.287-.427.287-.64.358.213.573.427.501.782zM1.07 26.644C.557 26.275 0 25.976 0 25.3zm.795 1l-.795-1c.35.254.679.54.795 1zm33.198 3.79c.409.088.984.005.932.617zm-.358-.236l.358.236c-.162-.034-.297-.095-.358-.236zm1.792-3.127c.287-.569-.573-.071-.358-.71.502.07.789.355.932.923zm-.358 10.873c-.287.142-.86 0-.717-.426zm-3.944 4.833c.44-.11.731.042 1.064.197zm1.064.197l1.23.229c-.559.07-.914-.081-1.23-.229zm.729-3.182c-.717.07-1.363-.427-1.793-.64zm-1.22-16.416c.144-.285.79.07.646.284zm.718 13.573c.215.071.43.16.644.248zm.644.248l.646.25c-.215-.072-.43-.16-.646-.25zm4.303-5.08c.502-.142.574.213 1.004-.213-.143.355.072.568-.287.781-.143-.284-.717-.284-.717-.568zm1.65-4.833c-.43-.07-.574 0-.574-.568zm-2.367-3.553l.646.213-.215.498c-.287-.498-.646.497-1.22-.071.072-.853.861.07.79-.64zm1.22 17.909c-.431.142-1.005-.071-.933-.64zm-.79-13.006c-.358-.142-.43-.568-.143-.781zm-7.457 15.422c-.358-.142-.86-.213-.716-.64zm47.61 1.777c0-.569-.716-1.138 0-1.209.072.214 0 .498.144.498h.287c.215-.427-.144-.569.143-.853.072.497.43-.284.502.355-.143 0-.287 0-.287.142.646.072.43.427.932 0-.358.569-.071.995-.43 1.209-.43.142-.932-.711-1.29-.142zM27.104 34.75c.144-.07.359 0 .646.142-.072.356-.287.569-.502.498.215-.355-.215-.355-.144-.64zm-2.222 6.752c.358-.143.86.355 1.003.64zm4.517-5.757l-.215.498c-.86 0-1.434-.356-1.22-1.28.646.072.79.214 1.435.782zm-2.796 7.604c-.43.071-.502-.07-.502-.568zM28.107 42c.359.071.717 0 1.147.284zm2.51-5.259c-.43-.284-1.147-.142-1.076-.853zm-4.733 6.183c-1.003-.284-1.792-.64-2.724-1.421zm3.155-23.452c.072.071.79-.284.43.426zm1.148.569c1.003.213 2.007.71 3.298 1.634.287-.355 0-.924.43-.71-.072.355-.143.781-.215 1.208-.645-.427-1.362-.64-2.008-.924-.645-.284-1.29-.569-1.505-1.208zm-1.65 16.842c.359.071.646.071.646.498zM51.912 25.94c-.286-.355.43-.426.144-.64-.359.64-.43-.852-.86-.213.214 0 .43.142.358.427-.359-.214-.932-.214-1.004-.711.143 0 .143-.284.215-.497.502.355.645-.427.359-.64.43.284 1.075 1.421 1.505.853-.43-.071-.43-.498-.645-.782.215 0 .43.071.43-.284-.43-.356-.573-.142-.645-.782-.502 1.28-.86 0-1.506-.142-.789-.142-1.649.284-2.007-.853-.718.853-1.865-.71-3.012.071.287-.64-.287.071-.143-.355.358-.213-.574-.64 0-1.066.286.426.573.71.932.284.573 1.492 2.222-.07 2.724 1.066.43 0 .79-.07 1.148-.07.071.212-.072.639.143.71.287-.782.287 0 .645.142.359-.782 2.438-.213 2.51.355.215.071.215-.426.502-.213.215.355.645 1.066.215 1.634.072-.355 0-.568-.215-.568-.144.64-.287 0-.43.568.358-.284.788.214.502.427.071-.284-.43-.071-.502.071.286.142.43.426.717.497.502-1.066.717.427 1.434-.923 0 .284.286.355.071.852-.286.142-.645.214-.717.924-1.29-.426-1.72-.71-2.868-.142zm75.182-10.525c.243-.157.48-.34.321-.064zm-.396.078l.396-.078c-.196.127-.396.237-.396.078zm6.309-.781c-.286.07.072.71-.215.71 0-.64-.645-.142-.717-.71.287 0 .789-.356.932 0zm21.941 41.076c-.358.213-.43-.213-.645.142 0-.284-.144-.355-.215-.498.358-.07.788-.213.86.356zm-21.152-41.432c.359.071.215-.497.645-.426 0 .924-.071.355.287.995-.215.213-.358.07-.789.284 0-.497 0-.355-.143-.853zm-5.88.782c.287 0 .502.142.646.426zm64.389 32.193l.104-.67c.15.052.343.046.49-.015.072.442-.347 1.225-.594.685zm-37.285 7.533c.358-.213.215-.142.645-.142zm39.579-7.533c-.086-.256-.171-.486-.165-.66.052.059.107.113.165.162a.416.416 0 0 0 .311.079c-.104.145-.023.419-.311.419zm-31.405 6.325l-.645.142c-.144-.355.071-.355.143-.569-.574-.426.502-.07.502.427zM95.22 22.03c-.43-.07-.645-.426-.86-.781zm.215-2.558c-.143.426-.573.355-.932.071zm2.797 0c.143-.355.86-.071 1.075.071zm-5.808 2.843c.072 0 .143 0 .143-.142-.143-.142-.788-.356-.502-.64.287.071 1.004 1.208.359.782zm1.434-1.137c-.574 0 .287.924-.287.995-.215-.498-.43-.285-.645-.498.143 0 .143-.355.215-.497.287.07.932-.498.717 0zm-1.362.355c-.144-.426.502-.71.573-.355zm31.477-6.254c.358.427.86-.497.86.213.144-.355.502-.497.789-.64.287.498.574-.141.789.427-1.076.355-1.865.498-2.295.498.43-.071-.502-.213-.143-.498zm-33.342 5.97c-.286.142-.86.64-.932-.142zm.287-.142c.072-.071.932-.285.932.284zm-.502-.214c-.071-.355-.286-.426-.286-.852h.573c-.287.924 1.004.213.645.64-.43 0-.645.141-.932.212zm1.434 3.34c0-.497-.286-.497-.645-.497zm22.945-7.604c0-.852-.502.427-.717-.284.287-.284.43-.71 1.004-.64-.072.285.072.924-.287.924zm1.291-.497c0-.569.43-.569.717-.782zm-5.378 0c.287-.071.358.355.43.64zm11.544 1.066c.287.071.574.284.789.426zm.86-1.919a.546.546 0 0 1-.045.034zm-.045.034l-.815.606c-.07-.892.396-.327.815-.606zm-25.767.606c-.287.142-.646.355-1.147.355zm-1.936.924c0-.498-.646-.995-.932-.498.143.071.215.071.215.356-.287.07-.717-.356-1.148.07.072 0 .144.072 0 .143 0-.356-.286-.285-.358-.64.932-.568 1.29-.142 2.366-.64-.215.427.215.995-.143 1.209zm2.51 3.482c.143.853-.718.426-1.148.568.144-.64-.43-.924-.072-1.705.359-.071.502.07.646.284-.144.142-.502.213-.574.497.359 0 .502.427.717.64-.143-.497.287-.284.43-.284zm2.652-3.767c.43 0 .287-.71.646-.71.071.426-.216.497-.144.995-.215 0-.358-.071-.502-.285zm-2.868-.355c.574-.569 1.434-.782 2.08-.782-.072.498-.86.071-.79.711.718.071 1.291-.853 1.865-.426-.574.213-1.004.781-1.936.781-.143-1.066-.717-.355-1.219-.284zM98.662 37.7c-.18-.07-.358-.142-.502-.248zm.502.25l-.502-.25c.18.072.358.143.502.25zM152.94 56c-.286-.71.574-.71.646-.142zM99.164 36.528c0-.071-.072-.213-.144-.142-.501 0-.501.497-.573.71-.072-.213-.215-.284-.287-.497.359-.426.144-.995.287-1.706.287-.07.287.285.645.143.144.568-.43.284-.358.71.071.285.645.71.43.782zm-10.54 14.426c0-.07.143-.213.143 0-.143.071-.143.142-.143.356h-.359c0-.498-.215-.356 0-.711.215 0 .215.284.359.355zm.502-1.634c.143.497.43.284.43.64 0-.072 0-.143.143-.143.144.64-.717.142-.788.498-.287-.356-.072-.924.215-.995zm-1.865 1.492v.498c-.86-.143-2.007.213-2.51-.427.718-.568 1.65-.07 2.51-.07zm-3.154-6.04l-.104.2a.911.911 0 0 1 .103-.2zm-.104.2c-.262.731.84 1.167.247 1.363-.072-.142 0-.355-.144-.355-.143.07-.215.213-.286.355 0 .355.358.355.502.64-.43.142-.574-.214-1.004-.142.126-.816.42-1.354.685-1.86zm-2.191 1.505a.434.434 0 0 1 .097-.042c-.013.042-.055.042-.097.042zm.097-.042c.01-.03.005-.082-.025-.171-.287.071-.359-.142-.359-.498.789 0 .932.285 1.434-.142.144.285.215.569.287.995-.328 0-.958-.298-1.337-.184zm1.337 4.59c-.358.071-.287-.426-.502-.64h.502zm8.39-1.35c0-.426-.216-.284 0-.64.931.427 1.72 0 2.509.427-.215.426-.43.071-.645.355.215 0 .43.071.501.285-1.003.426-2.438.213-3.8.142 0-.64 1.004-.569 1.434-.569zm12.26-11.228c.215.426.072.355.215.852-.143 0-.43.072-.502-.142.431-.142-.143-.497.287-.71zm-.717 1.492c-.573-.284-.43-2.06.144-1.208zm-2.724-4.264c-.359.213-.574.142-.79-.284.208-.051.228-.361.385-.504.08.223.132.468.261.362a.551.551 0 0 0 .095-.101c.029.137.049.303.049.527zm30.688 17.27c.18 0 .348-.113.503-.207.176.044.358.075.541.096-.058.063-.101.142-.04.323-.359.143-.789.143-1.004-.213zm.503-.207c-.414-.103-.795-.28-1.077-.576-.288-.301.665-.565 1.076-.64.182-.032 1.31.337 1.863.196-.132.2-.248.538-.429.658-.071.047-.12-.296-.143-.214-.065.228.237.711 0 .711-.241 0-.496-.01-.749-.039l.032-.032c-.167-.29-.358-.194-.573-.064zm-.144 1.272c-.144.213-.646.213-.717-.284zm2.366.782a1.617 1.617 0 0 1 1.505-.427c-.215.071-.501.072-.358.427.215-.071.86.213.574.426-.144-.355-.287.356-.646.284-.143-.64-.717-.426-1.075-.71zm18.786.284c-.144.213-.431.213-.789.284-.072-.355-.215-.355-.287-.64.144-.284.789 0 1.076.356zm-4.661.355c.359-.07.574.214.789.356zm-5.091-.852c.287-.214.359-.995.646-.214-.144 0-.359 0-.359.214.287.07 1.506-.285 1.147.284-.358-.427-1.219.284-1.434-.284zm.072-1.35c.143-.214.789-.214.86.355zm-51.267-.427c-.574 0-1.219 0-1.434-.497zm55.502 2.27l-.016.001.006-.002.01.001zm0 0l1.286-.067c-.118.293-1.013.104-1.286.067zm-48.986-4.598c-.298.066-.614.375-.565-.301zm.367.196l-.367-.196c.14-.031.275-.009.367.196zm5.019.995a.847.847 0 0 1 .017.004zm.017.004l1.346.28c-.776.07-.997-.204-1.346-.28zm-2.096-1.212c-.502.142-.358.142-.86.426-.215-.142-.431-.213-.431-.64.646.214 1.076-.355 1.291.214zm-8.246 2.416c-.43.213-1.075.142-1.219-.497zm2.226-2.514c-.242-.01-1.007.283-1.007-.4zm.069.027l-.069-.027c.036.001.06.009.069.027zm25.187 1.382c-.2.208-.29.581-.593.181zm.339-.103l-.339.103c.085-.087.19-.145.339-.103zm-5.665-1.421c.035-.14.07-.245.106-.35.282-.074.554-.197.826-.322.092.004.205.013.359.032l.072.497c-.502.143-.717.356-1.076-.07 0 .568-.789.71-1.004.284.198 0 .032-.361.116-.474a.758.758 0 0 0 .099.065c.138.148.32.217.502.338zm-33.341.284c-1.076.426-2.366.071-3.155-.355zm40.44 2.487c0 .213.072.427-.072.498-.358-.285-.789-.213-1.075-.071.143-.711.645-.356 1.147-.427zm3.083-.568c-.072 0-.143-.071 0-.142.287.568 1.219-.071 1.434.497-.574.284-1.219.071-1.577.071.143-.071.143-.213.143-.426zM85.523 25.073c-.057.08-.117.157-.175.235a9.024 9.024 0 0 1-.094.003c.03-.098.082-.21.143-.225a.582.582 0 0 1 .126-.013zm27.695-4.038c-.02.073.17.011.215.072.014.018.017.04.016.063.195-.09.51.043.629-.135.085-.126-.306-.14-.359-.284a.856.856 0 0 1-.048-.306c-.114.152-.405.415-.453.59zm1.075.711c.048 0 .096.007.143 0 .12-.017.243-.033.359-.07.032-.011.038-.072.072-.072.033 0 .063.039.071.071a.427.427 0 0 1 .004.138c.017-.01.063.025.068.004.07-.28.337-.638.144-.852-.167-.186-.574.009-.718.213-.104.147.166.323.216.497.007.023-.048-.004-.072 0-.12.02-.238.058-.359.071l-.047.006c.039.004.08-.006.119-.006zm.574.498c-.01.02-.007.048 0 .07.041.145.016.347.143.427.183.116.547.264.645.071.093-.182-.34-.228-.501-.355a1.219 1.219 0 0 1-.216-.213c-.014-.02 0-.048 0-.071-.007.032-.056.04-.071.07zm-.287-1.564c.09.03-.125-.07-.267-.16a.91.91 0 0 0 .267.16zm88.581 17.742c-.025.024-.045.038-.029.025l.03-.025zm-57.818 14.014a1.14 1.14 0 0 0-.003.082c0 .034-.087.1-.072.07l.075-.152zm-6.958.65c.126-.057.345-.308.215-.355-.316-.114-.728.262-1.004.071-.174-.121.472-.464.287-.569-.243-.137-.671.031-.789.285-.103.221.49.433.359.64a.195.195 0 0 1-.03.036c.332-.015.732-.003.962-.108zm-4.393.705c-.2.139-.44.235-.674.274.204-.194.364-.336.406-.34a.497.497 0 0 1 .268.066zm-1.845 1.356c-.226-.373.57-.708.645-1.137.068-.386-.975-.579 0-.924 1.646-.582-.301.959.215.995.1.007.205.001.311-.016-.46.437-1.14 1.135-1.171 1.082zm-9.077-4.24c.077-.202.129-.446.258-.592.819-.927.23-.004-.258.591zm-.3.33c-.124.113-.196.13-.155-.037a.183.183 0 0 0 .156.036zm-27.55-3.268c-.081-.161-.026.293-.088.55.075-.195.159-.41.088-.55zm-7.385-4.192c.101.033.201.078.287.142.019.014-.008.048 0 .07.017.051.034.106.071.143.085.084.203.13.287.213.038.038.019.142.072.142.067 0 .087-.105.143-.142.02-.013.048 0 .072 0 .048 0 .1-.021.144 0 .02.01-.017.055 0 .071.017.017.064-.022.071 0 .023.068.037.153 0 .213-.113.188-.387.283-.43.498-.025.126.237-.183.359-.142.144.048.137.326.286.355.096.02-.004-.223.072-.284.075-.06.191 0 .287 0 .024 0 .055-.017.072 0 .016.016-.024.067 0 .07.284.048.574.042.86.072.168.018.333.071.502.071.075 0 .142-.053.215-.071.023-.006.06-.02.072 0 .137.227.098.66.358.71.21.042-.2-.713 0-.639.321.12.236.797.574.853.261.043-.208-.525-.144-.782.03-.115.188.148.287.213.146.097.417.14.502.285.111.188-.052.542.144.64.154.076-.015-.43.143-.498.466-.2 1.006-.127 1.506-.213.052-.01.094-.092.143-.072.14.06.222.352.359.285.15-.075.012-.341.071-.498.02-.05.1-.041.144-.07.028-.02.049-.097.071-.072.194.216.215.67.502.71.211.03-.21-.67 0-.639.401.061.53.735.933.782.232.027.088-.517.286-.64.115-.07.241.158.287.285.08.224-.164.746.072.71.399-.06.651-.507.86-.853.052-.086-.183-.117-.215-.213-.024-.07.005-.246.072-.213.258.128.36.394.43.64.027.094.082.187.072.284-.015.15-.224.3-.144.426.093.147.335.19.502.142.091-.025 0-.19 0-.284v-.07c0-.072-.014-.144 0-.214.01-.052.089-.092.072-.142-.017-.05-.122-.022-.143-.071-.058-.133-.052-.284-.072-.427-.004-.023-.024-.073 0-.07.29.023.578.071.86.141.023.006-.02.06 0 .071.11.066.247.08.359.143.058.033.095.094.143.142.048.047.106.086.144.142.013.02-.021.06 0 .07.043.022.095-.003.143 0 .55.045 1.102.072 1.649.143.024.003-.018.087 0 .071.1-.088.187-.191.275-.294-.182-.254-.048-.796-.347-.914-.265-.105.322.716.072.853-.441.24-1.11.238-1.506-.071-.14-.11-.097-.29-.022-.483-.067-.138-.092-.445-.193-.37-.171.127.024.428 0 .64-.003.023-.05.01-.071 0-.077-.039-.14-.101-.216-.143-.14-.077-.307-.11-.43-.213-.193-.162-.262-.49-.502-.568-.136-.046.163.314.072.426-.076.095-.286.027-.358-.071-.147-.2-.04-.536-.216-.71-.09-.09-.058.259-.143.355a.608.608 0 0 1-.358.213c-.086.01-.177-.066-.216-.142-.111-.221-.039-.537-.215-.711-.091-.09-.256.22-.358.142-.185-.142-.2-.423-.287-.64-.009-.021-.024-.07 0-.07.053 0 .102.037.143.07.08.063.122.251.216.214.118-.047.167-.23.143-.356-.077-.398-.198-.804-.43-1.137-.058-.082-.201.114-.215.214-.038.259.071.52.071.781 0 .034-.051.045-.071.071-.099.13-.214.246-.144.427.096.247.23.478.359.71.016.03.044.052.071.072.14.099.298.174.43.284.019.015 0 .047 0 .07 0 .096.053.206 0 .285-.03.044-.1-.103-.143-.071-.085.063-.04.259-.143.284-.083.02-.092-.145-.144-.213-.02-.027-.06-.04-.071-.071-.015-.045.035-.11 0-.142-.456-.406-.853-.953-1.434-1.137-.214-.068-.2.41-.359.568-.05.05-.145-.017-.215 0-.033.008-.057.041-.072.071a2.69 2.69 0 0 0-.143.356c-.008.022.022.063 0 .07-.567.188-1.126.552-1.72.498-.219-.02.333-.532.143-.64-.334-.188-.768.025-1.148.072-.023.003.023.076 0 .07-.103-.025-.227-.053-.287-.141-.052-.079.074-.225 0-.285-.224-.181-.507-.417-.788-.355-.169.037.118.327.143.498.004.023-.049-.008-.072 0-.05.016-.095.047-.143.07-.048.024-.11.113-.143.072-.095-.117-.001-.38-.144-.427-.128-.042-.17.216-.287.285-.029.017-.068-.038-.071-.071-.03-.266.23-1.355-.789-.569-.137.105.119.327.143.497.004.024-.047 0-.071 0-.048 0-.097.008-.144 0-.097-.016-.242.017-.286-.07-.055-.108.012-.25.071-.356.066-.117.33-.157.287-.284-.446-1.325-.553-.026-.574 0-.045.056-.2.07-.215 0-.07-.349-.12-.732 0-1.066.085-.235.392.156.502.142.34-.042.698-.365 1.004-.213.269.133.067.649.287.853.196.18.524.182.789.142.087-.014.084-.143.117-.234-.407-.338-.62-.956-1.121-1.117-.425-.136-.846.396-1.29.356-.192-.017-.106-.438-.288-.498-.121-.04-.022.316-.143.356-.165.054-.342-.21-.502-.142-.11.046-.027.24 0 .355.094.41.256.8.358 1.208.009.033-.047-.047-.071-.071-.024-.024-.072-.038-.072-.071 0-.024.084.02.072 0-.198-.343-.295-.813-.646-.995-.262-.136-.802-.077-.86.213-.053.262.624-.068.789.142.118.15-.144.37-.287.498a.402.402 0 0 1-.043.033c.084-.03.186-.057.258-.033zm13.05 1.208c.003-.053-.05-.094-.072-.142-.05-.118-.143-.228-.143-.356 0-.047.139.048.143 0 .024-.284.041-.59-.072-.853-.05-.117-.23-.142-.358-.142-.067 0-.157.076-.144.142.042.209.206.373.287.569.086.208.137.428.215.64.018.05.067.089.072.142.005.052.02.112.036.173a.747.747 0 0 0 .036-.173zm-8.748-1.564c.03-.015.042-.054.072-.07.187-.104.379-.203.574-.29-.024.002-.048.005-.072.005-.024 0-.072.024-.072 0 0-.191.187-.416.072-.569-.101-.133-.406-.137-.502 0-.179.256-.057.625-.144.924-.014.052-.093.052-.143.071a.864.864 0 0 0 .215-.07zm1.076-.142c.037.017.138.062.267.11-.064-.069-.129-.148-.196-.18a2.097 2.097 0 0 0-.43-.143c.125.062.232.155.359.213zm1.147.213c.142-.158.096-.449 0-.64-.058-.113-.022.316-.144.356a.508.508 0 0 1-.359-.028.484.484 0 0 1-.125.296c.257.078.53.125.628.016zm-7.753.92l.01.004a.155.155 0 0 1-.01-.005zm-1.425-.635c.162.058.202.335.143.497-.08.222-.28.577-.502.498-.229-.083-.063-.623-.206-.754.169 0 .382-.307.565-.241zm12.983-3.579c.174.215.336.441.497.665.167.232-.533-.356-.574-.64-.006-.044.026-.045.077-.025zm1.142.306c.118.045.244.089.359.146.115.057-.333-.016-.359-.142v-.004zm10.254-2.839c-.134-.01.397.206.287.284-.086.061-.203.118-.322.15.445-.014.9-.002 1.325-.079-.442-.057-.845-.323-1.29-.355zm-3.051-.298a.45.45 0 0 1-.176.227.095.095 0 0 1-.018.008.324.324 0 0 1 .194-.235zm-.176 1.009c0 .029.01.069.025.112-.237-.453-.535-.89-.598-1.392-.03-.244.332.575.555.506-.057.222.018.54.018.774zm.025.112c.042.08.082.161.119.243.04.09-.068-.095-.119-.243zm-1.733-1.558c.025.115.015.272-.084.309-.163.06-.67-.098-.502-.143.193-.051.389-.11.586-.166zm-3.454-2.463c-.076-.076.037.081.109.244a.475.475 0 0 0-.109-.244zm-11.795.165c.134.225.286.444.25.688a.335.335 0 0 1-.123.203c-.062-.253-.198-.52-.163-.772a.432.432 0 0 1 .036-.119zm1.066 2.191c.074.07-.013.451-.027.345-.012-.1.006-.222.027-.345zm-3.253 1.268c0-.095.382-.003.287 0-.096.003-.191.003-.287 0zm-1.578-2.203c-.364-.067-1.156.078-1.075-.284.092-.413.798-.4 1.219-.355.171.018.075.339.143.497.01.022.05-.01.072 0 .1.042.199.163.294.211-.22-.012-.44-.03-.653-.069zm-13.766-3.766c-.197 0 .018.321.097.578.007-.25.092-.578-.098-.578zm-4.756-.904c.136.181.202.317.219.416-.145-.086-.277-.186-.268-.294a.248.248 0 0 1 .049-.122zm.525.69c-.204.063-.412.03-.621-.032.2.003.345-.057.315-.242.216.13.46.228.306.275zm-.621-.032c-.405-.004-1.034-.263-.885-.252.297.023.593.166.885.252zm51.915-12.243c-.131.202-.262.406-.438.553a4.752 4.752 0 0 0-.117-.132c.108-.308.415-.796.555-.421zm14.599 32.085c.072-.11.15-.178.245-.145a.422.422 0 0 1-.245.145zm-10.737-.482c.082-.076.188-.194.3-.33-.065.167-.145.304-.3.33zM86.265 35.957l.128.007c-.041.022-.084.015-.128-.007zm5.88 1.79c-.226-.015-.349-.2-.458-.407l.001-.06.49.377a1.057 1.057 0 0 0-.033.09zM89.34 26.65c.034.098.11.24.198.37.135-.383.014-.525-.219-.538a.427.427 0 0 0 .02.168zm15.631-5.472c-.068-.009-.043.074-.018.167.442.067.882.135 1.313.071-.383-.17-.88-.187-1.295-.238zm0 .355c-.018.044-.11-.034-.144 0-.053.053-.004.18-.071.213-.068.034-.191 0-.215-.07-.036-.107.032-.26.057-.383.118.015.237.034.355.052.019.068.037.141.018.188zm-1.721.497c.194.212.784-.348.86-.07.095.343-.308.967-.645.852-.55-.188-.705-.99-1.12-1.379.31-.04.62-.092.93-.13-.145.212-.183.555-.025.727zm-1.219-.781c-.21-.06-.386.07-.56.242.29.006.582-.02.874-.058a.764.764 0 0 0-.314-.184zm-4.947 1.279a.646.646 0 0 0 .332.059.603.603 0 0 0-.198-.239c-.142.071-.238.129-.134.18zm-8.891.71c-.066.02-.097.073-.11.143a.722.722 0 0 1 .127-.146.147.147 0 0 0-.018.004zm8.023 3.621a.119.119 0 0 0 .079.075c.254.075.531.042.807.007a2.833 2.833 0 0 0-.886-.082zm1.011.572c.32.023 1.143-.275.86-.426-.294-.157-.638-.109-.985-.064.134.069-.04.479.125.49zm-5.09 2.558c.016-.03.104-.074.07-.07-.241.026-.958.169-.716.142.214-.024.43-.044.645-.072zm10.468 1.067c.005-.033.071-.105.071-.071 0 .056-.07.118-.082.168.002-.033.006-.066.011-.097zm-.144-1.208c-.133.495 1.146.498.43.853-.064.031-.143 0-.215 0-.024 0-.055.017-.071 0-.18-.202-.722-.482-.502-.64.112-.081.233-.154.36-.219a.289.289 0 0 0-.002.006zm1.01-.309a.5.5 0 0 1 .006.012c.208.159.43.31.628.479.122-.223.256-.432.077-.467-.23-.043-.47-.05-.71-.024zm.496.877c.01.152.135.356.287.356.138 0 .295-.243.215-.356a2.14 2.14 0 0 0-.364-.386c-.075.135-.145.276-.138.386zm1.076-2.203c0 .02.004.044.01.07l-.008-.085a.077.077 0 0 0-.002.015zm-.646-.142c-.211.104.387.292.502.497.033.06-.1.09-.143.143-.054.066-.083.153-.144.213-.038.037-.113.115-.143.07-.19-.281-.14-.746-.43-.923-.175-.107-.586.168-.502.355.193.432.69.651 1.075.924.061.044-.086-.14-.071-.213.013-.066.106-.086.143-.142.06-.088.088-.194.143-.284.05-.082.19-.122.216-.213-.252-.056-.415-.541-.646-.427zm2.497-2.286a.758.758 0 0 1-.059.012c-.024.004.09.017.072 0a.326.326 0 0 0-.013-.012zm-1.849 2.413c.005-.025.017-.056-.002-.056 0 .019 0 .037.002.056zm-.002.3c.074.016.03-.114.01-.215a.583.583 0 0 1-.01.214zm-8.363-5.677c.033.072.039.183.048.287.015-.129.025-.252-.048-.287z"/></g></g></svg>