<svg xmlns="http://www.w3.org/2000/svg" width="24" height="24" viewBox="0 0 24 24"><g><g><g/><g><path fill="#41479b" d="M23.586 19.864H.414A.414.414 0 0 1 0 19.45V4.554c0-.229.185-.414.414-.414h23.172c.229 0 .414.185.414.414V19.45a.414.414 0 0 1-.414.414z"/></g><g><path fill="#f5f5f5" d="M24 4.554a.414.414 0 0 0-.414-.414h-1.851l-7.666 5.023V4.14H9.93v5.023L2.265 4.14H.414A.414.414 0 0 0 0 4.554v1.07l6.577 4.31H0v4.137h6.577L0 18.381v1.07c0 .228.185.413.414.413h1.851l7.666-5.022v5.022h4.138v-5.022l7.666 5.022h1.851A.414.414 0 0 0 24 19.45v-1.07l-6.577-4.309H24V9.933h-6.577L24 5.624z"/></g><g><g><path fill="#ff4b55" d="M24 10.76H13.24V4.14H10.76v6.62H0v2.483h10.759v6.621h2.482v-6.62H24z"/></g><g><path fill="#ff4b55" d="M8.386 14.07L.01 19.507c.03.2.194.356.402.356h.57l8.924-5.793h-1.52z"/></g><g><path fill="#ff4b55" d="M16.24 14.07h-1.52l8.912 5.785a.41.41 0 0 0 .371-.406v-.34z"/></g><g><path fill="#ff4b55" d="M0 5.01l7.583 4.923h1.52L.241 4.18A.412.412 0 0 0 0 4.553z"/></g><g><path fill="#ff4b55" d="M15.59 9.933l8.397-5.45a.408.408 0 0 0-.4-.343h-.593L14.07 9.933z"/></g></g></g></g></svg>