<svg xmlns="http://www.w3.org/2000/svg" width="24" height="24" viewBox="0 0 24 24"><g><g><g/><g><g><path fill="#c02524" d="M14.255 4.88a.375.375 0 0 1 .375.375v1.5a.375.375 0 0 1-.375.375H13.13v1.125a.375.375 0 0 1-.375.375h-1.5a.375.375 0 0 1-.375-.375V7.13H9.755a.375.375 0 0 1-.375-.375v-1.5a.375.375 0 0 1 .375-.375h1.125V3.755a.375.375 0 0 1 .375-.375h1.5a.375.375 0 0 1 .375.375V4.88h1.125zm-.375.75h-1.125a.375.375 0 0 1-.375-.375V4.13h-.75v1.125a.375.375 0 0 1-.375.375H10.13v.75h1.125a.375.375 0 0 1 .375.375V7.88h.75V6.755a.375.375 0 0 1 .375-.375h1.125z"/></g><g><path fill="#c02524" d="M22.404 6.882a1.508 1.508 0 0 1 .761 1.301c0 .132-.018.263-.052.39l-1.628 6.086a1.85 1.85 0 0 1-.57.92l-2.535 2.253a1.14 1.14 0 0 0-.375.84v.825a.375.375 0 0 1 .375.375v3a.375.375 0 0 1-.375.375h-5.25a.375.375 0 0 1-.375-.375v-3a.375.375 0 0 1 .375-.375v-3.533a3.381 3.381 0 0 1 1.669-2.91l3.315-1.942a.613.613 0 0 1 .071-.034l1.65-4.747a1.527 1.527 0 0 1 1.762-1.114 1.508 1.508 0 0 1 1.182 1.665zm-3.747 4.042c.175.02.345.068.503.143l1.046-3.229a1.537 1.537 0 0 1 1.459-1.147v-.008a.75.75 0 0 0-.596-.731.792.792 0 0 0-.893.6zm-1.027 9.323h-4.5v2.25h4.5zm4.759-11.869a.75.75 0 0 0-.57-.926.792.792 0 0 0-.893.6l-1.159 3.574.023.033a1.503 1.503 0 0 1-.109 1.663 1.48 1.48 0 0 1-.442.385l-2.149 1.241a.375.375 0 0 1-.375-.649l2.149-1.24a.75.75 0 0 0 .352-.455.75.75 0 0 0-1.103-.844l-3.31 1.94a2.645 2.645 0 0 0-1.298 2.264v3.533h3.75v-.825a1.896 1.896 0 0 1 .626-1.403l2.539-2.253c.164-.146.281-.336.337-.548z"/></g><g><path fill="#c02524" d="M11.25 19.496a.375.375 0 0 1 .375.375v3a.375.375 0 0 1-.375.375H6a.375.375 0 0 1-.375-.375v-3A.375.375 0 0 1 6 19.496v-.825a1.13 1.13 0 0 0-.379-.84L3.09 15.577a1.844 1.844 0 0 1-.57-.923L.889 8.572A1.507 1.507 0 0 1 1.6 6.88a1.508 1.508 0 0 1 1.181-1.665 1.54 1.54 0 0 1 1.774 1.14l1.639 4.72c.022.012.049.02.071.03l3.315 1.947a3.381 3.381 0 0 1 1.669 2.91zM2.34 6.689a1.556 1.556 0 0 1 1.466 1.167l1.039 3.21c.158-.076.328-.124.502-.143L3.84 6.577a.81.81 0 0 0-.908-.626.75.75 0 0 0-.592.73zm3.78 10.58a1.886 1.886 0 0 1 .63 1.402v.825h3.75v-3.533a2.644 2.644 0 0 0-1.297-2.265l-3.315-1.942a.75.75 0 0 0-.747 1.3l2.149 1.242a.375.375 0 0 1-.375.649l-2.149-1.241a1.48 1.48 0 0 1-.701-.912 1.503 1.503 0 0 1 .15-1.136l.023-.034L3.086 8.07a.804.804 0 0 0-.903-.618.75.75 0 0 0-.593.73c0 .067.007.132.023.196l1.635 6.086c.055.213.172.405.337.551zm4.755 2.977h-4.5v2.25h4.5z"/></g><g><path fill="#c02524" d="M18.402 4.57c0 .994-.394 1.947-1.096 2.65l-5.04 5.04a.375.375 0 0 1-.53 0l-5.04-5.04A3.752 3.752 0 0 1 9.348.82a3.747 3.747 0 0 1 2.653 1.1 3.748 3.748 0 0 1 6.401 2.65zm-1.626 2.12a3 3 0 0 0-4.243-4.24l-.267.267a.375.375 0 0 1-.53 0l-.267-.266a2.969 2.969 0 0 0-2.12-.88 3 3 0 0 0-2.123 5.12L12 11.464z"/></g></g></g></g></svg>