<svg xmlns="http://www.w3.org/2000/svg" width="82" height="48" viewBox="0 0 82 48"><g><g opacity=".3"><path fill="#c12d30" d="M31.424 40.685c.029 0 .057 0 .057.056-.085 0 .114.475-.142.391.057-.196.028-.251-.057-.39.057 0 .057-.085.142-.057zm0 2.206c.143.028.257.112.457.195-.143-.167.086-.111.143-.195 0 .307.114-.168.2.056-.143.446-.857.14-.8-.056zm.543 1.117c.17.055.257-.028.37-.056.03.14.058.279.143.39-.2-.083-.542 0-.513-.334zm-6.622-.81c0-.112-.057-.14-.029-.28.143-.055.143.112.257.084 0 .196-.085.224-.228.196zm5.794 0c.143 0 .257.056.314.14zm3.082-2.764c.058 0 .115-.112.143 0-.085.084-.257.056-.285.195-.086-.167-.115-.111-.057-.335.142-.083.114.084.2.14zm-1.855 3.35c-.028-.195-.057-.056-.2-.056v-.195c.143-.028.086.14.2.14.029-.056 0-.14.057-.14 0 .084.086.084.057.195-.057 0-.085.056-.114.056zm-1.598-2.708c-.143-.14-.514 0-.542-.279.17-.056.114.112.2.14-.03-.28.285-.168.399-.112-.114 0 .057.167-.057.251zm5.737-.782c.028 0 .085 0 .085-.055-.057-.028 0-.112.057-.14.029.084.086.168.115.251-.058.084-.2.028-.257-.056zm-4.624 1.592c.086-.363.428-.028.6 0zm-3.939-2.373c-.143-.028-.314.167-.342-.084zm4.167 1.842c0-.195-.2-.167-.228-.335.143-.056.228.028.342.056-.028.14-.057.223-.114.28zm-.142.67c.142 0 .085-.111.2 0v.14c-.086.112-.058 0-.2 0zm.285 2.96c-.086-.028-.285.084-.314-.056.086-.112.057 0 .2 0 .028-.056 0-.14.057-.14 0 .028 0 .056.057.056zm4.66-5.275c.085.005.176-.002.192.11zm-.076-.012a.37.37 0 0 1-.189.066.436.436 0 0 1-.23-.075c-.012-.038-.055-.048-.055-.12h-.086c.022.012.032.03.034.052a.569.569 0 0 0-.262-.108c-.115-.008-.17.195-.285.195-.068 0 .008-.177-.057-.195-.05-.014-.103.038-.129.092a.44.44 0 0 1-.071-.176c-.006-.053.09-.064.114-.112.017-.033-.022-.081 0-.111.032-.045.135-.03.143-.084.007-.053-.104-.06-.114-.112-.012-.058.028-.116.056-.167.04-.071.07-.16.143-.196.046-.022.12.101.143.056.024-.047-.12-.059-.114-.112.007-.08.089-.135.143-.195.014-.016.057-.007.057-.028 0-.113.023-.256-.057-.335-.052-.05-.13.065-.2.084-.065.017-.423-.076-.2.251.04.06.148-.033.2-.084.02-.02-.029-.054-.029-.084 0-.009.02.003.029 0 .02-.006.042-.042.057-.027.045.043.094.105.085.167-.029.198-.282.326-.428.391-.093.042.073-.194-.085-.084a.487.487 0 0 0-.075.066c.015.015.03.036.046.046.029.019.055.04.086.056.008.004.019 0 .028 0h.057c.02 0 .057-.02.057 0 0 .095-.04.185-.057.279-.003.018 0 .037 0 .056v.028c0 .037.015.077 0 .111-.016.037-.061.052-.085.084-.034.043-.074.086-.086.14-.008.037.067.114.029.111-1.079-.084-2.144-.354-3.226-.363-.14 0-.256.195-.256.335 0 .098.23.046.256.14.02.066-.18-.01-.2.056-.018.064.21.15.143.14-.172-.029-.372-.063-.485-.196-.052-.062.186-.06.2-.14.014-.08-.183-.125-.143-.195.043-.074.282.082.257 0-.043-.14-.2-.244-.342-.28-.064-.015.065.2 0 .196-.996-.056-1.997-.14-2.969-.363a.051.051 0 0 1-.037-.033.052.052 0 0 1-.02.033c-.084.064-.22-.056-.285-.14-.071-.09.018-.385-.086-.334-.117.057.102.379-.028.39-.418.038-.856-.085-1.228-.279-.116-.06.042-.303-.057-.39-.057-.051-.188-.006-.238.063a1.486 1.486 0 0 0-.076-.091c-.068-.077-.193.156-.285.111-.068-.033.184-.168.114-.195a.404.404 0 0 0-.4.084c-.052.051.245.129.172.14a.487.487 0 0 1-.371-.113c-.04-.034.156-.08.114-.111-.257-.194-.589-.268-.856-.447-.064-.042.17.078.228.028.064-.055-.054-.267.028-.251.1.02.047.205.115.279.032.035.095-.007.142 0 .534.077 1.07.15 1.599.251.018.004-.019.056 0 .056.034 0 .078-.023.085-.056.015-.064-.094-.193-.028-.195.253-.01.514.056.742.167.058.029-.054.232 0 .196.188-.127.258-.394.456-.503.074-.04-.083.251 0 .251.172 0 .359-.525.628-.363.096.058-.083.336.029.336.118 0 0-.306.114-.336.105-.027.262.06.304.164.11-.08.225-.15.353-.191.067-.022.018.173.085.195.11.036.29-.159.343-.056.059.116-.234.21-.2.335.034.127.211.202.342.196.316-.014.64-.095.914-.252.077-.044-.14-.136-.229-.14-.184-.006-.38.2-.542.112-.111-.06.165-.212.285-.25.048-.016.009.15.058.139.084-.02.106-.139.17-.196a.133.133 0 0 1 .086-.028c.01 0-.005.02 0 .028.015.022.033.046.058.056.139.056.28.114.428.14.225.04.559-.136.685.056.1.151-.314.194-.428.335-.044.053.164-.116.2-.056.044.076-.164.293-.086.251.152-.083.172-.42.342-.39.163.027.047.34.143.474.04.055-.003-.163.057-.196.06-.033.135.08.2.056.088-.03.106-.195.2-.195.075 0 .13.062.184.123.055-.052.187-.05.187-.123 0-.081-.2-.059-.2-.14 0-.114.1-.336.2-.279.143.082-.023.475.142.475.207 0 .312-.288.4-.475.14-.299-.187-.287-.314-.251-.15.043-.271.195-.428.195-.068 0 .01-.195-.057-.195-.284 0-.545.218-.828.195-.12-.01-.11-.253-.228-.279-.261-.057-.533.038-.8.056h-.028c-.01 0-.028.01-.029 0-.009-.177-.116-.398 0-.53.082-.093.303.022.343.139.032.095-.328.195-.228.195.292 0 .564-.212.856-.195.543.03 1.066.448 1.598.335.274-.058.214-.522.371-.754.023-.033.054.06.086.084.043.032.09.061.136.089.032-.028.076-.061.064-.089-.032-.07-.134-.073-.2-.112-.03-.017-.06-.034-.086-.056a.955.955 0 0 1-.114-.111c-.013-.016-.008-.054-.028-.056-.274-.034-.554-.103-.571.28-.006.117.198.252.114.334-.077.075-.181-.146-.2-.251-.023-.131.148-.273.086-.391-.078-.146-.578-.18-.428-.251.278-.132.6-.101.913-.108-.012.04-.014.073 0 .052l.038-.053a1.83 1.83 0 0 0 .304-.03c.082-.017-.117-.063-.235-.062a.813.813 0 0 0 .091-.148c.112.107.275.212.373.293.042.035.039-.111.085-.14.041-.024.13-.045.143 0 .028.091-.145.314-.057.28.093-.037.17-.52.428-.42.188.074.38.19.485.364.057.092-.03.216-.037.325-.208-.014-.647.233-.648.233-.065.003.026-.135 0-.195-.026-.062-.077-.13-.142-.14-.342-.056-.14.294-.2.419a.179.179 0 0 1-.095.081c.109.064.216.13.295.226a.08.08 0 0 1 .01.017.362.362 0 0 0 .047-.1c.018-.068-.171.006-.2-.057-.03-.064.015-.202.086-.195a.777.777 0 0 1 .485.251c.047.053-.015.196-.086.196-.068 0-.001-.157-.057-.196-.042-.03-.095.036-.143.056.011.074-.103.223-.028.223.195 0 .43-.063.542-.223.12-.17.19-.295.221-.386.066.098.151.18.179.107.092-.245-.099-.524-.057-.782.015-.095.05.226.142.251.125.034.255-.055.371-.111.02-.01-.05-.057-.028-.056.324.01.675-.05.97.084.1.045-.062.275-.171.279-.261.008-.481-.242-.742-.252-.075-.002-.057.175 0 .224.196.168.434.301.685.363.063.015-.064-.208 0-.196.313.06.577.28.885.363.265.072.064-.251.142-.279.09-.032.186-.05.283-.057-.018-.044 0-.122-.026-.166-.01-.017-.064.017-.057 0 .04-.097.09-.19.143-.28-.007.022-.009.043 0 .056.072.11.21.196.342.196.066 0-.062-.175 0-.196.137-.044.329-.048.429.056.09.094-.096.302 0 .391.143.133.417.018.57.14.088.07-.082.321.029.335.169.02.259-.299.428-.28.113.014.044.223.057.336.006.046.047.141 0 .14-.395-.02-.775-.196-1.17-.196-.076 0 .18.16.114.195-.185.101-.417.1-.628.084-.54-.04-.49-.399-1.113-.196-.072.024.181.161.114.196-.16.084-.38-.052-.542.028-.088.043-.077.182-.086.28-.002.026.083.048.057.055a1.912 1.912 0 0 1-.285.055c-.004.009 0 .02 0 .029v.028c.018.186.027.373.057.558.008.05.017.109.057.14.055.041.194.124.2.055.012-.141-.179-.248-.171-.39.004-.082.2-.059.2-.14 0-.107-.144-.16-.2-.251-.007-.012.016-.033.028-.028.091.035.18.198.257.14.089-.068-.088-.267 0-.336.145-.112.375-.157.542-.084.103.046-.046.253.029.336.048.053.13-.064.2-.084.027-.008.057-.004.085 0 .115.015.272-.036.343.056.059.077.01.261-.086.279-.177.033-.334-.177-.514-.168-.204.01-.404.106-.57.224-.041.029.006.141.057.14.216-.01.413-.196.628-.168.182.023.34.165.456.307.053.065.077.218 0 .251-.413.176-1.04-.05-1.313.307-.198.26.647.097.97.14.03.004.06.009.086 0 .033-.01.053-.047.086-.056.112-.03.257.023.343-.056.102-.094.022-.322.142-.39.081-.047.133.26.2.195.115-.113-.006-.343.086-.475.07-.101.286-.03.342-.14.023-.044-.64-.508-.057-.586.198-.026.389.152.514.307.045.057-.173.017-.2.084-.042.104-.012.23.029.335.021.056.192.077.142.112-.094.065-.25-.04-.342.028-.049.035.06.113.114.14.087.042.214.12.285.055.108-.097.068-.282.115-.419.009-.026-.027.074 0 .084.009.004.225-.005.17-.112-.009-.018-.053.05-.056.028-.03-.221-.174-.5-.029-.67.105-.123.373.029.457.168.06.1-.16.19-.171.307-.005.048.164-.071.142-.028-.063.124-.255.17-.285.307-.01.044.045.078.104.09-.025.055-.054.105-.104.133-.06.034-.12-.156-.171-.111-.096.084-.22.291-.115.363.12.081.256-.176.4-.168.213.012.42.34.6.224.175-.115.066-.406.08-.625 0 .004.002.007.005.01.019.019.03-.052.057-.056.058-.007.114.02.171.028.015.002.098-.008.086.028-.011.033-.068.027-.086.056-.041.068-.044.155-.085.223-.028.046-.145.069-.114.112.069.097.207.22.314.168.087-.043-.08-.182-.086-.28-.004-.058.03-.114.057-.167.004-.008.02.003.029 0 .02-.007.049-.048.057-.028.02.052-.053.185 0 .168.067-.022.031-.15.085-.196.036-.03.165.043.143 0-.027-.053-.117-.03-.171-.056-.024-.011-.036-.04-.057-.056-.002 0-.085-.033-.086-.055-.008-.174.1-.387.034-.535a1.736 1.736 0 0 1-.007-.005h.004a.206.206 0 0 0-.031-.047.107.107 0 0 0-.073-.034.56.56 0 0 1-.184-.273c-.043-.164.392-.112.428-.279.028-.13-.265-.126-.314-.251-.025-.064.112-.079.172-.112.021-.012.081.023.085.028.046.06.06.143.114.196.037.035.093.047.143.055.013.002.016-.03.029-.028.033.008.058.036.085.056.01.008.018.02.029.028a.243.243 0 0 0 .057.028c.009.003.024-.008.028 0 .018.034.007.08.029.112.007.01.015-.028.028-.028v-.028c.009-.084.054-.17.029-.251-.018-.058-.191-.076-.143-.112.144-.108.582 0 .514-.167-.072-.177-.412-.079-.57.027-.094.063.028.223.028.335 0 .01-.02.005-.029 0-.012-.005-.017-.02-.028-.027-.037-.022-.079-.034-.114-.056-.098-.062-.19-.133-.286-.196a.243.243 0 0 0-.057-.028c-.01-.003-.02.002-.029 0-.057-.008-.136.018-.17-.028-.04-.051.062-.213 0-.195-.129.037-.153.272-.286.28-.276.013-.523-.224-.8-.224-.074 0 .033.179-.028.223-.056.041-.195.013-.2-.056-.009-.125.082-.247.172-.335.03-.029.015.105.057.112.253.043.521.091.77.028.073-.019-.185-.17-.114-.196a.814.814 0 0 1 .57.028c.062.025-.064.14-.028.196.064.096.228.295.286.195.072-.123-.19-.25-.171-.39.01-.077.166-.074.228-.029.052.039-.065.198 0 .196.332-.01.647-.149.97-.223.038-.01.075-.028.114-.028.02 0 .038.01.052.023.06-.015.121-.044.177-.023.227.083.157.217.314.195.048-.007.118.014.142-.028.029-.049-.028-.11-.028-.167 0-.03.017-.057.028-.084.008-.02.015-.04.029-.056.063-.069.147-.118.2-.195.012-.018-.046-.045-.029-.056.114-.074.246-.115.371-.168.01-.003.02 0 .029 0 .01 0 .025-.009.028 0 .019.054-.012.128.029.168.05.048.131.047.2.056.013.001.016-.034.028-.028.019.009.022.036.029.055.06.176.108.356.171.53a.048.048 0 0 0 .029.029c.018.006.043-.013.057 0 .03.03.03.079.057.112.041.052.099.09.142.14.014.015.021.036.029.055.011.027.01.06.029.084.06.08.123.159.2.223.058.05.123.104.2.112.071.007.087-.21.199-.056.033.046.016.112.028.167.007.03.005.067.029.084.023.017.062-.015.086 0 .009.006.128.168.142.196.005.008-.004.02 0 .028.025.048.034.122.086.14.038.011.046-.09.086-.085.052.008.142.157.114.112-.056-.091-.131-.17-.2-.251-.017-.02-.04-.036-.057-.056-.05-.055-.09-.116-.143-.168-.007-.006-.022.007-.028 0-.007-.006-.006-.02 0-.027.015-.022.06-.03.057-.056-.018-.18.003-.393-.114-.53-.08-.093.037.26-.029.362-.033.05-.112-.062-.171-.056-.04.005-.066.119-.086.084-.047-.08.05-.228-.028-.28-.062-.04-.07.168-.143.168-.074 0-.098-.109-.143-.167-.013-.017-.017-.039-.028-.056-.008-.01-.031-.015-.029-.028.009-.05.082-.096.057-.14-.03-.051-.135-.008-.171-.055-.02-.027.063-.03.086-.056.035-.041.058-.093.085-.14.01-.018.018-.038.029-.056.017-.028.04-.054.057-.083.02-.036.046-.072.057-.112.017-.063-.033-.171.028-.195.056-.022.115.2.115.14 0-.101-.1-.18-.115-.28-.006-.041.032-.079.058-.112.005-.007.021-.006.028 0 .015.015.008.053.029.056.045.008.287-.038.228-.167-.032-.07-.182-.038-.2-.112-.038-.158.215-.609-.114-.726-.063-.022-.133.074-.143.14-.013.087.06.166.086.25.041.14.096.276.114.42.003.02-.04.015-.057.028-.032.024-.046.086-.086.083-.102-.007-.265-.211-.285-.111-.024.117.184.156.257.251.017.022 0 .056 0 .084 0 .056.012.113 0 .167-.008.033-.038.056-.057.084-.02.028-.042.054-.057.084-.033.063-.02.12-.086.167-.015.012-.05.018-.057 0-.055-.124-.07-.262-.114-.39-.006-.018.01.04 0 .055-.03.044-.074.147-.114.112-.083-.071-.074-.206-.115-.307a2.267 2.267 0 0 0-.085-.196c-.006-.011-.024-.015-.029-.028-.006-.017-.013-.042 0-.055.04-.039.192-.058.143-.084-.087-.046-.52-.167-.656 0-.022.026.111.034.085.056-.087.074-.2.148-.314.14-.072-.006-.012-.473-.257-.084a.352.352 0 0 0-.028.279c.01.036.097-.034.114 0 .019.037-.04.073-.057.111-.012.027-.018.057-.029.084-.008.02-.01.047-.028.056-.026.013-.066-.02-.086 0-.02.02.027.092 0 .084-.07-.023-.147-.07-.171-.14-.013-.037.114.011.114-.028 0-.092-.024-.233-.114-.251-.085-.017-.094.157-.171.195-.052.026-.114-.028-.172-.028-.02 0-.048.048-.057.028-.058-.122.015-.348-.114-.39-.113-.037-.227.013-.341.07.01-.12-.076-.248-.173-.322-.043-.033-.059.188-.085.14-.07-.126-.137-.528-.029-.698.016-.025.067.005.086.028.07.084.062.279.171.279.55 0-.299-.355.029-.419.177-.035.649.174.542.028a.403.403 0 0 0-.169-.13.839.839 0 0 0 .055-.01c.084-.017-.127-.2-.057-.25.1-.073.258-.025.37.027.07.032.041.212.115.196.281-.062.506-.277.77-.391.062-.027.16-.082.2-.028.067.09-.08.307.029.335.147.038.255-.175.4-.223.108-.037.235-.07.342-.028.105.04.115.26.228.25.191-.014.295-.29.485-.306h.02c.007-.016.02-.027.038-.028.061-.005.114.03.166.072-.006-.008-.005-.013.005-.016.137-.04.313-.057.428.028.112.082.013.34.143.39.142.056.348-.036.428-.167.06-.098-.238.074-.343.028-.005-.002-.47-.53 0-.53.179 0 .33.154.457.279.028.028-.12.064-.086.083.084.047.214.091.286.028.127-.11-.306-.509.257-.335.02.006.046.03.075.062-.02.058-.022.099.01.078a.403.403 0 0 0 .036-.026c.122.14.258.307.193-.142a.376.376 0 0 0-.018-.076c.068-.104.137-.208.246-.259.08-.037.005.215.086.252.105.048.237-.007.342-.056.121-.057.181-.27.314-.252.1.014-.186.21-.114.28.117.114.324.116.485.083.098-.02.127-.154.2-.223.194-.183.352-.429.6-.53 1.24-.511 1.813-.272 3.082-.53.42-.087.813-.276 1.227-.392.12-.033.25-.024.37-.056 2.078-.545 4.174-1.03 6.223-1.675.216-.068.296-.384.514-.446 1.888-.54 3.81-.958 5.737-1.34 1.682-.335 3.402-.457 5.08-.81.198-.042.284-.347.485-.363.424-.034.834.176 1.256.223.161.018.354-.123.485-.028.543.397 1.01.897 1.427 1.424.065.082.025.243-.057.307-.105.084-.478-.053-.4.056.247.344.618.6 1 .782.083.04.114-.16.114-.251 0-.154-.26-.398-.114-.447.469-.159 1.093.27 1.284.67.06.126-.091.313 0 .419.206.237.66.22.8.502.147.301-.07.67-.058 1.005.018.523.046 1.05.143 1.564.057.301.048.712.314.865.21.12.5-.491.656-.307.533.629.79 1.465 1 2.262.076.293-.245.599-.172.893.128.52.501.946.742 1.424.073.146.091.325.2.447.044.05.206.066.2 0-.03-.312-.575-.776-.286-.894.303-.123.459.474.628.754.14.23.144.525.286.754.058.094.246.064.285.167.052.141-.003.307-.057.447-.027.069-.157.067-.171.14-.038.182-.045.387.028.558.037.086.306.032.257.112-.104.17-.319.35-.514.307-.15-.034-.091-.295-.114-.447-.073-.491-.08-.991-.171-1.48-.008-.041-.073-.047-.114-.055-.094-.02-.245-.115-.286-.028-.144.308.169 1.005-.171 1.005-.357 0-.054-.841-.371-1.005-.232-.12-.458.283-.6.502-.061.095.021.228.058.335.125.37.28.728.428 1.089.005.012.017.021.028.028.065.04.125.125.2.112.146-.026.108-.144.114-.224.018-.245.013-.484.172-.698.02-.027.064.03.085.056.056.068.09.153.143.224.006.007.02-.005.028 0 .012.005.017.033.029.027.063-.026.213-.165.171-.111-.066.086-.162.144-.246.214.017-.016.04-.042.018-.047-.047-.009-.095 0-.143 0-.028 0-.07-.023-.085 0-.032.047-.08.143-.029.168.065.031.156-.142.2-.084.212.28.433.599.457.95.018.275-.091.867-.343.753-.352-.16-.247-.734-.4-1.089-.008-.02-.036.023-.057.028a.099.099 0 0 1-.057 0c-.107-.04-.2-.13-.314-.14-.037-.003 0 .075 0 .112.018.53.168 1.072.057 1.592-.065.307-.119-.618-.2-.922-.09-.339-.052-.77-.313-1.005-.134-.12-.262.248-.371.391a.248.248 0 0 0-.057.168c.042.403.2.794.2 1.2 0 .305-.054 1.161-.2.893-.28-.512-.111-1.166-.257-1.73-.03-.116-.227-.368-.257-.252-.207.78-.145 1.612-.314 2.401-.042.195-.005-1.538-.314-1.284-.331.272-.258.821-.457 1.2-.009.018-.027.027-.048.031a.08.08 0 0 1 .048-.03c-.057-.084-.114-.084-.171-.168a.11.11 0 0 0-.066.104c-.214-.24-.296-.662-.22-.942.03-.106.317-.061.286-.167-.032-.11-.243.028-.343-.028-.1-.056-.102-.339-.2-.28-.174.108-.238.355-.256.56-.007.071.182.013.2.083.057.225.099.487 0 .698a.141.141 0 0 1-.078.066c-.013-.077-.064-.129-.18-.094l-.015.1a.158.158 0 0 1-.07-.044 1.01 1.01 0 0 1-.228-.698c.007-.11.382-.115.285-.168-.159-.086-.407-.092-.542.028-.126.112-.06.334-.057.503.006.317.146.637.085.949-.024.126-.235.325-.314.223-.113-.148.065-.371.058-.558a3.857 3.857 0 0 0-.115-.865c-.03-.11-.15-.383-.2-.28-.274.579-.138 1.346-.542 1.843-.194.239-.228-.586-.228-.893 0-.09.237-.051.228-.14-.01-.097-.16-.156-.257-.14-.301.053-.57.227-.856.335-.969.367-1.938.734-2.911 1.09-.71.258-1.398.612-2.14.753-.314.06-.624-.164-.943-.167-.487-.006-.982.023-1.455.14-.073.017.033.18-.029.223-.211.143-.464.223-.713.279-.261.057-.533.038-.8.056-.161.01-.323.027-.485.027-.076 0-.151-.03-.228-.027-.238.007-.481.11-.714.055-.117-.027-.108-.29-.228-.279-.257.024-.463.231-.685.363-.416.247-.6.561-1.199.503-.159-.016-.185-.309-.342-.335-.321-.055-.645.12-.97.111-.05-.001-.074-.25-.2-.167-.095.062-.135.188-.229.251-.186.126-.388.23-.6.307-.053.02-.113-.037-.17-.028a1.379 1.379 0 0 0-.202.054c-.021-.003-.031-.003-.027.002l.024-.001c-.093.03-.185.065-.28.085-.021.004-.06-.007-.058-.028.01-.062.137-.13.086-.168-.117-.086-.29-.131-.428-.083-.071.024.04.149.028.223-.003.02-.046-.01-.057-.028-.02-.033-.01-.078-.028-.112-.068-.125-.22-.22-.228-.363-.005-.076.124-.12.2-.111.046.006.004.098.028.14.026.046.06.111.114.111.028 0 .371-.11.343-.251-.031-.152-.13-.281-.2-.419-.016-.03-.027-.069-.057-.084-.035-.017-.077.008-.115 0-.013-.002-.019-.037-.028-.028a.312.312 0 0 0-.056.08c.005-.07.02-.15-.03-.191-.09-.075-.243-.147-.342-.084-.096.06.054.315-.057.335-.125.022-.136-.244-.257-.28-.063-.018-.064.14-.029.196.09.14.533.296.371.335-.5.123-.333-.573-.799-.307-.057.033-.085.161-.028.196.074.045.21-.13.257-.056.054.084-.095.18-.115.279-.01.046.074.154.029.14-.089-.03-.118-.151-.2-.196-.077-.042-.212.02-.257-.056-.048-.081.11-.2.057-.279-.042-.062-.064.14-.114.195-.02.023-.056.021-.085.028-.048.012-.132.075-.143.028-.03-.128.074-.26.057-.39a1.498 1.498 0 0 0-.171-.475c-.014-.026-.007.064-.029.084-.096.085-.235.122-.314.223-.03.037-.017.128.029.14.103.025.21-.082.314-.056.046.01.064.108.028.14-.066.056-.175.024-.257.055-.214.081-.42.182-.628.28-.05.023-.194.102-.142.083.174-.066.327-.209.513-.223.087-.007.228.085.2.167-.186.546-.434.112-.685.112-.054 0-.114.093-.085.14.085.142.53.383.37.335-.304-.093-.72-.176-.827-.475-.017-.047-.002-.076.033-.095-.046-.011-.084-.036-.09-.073-.037-.209.23-.41.171-.614-.03-.107-.251.02-.314.112-.1.148.063.722-.4.586-.018-.005-.021-.029-.018-.058-.03.104-.03.2.104.254.071.028.196-.042.229.027.048.103.048.376-.058.336-.218-.083-.242-.44-.456-.531-.103-.044.106.302 0 .335-.123.038-.23-.108-.35-.17a.442.442 0 0 0 .179-.22c.07-.22-.061-.522-.257-.643a.079.079 0 0 0-.022-.01c.074-.096-.003-.31-.406-.744-.123-.132-.108.348-.2.503-.02.034-.088.057-.114.028-.06-.066.002-.264-.086-.252-.1.014-.047.205-.114.28-.074.082-.258.274-.286.167-.044-.175.154-.328.2-.502.012-.046.019-.145-.028-.14-.192.019-.356.149-.543.195a2.363 2.363 0 0 1-.57.084c-.04 0 .092-.044.085-.084-.016-.095-.047-.242-.143-.25-.224-.02-.2.612-.2.613.149.145.452.023.6.168.08.078-.203.116-.314.112a.865.865 0 0 1-.4-.14c-.025-.015.042-.058.029-.084-.014-.027-.079.002-.086-.028-.025-.108.09-.269 0-.335-.076-.056-.138.139-.228.168-.04.013-.12-.014-.114-.056.01-.066.121-.077.143-.14.013-.04-.016-.106-.057-.111-.408-.053-.506.125-.571.53-.007.042.078.033.114.056.008.005-.031-.01-.029 0 .01.04.076.074.057.112-.04.077-.113.156-.2.167-.083.011-.145-.128-.228-.111-.17.034-.29.2-.456.25-.053.016.139-.13.085-.139-.188-.032-.517.24-.57.056-.054-.183.324-.228.513-.251.08-.01.146.243.171.167.031-.091-.214-.187-.142-.251.114-.101.318.036.456-.028.073-.034.146-.171.086-.223-.08-.069-.252.112-.314.028-.055-.076.187-.131.171-.224-.014-.083-.148-.14-.228-.111-.075.026-.05.294-.086.223-.06-.116.113-.325 0-.39-.104-.062-.23.115-.285.222a1.928 1.928 0 0 0-.141.32c-.079-.061-.092-.274-.202-.292-.087-.014-.126.173-.085.252.056.11.424.14.314.195-.135.066-.29-.082-.428-.14-.013-.005.035-.016.028-.027-.094-.148-.15-.361-.314-.42-.251-.088-.534-.003-.799.029a.2.2 0 0 0-.143.083c-.091.145-.068.817-.57.14-.062-.082.218-.073.256-.167.026-.063-.143.064-.2.027-.08-.052-.173-.16-.142-.25.029-.086.192-.022.257-.085.034-.033.018-.148-.029-.14-.149.027-.289.092-.428.156-.1-.005-.14.005-.285-.016-.015.057-.03.1-.044.142a.837.837 0 0 1-.156.026.158.158 0 0 1-.086-.021.277.277 0 0 1-.028-.035.03.03 0 0 0-.012.01c-.09-.069-.168-.185-.274-.177-.084.006.1.205.029.25-.207.136-.467.19-.714.196-.189.005-.355-.198-.542-.167-.083.013.106.218.029.251-.088.037-.137-.19-.229-.167-.117.028-.116.322-.228.279-.108-.042.061-.223.085-.335.014-.065.09-.17.029-.196a.84.84 0 0 0-.57-.028c-.104.035-.195.173-.172.28.02.09.35.1.257.111-.52.066-1.052-.023-1.57.056-.07.01-.015.198-.086.195a.965.965 0 0 1-.599-.223c-.06-.055.119-.133.2-.14.068-.005.149.177.171.112.057-.167-.09-.364-.028-.53.038-.104.181-.13.285-.168.02-.007.019.037.028.056.029.056.053.114.086.168.005.008-.008-.023 0-.028.082-.054.265-.237.257-.14-.016.184-.33.295-.285.475.034.143.322.214.428.111.099-.097-.21-.269-.143-.39.065-.12.266-.06.4-.084.05-.01.097.02.142-.028.078-.084.086-.266.2-.28.084-.01-.052.226.029.252.09.03.188.049.286.056-.142-.117-.115-.558-.115-.559-.19-.148-.367.438-.371.447-.006.012-.016.026-.029.028-.047.008-.101.024-.142 0-.025-.014.023-.099 0-.084-.046.03-.047.178-.086.14-.084-.083.003-.322-.114-.335-.162-.018-.262.193-.4.279-.008.005.004-.02 0-.028-.025-.057-.025-.182-.085-.167-.26.063-.451.317-.714.363-.118.02.338-.23.228-.28-.216-.1-.493-.036-.713.056-.09.038.01.26-.086.28-.084.016.027-.268-.057-.252-.095.019-.004.226-.086.28-.073.047-.207.016-.256-.057-.04-.058.156-.188.085-.195-.795-.077-1.61.111-2.397-.028-.06-.01-.046-.069-.02-.14-.008.017-.02.028-.037.028-.87.01-1.728-.233-2.598-.25-.07-.002-.014.195-.085.195-.201 0-.453-.033-.571-.196-.094-.13.103-.315.086-.474-.006-.051-.113-.098-.143-.056-.11.153-.019.476-.2.53-.18.054-.3-.228-.457-.335-.035-.024-.1-.016-.114-.056-.066-.187-.136-.388-.114-.586.052-.474.303-.056.4-.056.05 0 .057-.09.057-.14 0-.131-.166-.316-.057-.39.108-.075.226.134.342.195.009.005.029-.01.029 0 0 .066-.086.163-.029.196.108.06.262-.058.371 0 .058.03-.06.22 0 .195a.623.623 0 0 0 .343-.335c.076-.203-.37-.243-.4-.28-.01-.013-.004-.021.012-.028-.053-.006-.11-.056-.155-.027-.06.039-.068.126-.085.195-.002.009.015.02.025.026-.096-.052-.2-.094-.282-.165-.016-.014.04-.039.028-.056-.052-.077-.2-.102-.2-.195 0-.073.22-.015.2-.084-.04-.148-.162-.314-.314-.335-.096-.014.012.27-.085.279-.066.006-.108-.054-.142-.124-.032-.017-.066-.032-.086-.016-.146.119.167.313.17.335.012.075-.173.15-.113.196-.113 0-.117.417-.143.307-.052-.218.086-.448.057-.67-.011-.086-.139-.276-.171-.196-.045.11.16.227.114.335-.052.121-.305.322-.343.196-.067-.223.073-.475.2-.67.038-.058.186.123.2.056.024-.12-.024-.312-.143-.335-.102-.02-.039.293-.142.279-.14-.02-.117-.32-.257-.335-.126-.014-.206.394-.257.279-.1-.222-.066-.516.057-.726.068-.116.266-.042.4-.056.266-.027.414.095.684.252.041.023.04.104.086.111.04.007.047-.075.086-.084.167-.039.352-.117.513-.055.079.03-.079.223 0 .25.108.04.215-.082.314-.139.019-.01.008-.053.029-.056.057-.008.115.015.171.028.18.044-.081.163.143.335.3.231.37-.195.6-.195.07 0 .014.189.085.195.177.017.34-.102.514-.14a.303.303 0 0 1 .142 0c.026.008.034.07.057.057.047-.028.092-.086.086-.14-.002-.024-.024-.042-.048-.06-.12-.018-.241-.032-.351-.08-.062-.026-.077-.132-.143-.14-.117-.013-.225.091-.343.085-.06-.004-.157-.054-.142-.112.018-.074.242-.049.2-.112-.187-.273-.43.047-.514.14-.007.007.009.029 0 .028-.069-.01-.133-.041-.2-.056-.104-.023-.208-.052-.314-.056-.153-.006-.315.084-.457.028-.186-.074-.259-.359-.456-.39-.117-.02.198.252.114.334-.082.08-.202-.116-.314-.14-.015-.003-.98.023-.942-.334.06-.556.663-.098.799-.112.08-.008.112-.27.143-.196.043.107-.105.222-.086.335.008.047.124.044.143 0 .044-.102-.105-.296 0-.335.277-.1.586-.036.885-.028 0 .136.045.274.114.391.019.033.111.038.114 0 .019-.288-.134-.586-.057-.865.026-.094.209.224.257.14.067-.119.007-.33-.114-.391-.192-.097-.412-.1-.631-.11a.056.056 0 0 0 .003-.002c.065-.04-.016-.199.057-.223a2 2 0 0 1 .856-.084c.075.008.04.184.114.195a.286.286 0 0 0 .208-.06c.015.06.02.119-.008.172-.054.105-.343-.034-.343.084 0 .654.66.018.685.028.077.028.056.128.04.227a.015.015 0 0 0-.011-.004c-.168 0-.412-.012-.485.14-.072.146.038.424.2.446.876.119.546-.498.656-.865.012-.04.106.014.114.056.027.131.024.27.021.406l-.02-.016.02.04c-.003.17 0 .338.065.49.047.112.066-.175.117-.33.017 0 .034 0 .054-.004l-.04-.031a.213.213 0 0 1 .012-.025c.013-.023.033.044.057.056.017.008.046-.016.057 0 .051.076.15.167.114.251-.058.135-.352.132-.343.28.009.139.236.228.371.195.127-.031.135-.448.2-.335.09.154.012.38-.085.53-.047.072-.196-.06-.257 0a.099.099 0 0 0-.028.07c.01 0 .019.005.028.014.044.043.025.113.003.184.013.034.049.072.025.095-.014.014-.033.018-.054.017-.004.037 0 .07.026.095.066.065.112-.228.2-.196.117.045.067.265.17.335.14.095.203-.14.286-.167.054-.018.114-.005.171 0 .171.014.215.056.4.056.067 0 .132-.028.2-.028.013 0-.04.035-.029.028.068-.045.177-.062.2-.14.033-.108.048-.294-.057-.335-.09-.035-.016.211-.086.28-.143.14-.412.064-.57.055-.083-.005-.24.058-.257-.084-.047-.366.342.112.485-.279.046-.126-.347-.121-.314-.251.053-.207.274-.386.485-.419.112-.017.094.228.057.335-.023.069-.204.012-.2.084.01.167.061.447.229.447.153 0-.208-.325-.114-.447.078-.103.245.144.37.112.13-.033.166-.221.286-.28.037-.018.015.112.057.112.06 0 .098-.152.143-.112.151.14.266.331.314.53.012.051-.111-.043-.17-.065a1.806 1.806 0 0 0-.173-.185c-.022-.02-.085-.003-.085.028 0 .133.136.267.085.39-.029.071-.128-.138-.2-.111-.061.022-.09.175-.028.195.291.092.62 0 .913.084.065.019-.005.167.057.195.096.044.319.077.314-.028-.01-.25-.169-.489-.342-.67-.055-.057-.101.144-.086.223-.15-.057-.268-.122-.085-.39.05-.075.196-.017.256-.084.034-.037-.083-.097-.057-.14.025-.04.109-.033.143 0 .033.033.021.099 0 .14-.03.06-.198.103-.143.14.172.115.451.022.6.167.075.074-.228.051-.286.14-.15.227.304.509.4.502.093-.006-.059-.313.028-.279.11.043.019.266.115.335.085.061.262.064.314-.028.078-.138-.183-.512-.03-.474.279.068.34.494.6.614.124.057-.24-.339-.114-.391.135-.057.171.276.314.307.084.018-.108-.182-.057-.251.04-.056.181.122.2.056.078-.278-.002-.579.028-.866.018-.162-.047-.491.115-.474.292.03.516.316.685.558.046.067-.12.154-.2.14-.075-.014-.1-.27-.114-.196-.023.113-.017.281.085.335.094.05.251-.04.286-.14.049-.143-.124-.3-.086-.446.017-.065.17-.06.2 0 .086.177-.104.642.085.586.224-.065.004-.545.2-.67a.965.965 0 0 1 .459-.13.11.11 0 0 1-.06-.037c-.11-.14-.243-.447-.085-.53.248-.131.564.045.828.139.068.024-.247.03-.2.083.085.098.245.14.371.112.064-.014-.01-.13 0-.195.001-.01.02.001.029 0 .047-.008.094-.028.142-.028.014 0 .027.014.029.028.008.064-.055.16 0 .195.046.03.04-.11.086-.14.025-.016.056.02.085.028.095.029.19.059.286.084.009.003.02-.004.028 0 .097.043.251.24.286.14.193-.57-.409-.355-.543-.335-.035.005-.118-.014-.114-.056.009-.083.19-.187.114-.223-.085-.042-.145.123-.228.167-.043.023-.103.055-.143.028-.073-.05-.062-.187-.142-.223-.204-.093-.436-.177-.657-.14-.16.027-.11.533-.342.168-.021-.033.017-.075.028-.112.017-.057.026-.11.086-.14.008-.004-.01.03 0 .028.23-.056.538-.009.685-.195.089-.114-.257-.149-.4-.168-.08-.01-.167.03-.228.084-.036.031-.002.1-.029.14-.034.05-.106.063-.142.111-.012.015-.057.251-.058.252-.062.047-.198.128-.228.055-.06-.147.07-.315.057-.474-.004-.055-.031.132-.085.14-.053.007-.062-.123-.115-.112-.046.009-.033.092-.028.14.014.132-.01.297.086.39.081.08.281-.069.342.028.063.1-.003.295-.114.335-.087.032-.027-.28-.114-.251-.136.044-.093.318-.229.363-.124.04-.242-.213-.359-.173.04-.096.037-.23-.04-.246-.233-.05-.474.008-.709.074a.165.165 0 0 0-.005-.018c-.035-.104-.126-.18-.171-.28-.009-.019.038.02.057.029.038.018.073.044.114.055.051.015.127-.006.171-.027.012-.006.016-.024.029-.028.074-.025.15-.049.228-.056.005 0 .063.042.086.028.05-.033.097-.072.143-.112.05-.044.153-.074.142-.14-.015-.091-.106-.195-.2-.195-.065 0 .045.132.03.195-.016.059-.068.103-.115.14-.01.008-.02-.019-.029-.028-.019-.019-.05-.03-.057-.056-.014-.063.047-.15 0-.195-.142-.14-.314-.307-.513-.307-.176 0 .329.162.428.307.052.077.03.207-.029.279-.042.052-.134-.01-.2 0-.009.001.009.024 0 .028-.037.018-.118-.023-.142-.028-.057-.012-.114-.036-.172-.028-.02.003-.025.076-.028.056-.022-.129.057-.293-.029-.391-.053-.06-.127.116-.142.196a.659.659 0 0 0 .028.39c.032.07.264.07.2.112a.8.8 0 0 1-.542.112c-.065-.01.058-.167 0-.196-.103-.05-.268.115-.343.028-.085-.099-.089-.333.029-.39.115-.057.187.203.314.223.088.013.225-.05.228-.14a1.567 1.567 0 0 0-.2-.782c-.042-.077-.199-.121-.257-.055-.108.121-.034.332-.114.474-.035.063-.136.118-.2.084-.027-.015-.041-.04-.05-.07a.036.036 0 0 1-.007.014c-.039.054-.195.066-.2 0-.01-.168.07-.34.172-.475.03-.04.126.105.142.056.02-.057-.054-.14-.114-.14a.288.288 0 0 0-.228.14c-.086.144-.04.363-.134.491-.01-.048-.024-.088-.037-.128-.048-.008-.08.004-.104.026-.018-.047-.038-.09-.068-.11-.116-.074-.263-.135-.4-.111-.07.012-.016.177-.085.195-.239.065-.514.126-.742.028-.103-.044.076-.233.029-.335-.025-.052-.115.016-.172.028-.029.006-.064.007-.085.028-.086.084-.109.267-.228.28-.086.007.026-.231-.058-.252-.267-.068-.558-.033-.827.028-.122.027-.222.124-.328.196l-.1-.057a.11.11 0 0 0 .074.074zm-2.672-4.094c.01-.066-.078-.124-.142-.14h-.006c-.023.073.033.156.118.238a.394.394 0 0 0 .03-.098zm-1.056-.251c-.305-.01-.62.138-.913.056-.111-.031-.128-.228-.086-.335a.719.719 0 0 1 .371-.391c.083-.035.141.156.229.14.066-.014-.01-.181.057-.196.26-.06.542-.069.799 0 .093.025.053.216.143.251.06.024-.058-.226 0-.195.123.067.116.335.257.335.13 0 .086-.4.2-.335.21.12.18.461.342.642.045.05.072-.13.057-.196-.035-.159-.21-.283-.2-.446.005-.076.177-.057.228 0 .057.062-.082.235 0 .251.114.022.182-.145.286-.195.03-.015-.05.05-.057.083-.004.02.019.038.028.056.02.037.074.073.057.112-.039.092-.28.163-.2.223.098.073.226.066.355.057.007.085.022.178-.04.194-.314.083-.746-.288-.97-.055a.139.139 0 0 0-.035.054 4.56 4.56 0 0 0-.908-.11zm2.011-.086a.143.143 0 0 1-.059-.021l.001.024.058-.003zm-.07-.054a.136.136 0 0 1 .014-.028.27.27 0 0 0-.003.06c-.01-.008-.015-.018-.01-.032zm.2-.279c-.03-.09-.191.043-.286.028-.033-.006-.08-.06-.057-.084a.675.675 0 0 1 .343-.195c.16-.027.356-.043.485.056.113.086.067.29.14.408-.017.01-.03.022-.026.038.018.079.214.234.143.196-.165-.09-.45-.594-.742-.252-.056.066.143.252.057.252-.105 0-.098-.269-.193-.253.07-.063.162-.117.136-.194zm.656.251c.07.065.221.043.286-.028.012-.013.01-.032.004-.055a15.2 15.2 0 0 0-.261.027.18.18 0 0 0-.06.018.177.177 0 0 0 .031.038zm.229-.251c.061.008.11.089.153.16l-.092.008c-.024-.073-.12-.175-.061-.168zm.285.251c.03-.03.038-.065.034-.105l-.166.014c.045.074.086.137.132.091zm-.057-.474c.018-.08.16-.21.2-.14.079.137-.035.358 0 .5l-.11.009c-.011-.112-.117-.255-.09-.37zm.257.446c.183.138.47.052.685-.028.04-.015.054-.062.063-.114a3.46 3.46 0 0 1-.035.003c-.256.017-.513.033-.77.053a.15.15 0 0 0 .057.086zm.828-.307c.05-.007.03.082.024.156a4.4 4.4 0 0 1-.104.01c.014-.075.019-.157.08-.166zm.057.252c.258.021.509-.12.764-.16-.264-.009-.531.038-.797.064-.004.05-.002.093.033.096zm.942-.168c.018.002.03.013.038.031a1.617 1.617 0 0 0-.217-.023.757.757 0 0 1 .179-.008zm.114.251c.12-.01.253-.161.228-.279a.177.177 0 0 0-.01-.033c.143-.008.3-.094.438-.05.14.043.17.283.314.306.099.017.111-.177.2-.223a.426.426 0 0 1 .285-.028c.153.036.274.167.428.196.3.056.617-.015.914.055.053.013-.135.116-.086.14.065.032.16-.143.2-.084.063.093.008.23-.029.335-.009.027-.059-.01-.085 0-.025.01-.054.083-.057.056-.012-.093.09-.209.028-.279-.047-.054-.128.074-.2.084-.018.002.019-.059 0-.056-.071.01-.13.103-.2.084-.179-.052-.317-.362-.485-.28-.18.089.026.477-.142.587-.133.086.077-.357-.029-.475-.083-.092-.265-.037-.37.028-.052.032.2.095.142.112-.137.04-.321.067-.428-.028-.069-.061.162-.173.114-.251-.04-.066-.124.119-.2.111-.126-.013-.215-.167-.342-.167-.226 0-.433.194-.657.167-.045-.005-.034-.072-.027-.135.005.058.013.11.056.107zm-.114-.53c-.07-.03-.167.045-.229 0-.074-.055-.19-.199-.114-.251.2-.14.47-.193.714-.168.091.01.04.195.114.251.077.06.194.09.285.056.131-.049.191-.212.314-.279a.215.215 0 0 1 .2 0c.042.025.036.096.057.14-.048.01-.096.024-.143.027-.028.002-.069-.023-.085 0-.059.082-.022.241-.114.28-.134.054-.293-.007-.429-.056-.1-.037-.149-.196-.256-.196-.076 0 .135.123.114.196-.016.052-.108.092-.175.125-.072-.055-.173-.09-.253-.125zm1.37-.224c.128.057.162.027.17-.028-.061-.029-.13-.016-.199 0a.057.057 0 0 0 .028.028zm.313-.25c.09.019.023.238.115.25.049.007.098.01.148.012-.09.087-.179.202-.291.212-.092.008-.032-.211-.114-.251l-.002-.001c.012-.095-.053-.266.144-.223zm1.256.167c.084-.001.167.006.25.017.008-.033.007-.061-.021-.073-.14-.06-.332-.06-.457.028a.193.193 0 0 0-.047.049c.092-.012.184-.02.275-.021zm-7.703 8.945a.05.05 0 0 1-.031-.011c.013 0 .023.004.031.011zm3.23-3.583a.3.3 0 0 1-.076-.012.85.85 0 0 0 .026-.017zm.586.401c-.085.047-.157.124-.194.016zm.148-.012l-.148.012c.047-.026.098-.042.148-.012zm-1.227-.39c-.057.027-.114.11-.143.195.029.028.057.055.057.14-.242-.048-.01-.298-.023-.423l.106.068a.067.067 0 0 1 .003.02zm-1.398-5.529c.114-.14.285-.056.342.056 0-.14.2-.307.285-.14-.17.224-.428.335-.628.084zm-4.774-2.455c.097.005.201 0 .235.082zm-.164-.057l.164.057c-.066-.004-.13-.012-.164-.057zm-.4 3.461c.114.028.2-.027.229-.111-.057-.196.028-.335-.086-.53.228-.196.143.474.457.223a.583.583 0 0 0 .028.335c-.228.056-.485.279-.628.083zm.428-1.368c.086.084.286.028.257.28zm-4.395 9.66c.029-.335.2-.083.257.028zm5.023-9.632c-.109.054-.148.04-.2.036zm-.2.036l-.114.02a.247.247 0 0 1 .114-.02zm.628 1.081c-.192.084.031.214.06.391h-.003a.207.207 0 0 0 .004.003.236.236 0 0 1-.06.192.354.354 0 0 1-.286-.14c.086 0 .114-.055.143-.139-.114-.14-.229.14-.229-.14 0-.111.172.029.229-.139-.143-.084-.2.056-.286-.14.115.028.371-.083.428.112zm-.513 1.563c.17.112.028-.279.142-.25-.028.195.086.139.086.278-.029.056-.228.168-.228-.027zm.628-4.606c-.029-.168.114-.112.142-.195-.057.223.172.027.143.195-.114.167-.143-.028-.285 0zm-.828 4.104c-.029-.14.057-.14.086-.195-.029 0-.086 0-.086-.056.028-.056.228-.168.228 0-.142.028-.057.418-.228.251zm.314-.112c.2.028-.057-.167.143-.195.057.084.028.307.085.39-.142 0-.257 0-.228-.195zm-.257-.726c0 .028.029.056.057.056 0-.083 0-.167.086-.14.028.168-.115.447-.2.252.143 0-.114-.223.057-.168zm-.171-.502c-.057.028-.114-.028-.143-.056v-.14c.057.056.143-.195.171 0-.057.028-.057.112-.028.196zm.171 1.708c.017-.09.035-.173.114-.173zm-.143.218l.143-.218c-.019.105-.035.218-.143.218zm-.257-.726c.057-.028.057-.055.057-.14.086.029.143.057.172.14-.029.056-.229.168-.229 0zm2.113.168c.228-.112.313.195.428.056v.195c-.2-.028-.286-.112-.343-.14.029 0 .057 0 .057-.055-.057 0-.143.028-.143-.056zm.456 1.787c.171.056.2-.056.257-.14-.028.196.086.168.057.335-.143 0-.228-.056-.314-.195zm-1.712-2.01c.257-.028.285.25.485.083 0 .084.086.084.057.196-.171 0-.228-.028-.428.056 0-.112-.086-.168-.114-.335zm2.854.055c-.114.056-.228.056-.343-.055zm-8.391 8.655c.085-.279.57-.307.542-.028zm5.797-9.182v-.003c.224.026.169-.195.339-.056.086-.056-.029-.39.143-.335.057.14-.143.223 0 .28.057 0 .028-.112.085-.14-.057.223.2.279.2.195 0-.028.029-.056.057-.056-.085.416-.649.281-.824.115zm1.452-1.315c-.057-.307.114.111.086-.196.028.056.342.056.228.14-.171-.056-.2.112-.314.056zm-1.142.14c.057-.029.057-.056.057-.14a1.34 1.34 0 0 1-.827-.14c.314-.056.485-.195.799.084-.029-.084-.029-.168.057-.196 0 .168.171.14.285.14 0 .196-.285.335-.37.251zm2.883-2.067c-.057.196.057.252-.114.335 0-.14-.086-.167-.086-.335zm-.342 1.983c.2.028.456-.028.485.195zm-.514-.168c0 .28-.285.168-.143.503a.22.22 0 0 0-.142.055c-.086-.223.142-.25.085-.53-.114-.028-.171 0-.228.056-.029-.251.2-.14.228-.28-.028 0-.085 0-.085-.055.228-.112.085.335.285.251zM10.477 31.34c.094.074.243-.039.14.161zm-.03-.034l.03.034a.13.13 0 0 1-.03-.034zm3.053-1.061c-.114-.224-.4.083-.285-.307.114.25.171-.056.342-.112-.2.28.086.251-.057.419zm.457.083c-.057.14-.143.196-.2.112 0-.14.114-.167.2-.28.171.196.228.224.37.42-.142-.028-.456.083-.37-.252zm-.2-1.368c.143 0 .285 0 .228.196zm-.171 3.406c.257.14.828.14.856.53zm1.826-1.34c.057-.167.057-.335.086-.474.114.111.057.335.057.53zm1.123 6.193c.05.028.111.048.048.173zm-.038-.134l.038.134c-.041-.021-.076-.048-.038-.134zm-2.14-7.203c.085-.391-.115-.224.2-.363.056-.168-.2.056-.058-.196.086.028.171.084.171.168-.085.195-.17.335-.314.39zm.742 4.41c.028-.083.028-.139.028-.195.342-.027.485.28.285.475-.057-.14.029-.14 0-.223l-.085-.028c-.086.111.028.279-.086.251.057-.167-.142.14-.2.056.029-.112.143-.14.086-.196-.4.224-.514-.25-.8-.335.087-.083.144-.335.258-.25.143.027-.171.139-.029.195.086-.056.172-.224.314-.084-.142.167-.114.223-.057.335.086-.056.228.084.285 0zm-.914-.11c-.086-.168-.2-.057-.342 0-.057-.252.057-.308.085-.615.057.195.4.028.457.28-.114.083-.257-.029-.371.055.029.195.257.084.171.28zm1.181-1.378c.117.038.265-.059.218.149zm-.068-.047l.068.047a.143.143 0 0 1-.068-.047zm-2.825-.474c.085-.168.2-.335.114-.391-.114.056-.371-.028-.2-.251.228-.056.257.167.4.223 0-.028.028-.056.057-.028-.257.112-.114.53-.371.447zm.856-1.09c-.057 0-.114.14-.171.224-.114-.028.028-.223.057-.335.057.028.143.028.114.112zm.085-2.512c-.142.224.115.224.115.363a.411.411 0 0 0-.171.056c-.058-.084-.143-.335.056-.419zm-.428 3.63c-.057-.196-.37 0-.142-.363.2.083.37.056.428.14-.086.055-.2.083-.286.223zm2.027-2.066c.086-.112.143-.252.228-.196l-.114.251zm3.14 6.142c-.086.056-.172.028-.286 0zm-.857-2.094c.057-.14 0-.196-.028-.28h-.057c.114-.139.37-.111.4-.055-.058.195-.2.167-.315.335zm-.114-.251v-.028h.029s-.029 0-.029.028zm.371-.698c.114.028.143-.168.257-.14 0 .14.086.223.086.363-.172-.056-.314-.112-.343-.223zm-2.369.028c.029-.252-.085-.112-.114-.056.029-.196-.2-.196-.228-.084.057-.335-.514-.056-.314-.419.4.251.941.196 1.227.642-.257.028-.343-.251-.57-.083zm3.054-1.592c-.057-.028-.228-.223-.342-.111.142 0-.143.307-.2.418.085-.335-.2-.111-.257-.307.114-.195.228-.223.371-.223-.029.279-.171-.028-.2.223.086.056.171.028.228-.056-.028-.028-.028-.055 0-.14.172 0 .457-.139.4.196zm-.7 5.142c.133.039.334.024.358.163zm-.07-.033l.07.033a.228.228 0 0 1-.07-.033zm.17-2.847c.086.111.229-.028.172.25zm-1.284-3.35c.114.027.057.195-.028.362zm.537.887c-.1-.038-.364.048-.194-.19zm.034.034l-.034-.034c.017.006.03.017.034.034zm-1.113 1.926c.086-.112.114-.084.285-.167.143.223.8.279 1.085.307-.057.167-.029.25 0 .335-.314 0-.8-.224-1.028-.475-.142.28-.228-.112-.342 0zm.2-2.206c.028-.167-.171.028-.114-.195.114.056.17-.084.285-.084-.057.112-.114.112-.143.224 0 0 0 .055-.028.055zm.999-.67c.143 0-.171-.14.028-.195-.028.14.143.112.114.251-.028 0-.17.112-.142-.056zm-.2-.083c.057-.056.2-.028.143.14zm14.128 5.807c0-.14.029-.196.143-.196.028.056 0 .14.057.14.057-.028.086-.112.086.056-.143-.056-.2.14-.286 0zM9.133 27.228c.257-.167.029-.195.2-.363.143-.055.086.084.086.168-.114.112-.2.195-.286.195zm-1.598 5.724c.086-.028.371.056.2.223zm-.334-4.007c.083-.115.108-.265.248-.265zm-.066.07l.066-.07a.336.336 0 0 1-.066.07zm2.797 10.023c-.085.223-.342.112-.2-.084zm-.376-7.672c.068-.087.137-.184.205-.201zm-.137.134l.137-.134a.48.48 0 0 1-.137.134zm.342 1.284c.057-.195.371-.028.2.112zm-2.483 5.724c-.086.055-.314-.056-.228-.224zm2.769-6.254c-.057-.112.2-.614.285-.447zm-4.13 6.682c.124.038.3-.029.277.158zm-.066-.038l.065.038a.158.158 0 0 1-.065-.038zm.314.28c.143-.056.314.14.342.279zM2.207 36.38c.208.214.618.396.476.675zm-.095-.135l.095.135a.44.44 0 0 1-.095-.135zm4.71 2.597c.057-.028.313.167.37.279-.17.14-.2-.28-.313-.028-.086-.028-.086-.084-.115-.14zm-.03 1.48c-.227 0-.085-.42-.256-.14-.057-.335-.428-.28-.457-.587.143-.111.143.308.314.028.114.307.486.363.4.698zm.058.083c.228-.39.485.251.143.223-.086-.14.2-.111.085-.25-.085-.029-.142.11-.228.027zm7.535-4.634c-.2.027-.228-.056-.457-.112zm-.529 2.02c.103.069.41.028.3.241zm-.013-.01l.013.01a.092.092 0 0 1-.013-.01zm.513-3.1c-.028.085-.085.168-.028.196l.171.056c0-.167.057-.112.086-.335.085.28.57.14.742.363-.257-.056-.086.195-.029.195.229.056.143.056.343.196.285.195.77.195.77.39-.513 0-1.056-.25-1.54-.418-.515-.196-.943-.363-1.228-.642.2 0 .457.335.713 0zm.4.168c-.086.028-.228.084-.171.224zm-1.17.307c.085-.083.285-.14.171.14-.257-.195-.028.195-.2.195.029-.083-.057-.083-.028-.167.114.028-.029-.112.057-.168zm3.34-.977c.085 0 .342-.084.285.224-.115-.084-.143.055-.257-.028 0-.112-.029-.14-.029-.196zm.17 1.899a.898.898 0 0 1-.656-.28zM11.96 31.89c.171.056-.143.363-.2.335zm-1.513 7.482c.114.028.057.14.086.196.143.027.2-.056.171.14-.086-.029-.171.055-.285 0 .028-.113-.029-.196.028-.336zm-.057-.81c.228.14.571.224.6.447zm8.306-4.857c-.171-.028-.542.055-.571-.224.257.056.371.028.6.028-.03.084.028.112-.03.196zm-2.14.949c.085-.028.484-.056.284.111zm-4.282-1.647c.114-.14.342.083.342-.196.057.642.571.224.97.559-.113.363.086.39.143.586-.4.056-.485-.419-.884-.335.028-.112.142-.112.085-.168-.228.224-.257-.167-.456-.223-.115 0-.229.14-.343.195 0-.167-.143-.25-.285-.307.142-.307.285-.223.428-.223.057.028-.029.112 0 .112zm-.6.028c.086-.196.058-.112.172-.28zm-.342-.112c.086-.251.314-.112.143.084zm16.697 4.467c.257.084.4-.028.514.167a1.75 1.75 0 0 1-.543.168zm.457-.14c.057-.251-.229-.083-.172-.335.114-.14.314-.056.486-.056-.03.084 0 .14.028.196-.143.056-.2 0-.343.195zm-.813-1.09c.127-.01.258-.14.213.057zm-.1-.026l.1.026a.138.138 0 0 1-.1-.026zm1.426-1.564c.029.28-.542.223-.514.056-.057 0-.028.14-.085.14-.029-.056 0-.224-.114-.196 0 .112.057.168 0 .196 0-.168-.114-.168-.171-.084.028-.168-.143-.14-.058-.391.226.138.48-.106.568.213-.043-.184.232-.155.232-.046-.057-.028-.2.14-.086.14.171-.056.285-.195.542-.168-.085.336.057.14.086.391-.228.056-.171-.25-.4-.25zM26.401 35.8l-.029.252c-.085-.056-.256-.056-.256-.224.114 0 .142-.111.285-.028zm.001-.628c-.158.034-.296.168-.315-.097zm.227.07l-.227-.07a.219.219 0 0 1 .227.07zm-.513-1.815c.228.084.485-.307.57.112-.142.028-.2-.028-.4.028.115-.251-.313.056-.17-.14zm-1.513 11.447c0 .14-.029.307-.143.307zm.4-7.23c-.314-.085-.257.25-.2.446-.4.251-.057-.614-.457-.53.143-.391.628.027.656.083zm1.34-.699c-.456-.586-1.055-.14-1.626-.475.057-.334.228-.083.343-.083.485.056 1.056.056 1.455.14-.085-.14-.114-.475 0-.727.057.28.628.336.685.196.029.223.114.363-.085.447.057-.252-.543-.363-.543-.028.057.279.514.14.685.111-.114.308-.028.503-.228.643.171-.28-.171-.252-.057-.475-.057-.028-.057-.056-.086-.084-.085.335-.4-.028-.4.363-.028-.084-.056-.14-.085-.195-.029.14.114.223-.057.167zm.23-1.898c.085-.447.399 0 .484-.42-.028.252-.057.224.029.392-.2-.056-.314-.084-.514.028zm2.768-.587c.028-.055.314-.279.228-.111-.057 0-.028.195-.085.195.028-.195-.143.168-.143-.084zm-1.627 2.485c-.029-.223.171-.084.114-.335.228-.028.257.196.371.28-.086.083-.314-.029-.257.306-.2.056-.028-.335-.228-.25zm-1.227-2.736c-.057.028-.115.084-.115.196-.114-.112-.314-.112-.37-.308.285.252.57.056.742-.279.028.196.057.084.17.084-.056.28.258.335.343.223-.028-.055-.171-.028-.114-.195.314.14.6.586.8.112-.058-.028-.144 0-.144-.084.115-.056.229-.028.314.084-.17-.028 0 .111 0 .195-.17-.084-.142.168-.142.335-.143-.084-.114.084-.2.112-.029-.112-.143-.112-.2-.224-.085.308-.285.112-.257-.083-.142.055-.628.055-.827-.168zm3.368-.251c.085-.475-.628-.419-.771-.81.2.084.685.028.999.168-.057.335-.029.754-.228.642zm-3.483-1.173c.229-.056.286.447.4.028.114 0 .114.112.257.084-.114.447-.542.223-.657-.112zm1.085.14c.314-.028.57-.056.685.307zm-.285-.028c.057-.084.257-.084.257.084zm2.055.782c.028.279.314-.056.4.223-.457.168-.828-.363-.914.168-.029-.224-.057-.42-.2-.475-.485.39-1.427.056-1.77-.168.4.056.8-.055 1.057.196 0-.14.057-.224.142-.196.428.28.942-.25 1.456.196-.029.223-.171-.168-.171.056zm-.029-1.87c.143-.252.485.11.656-.168-.028.083 0 .14.029.195-.228.195-.457.056-.685-.028zm.742 4.354h.2c-.029.112-.029.28-.114.335.057-.223-.114-.14-.086-.335zm-5.594 9.13c.086-.084.285.028.371.112zm.285-10.581c.115 0 .172.055.2.167zm.714-1.452c-.029-.335.314-.084.171.028zm.542.195c-.057-.25-.085-.028-.143.056-.057-.167.03-.223.086-.335-.114 0-.2 0-.2-.14.172.112.371 0 .257.168.057 0 .086-.084.143-.112.086.112-.057.14.028.196.115.056.086-.14.143-.196.114 0 .114.112.257.084-.057.335-.428-.028-.57.28zm.114.475c.029.028.029.028.029.084-.343-.084-.4-.196-.714 0 0-.196.086-.168.086-.335.228.055.285.111.485-.028-.028.195-.028.307.114.279zm.314.642c.143.028.086.168.057.335zm-1.113-1.843c.057 0 .4-.167.457.112zm.605.003c.09.048.336-.081.28.165zm-.005-.003l.005.003a.065.065 0 0 1-.005-.003zm-5.927-.467c.171.054.474.126.59.216zm-.096-.035l.095.035a.747.747 0 0 1-.095-.035zm2.912 1.033c0 .028 0 .084-.115.056.057-.168.029-.252-.085-.224-.029.252-.057.168-.057.391-.057.084-.143.056-.257.028-.057-.447-.542-.39-.885-.447 0-.223.143-.027.143-.25-.029-.029-.057-.029-.057-.085.17.14.314.028.456.028 0 .112-.057.252 0 .28.143-.084.143.111.229-.028-.057 0-.086-.056-.086-.14.057 0 .086-.112.143-.112.142.28.628.028.656.53zm-.657 2.68c.057.028.143.084.143.168-.114-.056-.029.363-.143.307.057-.196-.228-.056-.143-.28 0-.111.115-.027.143-.111-.028 0-.057 0 0-.084zm1.199 4.97c.028-.112.057-.224.143-.252 0 .14.228.056.17.224-.056.056-.17.056-.313.028zm.419-6.313c-.167-.046-.306.138-.362-.109zm.009.003l-.01-.003a.21.21 0 0 1 .01.003zm-.171 5.249c-.2.028-.229-.112-.428-.112 0-.251.228-.14.37-.14-.028.112.115.084.058.252zm-1.656.921c.314-.084.77.363.857 0-.229-.14-.486.14-.628-.223.4-.028.742.14 1.113.279-.2.111.057.223.057.335-.514.251-.685-.112-1.256-.112-.114-.111 0-.14-.057-.223 0 .111-.057.028-.086-.056zm1.2.251c.085-.223-.258-.167-.286-.111zm-2.07-8.377c.153.014.305-.047.385.17zm-.186-.082l.187.082a.288.288 0 0 1-.187-.082zm.914-.503c-.029-.25.228-.223.228-.083zm-3.368-.726c.028-.362.428-.223.37-.027zm.314.81c.085.084-.143.196-.057.335-.086-.084-.2-.335 0-.419-.057-.055-.057-.167-.143-.195-.029.14-.086.112-.143.167.143-.083.228.084.086.168-.029-.056-.172.056-.172-.195.03 0 .058-.084.086-.168.286-.084.856-.028.742.28-.057-.085-.228-.168-.4.027zm1.37 1.982c-.114-.028-.029-.279 0-.474zm1.883.95c-.085-.112-.2.25-.228 0l.086.028.057-.252c.057 0 .085.056.114.084zm-.2.279c.03.195.115-.14.2-.028-.085.167.058.14.029.28-.228-.113-.029.139-.171.167a.21.21 0 0 0-.057-.14c0 .028-.029.084-.057.056.057-.112-.058-.28.057-.335zm-.684-1.033c0-.251-.058.195-.115.111-.142-.14-.256-.055-.513-.195.028-.084 0-.14 0-.195.2-.252.57.279.6-.196.17-.084.17.084.342 0-.058.251 0 .447.142.503.086-.28.143.028.314-.084-.085.28.2.28.286.195-.257.335-.714-.083-1-.055.143-.14.03-.447-.113-.28-.029.084.228.14.057.196zm3.14-.642c-.086.14.085.25-.03.25 0-.194-.114.196-.17-.027.028-.14.057-.307.2-.223zm-.349-.958c-.172-.268-.481-.133-.65-.355.142.028.77-.027.77.196-.138-.081-.17.073-.12.159zm.006.008zm-.172 1.09c-.285-.057-.542-.029-.685-.252zm.3 3.754c-.032.02-.068.028-.1-.014zm.1.014l-.1-.014c.055-.031.1-.09.1.014zm-.057-4.606c.114.028.171.14.257.028-.114.39.2-.028.228.223-.143.056-.514.084-.485-.251zm-1.354 6.575c.12.025.298-.026.298.097zm-.045-.014l.045.014a.186.186 0 0 1-.045-.014zm2.797-6.478c-.028 0-.057.112-.057.196-.228 0-.085.223-.256.307.057 0 0 .112.057.14.057.028.057-.112.114-.112 0 .084.057.084.114.084-.2.363 0 .335-.228.446-.2-.25-.486-.167-.514-.53.4.028.514-.475.542-.67.029.195.2-.112.228.14zm-2.854 6.924c-.142.559-.085.196-.257-.028zm-.257-1.703c.029.168.115.224.257.168 0 .112.057.167.057.279-.228-.028-.314-.14-.57-.14.057-.167.17-.223.256-.307zm-.02-.681c.097-.018.199-.107.22.04zm-.094-.017l.093.017a.114.114 0 0 1-.093-.017zm0 2.569a.142.142 0 0 1-.02-.085zm-.02-.085l-.065-.278c.183.045.072.162.065.278zm-.001-5.497c.2.05.508-.083.62.166zm-.007-.002l.007.002a.255.255 0 0 1-.007-.002zm.122 4.798c.074.035.196.05.22.144zm-.037-.024l.037.024a.136.136 0 0 1-.037-.024zm-.057-3.853c0-.028.029-.083.057-.055 0 .111.086.055.143.027-.029.084 0 .14 0 .196-.114.112-.086-.028-.228-.028 0-.028 0-.084.028-.14zm-3.535 7.888c-.134-.058-.455.026-.375-.21zm.025.013l-.025-.013a.122.122 0 0 1 .025.013zm1.17-7.873c0 .307.257-.14.285.196-.057 0-.085.056-.114.111-.086-.055-.342-.195-.171-.307zm-1.541 0c.057-.195.142-.363.285-.39zm2.968 2.457l-.029.196c-.085-.056-.2-.168-.314-.056.057-.224.229-.112.343-.14zm-1.027 5.807c.028-.167.142-.14.228-.14 0 .084.057.084.028.196zm1.255 1.843c-.114.084-.257-.084-.314-.196zm-.171-1.647c-.314.084-.57.028-.742-.196zm.029.893l.2-.167c0-.084-.086-.056-.086-.14.257-.056.057.28.285.251 0 .224-.2.168-.257.307 0-.111-.171-.056-.142-.25zm-2.227-6.98c-.2.028-.4.391-.542.056zm-.628-1.954c-.114-.028-.17-.084-.114-.251zm1.342 7.65c.086-.112.457-.028.342.195zm.4-2.234c.028.196.028.391.028.615zm.913-4.271c.171.279.57.028.6.502-.543-.251-1.143-.307-1.942-.502.371-.419 1.085.446 1.342 0zm.314 4.634c.085-.056.342.028.285.251-.086-.027-.114 0-.171.028 0-.083.028-.167-.029-.195-.028.084-.085 0-.085-.084zm-3.197 3.546l-.057.195c-.285-.25-.656.028-.913-.335.37-.14.513.224.97.14zm-.842-9.186c.113.041.242.078.328.196zm-.185-.111l.185.11a.408.408 0 0 1-.185-.11zm0 9.157c-.057.056-.172.056-.286 0zm-.885-5.874c.183.09.54.052.514.29zm-.029-.017l.029.017a.276.276 0 0 1-.029-.016zm.343-1.814c.057-.196 0-.419.2-.363zm2.968 6.002c-.029.14.029.168 0 .28-.342-.168-.656-.028-.742-.363.171-.056.428.055.742.083zm.397 1.887c-.124-.036-.34 0-.34-.128zm.031.012l-.031-.012a.197.197 0 0 1 .031.012zm-3.51-.224c-.172 0-.229.252-.428.224-.03-.168.028-.112.028-.335.143-.084.371.056.4.111zm2.246-.575c.097.042.232.044.123.24zm-.077-.15l.077.15c-.055-.024-.098-.06-.077-.15zm-.628-6.533c-.114-.028-.114-.168-.171-.252.142-.028.257 0 .314.14-.057 0-.086.056-.143.112zm.642 7.747c-.036.042-.071.084-.157.042zm.157-.042l-.157.042c.036-.042.071-.084.157-.042zm1.305-.502a.166.166 0 0 1-.078 0zm.265 0h-.265c.072-.016.136-.063.265 0zm6.736-1.145c.057 0 .057-.056.114-.056 0 .363.4-.112.4.223-.143.14-.457 0-.571-.083.057 0 .085 0 .057-.084zm.77 1.591c-.114.112-.314.028-.37-.083zm-.028-1.396c.085-.14.456 0 .57.168zm-.314.698l.028-.25c.257.306.628-.113.828.306-.4.112-.457-.14-.856-.056zm-.2-.25v.194c-.428-.14-.714.084-1.085-.334.286-.056.628.111 1.085.14zm-.143.92c-.143.112-.4 0-.428-.167zm3.653-1.451c0 .167.03.25.058.335-.343.223-.514-.363-.685-.084 0-.14-.029-.224-.086-.28-.029.084-.314-.027-.371-.083.485.028.714-.14 1.085.112zm.314 1.507c0 .084.086.084.058.196-.257.307-.771-.056-1.114-.084.2-.419.657.084 1.056-.112zm-1.232-3.395c-.102-.005-.252.046-.252-.067zm.062.017l-.062-.017a.127.127 0 0 1 .062.017zm.714 4.718c-.143.14-.228-.167-.314-.279zm-4.538-1.451c-.029-.42.37-.252.314.027zm3.767-.056c.029.056 0 .14.057.14 0-.084.086-.056.057.055-.142-.028-.114.14-.228.14-.057-.084-.057-.363.114-.335zm-7.82-4.076c-.143.055-.485.028-.286-.168zm1.684 1.563c-.143 0-.143-.112-.114-.28zm-.4-.112c.029-.083-.028-.083-.028-.195l.142.028-.028.195c-.086-.083-.2.168-.2-.028zm-.085-1.591c.313.084.513-.447.827-.112-.085 0-.085.084-.171.056 0 .084.057.084.029.196-.314-.168-.628.279-.685-.14zm-.115 3.992c-.2-.056-.628.112-.456-.195zm14.3-8.794c.057.195.2-.084.228-.14-.057-.167-.285.056-.143.14zm-12.387 9.325c.2.056.428.056.456.279-.085.112-.256-.056-.485-.028zm.942 0c-.143-.028-.314 0-.314-.168zm.513-4.216c-.114.084-.428.056-.456-.112zm-2.483-5.11c.171-.11.428-.167.485.057zm.913 9.354h-.028c-.2.279-.485.028-.714 0 .143-.196.657-.168.742 0zm-.17-.28c0-.223.17-.307.056-.474.371.14.628.028 1 .223-.258.28-.315.056-.657.028-.086.084-.057.307-.143.391-.143 0-.171-.112-.257-.167zm-14.7-3.545c.257.14.286.167.571.251-.057.112-.114.196-.171.223-.086-.279-.514-.111-.4-.474zm-1.455.28c-.114-.113-.485-.113-.314-.308zM5.88 40.014c.4.335.542.196.884.53a.444.444 0 0 0-.085.252c-.057 0-.114-.056-.143 0-.029-.558-.428-.112-.685-.642-.2.195.029.251.029.39-.115-.027-.172-.111-.2-.195zm2.055-2.987c-.286-.168-.6-.335-.714-.586.257.056.514.363.828.418zm.314-8.543c-.115.111-.229.195-.314.167zm-.6 12.982c-.2-.084-1.113-.195-.885-.558zm-.685.614c.2-.167-.114-.335.143-.335-.057.223.143-.112.085-.167.2.167-.028.279-.057.586zm1.227-15.16c.115.084-.085.252-.17.391zM9.59 38.898c-.114-.027-.029.196-.2.14.029-.335-.37-.223-.4-.502.257.14.514.279.6.362zm-.371 2.569c-.086-.028-.2-.112-.086-.112.143.168.143.056.229.196-.086.167-.172.14-.286.167-.028-.167.029-.084.143-.251zm-.485-15.16c-.086-.112-.2-.195-.343-.112l.2-.195c.057.112.086.168.257.14-.057.055-.086.111-.114.167zm.257 11.698c.21 0 .311.136.475.252zm.475.252l.21.111a.847.847 0 0 1-.21-.111zm-.219 4.801c-.17-.056-.2-.418-.028-.446 0 .111-.086.25.114.279zm-.659-12.934a.13.13 0 0 1-.054-.02zm.174.064l-.174-.064c.067.01.13-.024.174.064zm-7.078 5.89c-.314-.279-.628-.558-.714-.809zm-.171 2.206c-.143-.167-.457.028-.229-.279zm-.77-2.233c-.058.084-.087.14-.058.195l-.228-.195c.114-.084.599-.168.428.111zm.77-1.005a.175.175 0 0 0 0-.168c-.057.028-.143-.028-.086-.084.114.112.228-.111.343.112-.115.084-.2.14-.257.14zm14.756 8.012c-.2-.028-.314-.14-.314-.307zM3.31 36.805c-.057-.224-.4-.028-.286-.391.143-.084.257.167.4.223zm1.455 2.4c.029-.027.058-.111.115-.083-.229.251.256.307.057.53-.2-.028-.314-.279-.371-.474.085.028.142.111.2.028zM3.71 37.113c-.114-.084-.285-.168-.17-.307zm-.884 1.507c-.029-.028-.086-.083 0-.167-.057-.056-.115.028-.172-.056.115-.223.371.112.172.223zm-.742-1.005c.256.112.57.363.97.642zm2.854 2.373c-.114-.056-.2.084-.314-.056a.338.338 0 0 0 .114-.25c.143.083.228.167.2.306zm-4.512-3.52C.222 36.323 0 36.206 0 35.94zm.316.393l-.316-.392c.139.099.27.211.316.392zm13.215 1.49c.162.034.391.001.37.241zm-.143-.094l.143.093c-.065-.013-.119-.037-.143-.093zm.714-1.228c.114-.223-.229-.028-.143-.28.2.029.314.14.371.364zm-.143 4.272c-.114.055-.343 0-.285-.168zm-1.57 1.898c.176-.043.291.017.424.078zm.424.078l.49.09a.825.825 0 0 1-.49-.09zm.29-1.25c-.286.027-.543-.168-.714-.252zm-.486-6.45c.058-.112.315.028.257.112zm.286 5.333c.086.028.171.062.257.097zm.257.097l.257.098c-.086-.028-.172-.063-.257-.098zm1.712-1.996c.2-.056.229.084.4-.084-.057.14.028.224-.114.307-.057-.111-.286-.111-.286-.223zm.657-1.898c-.171-.028-.229 0-.229-.224zm-.942-1.396l.257.083-.086.196c-.114-.196-.257.195-.485-.028.029-.335.342.028.314-.251zm.485 7.035c-.171.056-.4-.028-.371-.251zm-.314-5.109c-.143-.056-.171-.223-.057-.307zM12.216 43.7c-.143-.055-.343-.083-.286-.25zm18.951.698c0-.223-.285-.446 0-.474.029.084 0 .195.057.195h.115c.085-.167-.057-.223.057-.335.028.196.171-.111.2.14-.058 0-.115 0-.115.056.257.028.172.167.371 0-.142.223-.028.39-.17.474-.172.056-.372-.279-.515-.056zM10.79 39.652c.057-.028.142 0 .257.056-.029.14-.115.223-.2.196.085-.14-.086-.14-.057-.252zm-.885 2.653c.143-.056.342.14.4.25zm1.798-2.262l-.086.196c-.342 0-.57-.14-.485-.503.257.028.314.084.571.307zm-1.113 2.988c-.171.027-.2-.028-.2-.224zm.6-.531c.142.028.285 0 .456.112zm.998-2.066c-.171-.112-.456-.056-.428-.335zm-1.883 2.429a2.685 2.685 0 0 1-1.085-.558zm1.255-9.213c.029.028.314-.112.172.167zm.457.223c.4.084.8.28 1.313.642.114-.14 0-.363.171-.279-.028.14-.057.307-.085.475-.257-.168-.543-.252-.8-.363-.256-.112-.513-.224-.599-.475zm-.656 6.617c.142.028.256.028.256.195zm9.304-4.3c-.114-.14.171-.167.057-.25-.143.25-.171-.336-.342-.085.085 0 .17.056.142.168-.142-.084-.37-.084-.4-.28.058 0 .058-.111.087-.195.2.14.256-.167.142-.251.171.112.428.558.6.335-.172-.028-.172-.195-.257-.307.085 0 .17.028.17-.112-.17-.14-.227-.056-.256-.307-.2.503-.343 0-.6-.056-.313-.056-.656.112-.799-.335-.285.335-.742-.279-1.198.028.114-.251-.114.028-.057-.14.142-.083-.229-.25 0-.418.114.167.228.279.37.111.229.587.886-.027 1.085.42.172 0 .314-.029.457-.029.029.084-.029.252.057.28.114-.308.114 0 .257.055.143-.307.97-.083.999.14.086.028.086-.168.2-.084.085.14.257.419.085.642.029-.14 0-.223-.085-.223-.057.251-.114 0-.172.223.143-.111.314.084.2.168.029-.112-.171-.028-.2.028.115.056.172.167.286.195.2-.419.285.168.57-.363 0 .112.115.14.03.335-.115.056-.258.084-.286.363-.514-.167-.685-.279-1.142-.056zm29.927-4.135c.096-.061.19-.133.127-.025zm-.158.031l.158-.03c-.078.05-.158.093-.158.03zm2.426-.028c0-.25-.257-.055-.285-.279.114 0 .314-.14.37 0-.114.028.03.28-.085.28zm8.82 15.858c-.143.084-.172-.083-.257.056 0-.112-.058-.14-.086-.195.143-.028.314-.084.342.14zm-8.42-16.276c.142.028.085-.196.257-.168 0 .363-.03.14.114.39-.086.085-.143.029-.314.113 0-.196 0-.14-.057-.335zm-2.34.307c.113 0 .199.056.256.167zm25.63 12.647l.04-.263c.06.02.138.019.196-.006.029.174-.138.48-.236.269zm-14.842 2.96c.143-.085.086-.057.257-.057zm15.755-2.96c-.034-.1-.069-.191-.066-.26.02.024.043.045.066.064a.166.166 0 0 0 .123.031c-.04.058-.009.165-.123.165zM64.96 47.079l-.257.055c-.057-.14.028-.14.057-.223-.228-.167.2-.028.2.168zM37.903 34.655c-.171-.028-.257-.168-.342-.307zm.086-1.005c-.057.167-.228.14-.371.028zm1.113 0c.057-.14.343-.028.428.028zm-2.312 1.117c.029 0 .057 0 .057-.056-.057-.056-.314-.14-.2-.252.115.028.4.475.143.307zm.57-.447c-.227 0 .115.363-.113.39-.086-.195-.171-.111-.257-.195.057 0 .057-.14.085-.195.115.028.372-.196.286 0zm-.541.14c-.057-.168.2-.28.228-.14zm12.53-2.457c.142.167.342-.196.342.083.057-.14.2-.195.314-.251.114.195.228-.056.314.168-.428.14-.742.195-.914.195.172-.028-.2-.084-.057-.195zm-13.272 2.345c-.115.056-.343.251-.371-.056zm.114-.056c.028-.028.37-.112.37.112zm-.2-.084c-.029-.14-.114-.167-.114-.335h.228c-.114.363.4.084.257.251-.171 0-.257.056-.371.084zm.57 1.312c0-.195-.113-.195-.256-.195zm9.134-2.987c0-.335-.2.168-.285-.112.114-.111.17-.279.4-.25-.03.11.028.362-.115.362zm.514-.195c0-.224.171-.224.285-.308zm-2.14 0c.113-.028.142.14.17.25zm4.594.418c.115.028.229.112.314.168zm.343-.753a.218.218 0 0 1-.018.013zm-.018.013l-.325.238c-.027-.35.158-.129.325-.238zm-10.257.238c-.114.056-.257.14-.457.14zm-.77.363c0-.196-.258-.391-.372-.196.057.028.086.028.086.14-.114.028-.286-.14-.457.028.029 0 .057.028 0 .056 0-.14-.114-.112-.143-.252.372-.223.514-.055.942-.25-.085.167.086.39-.057.474zm.998 1.368c.057.335-.285.167-.456.223.057-.251-.172-.363-.029-.67.143-.028.2.028.257.112-.057.056-.2.083-.228.195.142 0 .2.168.285.251-.057-.195.114-.111.171-.111zm1.056-1.48c.172 0 .115-.28.257-.28.029.168-.085.196-.057.392-.085 0-.143-.028-.2-.112zm-1.141-.14c.228-.223.57-.307.827-.307-.028.196-.342.028-.314.28.286.027.514-.335.743-.168-.229.084-.4.307-.771.307-.057-.419-.286-.14-.485-.112zm.4 8.446c-.072-.028-.143-.056-.2-.098zm.199.098l-.2-.098a.878.878 0 0 1 .2.098zM60.879 48c-.114-.28.229-.28.257-.056zm-21.406-7.65c0-.028-.029-.084-.057-.056-.2 0-.2.196-.228.28-.029-.084-.086-.112-.115-.196.143-.167.058-.39.115-.67.114-.028.114.112.257.056.057.223-.172.112-.143.28.028.11.257.278.171.306zm-4.196 5.668c0-.028.057-.084.057 0-.057.028-.057.056-.057.14h-.142c0-.196-.086-.14 0-.28.085 0 .085.112.142.14zm.2-.642c.057.195.172.111.172.25 0-.027 0-.055.057-.055.057.251-.286.056-.314.196-.115-.14-.029-.363.085-.391zm-.742.586v.195c-.342-.055-.799.084-.999-.167.286-.223.657-.028 1-.028zm-1.297-2.294c-.104.287.334.458.098.535-.028-.056 0-.14-.057-.14-.057.028-.085.084-.114.14 0 .14.143.14.2.251-.171.056-.228-.083-.4-.055.05-.32.168-.532.273-.731zm.041-.08a6.149 6.149 0 0 1-.04.08.357.357 0 0 1 .04-.08zm-.913.67a.174.174 0 0 1 .039-.016c-.006.017-.022.017-.039.017zm.039-.016c.003-.011.001-.032-.01-.067-.115.028-.143-.056-.143-.195.314 0 .37.111.57-.056.058.112.086.223.115.39-.131 0-.382-.117-.532-.072zm.532 1.804c-.143.028-.114-.168-.2-.252h.2zm3.34-.53c0-.168-.086-.112 0-.252.37.168.684 0 .998.168-.086.167-.171.027-.257.14.086 0 .171.027.2.11-.4.168-.97.085-1.513.057 0-.252.4-.224.571-.224zm4.766-4.133c.17-.056-.057-.195.114-.279.085.168.028.14.085.335-.057 0-.17.028-.2-.056zm-.172.307c-.228-.111-.17-.81.057-.474zm-1.084-1.675c-.143.084-.229.056-.314-.111.082-.02.09-.142.153-.198.032.087.052.183.104.142a.215.215 0 0 0 .037-.04c.012.054.02.12.02.207zM52.203 46.8c.071 0 .138-.044.2-.081.07.017.142.03.215.038-.023.024-.04.055-.016.126-.142.056-.314.056-.4-.084zm.2-.081a.877.877 0 0 1-.429-.227c-.115-.118.265-.222.428-.25.069-.013.526.134.744.073-.053.078-.1.214-.173.261-.028.019-.047-.116-.057-.084-.026.09.093.28 0 .28-.096 0-.197-.004-.298-.015.004-.005.008-.01.013-.013-.067-.114-.143-.076-.229-.025zm-.058.5c-.057.083-.257.083-.285-.112zm1.541.139c-.085.028-.2.028-.142.167.085-.028.342.084.228.168-.057-.14-.114.14-.257.112-.057-.252-.285-.168-.428-.28a.65.65 0 0 1 .6-.167zm6.88.28c-.058.083-.172.083-.315.11-.028-.139-.086-.139-.114-.25.057-.112.314 0 .428.14zm-1.856.139c.143-.028.228.083.314.14zm-1.77-.42c-.057 0-.142 0-.142.085.114.028.599-.112.456.111-.142-.167-.485.112-.57-.111.114-.084.142-.391.256-.084zm-.228-.446c.057-.084.314-.084.342.14zm-20.407-.167c-.229 0-.486 0-.571-.196zm22.093.892h-.007l.003-.001h.004zm0 0l.512-.027c-.047.115-.403.04-.512.027zm-19.5-1.807c-.118.026-.244.147-.224-.118zm.147.077l-.147-.077c.056-.012.11-.003.147.077zm1.998.391l.006.001zm.006.001l.536.11c-.31.028-.397-.08-.536-.11zm-.834-.476c-.2.056-.143.056-.343.168-.085-.056-.17-.084-.17-.251.256.083.427-.14.513.083zm-3.282.95c-.172.083-.429.055-.486-.196zm.886-.988c-.097-.004-.401.111-.401-.157zm.027.01l-.027-.01c.014 0 .023.003.027.01zm10.026.544c-.08.081-.116.228-.236.07zm.135-.041l-.135.04c.034-.034.076-.057.135-.04zm-2.255-.558c.014-.055.028-.097.042-.138.112-.029.22-.077.329-.126.036.001.081.005.143.012l.028.196c-.2.056-.285.14-.428-.028 0 .223-.314.279-.4.112.08 0 .013-.142.046-.187.013.01.026.019.04.026.055.058.127.085.2.133zm-13.272.111c-.428.168-.942.028-1.256-.14zm16.098.977c0 .084.028.168-.029.196-.143-.112-.314-.084-.428-.028.057-.28.257-.14.457-.168zm1.227-.223c-.029 0-.057-.028 0-.056.114.224.485-.028.57.196-.228.111-.485.028-.627.028.057-.028.057-.084.057-.168zM34.043 35.85l-.07.092-.037.001c.012-.038.033-.082.057-.088a.235.235 0 0 1 .05-.005zm11.024-1.586c-.008.029.068.004.086.028a.036.036 0 0 1 .006.025c.078-.036.203.017.25-.053.035-.05-.121-.055-.142-.112a.33.33 0 0 1-.019-.122c-.045.06-.161.164-.18.234zm.428.28c.02 0 .039.002.057 0 .048-.008.097-.014.143-.029.013-.004.015-.028.029-.028.013 0 .025.015.028.028a.164.164 0 0 1 .002.054c.006-.003.025.01.027.002.028-.11.133-.251.057-.335-.067-.073-.228.003-.286.084-.041.058.066.127.086.195.003.01-.02-.001-.029 0-.047.008-.094.023-.142.028l-.019.002c.015.002.032-.002.047-.002zm.229.195c-.005.008-.003.019 0 .028.016.056.007.136.057.167.073.046.217.105.257.028.037-.072-.136-.09-.2-.14a.477.477 0 0 1-.086-.083c-.005-.008 0-.019 0-.028-.002.013-.022.016-.028.028zm-.114-.615c.035.012-.052-.028-.108-.063.034.026.069.05.107.063zm35.26 6.97c-.01.01-.018.016-.012.01a.913.913 0 0 1 .011-.01zM57.854 46.6l-.001.032c0 .013-.035.04-.029.028l.03-.06zm-2.77.255c.05-.022.137-.121.086-.14-.126-.044-.29.104-.4.029-.069-.048.187-.183.114-.224-.096-.054-.266.012-.314.112-.04.087.195.17.143.251a.079.079 0 0 1-.011.014c.132-.006.291 0 .382-.042zm-1.748.277a.679.679 0 0 1-.269.108.769.769 0 0 1 .162-.133.2.2 0 0 1 .107.025zm-.735.533c-.09-.146.227-.278.257-.447.027-.152-.389-.227 0-.363.663-.231-.131.376.086.391a.54.54 0 0 0 .123-.006c-.183.172-.453.446-.466.425zm-3.614-1.664c.03-.08.052-.177.103-.234.325-.363.09 0-.103.234zm-.117.127c-.051.047-.081.055-.063-.014a.073.073 0 0 0 .063.014zm-5.202-.836c.08-.028-.113-.251-.029-.251.127 0 .176.187.285.25.042.025.097.012.143 0 .06-.014.61-.194.114-.418-.1-.045-.177.19-.285.168-.09-.02-.029-.218-.114-.252-.062-.024.037.19-.029.196-.11.01-.212-.25-.285-.168-.09.1.177.294.085.391a.7.7 0 0 1-.17.14c.098-.006.194-.024.285-.056zm-5.766-.447c-.033-.065-.01.125-.037.224.03-.079.066-.167.037-.224zm-2.94-1.647c.04.013.08.03.115.056.007.005-.003.019 0 .028.006.02.013.041.028.056.034.033.08.05.114.083.015.015.008.056.029.056.027 0 .035-.041.057-.056.008-.005.019 0 .029 0 .019 0 .04-.008.057 0 .008.004-.007.022 0 .028.006.007.025-.009.028 0 .01.027.015.06 0 .084-.045.074-.154.11-.171.195-.01.05.094-.071.143-.055.057.018.055.128.114.14.037.007-.002-.089.028-.112.03-.024.076 0 .114 0 .01 0 .022-.007.029 0 .007.006-.01.026 0 .027.113.019.229.017.342.028.067.007.133.028.2.028.03 0 .057-.02.086-.028.01-.002.024-.008.028 0 .055.09.04.26.143.28.082.016-.078-.28 0-.252.127.047.095.314.228.335.103.017-.082-.206-.057-.307.012-.046.075.058.115.084.057.037.166.055.2.112.043.073-.02.213.056.25.061.03-.005-.168.057-.195.186-.079.401-.05.6-.083.02-.004.037-.036.057-.028.056.023.088.138.143.111.059-.029.005-.134.028-.195.008-.02.04-.016.057-.028.011-.007.02-.038.029-.028.077.085.086.264.2.28.083.011-.083-.264 0-.252.158.024.211.289.37.307.092.01.036-.203.115-.251.045-.028.096.062.114.112.032.087-.064.293.029.279.158-.024.259-.2.342-.335.021-.034-.073-.046-.086-.084-.01-.028.003-.097.029-.084.103.05.143.155.171.252.011.036.033.073.029.111-.006.059-.09.118-.057.168.037.058.133.074.2.056.035-.01 0-.075 0-.112v-.028c0-.028-.006-.056 0-.084.004-.02.035-.036.028-.056-.007-.02-.049-.008-.057-.028-.023-.051-.02-.111-.029-.167 0-.01-.009-.029 0-.028.116.01.23.028.343.056.009.002-.008.023 0 .028.044.026.098.03.143.056l.114.111c.005.008-.009.024 0 .028.017.009.038-.001.057 0 .219.017.438.028.656.056.01.001-.007.034 0 .028.04-.035.075-.075.11-.115-.072-.1-.02-.314-.138-.36-.105-.04.127.282.028.335-.176.095-.44.095-.6-.028-.054-.042-.037-.113-.008-.19-.027-.053-.037-.174-.077-.145-.067.05.01.168 0 .252 0 .01-.02.004-.028 0-.03-.015-.056-.04-.086-.056-.056-.03-.122-.043-.171-.084-.077-.064-.105-.192-.2-.223-.054-.018.065.123.029.167-.031.038-.114.011-.143-.028-.058-.078-.016-.21-.086-.279-.036-.035-.023.102-.057.14a.243.243 0 0 1-.143.084c-.033.004-.07-.026-.085-.056-.044-.087-.016-.211-.086-.28-.036-.035-.102.087-.142.056-.074-.055-.08-.166-.115-.251-.003-.009-.009-.028 0-.028.022 0 .04.015.057.028.032.025.049.098.086.084.047-.019.067-.09.057-.14a1.151 1.151 0 0 0-.171-.446c-.023-.033-.08.044-.086.083-.015.102.029.205.029.307 0 .014-.02.018-.029.028-.039.051-.085.097-.057.168.038.097.092.188.143.279a.09.09 0 0 0 .028.028c.056.039.119.069.172.112.007.005 0 .018 0 .028 0 .037.02.08 0 .111-.012.018-.04-.04-.057-.028-.034.025-.017.102-.057.112-.033.008-.037-.057-.058-.084-.008-.01-.024-.015-.028-.028-.006-.017.014-.043 0-.056-.181-.16-.34-.374-.57-.446-.085-.027-.08.161-.144.223-.02.02-.057-.007-.085 0-.013.003-.023.016-.029.028-.023.045-.04.092-.057.14-.003.008.009.025 0 .028-.226.073-.448.216-.685.195-.085-.008.132-.21.057-.251-.133-.075-.305.01-.456.028-.01 0 .009.03 0 .028-.042-.01-.09-.021-.115-.056-.02-.031.03-.089 0-.112-.089-.072-.202-.164-.314-.14-.066.015.048.129.057.196.002.01-.019-.003-.028 0-.02.006-.038.018-.057.028-.02.01-.044.044-.057.028-.038-.046-.001-.15-.057-.168-.05-.016-.069.085-.114.112-.012.007-.027-.015-.029-.028-.012-.108.092-.532-.314-.223-.054.04.047.128.057.195.002.01-.019 0-.028 0-.02 0-.039.003-.058 0-.038-.006-.096.007-.114-.028-.021-.042.005-.098.029-.14.026-.046.131-.06.114-.111-.178-.522-.219-.012-.228 0-.018.022-.08.028-.086 0-.028-.137-.048-.288 0-.419.034-.093.156.061.2.056.135-.017.277-.144.4-.084.105.052.027.256.114.335.078.072.208.072.314.056.034-.005.033-.056.046-.092-.161-.132-.247-.376-.446-.438-.17-.054-.337.155-.514.14-.075-.008-.042-.173-.114-.196-.048-.016-.01.124-.057.14-.066.02-.136-.083-.2-.057-.043.018-.01.095 0 .14.038.16.102.315.143.475.003.013-.02-.019-.029-.028-.01-.01-.028-.015-.028-.028 0-.01.033.008.028 0-.078-.135-.118-.32-.257-.391-.104-.054-.318-.031-.342.084-.021.104.248-.028.314.056.047.059-.058.145-.114.195a.16.16 0 0 1-.017.013c.033-.012.074-.022.102-.013zm5.195.475c.001-.021-.02-.037-.029-.056-.02-.046-.057-.09-.057-.14 0-.019.056.02.057 0 .01-.111.017-.232-.028-.335-.02-.047-.092-.056-.143-.056-.026 0-.062.03-.057.056.017.082.082.146.114.224.035.081.055.168.086.25.007.02.026.036.029.057.002.02.008.044.014.068a.293.293 0 0 0 .014-.068zm-3.482-.615c.012-.005.017-.021.028-.028a2.903 2.903 0 0 1 .235-.113l-.035.002c-.01 0-.028.01-.028 0 0-.075.074-.164.028-.224-.04-.052-.161-.054-.2 0-.07.1-.022.246-.057.363-.006.02-.037.02-.057.028a.347.347 0 0 0 .086-.028zm.428-.056c.015.007.055.025.106.044-.025-.027-.05-.058-.077-.071a.841.841 0 0 0-.172-.056c.05.024.093.06.143.084zm.457.084c.056-.062.038-.176 0-.251-.023-.045-.01.124-.057.14a.204.204 0 0 1-.144-.012.19.19 0 0 1-.05.117c.103.03.212.05.25.006zm-3.086.361l.003.002a.058.058 0 0 1-.003-.002zm-.568-.249c.064.023.08.132.058.195-.032.088-.113.227-.2.196-.09-.032-.026-.245-.083-.296.068 0 .152-.12.225-.095zm5.168-1.406c.07.084.134.173.198.261.067.092-.212-.139-.228-.251-.003-.017.01-.018.03-.01zm.455.12c.047.018.097.035.143.058.046.022-.133-.006-.143-.056v-.001zm4.082-1.115c-.053-.004.157.081.114.112a.432.432 0 0 1-.127.058c.177-.005.358 0 .526-.03-.176-.023-.336-.128-.513-.14zm-1.216-.117a.175.175 0 0 1-.069.089.038.038 0 0 1-.007.003.127.127 0 0 1 .076-.092zm-.069.396c0 .012.004.028.01.045-.094-.178-.213-.35-.238-.547-.012-.097.133.226.221.198-.022.087.007.212.007.304zm.01.045c.017.032.033.063.047.095.016.035-.026-.037-.046-.095zm-.69-.613c.01.046.006.107-.033.121-.065.024-.267-.038-.2-.055.077-.02.155-.044.233-.066zm-1.375-.967c-.03-.03.015.032.044.096a.188.188 0 0 0-.044-.096zm-4.695.064c.054.089.114.175.1.27a.132.132 0 0 1-.05.08c-.024-.099-.078-.204-.064-.303a.168.168 0 0 1 .014-.047zm.425.861c.029.027-.006.178-.011.136a.491.491 0 0 1 .01-.136zm-1.295.498c0-.037.152 0 .114 0a1.896 1.896 0 0 1-.114 0zm-.628-.865c-.145-.027-.461.032-.429-.112.038-.164.318-.157.486-.14.067.008.03.134.057.196.004.009.02-.004.028 0 .04.017.08.064.118.083a2.041 2.041 0 0 1-.26-.027zm-5.48-1.48c-.078 0 .008.128.039.229.002-.099.035-.229-.04-.229zm-1.893-.355c.054.071.08.125.086.164-.057-.034-.11-.073-.106-.116a.098.098 0 0 1 .02-.048zm.209.271a.432.432 0 0 1-.25-.013c.08.001.138-.022.127-.094.086.05.184.09.123.108zm-.25-.013c-.162-.002-.412-.103-.35-.098.117.009.234.064.35.098zm20.668-4.809c-.053.08-.105.16-.175.218a1.994 1.994 0 0 0-.046-.052c.043-.12.165-.315.22-.166zm5.813 12.602c.027-.04.056-.065.091-.055a.167.167 0 0 1-.09.055zm-4.275-.187c.032-.03.074-.075.117-.127-.025.064-.057.117-.117.127zm-14.532-6.002l.05.003c-.016.008-.033.006-.05-.003zm2.34.703c-.09-.006-.139-.078-.182-.16v-.024l.195.149a.41.41 0 0 0-.013.035zm-1.116-4.36a.712.712 0 0 0 .078.145c.052-.148.005-.203-.087-.21a.165.165 0 0 0 .009.066zm6.222-2.15c-.027-.002-.017.03-.007.066.176.027.351.053.523.028-.153-.067-.35-.073-.516-.093zm0 .14c-.007.018-.044-.013-.057 0-.021.021-.002.071-.029.084-.027.013-.076 0-.085-.028-.015-.041.012-.102.022-.15l.142.02c.007.027.014.056.007.074zm-.685.196c.078.084.312-.138.342-.028.038.135-.123.38-.257.335-.217-.073-.28-.389-.445-.542.123-.015.247-.036.37-.051-.057.083-.073.219-.01.286zm-.485-.307c-.084-.024-.154.028-.223.095.115.002.231-.008.348-.023a.304.304 0 0 0-.125-.072zm-1.97.502a.26.26 0 0 0 .133.023.236.236 0 0 0-.079-.093c-.056.028-.095.05-.054.07zm-3.539.28c-.025.007-.038.027-.043.055a.286.286 0 0 1 .05-.057l-.007.001zm3.194 1.422a.047.047 0 0 0 .031.03c.102.029.212.016.321.002a1.141 1.141 0 0 0-.352-.032zm.402.225c.127.009.455-.109.343-.168-.117-.062-.255-.043-.393-.025.054.027-.015.188.05.193zm-2.026 1.004c.006-.011.042-.029.028-.027-.096.01-.381.066-.285.056.086-.01.172-.018.257-.029zm4.167.42c.002-.014.029-.042.029-.028 0 .022-.029.047-.034.066a.458.458 0 0 1 .005-.038zm-.057-.475c-.053.193.455.196.171.335-.025.012-.057 0-.085 0-.01 0-.023.007-.029 0-.072-.08-.287-.19-.2-.251a1.103 1.103 0 0 1 .143-.084zm.402-.121l.003.005c.082.062.17.121.249.187.048-.088.101-.17.03-.183a.976.976 0 0 0-.282-.01zm.197.344c.004.06.054.14.115.14.054 0 .117-.095.085-.14a.843.843 0 0 0-.145-.152c-.03.053-.057.109-.055.152zm.428-.865c0 .007.002.017.004.027l-.003-.033a.03.03 0 0 0 0 .006zm-.256-.056c-.084.04.153.114.2.195.013.023-.04.036-.058.056-.021.026-.033.06-.057.084-.015.015-.045.045-.057.028-.075-.11-.056-.294-.171-.363-.07-.042-.233.066-.2.14.077.17.275.255.428.363.024.016-.034-.055-.028-.084.005-.026.042-.034.057-.056.023-.035.035-.076.057-.112.02-.032.075-.047.085-.084-.1-.021-.165-.212-.256-.167zm.993-.898a.304.304 0 0 1-.023.004c-.01.002.035.007.028 0a.134.134 0 0 0-.005-.004zm-.736.948c.002-.01.007-.022 0-.022v.022zm0 .117c.028.007.011-.044.003-.084a.227.227 0 0 1-.004.084zm-3.33-2.23c.013.028.016.072.02.113.006-.05.01-.1-.02-.113z"/></g><g><g/><g><g><path fill="#c02524" d="M76.85 13.324A3.153 3.153 0 0 1 80 16.473v25.225c0 .718-.584 1.302-1.302 1.302H38.302A1.303 1.303 0 0 1 37 41.698V16.473a3.153 3.153 0 0 1 3.15-3.15h5.122v-2.741a3.153 3.153 0 0 1 3.15-3.15h2.04C50.784 3.28 54.266 0 58.5 0s7.716 3.28 8.038 7.433h2a3.153 3.153 0 0 1 3.15 3.149v6.52h3.23a1.311 1.311 0 0 1 1.303 1.308l-.014 3.102a1.305 1.305 0 0 1-1.302 1.296h-3.218v2.52h3.232a1.311 1.311 0 0 1 1.302 1.307l-.014 3.102a1.304 1.304 0 0 1-1.302 1.296h-3.218v2.483h3.232a1.31 1.31 0 0 1 1.302 1.307l-.014 3.102a1.305 1.305 0 0 1-1.302 1.296h-3.218v2.52h7.011a.042.042 0 0 0 .042-.043V16.473c0-1.042-.847-1.89-1.89-1.89h-2.853a.63.63 0 0 1 0-1.26zm-5.163 8.224h3.218a.042.042 0 0 0 .042-.042l.014-3.101c0-.004 0-.018-.012-.03-.013-.012-.026-.012-.03-.012h-3.232zm0 8.225h3.218a.042.042 0 0 0 .042-.042l.014-3.102c0-.004 0-.017-.012-.03-.013-.012-.026-.012-.03-.012h-3.232zm0 8.188h3.218a.042.042 0 0 0 .042-.042l.014-3.101c0-.005 0-.018-.012-.03-.013-.013-.026-.013-.03-.013h-3.232zm-26.415-3.186h-3.19c-.005 0-.018 0-.03.013-.013.012-.013.026-.013.03l.014 3.101c0 .024.019.042.042.042h3.177zm0-8.188h-3.19c-.005 0-.018 0-.03.012-.013.013-.013.026-.013.03l.014 3.102c0 .023.019.042.042.042h3.177zm0-8.225h-3.19c-.005 0-.018 0-.03.013-.013.012-.013.026-.013.03l.014 3.101c0 .024.019.042.042.042h3.177zm0-3.779H40.15c-1.042 0-1.89.848-1.89 1.89v25.225c0 .023.02.042.043.042h6.97v-2.52h-3.177a1.304 1.304 0 0 1-1.301-1.295l-.015-3.101a1.31 1.31 0 0 1 1.302-1.308h3.191v-2.484h-3.177a1.304 1.304 0 0 1-1.301-1.295l-.015-3.102a1.31 1.31 0 0 1 1.302-1.308h3.191v-2.52h-3.177a1.304 1.304 0 0 1-1.301-1.295l-.015-3.101a1.31 1.31 0 0 1 1.302-1.308h3.191zm6.425-6.52a6.81 6.81 0 0 0 6.803 6.802 6.81 6.81 0 0 0 6.803-6.803A6.81 6.81 0 0 0 58.5 1.26a6.81 6.81 0 0 0-6.803 6.803zM64.13 30.648h-5V41.74h5zm1.26-1.26v-1.26H51.61v1.26zm5.038-18.806c0-1.042-.847-1.89-1.89-1.89h-1.999c-.322 4.153-3.804 7.433-8.038 7.433s-7.716-3.28-8.038-7.433h-2.04c-1.042 0-1.89.848-1.89 1.89V41.74h5.08v-3.692a.63.63 0 1 1 1.259 0v3.692h5V30.648h-5v4.46a.63.63 0 1 1-1.26 0v-4.46a1.15 1.15 0 0 1-1.26-1.134v-1.511c0-.626.51-1.134 1.134-1.134h14.03c.625 0 1.134.508 1.134 1.134v1.511c.004.691-.603 1.172-1.26 1.134V41.74h5.039zm-16.336-.63a1.135 1.135 0 0 1-1.134-1.134V7.307c0-.626.509-1.134 1.134-1.134h2.52v-2.52c0-.625.508-1.133 1.133-1.133h1.512c.625 0 1.134.508 1.134 1.133v2.52h2.52c.624 0 1.133.508 1.133 1.134v1.511c0 .626-.509 1.134-1.134 1.134h-2.52v2.52c0 .625-.508 1.134-1.133 1.134h-1.512a1.135 1.135 0 0 1-1.134-1.134v-2.52zm.126-1.26h2.771c.487 0 .882.396.882.882v2.772h1.26V9.574c0-.486.395-.882.882-.882h2.771v-1.26h-2.771a.883.883 0 0 1-.882-.881V3.779h-1.26v2.772a.883.883 0 0 1-.882.882h-2.771zM55.35 36.84v-1.29a.63.63 0 1 1 1.26 0v1.29a.63.63 0 0 1-1.26 0zm.587-18.194c.718 0 1.302.584 1.302 1.301v3.102c0 .718-.584 1.302-1.302 1.302h-5.581c-.712.004-1.31-.6-1.302-1.308l.014-3.102a1.304 1.304 0 0 1 1.302-1.296zm.042 1.301a.042.042 0 0 0-.041-.042H50.37a.042.042 0 0 0-.042.042l-.015 3.102c-.002.016.026.044.042.042h5.582a.042.042 0 0 0 .042-.042zm4.41 16.893v-1.29a.63.63 0 0 1 1.26 0v1.29a.63.63 0 1 1-1.26 0zm6.233-18.194a1.311 1.311 0 0 1 1.302 1.307l-.014 3.102a1.305 1.305 0 0 1-1.302 1.296h-5.547a1.303 1.303 0 0 1-1.302-1.302v-3.102c0-.718.584-1.302 1.302-1.302zm.042 1.301c0-.004 0-.017-.012-.03-.012-.012-.025-.012-.03-.012h-5.562a.042.042 0 0 0-.041.042v3.102c0 .023.018.042.041.042h5.548a.042.042 0 0 0 .042-.042z"/></g></g></g></g></svg>