<svg xmlns="http://www.w3.org/2000/svg" width="20" height="20" viewBox="0 0 20 20"><g><g><path fill="#78909c" d="M9.999 0c2.716 0 3.055.013 4.122.06 1.064.049 1.791.217 2.429.465.667.25 1.272.645 1.771 1.154.509.5.903 1.104 1.154 1.771.246.635.415 1.363.465 2.426.048 1.068.06 1.408.06 4.124 0 2.716-.013 3.056-.06 4.122-.05 1.065-.219 1.792-.465 2.428a4.91 4.91 0 0 1-1.154 1.771 4.893 4.893 0 0 1-1.77 1.154c-.636.247-1.365.415-2.428.465-1.068.047-1.407.06-4.123.06s-3.056-.013-4.124-.06c-1.065-.049-1.79-.218-2.427-.465a4.88 4.88 0 0 1-1.77-1.154A4.91 4.91 0 0 1 .525 16.55C.278 15.914.11 15.187.06 14.122.013 13.056 0 12.716 0 10.002c0-2.718.013-3.058.06-4.127.049-1.063.218-1.79.465-2.425a4.909 4.909 0 0 1 1.154-1.771A4.896 4.896 0 0 1 3.45.525C4.086.277 4.813.11 5.879.06 6.945.013 7.286 0 9.999 0zm-.895 1.8c-1.864.001-2.221.014-3.144.056-.975.045-1.504.208-1.856.345a3.09 3.09 0 0 0-1.15.748c-.35.35-.568.684-.749 1.15-.138.352-.3.882-.345 1.857-.048 1.054-.058 1.369-.058 4.039 0 2.671.01 2.988.058 4.041.044.975.207 1.505.344 1.857a3.1 3.1 0 0 0 .75 1.15c.322.332.715.587 1.15.747.352.138.881.3 1.856.345 1.054.047 1.371.059 4.041.059 2.67 0 2.987-.011 4.04-.059.976-.045 1.506-.208 1.856-.345.468-.181.8-.398 1.15-.748a3.09 3.09 0 0 0 .75-1.148c.135-.353.3-.881.343-1.856.049-1.054.059-1.372.059-4.04 0-2.67-.01-2.985-.059-4.04-.044-.974-.206-1.504-.344-1.855a3.09 3.09 0 0 0-.747-1.15 3.103 3.103 0 0 0-1.15-.75c-.353-.135-.883-.3-1.858-.343-1.054-.049-1.37-.057-4.04-.057h-.897zm7.083 2.014a1.2 1.2 0 1 1-1.697 1.697 1.2 1.2 0 0 1 1.697-1.697zm-2.606 2.583a5.136 5.136 0 1 1-7.32 7.207 5.136 5.136 0 0 1 7.32-7.207zM7.644 7.643a3.334 3.334 0 1 0 4.715 4.714 3.334 3.334 0 0 0-4.715-4.714z"/></g></g></svg>