<svg xmlns="http://www.w3.org/2000/svg" width="23" height="13" viewBox="0 0 23 13"><g><g><path fill="#78909c" d="M20.501 8.973c1.847 1.7 2.229 2.515 2.288 2.622.763 1.251-.834 1.346-.834 1.346l-3.075.047s-.667.13-1.526-.46c-1.156-.78-2.264-2.823-3.086-2.551-.847.272-.823 2.102-.823 2.102s0 .26-.19.46c-.215.224-.632.142-.632.142h-1.371s-3.04.307-5.697-2.444C2.635 7.237.06 1.334.06 1.334S-.083.98.072.78C.251.59.752.59.752.59h3.29s.32 0 .524.19c.178.13.286.4.286.4s.524 1.311 1.24 2.516c1.37 2.35 2.002 2.857 2.443 2.609.715-.366.512-3.318.512-3.318s.012-1.074-.346-1.547c-.274-.366-.798-.484-1.025-.507-.19-.024.12-.449.513-.65C8.785 0 9.822 0 11.06 0c.966 0 1.24.07 1.61.153 1.144.272.75 1.323.75 3.826 0 .815-.119 1.925.441 2.314.25.166.87.024 2.42-2.562.715-1.228 1.263-2.68 1.263-2.68s.12-.248.298-.366c.19-.095.453-.095.453-.095h3.457S22.8.472 22.968.933c.179.484-.393 1.63-1.811 3.483-2.313 3.07-2.575 2.786-.656 4.557z"/></g></g></svg>