<svg xmlns="http://www.w3.org/2000/svg" width="24" height="17" viewBox="0 0 24 17"><g><g><path fill="#78909c" d="M12.076 0h.134c1.233.004 7.48.05 9.165.502a3.015 3.015 0 0 1 2.123 2.13c.151.57.258 1.325.33 2.103l.015.156.033.39.012.156c.097 1.371.109 2.655.11 2.936v.113a48.123 48.123 0 0 1-.122 3.09l-.012.157-.014.156c-.075.858-.186 1.71-.352 2.337a3.01 3.01 0 0 1-2.123 2.13c-1.74.468-8.353.501-9.27.502h-.213c-.463 0-2.38-.008-4.39-.077l-.255-.01-.131-.005-.513-.021c-1.665-.074-3.25-.192-3.981-.39A3.01 3.01 0 0 1 .5 14.226c-.167-.625-.278-1.479-.353-2.337l-.012-.157-.012-.156A47.1 47.1 0 0 1 0 8.52v-.184C.003 8.014.015 6.9.096 5.67l.01-.154.005-.078.012-.156.033-.39.015-.156C.243 3.957.35 3.2.501 2.633A3.01 3.01 0 0 1 2.624.503c.73-.195 2.316-.315 3.98-.39L6.86.102l.387-.013.256-.011C8.931.032 10.359.007 11.787.002h.29zM9.6 4.815v7.227l6.236-3.612z"/></g></g></svg>