<svg xmlns="http://www.w3.org/2000/svg" width="32" height="32" viewBox="0 0 32 32"><g><g><g/><g><path fill="#c02524" d="M5.222 20.778A11 11 0 1 1 20.778 5.222 11 11 0 0 1 5.222 20.778zm16.97-16.97A13 13 0 1 0 3.808 22.193 13 13 0 0 0 22.192 3.808z"/></g><g><path fill="#c02524" d="M20.69 23.488c.06.08.124.156.196.23l7.7 7.7a2 2 0 1 0 2.83-2.828l-7.7-7.7a2.013 2.013 0 0 0-.23-.2 13.076 13.076 0 0 1-2.796 2.8z"/></g><g><path fill="#c02524" d="M13 6a1 1 0 0 1 1 1v5h5a1 1 0 1 1 0 2h-5v5a1 1 0 1 1-2 0v-5H7a1 1 0 0 1 0-2h5V7a1 1 0 0 1 1-1z"/></g></g></g></svg>