<svg xmlns="http://www.w3.org/2000/svg" width="48" height="48" viewBox="0 0 48 48"><g><g><g/><g><path fill="#c02524" d="M47.25 33c0 1.44-1.238 2.497-1.486 3.42-.263.987.293 2.472-.422 3.707-.707 1.223-2.32 1.535-3 2.215-.68.68-.995 2.294-2.215 3-1.22.706-2.72.16-3.707.423-.913.243-1.984 1.485-3.42 1.485-1.435 0-2.508-1.242-3.421-1.485-.988-.264-2.47.292-3.707-.423-1.223-.707-1.54-2.322-2.215-3-.675-.678-2.295-.997-3-2.216-.705-1.218-.158-2.72-.421-3.705-.244-.912-1.486-1.979-1.486-3.421 0-1.442 1.24-2.496 1.485-3.42.265-.988-.294-2.47.423-3.707.707-1.224 2.32-1.534 3-2.215.68-.681.998-2.294 2.215-3 1.217-.706 2.718-.16 3.707-.423.913-.243 1.984-1.485 3.42-1.485 1.435 0 2.508 1.242 3.42 1.485.987.264 2.471-.292 3.707.423 1.223.707 1.54 2.322 2.215 3 .675.678 2.293.996 3 2.216.706 1.219.159 2.719.422 3.706.245.91 1.486 1.98 1.486 3.42zm-9.943-2.498a.75.75 0 0 0-1.114-1.004L29.97 36.41l-3.94-3.94a.75.75 0 0 0-1.061 1.06l4.5 4.5a.751.751 0 0 0 1.087-.028zm3.75 0a.75.75 0 0 0-1.114-1.004l-6.75 7.5a.75.75 0 1 0 1.114 1.004z"/></g><g><g><path d="M36 5.25a2.25 2.25 0 0 1 2.25 2.25v21a.75.75 0 0 1-.082.335l-2.25 4.5a.75.75 0 0 1-1.343 0l-2.25-4.5a.75.75 0 0 1-.075-.335v-21a2.25 2.25 0 0 1 2.25-2.25zm-1.5 1.5a.75.75 0 0 0-.75.75v2.25h3V7.5a.75.75 0 0 0-.75-.75zm2.25 21.573V11.25h-3v17.073l1.5 3z"/></g><g><path d="M1.5 38.25a.75.75 0 1 1 0-1.5A3.755 3.755 0 0 0 5.25 33V6A5.256 5.256 0 0 1 10.5.75H33a.75.75 0 1 1 0 1.5A3.754 3.754 0 0 0 29.25 6v27A5.256 5.256 0 0 1 24 38.25zM6.75 33a5.235 5.235 0 0 1-1.575 3.75H24A3.754 3.754 0 0 0 27.75 33V6a5.236 5.236 0 0 1 1.575-3.75H10.5A3.755 3.755 0 0 0 6.75 6z"/></g><g><path d="M12.75 6.75h9a.75.75 0 1 0 0-1.5h-9a.75.75 0 0 0 0 1.5z"/></g><g><path d="M10.5 13.5H24a.75.75 0 1 0 0-1.5H10.5a.75.75 0 0 0 0 1.5z"/></g><g><path d="M10.5 18H24a.75.75 0 1 0 0-1.5H10.5a.75.75 0 0 0 0 1.5z"/></g><g><path d="M10.5 22.5H24a.75.75 0 1 0 0-1.5H10.5a.75.75 0 0 0 0 1.5z"/></g><g><path d="M24.75 26.25a.75.75 0 0 0-.75-.75H10.5a.75.75 0 0 0 0 1.5H24a.75.75 0 0 0 .75-.75z"/></g><g><path d="M24.75 30.75A.75.75 0 0 0 24 30h-6.75a.75.75 0 0 0 0 1.5H24a.75.75 0 0 0 .75-.75z"/></g></g></g></g></svg>