<svg xmlns="http://www.w3.org/2000/svg" width="48" height="48" viewBox="0 0 48 48"><g><g><g/><g><path fill="#c02524" d="M34.5 26.25a5.25 5.25 0 1 0 0-10.5 5.25 5.25 0 0 0 0 10.5z"/></g><g><path fill="#c02524" d="M43.511 11.989A12.764 12.764 0 0 1 47.25 21c0 12.171-11.721 24.032-12.22 24.53a.75.75 0 0 1-1.06 0C33.47 45.031 21.75 33.171 21.75 21A12.764 12.764 0 0 1 34.5 8.25a12.764 12.764 0 0 1 9.011 3.739zm-4.24 13.782A6.758 6.758 0 0 0 41.25 21a6.75 6.75 0 1 0-6.75 6.75 6.758 6.758 0 0 0 4.77-1.98z"/></g><g><path d="M36 2.25a2.25 2.25 0 0 1 2.25 2.25V21A2.25 2.25 0 0 1 36 23.25h-2.492a4.493 4.493 0 0 1-8.475 0H12.842a4.493 4.493 0 0 1-8.475 0H3A2.25 2.25 0 0 1 .75 21v-4.628a2.233 2.233 0 0 1 .66-1.592l1.665-1.662 1.58-6.368H4.5a2.25 2.25 0 1 1 0-4.5zM3.97 5.03c.14.141.331.22.53.22h9a.75.75 0 0 1 .75.75v12.75h11.676a4.48 4.48 0 0 1 6.69 0h4.134V4.5a.75.75 0 0 0-.75-.75H4.5a.75.75 0 0 0-.53 1.28zM6.2 6.75l-1.492 6h8.041v-6zm-3.951 12h3.01a4.48 4.48 0 0 1 6.689 0h.801v-4.5H4.06l-1.59 1.59a.751.751 0 0 0-.22.532zm1.854 3c.001-.511.09-1.019.263-1.5H2.25V21a.75.75 0 0 0 .75.75zm5.648 2.772a2.998 2.998 0 0 0 0-5.544 3 3 0 1 0 0 5.544zM24.77 21.75a4.48 4.48 0 0 1 .263-1.5H12.84c.173.481.262.989.263 1.5zm6.622 2.121a3 3 0 1 0-4.243-4.242 3 3 0 0 0 4.243 4.242zm5.358-3.621h-3.242c.173.481.261.989.262 1.5H36a.75.75 0 0 0 .75-.75z"/></g><g><path d="M22.5 12h2.25v2.25a.75.75 0 0 0 1.5 0V12h2.25a.75.75 0 0 0 0-1.5h-2.25V8.25a.75.75 0 0 0-1.5 0v2.25H22.5a.75.75 0 0 0 0 1.5z"/></g></g></g></svg>