<svg xmlns="http://www.w3.org/2000/svg" width="95" height="42" viewBox="0 0 95 42"><g><g><g/><g><path d="M83.625 42c-6.272 0-11.375-5.103-11.375-11.375S77.353 19.25 83.625 19.25 95 24.353 95 30.625 89.897 42 83.625 42zm0-21C78.317 21 74 25.317 74 30.625s4.317 9.625 9.625 9.625 9.625-4.317 9.625-9.625S88.933 21 83.625 21z"/></g><g><path fill="#c02524" d="M81.875 35.001a.884.884 0 0 1-.62-.255l-3.5-3.5a.876.876 0 0 1 1.238-1.238l2.839 2.839 5.509-6.297a.875.875 0 1 1 1.318 1.153l-6.126 7a.873.873 0 0 1-.63.298h-.028z"/></g><g><path d="M69.625 42c-1.18 0-2.279-.46-3.094-1.297L54.288 28.46A4.276 4.276 0 0 1 53 25.375c0-1.12.441-2.216 1.21-3.007L73.93 1.913A6.074 6.074 0 0 1 78.375 0h12.25A4.381 4.381 0 0 1 95 4.375v12.25c0 .758-.138 1.498-.422 2.264a.876.876 0 0 1-1.642-.609c.21-.566.314-1.107.314-1.655V4.375a2.628 2.628 0 0 0-2.625-2.625h-12.25a4.342 4.342 0 0 0-3.18 1.372L55.468 23.585a2.585 2.585 0 0 0-.718 1.79c0 .704.273 1.358.768 1.841l12.257 12.257c.828.849 2.214 1.015 3.201.387a.873.873 0 0 1 1.208.271.874.874 0 0 1-.272 1.207 4.245 4.245 0 0 1-2.287.662z"/></g><g><path d="M86.25 12.25c-1.93 0-3.5-1.57-3.5-3.5s1.57-3.5 3.5-3.5 3.5 1.57 3.5 3.5-1.57 3.5-3.5 3.5zm0-5.25c-.964 0-1.75.786-1.75 1.75s.786 1.75 1.75 1.75S88 9.714 88 8.75 87.214 7 86.25 7z"/></g></g><g opacity=".3"><path fill="#c12d30" d="M31.424 33.842c.029 0 .057 0 .057.056-.085 0 .114.477-.142.393.057-.196.028-.252-.057-.393.057 0 .057-.084.142-.056zm0 2.217c.143.028.257.113.457.197-.143-.169.086-.112.143-.197 0 .31.114-.168.2.057-.143.449-.857.14-.8-.057zm.543 1.123c.17.056.257-.028.37-.056.03.14.058.28.143.393-.2-.084-.542 0-.513-.337zm-6.622-.814c0-.112-.057-.14-.029-.28.143-.057.143.112.257.084 0 .196-.085.224-.228.196zm5.794 0c.143 0 .257.056.314.14zm3.082-2.778c.058 0 .115-.113.143 0-.085.084-.257.056-.285.196-.086-.168-.115-.112-.057-.337.142-.084.114.085.2.14zm-1.855 3.367c-.028-.196-.057-.056-.2-.056v-.196c.143-.028.086.14.2.14.029-.056 0-.14.057-.14 0 .084.086.084.057.196-.057 0-.085.056-.114.056zm-1.598-2.722c-.143-.14-.514 0-.542-.28.17-.057.114.112.2.14-.03-.28.285-.169.399-.112-.114 0 .057.168-.057.252zm5.994-.73c-.057.085-.2.029-.257-.056.028 0 .085 0 .085-.056-.057-.028 0-.112.057-.14.029.084.086.168.115.252zM31.88 35.05c.086-.365.428-.028.6 0zm-3.939-2.386c-.143-.027-.314.169-.342-.084zm3.939 1.516c.143-.056.228.028.343.056-.03.14-.058.225-.115.28 0-.196-.2-.168-.228-.336zm.086 1.01c.142 0 .085-.112.2 0v.14c-.086.113-.058 0-.2 0zm.285 2.975c-.086-.028-.285.084-.314-.056.086-.112.057 0 .2 0 .028-.056 0-.14.057-.14 0 .028 0 .056.057.056zm4.66-5.302c.085.005.176-.002.192.11zm-.076-.012a.37.37 0 0 1-.189.066.434.434 0 0 1-.23-.076c-.012-.038-.055-.047-.055-.12h-.086c.022.012.032.03.034.052a.567.567 0 0 0-.262-.109c-.115-.007-.17.197-.285.197-.069 0 .008-.178-.057-.197-.05-.013-.103.039-.129.094a.445.445 0 0 1-.071-.178c-.006-.053.09-.064.114-.112.017-.033-.022-.082 0-.112.032-.045.135-.03.143-.084.007-.053-.104-.06-.114-.113-.012-.058.028-.116.056-.168.04-.071.07-.16.143-.197.046-.022.12.102.143.057.024-.048-.12-.06-.114-.113.007-.08.089-.136.143-.196.014-.016.057-.007.057-.028 0-.114.024-.257-.057-.337-.052-.05-.13.066-.2.084-.066.018-.424-.077-.2.253.04.06.148-.034.2-.084.02-.021-.029-.055-.029-.085 0-.009.02.003.029 0 .02-.006.042-.042.057-.028.045.045.094.106.085.169-.029.199-.282.327-.428.393-.094.042.074-.196-.085-.085a.488.488 0 0 0-.075.067c.015.014.03.036.046.046.029.019.055.04.086.056.008.004.019 0 .028 0h.057c.02 0 .057-.02.057 0 0 .095-.04.186-.057.28-.003.019 0 .038 0 .057v.028c0 .037.015.078 0 .112-.016.037-.061.052-.085.084-.034.044-.074.087-.086.14-.008.038.067.116.029.113-1.079-.085-2.144-.356-3.226-.365-.14-.001-.256.196-.256.337 0 .097.23.046.256.14.02.067-.18-.01-.2.056-.018.064.21.151.143.14-.172-.028-.372-.063-.485-.196-.052-.062.186-.06.2-.14.014-.08-.183-.127-.143-.197.043-.074.282.082.257 0-.043-.14-.2-.245-.342-.28-.064-.016.065.2 0 .196-.996-.056-1.997-.142-2.969-.365a.052.052 0 0 1-.037-.033.053.053 0 0 1-.02.033c-.084.065-.22-.056-.285-.14-.071-.092.018-.388-.086-.337-.118.058.102.381-.028.393-.418.037-.856-.086-1.228-.28-.117-.062.042-.305-.057-.393-.057-.052-.188-.006-.237.064a1.502 1.502 0 0 0-.077-.093c-.068-.076-.193.158-.285.113-.068-.034.185-.17.114-.197a.403.403 0 0 0-.4.084c-.052.052.245.13.172.14a.486.486 0 0 1-.371-.111c-.04-.036.156-.08.114-.113-.257-.194-.589-.27-.856-.449-.064-.042.17.079.228.028.064-.056-.055-.269.028-.252.1.02.046.206.115.28.032.035.095-.007.142 0 .534.078 1.07.15 1.599.253.018.003-.019.056 0 .056.034 0 .078-.023.085-.056.015-.065-.094-.194-.028-.197.253-.01.514.057.742.169.059.029-.054.233 0 .196.188-.127.258-.395.456-.505.074-.04-.084.253 0 .253.17 0 .36-.528.628-.365.097.058-.084.337.029.337.119 0 0-.307.114-.337.105-.028.262.06.304.164.11-.08.225-.15.353-.192.067-.022.017.174.085.196.11.036.29-.159.343-.056.059.116-.234.21-.2.337.034.127.21.202.342.196.316-.014.64-.095.914-.252.077-.045-.14-.137-.229-.14-.184-.007-.38.2-.542.112-.111-.061.165-.213.285-.253.048-.016.009.152.058.14.084-.02.105-.139.17-.196a.132.132 0 0 1 .086-.028c.01 0-.005.02 0 .028.015.022.033.046.058.056.139.056.28.114.428.14.225.04.56-.135.685.057.099.152-.314.196-.428.336-.044.054.165-.116.2-.056.044.077-.164.295-.086.253.152-.083.171-.423.342-.393.164.028.047.342.143.477.04.056-.003-.164.057-.196.06-.034.135.079.2.056.088-.031.106-.197.2-.197.075 0 .13.063.184.124.054-.053.187-.05.187-.124 0-.081-.2-.059-.2-.14 0-.115.1-.338.2-.28.144.082-.024.476.142.476.208 0 .312-.289.4-.477.14-.299-.185-.29-.314-.252-.15.043-.271.196-.428.196-.068 0 .011-.196-.057-.196-.284 0-.545.219-.828.196-.12-.01-.11-.255-.228-.28-.261-.057-.533.038-.8.056h-.028c-.01 0-.028.01-.029 0-.009-.178-.116-.4 0-.534.082-.093.303.024.343.14.032.096-.329.197-.228.197.293 0 .564-.213.856-.196.543.03 1.066.45 1.598.337.275-.06.213-.525.371-.758.023-.033.054.06.086.084.043.032.089.061.136.09.032-.029.076-.062.064-.09-.032-.07-.134-.074-.2-.112-.03-.018-.06-.035-.086-.056a.96.96 0 0 1-.114-.113c-.013-.016-.008-.053-.028-.056-.276-.034-.554-.102-.571.28-.006.12.198.254.114.338-.077.075-.181-.147-.2-.253-.023-.132.149-.275.086-.393-.078-.146-.578-.181-.428-.253.277-.131.599-.1.913-.107-.012.04-.014.073 0 .051a1.51 1.51 0 0 1 .038-.052c.103-.004.205-.012.304-.032.082-.016-.117-.063-.235-.061a.82.82 0 0 0 .091-.15c.112.109.275.214.373.295.042.035.039-.111.085-.14.04-.025.13-.045.143 0 .028.091-.146.316-.057.28.09-.035.17-.522.428-.42.189.074.381.191.485.364.057.094-.03.217-.037.328-.208-.013-.645.234-.648.234-.065.003.026-.136 0-.197s-.076-.13-.142-.14c-.341-.056-.141.297-.2.421a.18.18 0 0 1-.095.082c.109.064.216.13.295.227a.08.08 0 0 1 .01.017.365.365 0 0 0 .047-.102c.018-.066-.172.007-.2-.056-.03-.065.015-.203.086-.196a.776.776 0 0 1 .485.252c.047.054-.014.197-.086.197-.068 0-.001-.157-.057-.197-.042-.029-.095.037-.143.057.011.074-.104.224-.028.224.195 0 .43-.064.542-.224.12-.17.19-.297.221-.388.067.098.151.18.179.107.092-.246-.099-.527-.057-.786.015-.095.049.227.142.253.125.034.255-.055.371-.113.02-.009-.05-.056-.028-.056.324.01.675-.05.97.085.1.045-.061.277-.171.28-.261.008-.481-.242-.742-.252-.075-.003-.057.175 0 .224.196.169.434.303.685.365.063.016-.064-.209 0-.196.313.06.577.28.885.364.263.072.066-.253.142-.28.09-.032.186-.051.283-.058-.018-.044 0-.122-.026-.167-.01-.016-.064.018-.057 0 .04-.097.09-.19.143-.281-.007.023-.009.043 0 .057.072.11.21.196.342.196.066 0-.062-.176 0-.196.137-.045.33-.048.428.056.09.095-.095.303 0 .393.144.134.418.018.571.14.089.07-.083.323.029.337.17.02.258-.3.428-.28.113.012.044.223.057.336.006.046.047.143 0 .14-.395-.019-.775-.196-1.17-.196-.076 0 .18.16.114.196-.185.102-.417.1-.628.084-.54-.04-.49-.4-1.113-.196-.072.024.181.161.114.196-.16.085-.38-.051-.542.029-.088.043-.077.183-.086.28-.002.027.083.049.057.056a1.9 1.9 0 0 1-.285.056c-.004.009 0 .02 0 .029v.028c.018.187.027.375.057.56.008.05.017.11.057.141.055.042.194.125.2.056.012-.142-.179-.25-.171-.393.004-.08.2-.058.2-.14 0-.107-.144-.16-.2-.252-.007-.012.016-.033.028-.029.091.036.18.2.257.14.09-.067-.089-.267 0-.336.145-.112.375-.158.542-.084.103.045-.047.253.029.337.048.053.13-.064.2-.085.027-.008.057-.003.085 0 .115.015.273-.035.343.057.06.077.01.262-.086.28-.177.033-.334-.178-.514-.168-.204.01-.404.106-.57.224-.042.03.006.143.057.14.216-.008.413-.196.628-.168.182.024.34.166.456.309.053.065.078.22 0 .253-.413.176-1.04-.05-1.313.308-.198.26.647.098.97.14.03.004.06.01.086 0 .033-.01.053-.047.086-.056.112-.029.258.023.342-.056.103-.094.022-.323.143-.393.081-.046.133.262.2.197.115-.113-.006-.344.086-.477.07-.102.286-.03.342-.14.023-.046-.641-.512-.057-.59.198-.026.39.153.514.309.045.056-.173.017-.2.084-.042.104-.012.232.029.337.021.056.192.077.142.112-.093.066-.25-.04-.342.028-.049.036.06.114.114.14.087.043.214.122.285.057.108-.098.068-.284.114-.421.01-.027-.026.074 0 .084.011.004.226-.006.172-.113-.01-.018-.055.05-.057.029-.03-.223-.174-.503-.029-.674.105-.124.373.03.457.168.06.101-.16.192-.171.31-.005.047.164-.072.142-.029-.063.125-.255.172-.285.309-.01.044.045.078.104.09-.025.055-.054.106-.104.134-.06.034-.12-.157-.171-.112-.096.085-.22.293-.115.365.12.082.256-.177.4-.169.213.012.421.342.6.225.176-.116.066-.407.08-.627 0 .003.002.007.005.01.019.018.03-.053.057-.057.058-.007.114.02.171.028.015.003.098-.008.086.029-.01.032-.068.027-.086.056-.041.068-.044.155-.085.224-.028.046-.145.069-.114.112.068.097.207.221.313.169.088-.043-.079-.183-.085-.28-.004-.06.03-.116.057-.17.004-.008.02.004.028 0 .02-.006.05-.047.058-.027.02.052-.054.186 0 .168.067-.022.031-.15.085-.196.036-.031.164.042.143 0-.027-.054-.117-.03-.171-.056-.024-.012-.036-.04-.057-.057-.002 0-.085-.034-.086-.056-.008-.174.101-.388.034-.537l-.007-.005h.004a.208.208 0 0 0-.031-.047.106.106 0 0 0-.073-.035.563.563 0 0 1-.184-.274c-.043-.165.392-.114.428-.28.028-.132-.265-.128-.314-.253-.025-.064.112-.079.171-.112.022-.013.082.023.086.028.046.06.06.143.114.196.037.036.093.048.143.056.013.003.016-.03.029-.028.033.009.058.036.085.056.01.008.018.021.029.028a.243.243 0 0 0 .057.029c.009.003.024-.009.028 0 .018.034.007.08.029.112.007.01.015-.028.028-.028v-.028c.009-.085.054-.172.029-.253-.018-.058-.191-.076-.143-.112.144-.109.582-.002.514-.169-.072-.176-.413-.078-.57.029-.094.062.028.224.028.336 0 .01-.02.005-.029 0-.012-.006-.017-.02-.028-.028-.037-.021-.079-.033-.115-.056-.097-.062-.188-.133-.285-.196a.243.243 0 0 0-.057-.028c-.01-.003-.02 0-.029 0-.057-.008-.136.018-.17-.028-.04-.052.062-.215 0-.197-.129.038-.153.274-.286.28-.277.015-.523-.224-.8-.224-.075 0 .033.18-.028.225-.056.04-.195.013-.2-.056-.009-.126.082-.249.171-.337.03-.03.016.105.058.112.253.043.521.092.77.028.074-.019-.185-.17-.114-.196a.81.81 0 0 1 .57.028c.062.025-.064.14-.028.196.064.097.228.297.286.197.072-.124-.19-.252-.172-.393.01-.076.167-.074.229-.028.053.039-.066.198 0 .196.332-.01.647-.149.97-.224.038-.01.075-.028.114-.028.02 0 .038.01.052.023.06-.015.121-.044.177-.023.225.083.157.218.314.196.048-.007.118.014.142-.028.029-.05-.028-.111-.028-.168 0-.03.017-.057.028-.085.008-.019.015-.04.029-.056.063-.069.147-.119.2-.196.012-.018-.046-.045-.029-.056.114-.075.246-.116.371-.169.009-.003.02 0 .029 0 .01 0 .025-.009.028 0 .019.054-.012.129.029.169.05.048.131.047.2.056.013.001.016-.034.028-.028.019.009.022.036.029.056.06.177.108.357.171.533a.048.048 0 0 0 .029.028c.018.006.043-.013.057 0 .03.03.03.08.057.112.041.053.099.09.142.14.014.017.021.037.029.057.011.027.01.06.028.084.06.08.124.16.2.225.059.049.124.104.2.112.071.007.088-.21.2-.056.033.046.016.113.028.168.007.029.005.067.029.084.023.017.062-.015.086 0 .01.007.128.17.142.197.005.008-.004.02 0 .028.025.049.034.123.086.14.038.013.046-.09.085-.084.053.007.142.158.115.112-.056-.091-.131-.17-.2-.252-.017-.02-.04-.037-.057-.057-.05-.054-.09-.116-.143-.168-.007-.007-.022.007-.028 0-.007-.006-.006-.02 0-.028.015-.022.06-.03.057-.056-.018-.181.003-.395-.115-.533-.078-.093.038.262-.028.364-.033.05-.112-.062-.171-.056-.04.005-.066.12-.086.085-.047-.082.05-.23-.028-.281-.062-.04-.07.168-.143.168-.074 0-.098-.11-.143-.168-.013-.017-.017-.039-.028-.056-.008-.011-.031-.015-.029-.028.009-.05.082-.097.057-.14-.03-.053-.135-.009-.171-.057-.02-.027.063-.03.085-.056.036-.041.059-.093.086-.14.01-.018.018-.038.029-.056.017-.03.04-.055.057-.085.02-.036.046-.071.057-.112.017-.063-.033-.172.028-.196.057-.022.115.2.115.14 0-.1-.1-.18-.115-.28-.006-.042.032-.08.057-.113.006-.007.022-.006.029 0 .015.015.008.053.029.056.046.008.286-.039.228-.168-.032-.07-.182-.038-.2-.112-.038-.157.215-.612-.114-.73-.063-.022-.133.074-.143.14-.013.088.06.168.086.253.041.14.096.277.114.42.003.022-.04.016-.057.029-.032.025-.046.087-.086.084-.102-.008-.265-.212-.285-.112-.024.118.184.157.257.252.017.023 0 .057 0 .085 0 .056.012.113 0 .168l-.114.168c-.033.064-.02.12-.086.169-.015.011-.05.017-.057 0-.055-.125-.07-.264-.114-.393-.006-.018.01.04 0 .056-.03.044-.074.147-.114.112-.084-.071-.074-.206-.115-.308a2.286 2.286 0 0 0-.085-.197c-.006-.012-.025-.015-.029-.028-.006-.018-.013-.043 0-.056.04-.039.192-.058.143-.084-.087-.047-.52-.168-.657 0-.021.026.112.034.086.056-.087.075-.2.149-.314.14-.071-.005-.013-.473-.257-.084a.355.355 0 0 0-.028.28c.01.037.097-.033.114 0 .019.038-.04.074-.057.113-.012.027-.018.057-.029.084-.008.02-.01.047-.028.056-.026.013-.066-.02-.086 0-.02.02.027.093 0 .084-.07-.023-.148-.07-.171-.14-.013-.037.114.011.114-.028 0-.092-.024-.235-.114-.253-.085-.016-.093.159-.171.197-.052.025-.114-.028-.172-.028-.02 0-.048.047-.057.028-.058-.124.016-.35-.114-.393-.113-.037-.227.014-.341.071.01-.121-.076-.25-.173-.324-.043-.033-.059.189-.085.14-.07-.126-.137-.53-.029-.7.016-.026.067.004.086.027.07.084.061.28.171.28.55 0-.3-.356.029-.42.177-.035.648.174.542.028a.403.403 0 0 0-.17-.13.84.84 0 0 0 .056-.01c.084-.019-.128-.203-.057-.253.1-.072.258-.024.37.028.07.032.04.213.115.197.281-.063.506-.279.77-.393.062-.027.16-.083.2-.028.067.09-.08.308.029.336.148.04.255-.175.4-.224.108-.037.235-.07.342-.028.105.041.115.261.228.252.191-.015.294-.291.485-.308a.05.05 0 0 1 .02 0c.007-.016.02-.027.037-.028.062-.006.115.03.167.072-.006-.008-.005-.013.005-.016.137-.04.313-.057.428.028.112.082.013.342.143.393.142.056.348-.038.428-.169.06-.098-.238.074-.343.028-.005-.002-.47-.533 0-.533.179 0 .33.155.457.28.028.029-.12.065-.086.085.084.047.214.09.286.028.126-.11-.304-.51.256-.337.02.006.047.03.076.062-.02.058-.022.1.01.079a.4.4 0 0 0 .036-.027c.122.141.258.31.192-.142a.38.38 0 0 0-.017-.076c.068-.106.137-.21.246-.26.08-.038.005.215.085.252.106.048.238-.007.343-.056.122-.057.18-.271.314-.253.1.014-.186.21-.114.28.117.116.324.118.485.085.098-.02.127-.155.2-.224.194-.184.352-.431.6-.534 1.24-.513 1.812-.273 3.082-.533.42-.086.813-.277 1.227-.393.12-.034.25-.024.37-.056 2.078-.548 4.175-1.035 6.223-1.684.217-.069.295-.386.514-.449 1.888-.542 3.81-.962 5.737-1.347 1.681-.336 3.402-.459 5.08-.814.198-.042.283-.348.485-.365.424-.034.833.177 1.256.225.161.018.355-.124.485-.028.543.398 1.01.902 1.427 1.431.065.082.025.243-.057.309-.105.084-.477-.054-.4.056.246.345.618.603 1 .786.083.04.114-.16.114-.253 0-.154-.26-.4-.114-.449.47-.16 1.093.274 1.284.674.06.126-.092.314 0 .42.206.24.66.223.8.506.148.303-.07.673-.058 1.01.018.526.046 1.055.143 1.572.056.303.047.715.314.87.21.12.5-.494.656-.309.534.633.79 1.473 1 2.273.076.295-.245.602-.172.898.128.522.501.951.742 1.432.073.146.09.326.2.449.044.05.206.066.2 0-.03-.313-.576-.78-.286-.898.304-.125.459.477.628.757.14.232.144.529.285.758.058.094.248.065.286.169.052.141-.003.308-.057.449-.027.068-.157.068-.171.14-.038.184-.045.389.028.561.037.086.306.033.257.113-.104.17-.319.352-.514.308-.15-.033-.091-.296-.114-.449-.073-.493-.08-.996-.171-1.487-.008-.042-.073-.048-.114-.056-.094-.02-.245-.115-.286-.028-.144.31.17 1.01-.171 1.01-.359 0-.053-.845-.371-1.01-.232-.121-.458.285-.6.505-.061.096.021.229.058.337.125.37.28.731.428 1.094.005.012.017.021.028.028.065.04.125.126.2.112.146-.026.108-.144.114-.224.018-.247.013-.487.171-.702.02-.027.065.03.086.056.056.07.09.154.143.225.006.007.02-.004.028 0 .012.006.017.033.029.028.063-.027.213-.167.171-.112-.066.086-.162.145-.245.215.016-.016.04-.042.017-.047-.047-.01-.095 0-.143 0-.028 0-.07-.024-.086 0-.031.047-.08.143-.028.168.065.032.156-.141.2-.084.212.282.433.603.456.954.019.277-.09.873-.342.758-.354-.16-.247-.737-.4-1.094-.008-.02-.036.023-.057.028a.099.099 0 0 1-.057 0c-.107-.04-.2-.13-.314-.14-.037-.004-.001.074 0 .112.018.533.168 1.078.057 1.6-.065.308-.119-.621-.2-.927-.09-.34-.051-.774-.313-1.01-.002-.001-.449.366-.429.561.043.406.2.8.2 1.207 0 .307-.053 1.168-.2.898-.28-.515-.11-1.172-.256-1.74-.03-.116-.227-.369-.257-.253-.208.785-.145 1.62-.314 2.414-.042.197-.004-1.547-.314-1.29-.332.273-.258.824-.457 1.206-.009.017-.027.027-.048.03a.079.079 0 0 1 .048-.03c-.057-.084-.114-.084-.171-.168a.111.111 0 0 0-.066.104c-.214-.241-.296-.666-.22-.946.03-.107.317-.063.286-.169-.032-.11-.243.029-.343-.028-.1-.057-.102-.34-.2-.28-.175.107-.238.356-.256.56-.007.073.182.015.2.085.057.227.099.49 0 .702a.141.141 0 0 1-.078.066c-.013-.078-.065-.13-.18-.094l-.015.1a.157.157 0 0 1-.07-.044 1.019 1.019 0 0 1-.228-.702c.007-.11.382-.115.285-.168-.159-.087-.407-.093-.542.028-.127.112-.06.335-.057.505.006.32.146.64.085.954-.024.126-.236.327-.314.225-.114-.15.065-.374.057-.562a3.895 3.895 0 0 0-.114-.87c-.03-.11-.15-.384-.2-.28-.274.581-.138 1.351-.542 1.852-.194.24-.228-.59-.228-.898 0-.09.237-.052.228-.14-.01-.097-.16-.158-.257-.14-.302.052-.57.227-.856.336-.97.368-1.938.738-2.911 1.095-.71.26-1.397.615-2.14.757-.314.06-.624-.164-.943-.168-.487-.006-.982.024-1.455.14-.074.018.034.182-.029.225-.211.144-.464.225-.713.28-.261.058-.533.04-.8.057-.161.01-.323.028-.485.028-.076 0-.151-.03-.228-.028-.239.007-.482.111-.714.056-.117-.028-.108-.292-.228-.281-.258.024-.463.233-.685.365-.415.247-.601.564-1.199.505-.16-.016-.184-.31-.342-.337-.321-.055-.645.121-.97.112-.048 0-.075-.25-.2-.168-.095.062-.135.189-.229.253a2.751 2.751 0 0 1-.6.308c-.053.02-.113-.037-.17-.028a1.373 1.373 0 0 0-.202.054c-.021-.002-.031-.002-.027.002h.025c-.093.03-.186.065-.282.085-.02.004-.06-.007-.057-.028.01-.063.137-.131.086-.169-.117-.086-.29-.132-.428-.084-.071.025.04.15.028.225-.003.02-.046-.01-.057-.029-.02-.032-.01-.078-.028-.112-.068-.126-.22-.221-.229-.365-.004-.076.124-.121.2-.112.048.006.005.099.029.14.026.047.06.113.114.113.03 0 .371-.111.342-.253-.03-.152-.129-.282-.2-.42-.015-.031-.026-.07-.056-.085-.035-.017-.077.007-.115 0-.013-.003-.019-.037-.028-.028a.314.314 0 0 0-.056.08c.005-.07.02-.15-.03-.192-.09-.076-.243-.147-.342-.085-.096.061.055.317-.057.337-.125.023-.136-.245-.257-.28-.064-.02-.064.14-.029.196.09.14.533.297.371.337-.496.122-.335-.575-.799-.309-.057.033-.085.162-.028.197.074.045.21-.13.256-.057.055.086-.094.182-.114.281-.01.047.074.155.029.14-.089-.029-.118-.15-.2-.196-.077-.043-.212.02-.257-.056-.049-.082.11-.202.057-.28-.042-.063-.064.139-.114.196-.02.022-.056.02-.086.028-.047.011-.131.075-.142.028-.03-.13.074-.262.057-.393a1.51 1.51 0 0 0-.171-.477c-.014-.027-.007.064-.029.084-.095.086-.235.123-.314.224-.03.038-.018.13.029.14.103.026.21-.08.314-.055.046.011.064.109.028.14-.066.057-.175.025-.257.056-.214.082-.42.183-.628.28-.05.024-.194.104-.142.085.174-.066.327-.21.513-.225.087-.006.228.086.2.169-.186.549-.433.112-.685.112-.055 0-.114.093-.085.14.085.144.53.386.37.337-.304-.093-.72-.177-.827-.477-.017-.047-.002-.076.034-.095-.047-.011-.085-.036-.091-.073-.037-.21.23-.412.171-.618-.03-.107-.252.02-.314.112-.099.147.062.726-.4.59-.018-.005-.021-.029-.018-.058-.03.105-.03.2.104.254.071.03.196-.041.228.028.049.103.05.378-.057.337-.218-.083-.241-.44-.456-.533-.103-.044.107.304 0 .337-.123.037-.23-.11-.35-.17a.444.444 0 0 0 .178-.223c.071-.22-.06-.524-.256-.646a.08.08 0 0 0-.02-.009c.073-.097-.005-.312-.409-.748-.122-.133-.107.349-.2.505-.02.033-.087.057-.114.028-.059-.067.003-.265-.085-.253-.1.014-.047.205-.114.28-.074.083-.259.276-.286.17-.044-.176.154-.33.2-.506.012-.046.02-.145-.028-.14-.192.019-.356.15-.543.196a2.351 2.351 0 0 1-.57.084c-.04 0 .092-.044.085-.084-.016-.095-.046-.244-.143-.252-.093-.009-.142.135-.17.224-.041.125-.123.301-.03.393.149.146.452.023.6.168.08.078-.203.117-.314.113a.862.862 0 0 1-.4-.14c-.025-.016.042-.058.029-.085-.014-.027-.079.001-.086-.028-.025-.11.09-.27 0-.337-.076-.056-.138.14-.228.169-.04.013-.12-.014-.114-.056.01-.066.121-.078.142-.14.014-.04-.015-.108-.057-.113-.408-.054-.505.127-.57.533-.007.042.078.033.114.056.008.006-.031-.009-.029 0 .01.041.076.075.057.113-.04.077-.113.157-.2.168-.084.011-.145-.13-.228-.112-.17.035-.29.202-.457.252-.052.016.14-.13.086-.14-.188-.033-.517.24-.57.056-.054-.183.324-.23.513-.252.08-.01.146.244.171.168.031-.092-.215-.188-.142-.253.113-.101.318.037.456-.028.073-.034.147-.172.086-.224-.08-.069-.252.113-.314.028-.055-.076.187-.132.171-.225-.014-.083-.148-.14-.228-.112-.076.027-.05.296-.086.225-.06-.117.113-.327 0-.393-.104-.062-.23.116-.285.224a1.924 1.924 0 0 0-.141.321c-.079-.06-.091-.275-.202-.293-.087-.014-.126.174-.085.253.056.11.424.142.314.196-.135.067-.29-.082-.429-.14-.012-.005.036-.017.03-.028-.095-.148-.15-.363-.315-.421-.251-.089-.534-.004-.799.028a.2.2 0 0 0-.143.084c-.09.144-.068.82-.57.14-.061-.082.218-.073.256-.168.026-.062-.143.065-.2.028-.08-.053-.173-.16-.142-.252.029-.086.192-.021.257-.085.034-.033.018-.148-.029-.14-.149.027-.289.092-.428.156-.1-.005-.14.005-.285-.016-.015.058-.03.1-.044.143a.834.834 0 0 1-.156.026.157.157 0 0 1-.086-.021.278.278 0 0 1-.028-.035.03.03 0 0 0-.012.009c-.09-.068-.167-.186-.274-.178-.084.007.1.206.029.253-.207.135-.467.19-.714.196-.189.005-.355-.199-.542-.168-.084.014.107.22.028.252-.087.037-.136-.19-.228-.168-.117.029-.116.325-.228.28-.108-.042.061-.223.085-.336.014-.065.09-.171.029-.196a.836.836 0 0 0-.57-.029c-.105.036-.195.174-.172.281.02.091.35.1.257.112-.52.067-1.052-.022-1.57.056-.07.011-.014.2-.086.197a.962.962 0 0 1-.599-.225c-.06-.054.119-.134.2-.14.068-.005.15.177.171.112.057-.168-.09-.366-.029-.533.038-.104.182-.131.286-.168.02-.007.019.037.028.056.029.056.053.115.086.168.005.008-.008-.023 0-.028.082-.053.265-.237.257-.14-.016.185-.33.297-.286.477.035.143.323.216.429.112.099-.097-.21-.27-.143-.393.064-.12.266-.06.4-.084.05-.009.097.02.142-.028.078-.084.086-.267.2-.28.084-.011-.052.226.029.252.235.077.508.083.742 0 .08-.028-.114-.253-.029-.253.127 0 .176.188.285.253.041.024.097.011.143 0 .063-.015.609-.197.114-.42-.1-.047-.177.19-.285.167-.09-.019-.028-.218-.114-.252-.062-.024.037.19-.029.196-.11.01-.212-.25-.285-.168-.09.1.177.295.085.393-.097.104-.322.069-.428-.028-.096-.09.075-.312-.028-.393-.19-.15-.368.441-.371.449-.006.012-.016.026-.029.028-.047.008-.102.024-.143 0-.024-.014.024-.1 0-.084-.045.03-.046.179-.085.14-.085-.083.004-.324-.114-.337-.162-.017-.262.194-.4.281-.008.005.004-.02 0-.028-.025-.058-.024-.184-.086-.169-.259.064-.45.32-.713.365-.119.021.338-.23.228-.28-.216-.1-.493-.037-.713.056-.09.038.01.262-.086.28-.085.017.028-.269-.057-.252-.096.019-.004.227-.086.28-.073.049-.207.017-.256-.056-.04-.059.156-.19.085-.196-.795-.077-1.61.112-2.397-.028-.059-.01-.046-.068-.02-.139-.01.016-.021.026-.037.027-.87.009-1.728-.235-2.598-.253-.071-.001-.014.196-.085.196-.202 0-.453-.033-.571-.196-.095-.131.103-.316.085-.477-.005-.05-.112-.098-.142-.056-.11.154-.018.479-.2.533-.181.054-.3-.23-.457-.337-.035-.024-.1-.016-.114-.056-.067-.189-.136-.39-.114-.59.052-.475.303-.055.4-.055.05 0 .057-.09.057-.14 0-.133-.166-.319-.057-.394.108-.074.226.135.342.197.008.004.029-.01.029 0 0 .066-.086.163-.029.196.107.062.262-.058.371 0 .058.031-.06.222 0 .197a.624.624 0 0 0 .343-.337c.076-.205-.37-.243-.4-.28-.01-.014-.004-.023.012-.03-.053-.005-.11-.056-.155-.027-.06.04-.068.127-.085.197-.002.008.015.02.024.026-.095-.052-.2-.095-.281-.167-.016-.014.04-.038.028-.056-.052-.077-.2-.103-.2-.196 0-.072.22-.015.2-.084-.04-.149-.162-.316-.314-.337-.096-.014.012.27-.085.28-.066.007-.108-.054-.142-.124-.032-.017-.066-.032-.087-.016-.145.12.168.313.172.337.011.075-.174.15-.115.196-.113 0-.116.42-.142.31-.052-.22.086-.451.057-.675-.011-.086-.139-.276-.171-.196-.045.11.16.228.114.337-.052.12-.305.322-.343.196-.067-.224.073-.477.2-.673.038-.058.186.124.2.056.024-.12-.023-.313-.143-.337-.103-.02-.039.295-.143.28-.14-.019-.116-.32-.256-.336-.126-.014-.206.396-.257.28-.1-.222-.066-.518.057-.73.067-.115.266-.041.4-.055.266-.028.414.095.684.252.041.024.04.105.086.113.04.006.047-.075.086-.085.167-.039.353-.117.513-.056.079.03-.079.225 0 .253.108.038.215-.083.314-.14.019-.01.008-.054.029-.057.057-.008.115.015.171.028.18.044-.08.165.143.337.3.232.37-.196.6-.196.07 0 .014.19.085.196.177.017.34-.103.514-.14a.302.302 0 0 1 .142 0c.026.007.034.07.057.056.048-.028.092-.086.086-.14-.002-.025-.024-.043-.048-.06-.12-.018-.241-.032-.352-.08-.06-.027-.076-.133-.142-.14-.117-.014-.225.09-.343.083-.06-.003-.157-.053-.143-.112.02-.074.243-.049.2-.112-.186-.275-.43.047-.513.14-.007.007.009.03 0 .028-.069-.01-.133-.041-.2-.056-.104-.023-.208-.052-.314-.056-.153-.006-.315.085-.457.028-.186-.075-.258-.36-.457-.393-.116-.02.2.254.115.337-.082.08-.202-.116-.314-.14-.018-.004-.98.022-.942-.337.06-.56.662-.098.799-.113.08-.008.112-.271.143-.196.043.107-.105.223-.086.337.008.047.124.044.143 0 .044-.104-.106-.298 0-.337.277-.101.586-.037.885-.028a.8.8 0 0 0 .114.393c.019.033.111.038.114 0 .019-.29-.134-.59-.057-.87.026-.094.209.225.257.14.067-.119.007-.331-.115-.393-.191-.097-.411-.1-.63-.11a.055.055 0 0 0 .003-.002c.065-.04-.016-.2.057-.225a1.99 1.99 0 0 1 .856-.084c.075.009.04.185.114.197a.285.285 0 0 0 .208-.06c.015.06.02.118-.008.172-.053.105-.343-.033-.343.084 0 .658.66.018.685.028.077.03.057.13.04.23a.015.015 0 0 0-.011-.005c-.168 0-.412-.011-.485.14-.072.148.037.427.2.45.875.118.547-.505.656-.87.012-.042.106.014.114.055.027.133.024.271.021.41l-.02-.017.02.04c-.003.171-.001.34.065.493.047.112.066-.176.117-.332a.21.21 0 0 0 .054-.004l-.04-.032a.214.214 0 0 1 .011-.025c.014-.022.034.045.058.057.017.008.046-.016.057 0 .052.076.15.167.114.252-.058.136-.352.133-.343.28.009.14.235.23.371.197.127-.03.135-.45.2-.337.09.156.012.382-.086.534-.046.072-.195-.06-.256 0a.1.1 0 0 0-.028.07c.01 0 .019.005.028.014.044.043.025.113.003.184.013.035.049.073.025.097-.014.013-.033.017-.054.016-.004.038 0 .071.026.096.066.065.112-.23.2-.197.117.045.067.266.17.337.14.095.203-.141.286-.168.054-.018.114-.005.171 0 .172.014.214.056.4.056.067 0 .132-.028.2-.028.013 0-.04.035-.029.028.068-.045.177-.062.2-.14.033-.11.049-.296-.057-.337-.091-.036-.016.212-.086.28-.143.141-.412.066-.57.057-.084-.005-.24.057-.257-.085-.047-.369.34.117.485-.28.046-.126-.347-.123-.314-.253.053-.207.273-.388.485-.42.113-.018.094.228.057.336-.023.068-.204.012-.2.084.01.168.06.45.229.45.154 0-.208-.327-.115-.45.079-.103.246.145.371.112.13-.033.166-.221.286-.28.038-.019.015.112.057.112.06 0 .098-.153.143-.112.151.14.266.332.314.533.012.05-.11-.044-.17-.066a1.813 1.813 0 0 0-.173-.187c-.022-.02-.085-.002-.085.028 0 .135.136.27.085.393-.029.071-.128-.138-.2-.112-.062.023-.091.177-.028.197.291.092.62-.001.913.084.066.019-.005.168.057.196.096.044.318.077.314-.028-.01-.251-.169-.491-.342-.673-.055-.058-.101.144-.086.223-.151-.057-.268-.122-.086-.392.051-.074.197-.017.257-.084.034-.038-.083-.097-.057-.14.025-.04.11-.034.143 0 .033.032.021.098 0 .14-.03.06-.198.103-.143.14.172.117.452.023.6.169.075.074-.228.051-.286.14-.148.227.301.512.4.505.094-.006-.06-.315.028-.28.11.043.018.267.114.336.086.062.263.064.314-.028.079-.138-.183-.515-.028-.477.278.069.339.497.6.618.123.057-.24-.34-.115-.393.135-.057.17.277.314.308.084.019-.108-.182-.057-.252.04-.056.181.123.2.056.078-.28-.002-.581.028-.87.018-.163-.048-.494.114-.477.294.03.518.318.685.561.047.067-.12.155-.2.14-.074-.013-.098-.27-.113-.196-.023.114-.017.283.085.337.094.05.252-.04.286-.14.049-.145-.124-.302-.086-.45.016-.064.17-.06.2 0 .086.18-.105.646.085.59.225-.066.003-.547.2-.674a.962.962 0 0 1 .459-.13.11.11 0 0 1-.06-.038c-.11-.141-.244-.45-.085-.533.247-.131.564.046.828.14.068.024-.247.03-.2.084.085.098.245.141.371.112.064-.014-.01-.131 0-.196.001-.01.02.002.029 0 .047-.008.094-.028.142-.028.014 0 .027.015.029.028.008.065-.055.16 0 .196.046.03.04-.11.085-.14.026-.016.057.02.086.028.095.029.19.059.286.084.009.003.02-.004.028 0 .097.044.251.241.285.14.194-.57-.405-.357-.542-.336-.035.005-.118-.014-.114-.056.009-.084.19-.188.114-.225-.085-.042-.145.124-.228.169-.043.022-.103.055-.143.028-.073-.05-.062-.188-.143-.225-.203-.093-.435-.178-.656-.14-.159.027-.11.535-.343.168-.02-.032.018-.075.03-.112.016-.057.025-.11.085-.14.008-.004-.01.03 0 .028.23-.057.538-.01.685-.197.089-.114-.257-.149-.4-.168-.08-.01-.167.03-.228.084-.036.032-.002.1-.029.14-.034.05-.106.065-.143.113-.01.014-.056.252-.057.252-.062.048-.198.129-.228.056-.06-.148.07-.317.057-.477-.004-.054-.031.133-.085.14-.053.008-.062-.122-.115-.112-.046.01-.033.093-.028.14.014.134-.01.3.085.394.082.08.282-.07.343.028.063.1-.003.295-.114.336-.087.032-.027-.281-.114-.252-.137.044-.092.32-.229.365-.124.04-.242-.213-.358-.174.04-.096.036-.23-.041-.247-.233-.05-.474.008-.709.074a.166.166 0 0 0-.005-.018c-.035-.104-.126-.181-.171-.28-.009-.02.038.018.057.027.038.019.073.045.114.056.051.015.127-.006.171-.028.012-.006.016-.024.029-.028a1.08 1.08 0 0 1 .228-.056c.005 0 .064.043.086.028.05-.033.097-.072.143-.112.05-.044.153-.075.142-.14-.015-.092-.106-.197-.2-.197-.066 0 .045.132.03.197-.016.058-.068.103-.115.14-.01.008-.02-.019-.029-.028-.019-.019-.05-.03-.057-.056-.014-.064.047-.15 0-.197-.142-.14-.314-.309-.513-.309-.176 0 .329.164.428.31.052.077.03.207-.029.28-.042.052-.134-.01-.2 0-.009.001.009.024 0 .028-.037.018-.118-.023-.142-.028-.057-.012-.114-.036-.172-.028-.02.003-.025.077-.028.056-.022-.13.058-.294-.029-.393-.053-.06-.127.117-.142.196a.665.665 0 0 0 .028.393c.032.07.264.07.2.113a.796.796 0 0 1-.542.112c-.065-.01.058-.168 0-.197-.103-.05-.268.115-.343.029-.086-.1-.09-.335.029-.393.115-.057.186.204.314.224.088.014.225-.05.228-.14a1.58 1.58 0 0 0-.2-.786c-.042-.077-.199-.122-.257-.056-.108.123-.034.334-.114.477-.035.063-.136.118-.2.084-.027-.014-.041-.04-.05-.07a.036.036 0 0 1-.007.014c-.039.054-.196.067-.2 0-.01-.169.07-.342.172-.477.03-.041.126.104.142.056.02-.057-.053-.14-.114-.14a.288.288 0 0 0-.228.14c-.086.144-.039.365-.134.494-.01-.05-.024-.09-.037-.13-.048-.007-.08.005-.104.027-.018-.047-.038-.091-.068-.11-.116-.075-.263-.136-.4-.113-.07.013-.016.178-.085.197-.239.065-.515.126-.742.028-.103-.045.076-.235.029-.337-.025-.052-.115.016-.172.028-.029.007-.064.007-.085.028-.086.085-.108.27-.229.281-.085.008.027-.231-.057-.253-.267-.067-.558-.032-.827.028-.122.028-.222.126-.328.198l-.1-.057a.11.11 0 0 0 .074.074zm-2.672-4.116c.01-.065-.078-.124-.142-.14l-.006-.001c-.024.075.033.158.118.24a.397.397 0 0 0 .03-.099zm-1.056-.252c-.305-.01-.62.138-.913.056-.112-.031-.128-.229-.086-.337a.72.72 0 0 1 .371-.393c.083-.034.141.158.229.14.067-.013-.01-.18.057-.196.26-.06.542-.069.799 0 .093.025.053.217.143.253.06.024-.058-.228 0-.197.124.068.115.337.257.337.13 0 .086-.401.2-.337.211.12.18.464.342.646.045.05.072-.13.057-.197-.035-.16-.21-.285-.2-.449.005-.076.177-.056.228 0 .057.063-.082.237 0 .253.114.022.182-.146.286-.197.03-.015-.05.051-.057.085-.004.02.019.037.028.056.02.037.074.073.057.112-.039.092-.28.164-.2.225.098.073.226.066.355.057.007.085.022.178-.04.195-.314.083-.746-.29-.97-.056a.14.14 0 0 0-.035.055 4.538 4.538 0 0 0-.908-.111zm2.011-.087a.142.142 0 0 1-.06-.021l.002.025.058-.004zm-.07-.053a.137.137 0 0 1 .014-.029.273.273 0 0 0-.003.061c-.01-.008-.015-.019-.01-.032zm.2-.281c-.03-.09-.191.043-.286.028-.033-.006-.08-.06-.057-.084a.674.674 0 0 1 .343-.197c.16-.027.356-.043.485.056.114.088.067.291.14.411-.017.01-.03.022-.026.038.018.08.214.236.143.197-.163-.09-.45-.597-.742-.253-.056.066.143.253.057.253-.105 0-.097-.27-.193-.254.07-.064.162-.118.136-.195zm.656.252c.07.065.222.043.286-.028.012-.013.011-.033.004-.055l-.261.027a.18.18 0 0 0-.06.018.179.179 0 0 0 .031.038zm.229-.252c.061.007.11.09.153.16l-.092.01c-.024-.075-.12-.177-.061-.17zm.285.252c.03-.03.038-.066.034-.106l-.166.015c.045.074.086.137.132.091zm-.057-.477c.018-.079.16-.21.2-.14.079.138-.035.36 0 .502l-.11.01c-.011-.113-.117-.257-.09-.372zm.257.45c.182.137.47.051.685-.029.04-.015.054-.063.063-.114l-.035.002c-.256.017-.513.033-.77.053a.15.15 0 0 0 .057.087zm.828-.31c.05-.007.03.083.024.157l-.104.01c.014-.075.018-.158.08-.166zm.057.253c.258.022.508-.12.764-.16-.264-.009-.531.038-.797.064-.004.05-.002.093.033.096zm.942-.168c.018.001.03.013.039.031a1.609 1.609 0 0 0-.217-.023.754.754 0 0 1 .178-.008zm.114.252c.12-.01.253-.162.228-.28a.178.178 0 0 0-.01-.033c.142-.009.3-.095.438-.051.14.044.17.285.314.308.099.017.111-.178.2-.224a.424.424 0 0 1 .285-.028c.153.036.274.167.428.196.3.057.617-.014.914.056.053.013-.135.116-.086.14.065.033.16-.143.2-.084.063.094.008.23-.029.337-.009.027-.059-.01-.085 0-.025.01-.054.083-.057.056-.012-.093.09-.21.028-.28-.047-.055-.128.074-.2.084-.018.002.019-.059 0-.056-.071.01-.13.104-.2.084-.179-.052-.317-.363-.485-.28-.181.088.027.478-.142.589-.134.087.077-.358-.029-.477-.082-.093-.265-.037-.37.028-.052.031.2.095.142.112-.137.04-.322.067-.428-.028-.07-.062.162-.174.114-.253-.04-.065-.124.12-.2.113-.126-.014-.215-.169-.342-.169-.226 0-.432.195-.657.169-.045-.006-.035-.073-.027-.136.005.058.013.111.056.107zm-.114-.533c-.07-.03-.168.045-.229 0-.074-.055-.19-.2-.114-.252.2-.14.47-.193.714-.169.092.01.04.196.114.253.076.06.194.09.285.056.132-.05.19-.213.314-.28a.215.215 0 0 1 .2 0c.042.024.036.096.057.14-.048.011-.096.025-.143.028-.028.002-.069-.024-.085 0-.059.082-.021.242-.114.28-.133.055-.294-.006-.429-.056-.1-.037-.149-.196-.256-.196-.076 0 .135.123.114.196-.016.052-.108.093-.175.126-.072-.055-.173-.09-.253-.126zm1.37-.224c.127.055.16.026.169-.03-.06-.028-.129-.015-.198.001a.057.057 0 0 0 .029.029zm.313-.253c.09.02.023.24.115.253.049.006.098.01.148.011-.09.088-.178.203-.291.213-.092.008-.031-.212-.114-.252l-.002-.001c.013-.095-.05-.266.144-.224zm1.256.168a1.77 1.77 0 0 1 .25.018c.008-.034.007-.062-.021-.074-.14-.06-.333-.06-.457.028a.194.194 0 0 0-.047.05c.092-.012.184-.02.275-.022zm-7.703 8.993a.05.05 0 0 1-.032-.012c.014 0 .024.004.032.012zm3.23-3.602a.298.298 0 0 1-.076-.012.885.885 0 0 0 .026-.017zm.586.403c-.085.047-.157.124-.194.016zm.148-.012l-.148.012c.047-.026.098-.042.148-.012zm-1.227-.393c-.057.028-.114.112-.143.197.029.027.057.056.057.14-.242-.048-.01-.299-.023-.424.035.022.07.046.106.067a.068.068 0 0 1 .003.02zm-1.398-5.557c.114-.14.285-.056.342.056 0-.14.2-.308.285-.14-.17.224-.428.337-.628.084zm-4.774-2.468c.097.005.201 0 .235.083zm-.164-.058l.164.058c-.066-.004-.13-.012-.164-.058zm-.4 3.48c.114.028.2-.028.229-.112-.057-.196.028-.337-.086-.533.228-.197.143.477.457.224a.59.59 0 0 0 .028.337c-.228.056-.485.28-.628.084zm.428-1.375c.086.084.286.028.257.28zm-4.395 9.71c.029-.336.2-.083.257.029zm5.023-9.682c-.109.054-.148.04-.2.036zm-.2.036l-.114.02c.052-.02.085-.022.114-.02zm.2.975c.114.028.371-.085.428.112-.192.084.031.215.06.393h-.003a.262.262 0 0 0 .004.003.238.238 0 0 1-.06.193.353.353 0 0 1-.286-.14c.086 0 .114-.056.143-.14-.114-.14-.229.14-.229-.14 0-.113.172.027.229-.141-.143-.084-.2.056-.286-.14zm-.085 1.683c.17.113.028-.28.142-.252-.028.196.086.14.086.28-.029.057-.228.169-.228-.028zm.628-4.63c-.029-.169.114-.113.142-.197-.057.225.172.028.143.197-.114.168-.143-.028-.285 0zm-.828 4.125c-.029-.14.057-.14.086-.196-.029 0-.086 0-.086-.056.028-.056.228-.169.228 0-.142.028-.057.42-.228.252zm.314-.112c.2.028-.057-.168.143-.196.057.084.028.308.085.393-.142 0-.257 0-.228-.197zm-.257-.73c0 .028.029.056.057.056 0-.084 0-.168.086-.14.028.169-.115.45-.2.253.143 0-.114-.225.057-.169zm-.171-.505c-.057.028-.114-.028-.143-.056v-.14c.057.056.143-.197.171 0-.057.028-.057.112-.028.196zm.171 1.718c.017-.09.035-.174.114-.174zm-.143.219l.143-.22c-.019.106-.035.22-.143.22zm-.257-.73c.057-.028.057-.056.057-.14.086.028.143.056.172.14-.029.056-.229.168-.229 0zm2.113.168c.228-.112.313.197.428.057v.196c-.2-.028-.286-.112-.343-.14.029 0 .057 0 .057-.056-.057 0-.143.028-.143-.057zm.456 1.797c.171.056.2-.057.257-.14-.028.196.086.168.057.336-.143 0-.228-.056-.314-.197zm-1.712-2.021c.257-.028.285.252.485.084 0 .084.086.084.057.196-.171 0-.228-.028-.428.057 0-.113-.086-.169-.114-.337zm2.854.056c-.114.056-.228.056-.343-.056zm-8.391 8.7c.085-.28.57-.309.542-.028zm5.797-9.23v-.003c.224.026.169-.196.339-.056.086-.057-.029-.393.143-.337.057.14-.143.224 0 .28.057 0 .028-.112.085-.14-.057.225.2.28.2.197 0-.028.029-.057.057-.057-.085.419-.649.283-.824.116zm1.452-1.322c-.057-.31.114.112.086-.197.028.056.342.056.228.14-.171-.056-.2.113-.314.057zm-1.142.14c.057-.028.057-.056.057-.14-.313.056-.599-.028-.827-.14.314-.057.485-.197.799.084-.029-.085-.029-.169.057-.197 0 .168.171.14.285.14 0 .197-.285.337-.37.253zm2.883-2.077c-.057.197.057.253-.114.337 0-.14-.086-.168-.086-.337zm-.342 1.993c.2.028.456-.028.485.196zm-.657.337a.22.22 0 0 0-.143.056c-.085-.225.143-.253.086-.534-.114-.028-.171 0-.228.057-.029-.253.2-.14.228-.281-.028 0-.086 0-.086-.056.229-.112.086.337.286.252 0 .281-.285.169-.143.506zm-22.945-3.053c.094.074.243-.039.14.162zm-.03-.035l.03.035a.13.13 0 0 1-.03-.035zm3.053-1.066c-.114-.225-.4.084-.285-.309.114.253.171-.056.342-.112-.2.28.086.253-.057.42zm.457.084c-.057.14-.143.197-.2.112 0-.14.114-.168.2-.28.171.196.228.224.37.42-.142-.027-.456.085-.37-.252zm-.2-1.375c.143 0 .285 0 .228.196zm-.171 3.424c.257.14.828.14.856.533zm1.826-1.347c.057-.169.057-.337.086-.477.114.112.057.336.057.533zm1.123 6.225c.05.028.111.048.048.174zm-.038-.135l.038.135c-.041-.022-.076-.048-.038-.135zm-2.14-7.24c.085-.394-.115-.225.2-.366.056-.168-.2.056-.058-.196.086.028.171.084.171.168-.085.197-.17.337-.314.393zm.742 4.433c.028-.084.028-.14.028-.196.342-.028.485.28.285.477-.057-.14.029-.14 0-.225l-.085-.028c-.086.113.028.281-.086.253.057-.168-.142.14-.2.056.029-.112.143-.14.086-.196-.4.224-.514-.253-.8-.337.087-.084.144-.337.258-.253.143.028-.171.14-.029.197.086-.056.172-.225.314-.084-.142.168-.114.224-.057.336.086-.056.228.085.285 0zm-.914-.112c-.086-.168-.2-.056-.342 0-.057-.252.057-.309.085-.617.057.196.4.028.457.28-.114.085-.257-.028-.371.056.029.197.257.085.171.281zm1.181-1.384c.118.038.265-.06.218.15zm-.068-.047l.068.047a.143.143 0 0 1-.068-.047zm-2.825-.477c.085-.169.2-.337.114-.393-.114.056-.371-.028-.2-.253.228-.056.257.169.4.225 0-.028.028-.056.057-.028-.257.112-.114.533-.371.449zm.856-1.095c-.057 0-.114.14-.171.225-.114-.028.028-.225.057-.337.057.028.143.028.114.112zm.085-2.526c-.142.225.115.225.115.365a.41.41 0 0 0-.171.056c-.058-.084-.143-.337.056-.42zm-.428 3.649c-.057-.197-.37 0-.142-.365.2.084.37.056.428.14-.086.056-.2.084-.286.225zm2.027-2.077c.086-.112.143-.253.228-.197l-.114.253zm3.14 6.174c-.086.056-.172.028-.286 0zm-.857-2.105c.057-.14 0-.196-.028-.28h-.057c.114-.14.37-.113.4-.056-.058.196-.2.168-.315.336zm-.085-.28s-.029 0-.029.028v-.028h.029zm.342-.674c.114.028.143-.168.257-.14 0 .14.086.224.086.365-.172-.056-.314-.113-.343-.225zm-2.369.028c.029-.252-.085-.112-.114-.056.029-.196-.2-.196-.228-.084.057-.337-.514-.056-.314-.421.4.252.941.196 1.227.645-.257.028-.343-.252-.57-.084zm2.712-1.712c.142 0-.143.309-.2.421.085-.337-.2-.112-.257-.309.114-.196.228-.224.371-.224-.029.28-.171-.028-.2.224.086.057.171.029.228-.056-.028-.028-.028-.056 0-.14.172 0 .457-.14.4.196-.057-.028-.228-.224-.342-.112zm-.358 5.281c.133.039.334.024.358.164zm-.07-.033l.07.033a.227.227 0 0 1-.07-.033zm.17-2.862c.086.112.229-.028.172.252zm-1.284-3.368c.114.028.057.196-.028.365zm.537.892c-.1-.038-.364.048-.194-.19zm.034.034l-.034-.034c.017.007.03.017.034.034zm-1.113 1.937c.086-.113.114-.085.285-.169.143.225.8.28 1.085.309-.057.168-.029.253 0 .337-.314 0-.8-.225-1.028-.477-.142.28-.228-.113-.342 0zm.2-2.218c.028-.168-.171.029-.114-.196.114.056.17-.084.285-.084-.057.112-.114.112-.143.224 0 0 0 .056-.028.056zm.999-.673c.143 0-.171-.14.028-.197-.028.14.143.113.114.253-.028 0-.17.112-.142-.056zm-.2-.084c.057-.056.2-.028.143.14zm14.128 5.837c0-.14.029-.196.143-.196.028.056 0 .14.057.14.057-.028.086-.112.086.056-.143-.056-.2.14-.286 0zM9.133 20.315c.257-.169.029-.197.2-.365.143-.056.086.084.086.168-.114.113-.2.197-.286.197zm-1.598 5.753c.086-.028.371.056.2.225zm-.334-4.027c.083-.116.108-.267.248-.267zm-.066.07l.066-.07a.337.337 0 0 1-.066.07zm2.797 10.075c-.085.225-.342.113-.2-.084zm-.376-7.712c.068-.087.137-.185.205-.202zm-.137.135l.137-.135a.48.48 0 0 1-.137.135zm.342 1.29c.057-.196.371-.027.2.113zm-2.483 5.754c-.086.056-.314-.056-.228-.224zm2.769-6.286c-.057-.113.2-.618.285-.45zm-4.13 6.716c.124.04.3-.028.277.16zm-.066-.037l.065.038a.157.157 0 0 1-.065-.038zm.314.28c.143-.055.314.141.342.281zm-3.958-2.81c.208.215.618.398.476.678zm-.095-.136l.095.136a.442.442 0 0 1-.095-.136zm4.71 2.61c.057-.028.313.168.37.28-.17.141-.2-.28-.313-.027-.086-.028-.086-.085-.115-.14zm-.03 1.487c-.227 0-.085-.42-.256-.14-.057-.337-.428-.28-.457-.59.143-.111.143.31.314.029.114.309.486.365.4.701zm.058.085c.228-.393.485.252.143.224-.086-.14.2-.112.085-.252-.085-.028-.142.112-.228.028zm7.535-4.66c-.2.029-.228-.055-.457-.111zm-.529 2.032c.103.07.41.028.3.242zm-.013-.01l.013.01a.092.092 0 0 1-.013-.01zm.513-3.116c-.028.084-.085.169-.028.197l.171.056c0-.169.057-.112.086-.337.085.28.57.14.742.365-.257-.056-.086.196-.029.196.229.057.143.057.343.197.285.196.77.196.77.393-.513 0-1.056-.253-1.54-.421-.515-.197-.943-.365-1.228-.646.2 0 .457.337.713 0zm.4.169c-.086.028-.228.084-.171.224zm-1.17.308c.085-.084.285-.14.171.14-.257-.196-.028.197-.2.197.029-.084-.057-.084-.028-.168.114.028-.029-.112.057-.169zm3.34-.982c.085 0 .342-.084.285.225-.115-.085-.143.056-.257-.028 0-.113-.029-.14-.029-.197zm.17 1.909a.895.895 0 0 1-.656-.281zm-5.137-4.21c.171.056-.143.365-.2.337zm-1.513 7.521c.114.028.057.14.086.197.143.028.2-.056.171.14-.086-.028-.171.056-.285 0 .028-.112-.029-.196.028-.337zm-.057-.814c.228.14.571.225.6.45zm8.306-4.883c-.171-.028-.542.056-.571-.225.257.057.371.029.6.029-.03.084.028.112-.03.196zm-2.14.954c.085-.028.484-.056.284.112zm-4.282-1.656c.114-.14.342.085.342-.196.057.645.571.224.97.561-.113.365.086.393.143.59-.4.056-.485-.421-.884-.337.028-.112.142-.112.085-.169-.228.225-.257-.168-.456-.224-.115 0-.229.14-.343.196 0-.168-.143-.252-.285-.308.142-.31.285-.225.428-.225.057.028-.029.112 0 .112zm-.6.028c.086-.196.058-.112.172-.28zm-.342-.112c.086-.252.314-.112.143.084zm16.697 4.49c.257.085.4-.028.514.169-.172.084-.343.14-.543.168zm.457-.14c.057-.252-.229-.084-.172-.337.114-.14.314-.056.486-.056-.03.084 0 .14.028.197-.143.056-.2 0-.343.196zm-.813-1.095c.127-.012.258-.141.213.057zm-.1-.027l.1.027a.137.137 0 0 1-.1-.027zm1.426-1.572c.029.28-.542.225-.514.056-.057 0-.028.14-.085.14-.029-.056 0-.224-.114-.196 0 .112.057.168 0 .196 0-.168-.114-.168-.171-.084.028-.168-.143-.14-.058-.393.226.14.48-.107.568.214-.043-.185.232-.155.232-.045-.057-.028-.2.14-.086.14.171-.056.285-.196.542-.168-.085.336.057.14.086.393-.228.056-.171-.253-.4-.253zm-2.597 1.235l-.029.252c-.085-.056-.256-.056-.256-.224.114 0 .142-.112.285-.028zm.001-.632c-.158.035-.296.169-.315-.098zm.227.07l-.227-.07a.218.218 0 0 1 .227.07zm-.513-1.824c.228.085.485-.308.57.113-.142.028-.2-.028-.4.028.115-.253-.313.056-.17-.14zm-1.513 11.507c0 .14-.029.309-.143.309zm.4-7.269c-.314-.084-.257.253-.2.45-.4.252-.057-.618-.457-.534.143-.393.628.028.656.084zm1.34-.702c-.456-.589-1.055-.14-1.626-.477.057-.336.228-.084.343-.084.485.056 1.056.056 1.455.14-.085-.14-.114-.477 0-.73.057.281.628.338.685.197.029.225.114.365-.085.45.057-.253-.543-.366-.543-.029.057.281.514.14.685.113-.114.308-.028.505-.228.645.171-.28-.171-.253-.057-.477-.057-.028-.057-.056-.086-.084-.085.337-.4-.028-.4.365-.028-.085-.056-.14-.085-.197-.029.14.114.225-.057.168zm.23-1.908c.085-.449.399 0 .484-.42-.028.252-.057.224.029.392-.2-.056-.314-.084-.514.028zm2.768-.59c.028-.055.314-.28.228-.112-.057 0-.028.197-.085.197.028-.197-.143.168-.143-.084zm-1.627 2.498c-.029-.224.171-.084.114-.336.228-.028.257.196.371.28-.086.085-.314-.028-.257.31-.2.055-.028-.338-.228-.254zm-1.227-2.75c-.057.028-.115.084-.115.197-.114-.113-.314-.113-.37-.31.285.253.57.057.742-.28.028.197.057.084.17.084-.056.281.258.337.343.225-.028-.056-.171-.028-.114-.196.314.14.6.589.8.112-.058-.028-.144 0-.144-.084.115-.057.229-.028.314.084-.17-.028 0 .112 0 .196-.17-.084-.142.169-.142.337-.143-.084-.114.084-.2.112-.029-.112-.143-.112-.2-.224-.085.308-.285.112-.257-.084-.142.056-.628.056-.827-.169zm3.368-.252c.085-.478-.628-.421-.771-.814.2.084.685.028.999.168-.057.337-.029.758-.228.646zm-3.483-1.18c.229-.055.286.45.4.029.114 0 .114.112.257.084-.114.45-.542.225-.657-.112zm1.085.141c.314-.028.57-.056.685.309zm-.285-.028c.057-.084.257-.084.257.084zm2.055.786c.028.28.314-.056.4.224-.457.169-.828-.364-.914.169-.029-.225-.057-.421-.2-.477-.485.393-1.427.056-1.77-.169.4.056.8-.056 1.057.197 0-.14.057-.225.142-.197.428.281.942-.252 1.456.197-.029.224-.171-.169-.171.056zm-.029-1.88c.143-.253.485.112.656-.169-.028.084 0 .14.029.197-.228.196-.457.056-.685-.028zm.742 4.378h.2c-.029.112-.029.28-.114.337.057-.225-.114-.14-.086-.337zm-5.594 9.177c.086-.084.285.028.371.112zm.285-10.637c.115 0 .172.056.2.169zm.714-1.46c-.029-.336.314-.083.171.029zm.542.197c-.057-.252-.085-.028-.143.057-.057-.169.03-.225.086-.337-.114 0-.2 0-.2-.14.172.112.371 0 .257.168.057 0 .086-.084.143-.112.086.112-.057.14.028.196.115.056.086-.14.143-.196.114 0 .114.112.257.084-.057.337-.428-.028-.57.28zm.114.478c.029.028.029.028.029.084-.343-.084-.4-.197-.714 0 0-.197.086-.169.086-.337.228.056.285.112.485-.028-.028.196-.028.309.114.28zm.314.645c.143.028.086.168.057.337zm-1.113-1.852c.057 0 .4-.169.457.112zm.605.003c.09.048.336-.083.28.165zm-.005-.003l.005.003a.065.065 0 0 1-.005-.003zm-5.928-.47c.172.054.475.126.59.217zm-.095-.035l.095.035a.746.746 0 0 1-.095-.035zm2.912 1.038c0 .028 0 .084-.115.056.057-.168.029-.253-.085-.224-.029.252-.057.168-.057.392-.057.085-.143.057-.257.029-.057-.45-.542-.393-.885-.45 0-.224.143-.028.143-.252-.029-.028-.057-.028-.057-.084.17.14.314.028.456.028 0 .112-.057.252 0 .28.143-.084.143.113.229-.028-.057 0-.086-.056-.086-.14.057 0 .086-.112.143-.112.142.28.628.028.656.533zm-.657 2.694c.057.028.143.084.143.169-.114-.056-.029.364-.143.308.057-.196-.228-.056-.143-.28 0-.113.115-.028.143-.113-.028 0-.057 0 0-.084zm1.199 4.996c.028-.112.057-.225.143-.253 0 .14.228.056.17.225-.056.056-.17.056-.313.028zm.419-6.346c-.167-.046-.306.139-.362-.11zm.009.003l-.01-.003a.21.21 0 0 1 .01.003zM23.49 33c-.2.028-.229-.112-.428-.112 0-.252.228-.14.37-.14-.028.112.115.084.058.252zm-1.656.926c.314-.084.77.365.857 0-.229-.14-.486.14-.628-.224.4-.028.742.14 1.113.28-.2.113.057.225.057.337-.514.253-.685-.112-1.256-.112-.114-.112 0-.14-.057-.224 0 .112-.057.028-.086-.056zm1.2.253c.085-.225-.258-.168-.286-.112zm-2.07-8.421c.153.014.305-.048.385.17zm-.186-.083l.187.083a.288.288 0 0 1-.187-.083zm.914-.505c-.029-.252.228-.224.228-.084zm-3.368-.73c.028-.364.428-.224.37-.028zm.314.814c.085.085-.143.197-.057.337-.086-.084-.2-.337 0-.42-.057-.057-.057-.17-.143-.197-.029.14-.086.112-.143.168.143-.084.228.084.086.168-.029-.056-.172.057-.172-.196.03 0 .058-.084.086-.168.286-.085.856-.028.742.28-.057-.084-.228-.168-.4.028zm1.37 1.993c-.114-.028-.029-.28 0-.477zm1.883.954c-.085-.112-.2.253-.228 0l.086.028.057-.252c.057 0 .085.056.114.084zm-.2.28c.03.197.115-.14.2-.027-.085.168.058.14.029.28-.228-.112-.029.14-.171.169a.212.212 0 0 0-.057-.14c0 .028-.029.084-.057.056.057-.113-.058-.281.057-.337zm-.684-1.038c0-.252-.058.197-.115.113-.142-.14-.256-.056-.513-.197.028-.084 0-.14 0-.196.2-.253.57.28.6-.197.17-.084.17.085.342 0-.058.253 0 .45.142.505.086-.28.143.029.314-.084-.085.28.2.28.286.197-.257.337-.714-.084-1-.056.143-.14.03-.45-.113-.281-.029.084.228.14.057.196zm3.14-.645c-.086.14.085.253-.03.253 0-.197-.114.196-.17-.029.028-.14.057-.308.2-.224zm-.349-.963c-.172-.27-.481-.134-.65-.356.142.028.77-.028.77.196-.138-.081-.17.074-.12.16zm.006.009zm-.172 1.094c-.285-.056-.542-.028-.685-.252zm.3 3.775c-.032.019-.068.028-.1-.014zm.1.014l-.1-.014c.055-.032.1-.091.1.014zm-.057-4.63c.114.027.171.14.257.027-.114.393.2-.028.228.225-.143.056-.514.084-.485-.253zm-1.354 6.61c.12.024.298-.027.298.097zm-.045-.015l.045.014a.186.186 0 0 1-.045-.014zm2.797-6.512c-.028 0-.057.113-.057.197-.228 0-.085.224-.256.309.057 0 0 .112.057.14.057.028.057-.112.114-.112 0 .084.057.084.114.084-.2.365 0 .337-.228.449-.2-.253-.486-.168-.514-.533.4.028.514-.477.542-.674.029.197.2-.112.228.14zm-2.854 6.96c-.142.562-.085.197-.257-.027zm-.257-1.711c.029.168.115.224.257.168 0 .112.057.168.057.28-.228-.027-.314-.14-.57-.14.057-.168.17-.224.256-.308zm-.02-.685c.097-.019.199-.108.22.04zm-.094-.017l.093.017a.114.114 0 0 1-.093-.017zm0 2.582a.143.143 0 0 1-.02-.085zm-.02-.085l-.065-.28c.183.045.072.163.065.28zm-.001-5.526c.2.051.508-.083.62.166zm-.007-.002l.007.002a.315.315 0 0 1-.007-.002zm.122 4.823c.074.035.196.051.22.145zm-.037-.024l.037.024a.136.136 0 0 1-.037-.024zm-.057-3.873c0-.028.029-.084.057-.056 0 .112.086.056.143.028-.029.084 0 .14 0 .197-.114.112-.086-.029-.228-.029 0-.028 0-.084.028-.14zm-3.535 7.929c-.134-.058-.455.026-.375-.21zm.025.014l-.025-.014a.122.122 0 0 1 .025.014zm1.17-7.915c0 .309.257-.14.285.197-.057 0-.085.056-.114.112-.086-.056-.342-.197-.171-.309zm-1.541 0c.057-.196.142-.365.285-.393zm2.968 2.47l-.029.196c-.085-.056-.2-.168-.314-.056.057-.224.229-.112.343-.14zm-1.027 5.838c.028-.169.142-.14.228-.14 0 .083.057.083.028.196zm1.255 1.852c-.114.084-.257-.084-.314-.197zm-.171-1.656c-.314.084-.57.028-.742-.197zm.029.898l.2-.168c0-.084-.086-.056-.086-.14.257-.057.057.28.285.252 0 .224-.2.168-.257.309 0-.113-.171-.056-.142-.253zm-2.227-7.016c-.2.028-.4.393-.542.056zm-.628-1.965c-.114-.028-.17-.084-.114-.252zm1.342 7.69c.086-.112.457-.028.342.196zm.4-2.245c.028.196.028.393.028.617zm.913-4.294c.171.28.57.028.6.505-.543-.253-1.143-.309-1.942-.505.371-.421 1.085.449 1.342 0zm.314 4.659c.085-.056.342.028.285.252-.086-.028-.114 0-.171.028 0-.084.028-.168-.029-.196-.028.084-.085 0-.085-.084zm-3.197 3.564l-.057.196c-.285-.252-.656.028-.913-.336.37-.14.513.224.97.14zm-.842-9.234c.113.041.242.078.328.197zm-.185-.112l.185.112a.407.407 0 0 1-.185-.112zm0 9.206c-.057.056-.172.056-.286 0zm-.885-5.906c.183.091.54.053.513.293zm-.029-.016l.029.016a.278.278 0 0 1-.029-.016zm.343-1.824c.057-.197 0-.421.2-.365zm2.968 6.034c-.029.14.029.168 0 .28-.342-.168-.656-.028-.742-.364.171-.057.428.056.742.084zm.397 1.896c-.124-.036-.34 0-.34-.128zm.031.012l-.031-.012a.196.196 0 0 1 .031.012zm-3.51-.224c-.172 0-.229.252-.428.224-.03-.168.028-.112.028-.337.143-.084.371.056.4.113zm2.246-.579c.097.042.232.045.123.242zm-.077-.151l.077.151c-.055-.024-.098-.06-.077-.151zm-.628-6.567c-.114-.028-.114-.169-.171-.253.142-.028.257 0 .314.14-.057 0-.086.056-.143.113zm.642 7.788c-.036.042-.071.084-.157.042zm.157-.042l-.157.042c.036-.042.071-.085.157-.042zm1.305-.506a.165.165 0 0 1-.078 0zm.265 0h-.265c.072-.015.136-.063.265 0zm6.736-1.15c.057 0 .057-.056.114-.056 0 .365.4-.113.4.224-.143.14-.457 0-.571-.084.057 0 .085 0 .057-.084zm.77 1.6c-.114.112-.314.028-.37-.085zm-.028-1.404c.085-.14.456 0 .57.169zm-.314.702l.028-.253c.257.309.628-.112.828.309-.4.112-.457-.14-.856-.056zm-.2-.253v.197c-.428-.14-.714.084-1.085-.337.286-.056.628.112 1.085.14zm-.143.926c-.143.113-.4 0-.428-.168zm3.653-1.459c0 .168.03.253.058.337-.343.224-.514-.365-.685-.084 0-.14-.029-.225-.086-.281-.029.084-.314-.028-.371-.084.485.028.714-.14 1.085.112zm.314 1.516c0 .084.086.084.058.196-.257.309-.771-.056-1.114-.084.2-.421.657.084 1.056-.112zm-1.232-3.413c-.102-.006-.252.046-.252-.067zm.062.017l-.062-.017a.126.126 0 0 1 .062.017zm.714 4.743c-.143.14-.228-.169-.314-.281zm-4.538-1.46c-.029-.42.37-.252.314.028zm3.767-.056c.029.056 0 .14.057.14 0-.084.086-.056.057.057-.142-.028-.114.14-.228.14-.057-.084-.057-.365.114-.337zm-7.82-4.097c-.143.056-.485.028-.286-.169zm1.684 1.571c-.143 0-.143-.112-.114-.28zm-.4-.112c.029-.084-.028-.084-.028-.196l.142.028-.028.196c-.086-.084-.2.169-.2-.028zm-.085-1.6c.313.085.513-.449.827-.112-.085 0-.085.084-.171.056 0 .084.057.084.029.197-.314-.169-.628.28-.685-.14zm-.115 4.014c-.2-.056-.628.112-.456-.197zm14.3-8.84c.057.196.2-.085.228-.141-.057-.169-.285.056-.143.14zm-12.387 9.373c.2.056.428.056.456.28-.085.113-.256-.056-.485-.028zm.942 0c-.143-.028-.314 0-.314-.169zm.513-4.238c-.114.084-.428.056-.456-.112zm-2.483-5.136c.171-.112.428-.168.485.056zm.913 9.402h-.028c-.2.28-.485.028-.714 0 .143-.196.657-.168.742 0zm-.17-.28c0-.225.17-.31.056-.478.371.14.628.028 1 .225-.258.28-.315.056-.657.028-.086.084-.057.309-.143.393-.143 0-.171-.113-.257-.169zm-14.7-3.565c.257.14.286.168.571.253-.057.112-.114.196-.171.224-.086-.28-.514-.112-.4-.477zm-1.455.28c-.115-.112-.485-.112-.314-.308zM5.88 33.17c.4.337.542.196.884.533a.447.447 0 0 0-.085.253c-.057 0-.114-.057-.143 0-.029-.562-.428-.113-.685-.646-.2.197.029.253.029.393-.115-.028-.172-.112-.2-.197zm2.055-3.003c-.286-.169-.6-.337-.714-.59.257.056.514.365.828.421zm.314-8.588c-.115.112-.229.196-.314.168zm-.6 13.05c-.2-.084-1.113-.196-.885-.561zm-.685.617c.2-.168-.114-.336.143-.336-.057.224.143-.112.085-.169.2.169-.028.281-.057.59zm1.227-15.239c.115.084-.085.253-.17.393zm1.399 12.04c-.114-.028-.029.197-.2.14.029-.336-.37-.224-.4-.505.257.14.514.28.6.365zm-.371 2.582c-.086-.028-.2-.112-.086-.112.143.168.143.056.229.196-.086.169-.172.14-.286.169-.028-.169.029-.084.143-.253zM8.39 19.276l.2-.196c.057.112.086.168.257.14-.057.056-.086.113-.114.169-.086-.113-.2-.197-.343-.113zm.6 11.872c.21 0 .311.136.475.253zm.475.253l.21.112a.846.846 0 0 1-.21-.112zm-.219 4.827c-.17-.056-.2-.421-.028-.45 0 .113-.086.253.114.281zm-.659-13.002a.129.129 0 0 1-.054-.02zm.174.064l-.174-.064c.067.009.13-.025.174.064zm-7.078 5.922c-.314-.281-.628-.562-.714-.814zm-.171 2.217c-.143-.169-.457.028-.229-.281zm-.77-2.245c-.058.084-.087.14-.058.196l-.228-.196c.114-.085.599-.169.428.112zm.77-1.01a.176.176 0 0 0 0-.17c-.057.029-.143-.027-.086-.083.114.112.228-.113.343.112-.115.084-.2.14-.257.14zm14.756 8.054c-.2-.028-.314-.14-.314-.309zM3.31 29.94c-.057-.224-.4-.028-.286-.393.143-.084.257.169.4.225zm1.455 2.414c.029-.028.058-.112.115-.084-.229.252.256.308.057.533-.2-.028-.314-.28-.371-.477.085.028.142.112.2.028zM3.71 30.25c-.114-.084-.285-.168-.17-.309zm-.884 1.515c-.029-.028-.086-.084 0-.168-.057-.056-.115.028-.172-.056.115-.225.371.112.172.225zm-.742-1.01c.256.112.57.365.97.646zm2.854 2.386c-.114-.056-.2.084-.314-.056a.34.34 0 0 0 .114-.253c.143.084.228.168.2.309zM.426 29.602c-.204-.146-.426-.264-.426-.53zm.316.395l-.316-.395c.139.1.27.213.316.395zm13.215 1.497c.162.035.391.002.37.243zm-.143-.093l.143.093c-.065-.014-.119-.038-.143-.093zm.714-1.235c.114-.225-.229-.028-.143-.28.2.027.314.14.371.364zm-.143 4.294c-.114.056-.343 0-.285-.169zm-1.57 1.908c.176-.043.291.017.423.078zm.423.078l.49.09a.821.821 0 0 1-.49-.09zm.29-1.257c-.285.028-.542-.168-.713-.252zm-.485-6.483c.058-.112.315.028.257.113zm.286 5.36c.086.029.172.064.258.1zm.258.1l.256.097a3.84 3.84 0 0 1-.256-.097zm1.711-2.008c.2-.056.229.085.4-.084-.057.14.028.225-.114.309-.057-.112-.286-.112-.286-.225zm.657-1.908c-.171-.028-.229 0-.229-.225zm-.942-1.403l.257.084-.086.196c-.114-.196-.257.197-.485-.028.029-.337.342.028.314-.252zm.485 7.072c-.171.056-.4-.028-.371-.252zm-.314-5.136c-.143-.056-.171-.224-.057-.309zm-2.968 6.09c-.143-.056-.343-.084-.286-.252zm18.951.702c0-.225-.285-.45 0-.477.029.084 0 .196.057.196h.115c.085-.168-.057-.224.057-.336.028.196.171-.113.2.14-.058 0-.115 0-.115.056.257.028.172.168.371 0-.142.225-.028.393-.17.477-.172.056-.372-.28-.515-.056zM10.79 32.804c.057-.028.142 0 .257.056-.029.14-.115.225-.2.197.085-.14-.086-.14-.057-.253zm-.885 2.666c.143-.056.342.14.4.253zm1.798-2.273l-.086.196c-.342 0-.57-.14-.485-.505.257.028.314.084.571.309zM10.59 36.2c-.171.028-.2-.028-.2-.225zm.6-.534c.142.029.285 0 .456.113zm.998-2.076c-.171-.113-.456-.056-.428-.337zm-1.883 2.441a2.682 2.682 0 0 1-1.085-.56zm1.255-9.261c.029.028.314-.112.172.168zm.457.224c.4.085.8.281 1.313.646.114-.14 0-.365.171-.28-.028.14-.057.308-.085.476-.257-.168-.543-.252-.8-.365-.256-.112-.513-.224-.599-.477zm-.656 6.652c.142.028.256.028.256.196zm9.304-4.322c-.114-.14.171-.169.057-.253-.143.253-.171-.337-.342-.084.085 0 .17.056.142.168-.142-.084-.37-.084-.4-.28.058 0 .058-.113.087-.197.2.14.256-.168.142-.252.171.112.428.561.6.336-.172-.028-.172-.196-.257-.308.085 0 .17.028.17-.112-.17-.14-.227-.057-.256-.31-.2.506-.343 0-.6-.055-.313-.056-.656.112-.799-.337-.285.337-.742-.28-1.198.028.114-.253-.114.028-.057-.14.142-.085-.229-.253 0-.421.114.168.228.28.37.112.229.59.886-.028 1.085.42.172 0 .314-.027.457-.027.029.084-.029.252.057.28.114-.308.114 0 .257.057.143-.31.97-.085.999.14.086.028.086-.168.2-.084.085.14.257.42.085.645.029-.14 0-.224-.085-.224-.057.252-.114 0-.172.224.143-.112.314.084.2.169.029-.113-.171-.028-.2.028.115.056.172.168.286.196.2-.42.285.168.57-.365 0 .113.115.14.03.337-.115.056-.258.084-.286.365-.514-.169-.685-.28-1.142-.056zm29.927-4.157c.096-.062.19-.134.127-.025zm-.158.031l.158-.03c-.078.05-.158.093-.158.03zm2.426-.028c0-.252-.257-.056-.285-.28.114 0 .314-.14.37 0-.114.028.03.28-.085.28zm8.82 15.941c-.143.084-.172-.084-.257.056 0-.112-.058-.14-.086-.196.143-.028.314-.084.342.14zm-8.42-16.362c.142.028.085-.196.257-.168 0 .365-.03.14.114.393-.086.084-.143.028-.314.112 0-.197 0-.14-.057-.337zm-2.34.309c.113 0 .199.056.256.168zm25.63 12.713l.04-.264c.06.02.138.018.196-.006.029.175-.138.484-.236.27zm-14.842 2.975c.143-.084.086-.056.257-.056zm15.755-2.975c-.034-.1-.069-.192-.066-.26.02.023.043.044.066.064a.166.166 0 0 0 .123.03c-.041.058-.009.166-.123.166zM64.96 40.27l-.257.056c-.057-.14.028-.14.057-.224-.228-.169.2-.028.2.168zM37.903 27.78c-.171-.028-.257-.168-.342-.309zm.086-1.01c-.057.168-.228.14-.371.028zm1.113 0c.057-.14.343-.028.428.028zm-2.312 1.122c.029 0 .057 0 .057-.056-.057-.056-.314-.14-.2-.252.115.028.4.477.143.308zm.57-.449c-.227 0 .115.365-.113.393-.086-.196-.171-.112-.257-.196.057 0 .057-.14.085-.197.115.028.372-.196.286 0zm-.541.14c-.057-.168.2-.28.228-.14zm12.53-2.469c.142.168.342-.196.342.084.057-.14.2-.196.314-.252.114.196.228-.057.314.168-.428.14-.742.196-.914.196.172-.028-.2-.084-.057-.196zm-13.272 2.357c-.115.057-.343.253-.371-.056zm.114-.056c.028-.028.37-.112.37.113zm-.2-.084c-.029-.14-.114-.168-.114-.337h.228c-.114.365.4.085.257.253-.171 0-.257.056-.371.084zm.57 1.32c0-.197-.113-.197-.256-.197zm9.134-3.004c0-.337-.2.169-.285-.112.114-.112.17-.28.4-.253-.03.113.028.365-.115.365zm.514-.196c0-.225.171-.225.285-.309zm-2.14 0c.113-.028.142.14.17.252zm4.594.42c.115.029.229.113.314.17zm.343-.757a.215.215 0 0 1-.018.013zm-.018.013l-.325.24c-.027-.352.158-.13.325-.24zm-10.257.24c-.114.056-.257.14-.457.14zm-.77.364c0-.196-.258-.392-.372-.196.057.028.086.028.086.14-.114.028-.286-.14-.457.028.029 0 .057.028 0 .057 0-.14-.114-.113-.143-.253.372-.225.514-.056.942-.253-.085.169.086.393-.057.477zm.998 1.376c.057.336-.285.168-.456.224.057-.252-.172-.365-.029-.673.143-.028.2.028.257.112-.057.056-.2.084-.228.196.142 0 .2.169.285.253-.057-.197.114-.112.171-.112zm1.056-1.488c.172 0 .115-.28.257-.28.029.168-.085.196-.057.392-.085 0-.143-.028-.2-.112zm-1.141-.14c.228-.225.57-.309.827-.309-.028.197-.342.028-.314.28.286.029.514-.336.743-.168-.229.085-.4.31-.771.31-.057-.422-.286-.141-.485-.113zm.399 8.49a.878.878 0 0 1-.2-.099zm.2.098l-.2-.099c.071.029.143.057.2.099zm21.406 7.128c-.114-.28.229-.28.257-.056zm-21.406-7.69c0-.028-.029-.084-.057-.056-.2 0-.2.197-.228.281-.029-.084-.086-.112-.115-.196.143-.169.058-.393.115-.674.114-.028.114.112.257.056.057.225-.172.112-.143.28.028.113.257.281.171.31zm-4.196 5.698c0-.028.057-.085.057 0-.057.028-.057.056-.057.14h-.142c0-.196-.086-.14 0-.28.085 0 .085.112.142.14zm.2-.646c.057.197.172.112.172.253 0-.028 0-.056.057-.056.057.252-.286.056-.314.196-.115-.14-.029-.365.085-.393zm-.742.59v.196c-.342-.056-.799.084-.999-.168.286-.225.657-.028 1-.028zM33.48 36.76a6.188 6.188 0 0 1-.04.08.359.359 0 0 1 .04-.08zm-.041.08c-.104.288.334.46.098.537-.028-.056 0-.14-.057-.14-.057.028-.085.084-.114.14 0 .14.143.14.2.253-.171.056-.228-.084-.4-.056.05-.322.168-.535.273-.735zm-.872.594a.173.173 0 0 1 .039-.017c-.006.017-.022.017-.039.017zm.039-.017c.003-.012.001-.032-.01-.068-.115.028-.143-.056-.143-.196.314 0 .37.112.57-.056.058.112.086.224.115.393-.131 0-.382-.118-.532-.073zm.532 1.813c-.143.028-.114-.169-.2-.253h.2zm3.34-.533c0-.169-.086-.113 0-.253.37.168.684 0 .998.168-.086.169-.171.028-.257.14.086 0 .171.029.2.113-.4.168-.97.084-1.513.056 0-.252.4-.224.571-.224zm4.88-4.435c.085.169.028.14.085.337-.057 0-.17.028-.2-.056.172-.056-.057-.196.115-.28zm-.286.59c-.228-.113-.17-.814.057-.477zm-1.084-1.684c-.143.084-.229.056-.314-.112.082-.02.09-.143.153-.2.032.088.052.185.104.143a.218.218 0 0 0 .037-.04c.012.055.02.12.02.209zm12.216 6.82c.071 0 .138-.045.2-.082.07.018.142.03.215.038-.023.025-.04.056-.016.128-.142.056-.314.056-.4-.084zm.2-.082a.876.876 0 0 1-.429-.227c-.115-.12.265-.224.428-.253.07-.012.524.135.743.076-.053.078-.1.213-.172.261-.028.019-.047-.117-.057-.084-.026.09.094.28 0 .28-.096 0-.197-.003-.298-.015l.013-.013c-.067-.114-.143-.076-.229-.025zm-.058.503c-.057.084-.257.084-.285-.113zm1.541.14c-.085.028-.2.028-.142.168.085-.028.342.084.228.169-.057-.14-.114.14-.257.112-.057-.253-.285-.169-.428-.28a.647.647 0 0 1 .6-.17zm6.88.28c-.058.085-.172.085-.315.113-.028-.14-.086-.14-.114-.253.057-.112.314 0 .428.14zm-1.856.14c.143-.027.228.085.314.141zm-1.77-.42c-.057 0-.142 0-.142.084.114.028.599-.112.456.112-.142-.168-.485.113-.57-.112.114-.084.142-.393.256-.084zm-.228-.45c.057-.083.314-.083.342.141zm-20.407-.168c-.229 0-.486 0-.571-.196zm22.093.897h-.006.006zm0 0l.512-.027c-.047.116-.404.041-.512.027zm-19.5-1.816c-.118.026-.244.148-.224-.119zm.147.078l-.147-.078c.056-.012.11-.003.147.078zm1.998.392l.006.002zm.006.002l.536.11c-.309.028-.397-.08-.536-.11zm-.834-.479c-.2.056-.143.056-.343.169-.085-.056-.17-.084-.17-.253.256.084.427-.14.513.084zm-3.282.955c-.172.084-.429.056-.486-.197zm.886-.994c-.097-.003-.401.112-.401-.157zm.027.011l-.027-.01c.014 0 .023.003.027.01zm10.026.546c-.08.082-.116.23-.236.072zm.135-.04l-.135.04c.034-.034.076-.057.135-.04zm-2.255-.562c.014-.055.028-.097.042-.138.112-.03.22-.078.329-.127a1.8 1.8 0 0 1 .143.013l.028.196c-.2.056-.285.14-.428-.028 0 .224-.314.28-.4.112.08 0 .013-.142.046-.187.013.01.026.019.04.026.055.058.127.086.2.133zm-13.272.112c-.428.169-.942.028-1.256-.14zm16.098.983c0 .084.028.168-.029.196-.143-.112-.314-.084-.428-.028.057-.28.257-.14.457-.168zm1.227-.225c-.029 0-.057-.028 0-.056.114.225.485-.028.57.196-.228.113-.485.028-.627.028.057-.028.057-.084.057-.168zm-15.962-10.81l-.07.093h-.037c.012-.038.033-.082.057-.088a.233.233 0 0 1 .05-.005zm11.024-1.595c-.008.03.068.004.086.028a.036.036 0 0 1 .006.025c.078-.036.203.018.25-.053.035-.05-.121-.055-.142-.112a.334.334 0 0 1-.019-.122c-.045.06-.161.164-.18.234zm.428.28c.02 0 .039.004.057 0 .048-.006.097-.012.143-.027.013-.004.015-.028.029-.028.013 0 .025.015.028.028a.166.166 0 0 1 .002.054c.006-.003.025.01.027.002.028-.11.133-.252.057-.337-.067-.073-.228.004-.286.084-.041.059.066.128.086.197.003.009-.02-.002-.029 0-.047.008-.094.023-.142.028l-.019.002c.015.002.032-.002.047-.002zm.229.197c-.005.009-.003.02 0 .028.016.057.006.137.057.169.073.046.218.105.257.028.037-.073-.136-.09-.2-.14a.478.478 0 0 1-.086-.085c-.005-.007 0-.018 0-.028-.002.013-.022.017-.028.028zm-.114-.617c.035.012-.051-.028-.108-.064a.366.366 0 0 0 .107.064zm35.26 7.007c-.01.01-.018.015-.012.01a.947.947 0 0 1 .012-.01zm-23.015 5.534l-.001.032c0 .014-.035.04-.029.028l.03-.06zm-2.77.257c.05-.023.137-.122.086-.14-.126-.046-.29.103-.4.027-.069-.047.188-.183.114-.224-.096-.055-.266.012-.314.112-.04.088.195.171.143.253a.078.078 0 0 1-.011.014c.132-.006.29-.001.382-.042zm-1.748.278a.677.677 0 0 1-.269.108.769.769 0 0 1 .162-.134.199.199 0 0 1 .107.026zm-.735.536c-.09-.148.227-.28.257-.45.027-.152-.389-.228 0-.364.66-.232-.127.378.086.393.04.002.081 0 .124-.007-.184.173-.454.448-.467.428zm-3.614-1.674c.031-.08.052-.177.104-.235.325-.365.09 0-.104.235zm-.118.129c-.05.046-.08.054-.062-.015a.073.073 0 0 0 .062.015zm-10.967-1.29c-.033-.065-.01.121-.036.222.03-.079.065-.166.036-.222zm-2.94-1.656c.04.013.08.031.115.056.007.006-.003.02 0 .028.006.02.013.042.028.056.034.034.08.052.114.085.015.014.008.056.029.056.027 0 .035-.042.057-.056.008-.006.019 0 .029 0 .019 0 .04-.009.057 0 .008.004-.007.021 0 .028.006.006.025-.01.028 0 .01.026.015.06 0 .084-.045.074-.154.111-.171.196-.01.05.094-.072.143-.056.057.02.055.129.114.14.038.008-.002-.088.028-.112.03-.023.076 0 .114 0 .01 0 .022-.006.029 0 .007.007-.01.027 0 .028.113.019.229.017.342.028.067.007.133.029.2.029.03 0 .057-.021.086-.028.01-.003.024-.009.028 0 .055.09.04.26.143.28.083.016-.079-.282 0-.252.127.046.095.314.228.336.104.017-.082-.207-.057-.308.012-.046.075.058.115.084.058.038.165.054.2.112.043.074-.021.214.056.253.062.03-.005-.17.057-.197.186-.08.401-.05.6-.084.02-.004.037-.036.057-.028.056.023.088.139.143.112.06-.029.005-.134.028-.196.008-.02.04-.017.057-.028.011-.008.02-.038.029-.028.077.085.086.264.2.28.083.012-.084-.265 0-.252.159.024.21.29.37.308.092.011.036-.204.115-.252.045-.028.096.062.114.112.032.088-.064.295.029.28.158-.023.259-.2.342-.336.02-.034-.073-.046-.086-.084-.01-.028.002-.098.029-.085.103.051.143.156.171.253.011.037.033.074.029.112-.006.06-.09.119-.057.169.037.058.133.075.2.056.036-.01 0-.075 0-.112v-.028c0-.028-.006-.057 0-.085.004-.02.035-.036.028-.056-.007-.02-.049-.008-.057-.028-.023-.052-.02-.112-.029-.168 0-.01-.009-.03 0-.028.116.01.23.028.343.056.009.002-.008.023 0 .028.044.026.098.031.143.056.023.013.038.037.057.056.019.019.042.034.057.056.005.008-.009.024 0 .028.017.009.038-.001.057 0 .219.018.438.029.656.056.01.002-.007.035 0 .029.04-.035.075-.076.11-.116-.072-.1-.02-.315-.138-.361-.105-.042.127.283.028.336-.176.095-.441.095-.6-.028-.055-.043-.037-.114-.008-.19-.027-.055-.037-.176-.077-.147-.067.05.01.17 0 .253 0 .01-.02.004-.028 0-.03-.015-.056-.04-.086-.056-.056-.03-.122-.044-.171-.084-.077-.064-.105-.194-.2-.225-.054-.018.065.124.029.169-.03.037-.114.01-.143-.028-.058-.08-.016-.213-.086-.281-.036-.036-.023.102-.057.14a.242.242 0 0 1-.143.084c-.033.004-.07-.025-.085-.056-.044-.087-.016-.212-.086-.28-.036-.036-.102.087-.142.056-.074-.056-.08-.167-.115-.253-.003-.009-.009-.028 0-.028.022 0 .04.015.057.028.032.025.049.099.086.084.047-.018.067-.09.057-.14a1.16 1.16 0 0 0-.171-.45c-.023-.032-.08.045-.086.085-.015.102.029.205.029.309 0 .013-.02.017-.029.028-.039.051-.085.097-.057.168.038.098.092.19.143.28a.09.09 0 0 0 .028.029c.056.04.119.069.172.112.007.006 0 .019 0 .028 0 .038.02.082 0 .113-.012.017-.04-.041-.057-.028-.034.024-.017.102-.057.112-.033.008-.037-.057-.058-.084-.008-.011-.024-.016-.028-.028-.006-.018.014-.044 0-.057-.181-.16-.34-.376-.57-.449-.086-.026-.08.163-.144.225-.02.02-.057-.007-.085 0-.013.003-.023.016-.029.028-.023.045-.04.092-.057.14-.003.01.01.025 0 .028-.226.074-.448.218-.685.197-.086-.008.132-.21.057-.253-.133-.074-.305.01-.456.028-.01.001.009.03 0 .028-.042-.01-.09-.02-.115-.056-.02-.03.03-.089 0-.112-.089-.072-.202-.165-.314-.14-.066.014.048.129.057.196.002.01-.019-.003-.028 0-.02.007-.038.019-.057.028-.02.01-.044.045-.057.028-.038-.046-.001-.15-.057-.168-.051-.017-.068.085-.114.112-.012.007-.028-.015-.029-.028-.012-.107.092-.535-.314-.225-.054.042.047.13.057.197.002.01-.019 0-.028 0-.02 0-.039.003-.057 0-.04-.006-.097.007-.115-.028-.021-.043.005-.099.029-.14.026-.047.131-.062.114-.113-.178-.524-.22-.01-.228 0-.018.022-.08.028-.086 0-.028-.137-.048-.289 0-.42.034-.094.156.06.2.055.135-.016.277-.144.4-.084.106.052.026.257.114.337.078.072.208.072.314.056.034-.005.033-.056.046-.092-.161-.133-.247-.378-.446-.441-.17-.054-.337.156-.514.14-.075-.007-.042-.173-.114-.196-.048-.016-.009.124-.057.14-.066.022-.136-.083-.2-.056-.043.018-.01.095 0 .14.038.162.102.317.143.477.003.013-.02-.018-.029-.028-.01-.009-.028-.014-.028-.028 0-.01.033.009.028 0-.078-.135-.117-.32-.257-.393-.104-.053-.319-.03-.342.085-.021.104.248-.028.314.056.047.06-.057.146-.114.196a.161.161 0 0 1-.017.013c.033-.012.074-.022.103-.013zm5.195.477c.001-.02-.02-.037-.029-.056-.02-.046-.057-.09-.057-.14 0-.02.056.019.057 0 .01-.112.017-.234-.028-.337-.02-.047-.092-.056-.143-.056-.026 0-.062.03-.057.056.017.082.082.147.114.225.035.082.055.169.086.252.007.02.026.035.029.056.002.02.008.045.014.069a.295.295 0 0 0 .014-.069zm-3.482-.617c.012-.006.017-.022.028-.028a2.9 2.9 0 0 1 .235-.114l-.035.002c-.01 0-.028.009-.028 0 0-.076.074-.165.028-.225-.04-.053-.161-.054-.2 0-.07.1-.022.247-.057.365-.006.02-.037.02-.057.028a.346.346 0 0 0 .086-.028zm.428-.056c.015.006.055.024.106.043-.025-.027-.05-.058-.077-.071a.838.838 0 0 0-.172-.056c.05.024.093.06.143.084zm.457.084c.056-.063.038-.178 0-.253-.023-.045-.01.125-.057.14a.203.203 0 0 1-.144-.01.19.19 0 0 1-.05.117c.103.03.212.049.25.006zm-3.087.363l.004.002a.058.058 0 0 1-.004-.002zm-.567-.25c.065.022.08.131.058.196-.032.087-.112.228-.2.196-.091-.032-.026-.246-.083-.297.068 0 .153-.122.225-.096zm5.168-1.414c.07.084.134.174.198.263.067.091-.212-.14-.228-.253-.003-.018.01-.018.03-.01zm.455.12c.047.019.097.036.143.058.046.023-.133-.006-.143-.056v-.001zm4.082-1.12c-.054-.004.157.081.114.112a.43.43 0 0 1-.128.06c.177-.006.358-.002.527-.032-.176-.023-.336-.128-.513-.14zm-1.215-.118a.177.177 0 0 1-.07.09.038.038 0 0 1-.007.002.128.128 0 0 1 .077-.092zm-.07.398c0 .012.004.028.01.046-.094-.18-.213-.352-.238-.551-.012-.097.132.227.221.2-.022.087.007.213.007.305zm.01.046c.017.031.033.063.047.094.016.036-.026-.036-.046-.094zm-.69-.617c.01.046.006.108-.033.122-.065.024-.267-.038-.2-.056.077-.02.155-.043.233-.066zm-1.375-.972c-.03-.03.015.032.044.097a.188.188 0 0 0-.044-.097zm-4.695.065c.054.089.114.175.1.271a.132.132 0 0 1-.05.081c-.024-.1-.078-.206-.064-.305a.17.17 0 0 1 .014-.047zm.425.865c.029.028-.006.178-.011.136a.495.495 0 0 1 .01-.136zm-1.295.5c0-.037.152 0 .114 0a1.887 1.887 0 0 1-.114 0zm-.628-.87c-.145-.026-.461.033-.429-.111.038-.165.318-.158.486-.14.068.006.03.133.057.196.004.009.02-.004.028 0 .04.016.08.064.117.083a2.033 2.033 0 0 1-.26-.027zm-5.48-1.487c-.078 0 .008.128.039.23.002-.1.036-.23-.04-.23zm-1.893-.356a.41.41 0 0 1 .086.164c-.057-.034-.11-.074-.106-.116a.098.098 0 0 1 .02-.048zm.209.272a.429.429 0 0 1-.25-.013c.08.001.139-.022.127-.095.086.05.184.09.123.108zm-.25-.013c-.16-.002-.411-.104-.35-.099.118.009.235.065.35.1zm20.668-4.834c-.053.08-.105.16-.175.218a1.975 1.975 0 0 0-.046-.052c.043-.121.165-.316.22-.166zm5.812 12.669c.028-.042.058-.067.094-.057a.167.167 0 0 1-.094.057zm-4.275-.19c.033-.029.075-.075.118-.128-.025.065-.057.118-.118.129zM34.338 33.28l.052.003c-.017.009-.034.006-.052-.003zm2.341.707c-.09-.006-.139-.079-.182-.16v-.025l.195.15a.417.417 0 0 0-.013.035zm-1.116-4.383a.716.716 0 0 0 .078.146c.053-.15.005-.206-.086-.211a.167.167 0 0 0 .008.065zm6.222-2.16c-.027-.004-.017.029-.007.065.176.027.351.054.523.029-.153-.068-.35-.074-.516-.095zm0 .14c-.007.017-.044-.014-.057 0-.021.02-.002.07-.029.084-.027.013-.076 0-.085-.028-.015-.042.012-.103.022-.151l.142.02c.007.027.014.056.007.075zm-.685.196c.078.084.312-.138.342-.028.038.136-.123.382-.257.337-.217-.074-.28-.391-.445-.545.123-.015.247-.036.37-.051-.057.084-.073.22-.01.287zm-.485-.309c-.084-.023-.154.028-.223.096.116.003.231-.008.348-.023a.304.304 0 0 0-.125-.073zm-1.97.506c.042.02.086.026.133.023a.238.238 0 0 0-.079-.094c-.056.028-.095.05-.054.07zm-3.539.28c-.026.008-.038.029-.043.056.012-.02.03-.04.05-.057l-.007.001zm3.194 1.43a.047.047 0 0 0 .031.03c.102.03.212.016.321.002a1.136 1.136 0 0 0-.352-.032zm.402.226c.127.01.455-.109.343-.168-.117-.062-.255-.043-.393-.026.054.027-.015.19.05.194zm-2.026 1.01c.006-.012.042-.029.028-.028-.096.01-.381.067-.285.057.086-.01.172-.018.257-.029zm4.167.422c.002-.014.029-.042.029-.029 0 .023-.029.048-.034.067a.463.463 0 0 1 .005-.038zm-.057-.478c-.053.195.455.198.171.337-.025.013-.057 0-.085 0-.01 0-.023.007-.029 0-.072-.08-.287-.19-.2-.252a1.1 1.1 0 0 1 .143-.085zm.402-.122l.003.006c.082.062.17.122.249.188.048-.088.102-.17.03-.184a.97.97 0 0 0-.282-.01zm.197.347c.004.06.054.14.115.14.054 0 .117-.095.085-.14a.847.847 0 0 0-.145-.153c-.03.054-.057.11-.055.153zm.428-.87c0 .008.002.017.004.027l-.003-.033a.03.03 0 0 0 0 .006zm-.256-.056c-.084.041.153.115.2.196.013.023-.04.036-.058.056-.021.027-.033.06-.057.085-.015.014-.045.045-.057.028-.075-.112-.056-.296-.171-.365-.07-.042-.233.066-.2.14.077.17.275.257.428.365.024.017-.034-.055-.028-.084.005-.026.042-.034.057-.056.023-.035.035-.077.057-.113.02-.032.075-.047.085-.084-.1-.022-.165-.214-.256-.168zm.993-.903a.304.304 0 0 1-.023.005c-.01.001.035.006.028 0a.135.135 0 0 0-.005-.005zm-.736.953c.002-.01.007-.022 0-.022a.34.34 0 0 0 0 .022zm0 .118c.028.006.011-.045.003-.085a.23.23 0 0 1-.004.085zm-3.33-2.242c.013.029.016.072.02.114.006-.051.01-.1-.02-.114z"/></g></g></svg>