<svg xmlns="http://www.w3.org/2000/svg" width="24" height="24" viewBox="0 0 24 24"><g><g><g/><g><path fill="#c02524" d="M24 11.989v.8h-2.8a.4.4 0 0 1-.384-.29l-1.215-4.253-1.216 4.254a.4.4 0 0 1-.384.29H16.25c-1.464 2.93-3.7 7.498-3.848 8.038a.4.4 0 0 1-.8-.034V5.114l-3.233 7.435a.4.4 0 0 1-.367.24H5.571a2.8 2.8 0 1 1 0-.8h2.17l3.894-8.959a.4.4 0 0 1 .767.16v15.66c.668-1.443 1.748-3.656 3.24-6.64a.4.4 0 0 1 .36-.221h1.697l1.517-5.31a.4.4 0 0 1 .769 0l1.517 5.31zm-19.197.4a2 2 0 1 0-4 0 2 2 0 0 0 4 0z"/></g></g></g></svg>