<svg xmlns="http://www.w3.org/2000/svg" width="48" height="49" viewBox="0 0 48 49"><g><g><g/><g><path fill="#c02524" d="M46.716 24.536a.747.747 0 0 1 .312.19.77.77 0 0 1 .209.687c-.125.67-3.176 16.484-13.094 22.715a.738.738 0 0 1-.786 0c-9.918-6.231-12.969-22.045-13.094-22.715a.782.782 0 0 1 .21-.687.747.747 0 0 1 .674-.207c6.994 1.43 11.989-4.29 12.039-4.348a.752.752 0 0 1 .563-.261.737.737 0 0 1 .565.26c.05.057 5.07 5.775 12.039 4.349a.735.735 0 0 1 .363.017zm-6.901 10.688c.298 0 .584-.12.795-.336a1.16 1.16 0 0 0 .33-.812 1.16 1.16 0 0 0-.33-.813 1.113 1.113 0 0 0-.795-.336H34.94V27.95a1.16 1.16 0 0 0-.33-.813 1.113 1.113 0 0 0-.795-.336c-.298 0-.585.121-.796.336-.21.216-.33.508-.33.813v4.977h-4.874c-.299 0-.585.121-.796.336a1.16 1.16 0 0 0-.33.813c0 .304.12.596.33.812.211.215.497.336.796.336h4.875v4.978c0 .304.118.596.33.812.21.215.496.336.795.336.298 0 .584-.12.795-.336a1.16 1.16 0 0 0 .33-.813v-4.977z"/></g><g><g><path d="M15.75 9.95h3v3.063c0 .203.079.398.22.542a.742.742 0 0 0 1.06 0 .774.774 0 0 0 .22-.542V9.95h3c.199 0 .39-.08.53-.224a.774.774 0 0 0 0-1.083.742.742 0 0 0-.53-.224h-3V5.356a.774.774 0 0 0-.22-.542.742.742 0 0 0-1.06 0 .774.774 0 0 0-.22.542v3.063h-3c-.199 0-.39.08-.53.224a.774.774 0 0 0 0 1.083c.14.144.331.224.53.224z"/></g><g><path d="M36 9.959a2.23 2.23 0 0 1 1.59.674c.422.43.66 1.014.66 1.623V36.76c0 .61-.238 1.193-.66 1.624a2.23 2.23 0 0 1-1.59.673H3a2.23 2.23 0 0 1-1.59-.673 2.324 2.324 0 0 1-.66-1.624V12.256c0-.609.238-1.193.66-1.623A2.23 2.23 0 0 1 3 9.959h8.25V3.067c0-.609.238-1.193.66-1.623A2.23 2.23 0 0 1 13.5.77h12a2.23 2.23 0 0 1 1.59.674c.422.43.66 1.014.66 1.623V9.96zm-23.25 5.36c0 .203.08.398.22.541.14.144.331.225.53.225h12c.199 0 .39-.081.53-.225a.775.775 0 0 0 .22-.54V3.066a.775.775 0 0 0-.22-.541.743.743 0 0 0-.53-.225h-12c-.199 0-.39.081-.53.225a.775.775 0 0 0-.22.541zm6 22.207v-7.658h-4.5v7.658zm6 0v-7.658h-4.5v7.658zm12-25.27a.775.775 0 0 0-.22-.541.743.743 0 0 0-.53-.225h-8.25v3.83c0 .608-.238 1.192-.66 1.623a2.23 2.23 0 0 1-1.59.673h-12a2.23 2.23 0 0 1-1.59-.673 2.325 2.325 0 0 1-.66-1.624V11.49H3c-.199 0-.39.081-.53.225a.775.775 0 0 0-.22.541V36.76c0 .203.08.398.22.541.14.144.331.225.53.225h9.75v-8.423a.781.781 0 0 1 .22-.542.75.75 0 0 1 .53-.224h12a.736.736 0 0 1 .53.224.767.767 0 0 1 .22.542v8.423H36c.199 0 .39-.081.53-.225a.775.775 0 0 0 .22-.54z"/></g><g><path d="M27 19.91a.736.736 0 0 1 .53.224.768.768 0 0 1 .22.542v4.594a.782.782 0 0 1-.22.542.75.75 0 0 1-.53.224H12a.736.736 0 0 1-.53-.224.767.767 0 0 1-.22-.542v-4.594a.78.78 0 0 1 .22-.542.749.749 0 0 1 .53-.224zm-.75 1.531h-13.5v3.063h13.5z"/></g><g><path d="M34.5 13.02h-3.75c-.199 0-.39.08-.53.224a.774.774 0 0 0 0 1.083c.14.144.331.224.53.224h3.75c.199 0 .39-.08.53-.224a.774.774 0 0 0 0-1.083.742.742 0 0 0-.53-.224z"/></g><g><path d="M34.5 19.14h-3.75c-.199 0-.39.08-.53.224a.774.774 0 0 0 0 1.083c.14.144.331.224.53.224h3.75c.199 0 .39-.08.53-.224a.774.774 0 0 0 0-1.083.742.742 0 0 0-.53-.224z"/></g><g><path d="M34.5 25.27h-3.75c-.199 0-.39.08-.53.224a.774.774 0 0 0 0 1.083c.14.144.331.224.53.224h3.75c.199 0 .39-.08.53-.224a.774.774 0 0 0 0-1.083.742.742 0 0 0-.53-.224z"/></g><g><path d="M34.5 31.4h-3.75c-.199 0-.39.08-.53.224a.774.774 0 0 0 0 1.083c.14.144.331.224.53.224h3.75c.199 0 .39-.08.53-.224a.774.774 0 0 0 0-1.083.742.742 0 0 0-.53-.224z"/></g><g><path d="M8.25 13.02H4.5c-.199 0-.39.08-.53.224a.774.774 0 0 0 0 1.083c.14.144.331.224.53.224h3.75c.199 0 .39-.08.53-.224a.774.774 0 0 0 0-1.083.742.742 0 0 0-.53-.224z"/></g><g><path d="M8.25 19.14H4.5c-.199 0-.39.08-.53.224a.774.774 0 0 0 0 1.083c.14.144.331.224.53.224h3.75c.199 0 .39-.08.53-.224a.774.774 0 0 0 0-1.083.742.742 0 0 0-.53-.224z"/></g><g><path d="M8.25 25.27H4.5c-.199 0-.39.08-.53.224a.774.774 0 0 0 0 1.083c.14.144.331.224.53.224h3.75c.199 0 .39-.08.53-.224a.774.774 0 0 0 0-1.083.742.742 0 0 0-.53-.224z"/></g><g><path d="M8.25 31.4H4.5c-.199 0-.39.08-.53.224a.774.774 0 0 0 0 1.083c.14.144.331.224.53.224h3.75c.199 0 .39-.08.53-.224a.774.774 0 0 0 0-1.083.742.742 0 0 0-.53-.224z"/></g></g></g></g></svg>