<svg xmlns="http://www.w3.org/2000/svg" width="24" height="24" viewBox="0 0 24 24"><g><g><g/><g><g><path fill="#c02524" d="M19.783 14.81c.776 0 1.407.63 1.407 1.406 0 .776-.631 1.407-1.407 1.407h-4.617a1.408 1.408 0 0 1 0-2.813zm0 2.11a.704.704 0 0 0 0-1.407h-4.617a.704.704 0 0 0 0 1.406h4.617z"/></g><g><path fill="#c02524" d="M22.242 3.56H1.758A1.76 1.76 0 0 0 0 5.318v4.219a.352.352 0 0 0 .703 0v-4.22c0-.58.473-1.054 1.055-1.054h20.484c.582 0 1.055.473 1.055 1.055v13.36c0 .58-.473 1.054-1.055 1.054H1.758a1.056 1.056 0 0 1-1.055-1.055v-7.734a.352.352 0 0 0-.703 0v7.734c0 .97.789 1.758 1.758 1.758h20.484A1.76 1.76 0 0 0 24 18.677V5.317a1.76 1.76 0 0 0-1.758-1.757z"/></g><g><path fill="#c02524" d="M2.81 11.652c0-.195.157-.352.352-.352h17.671c.195 0 .352.157.352.352v1.406a.352.352 0 0 1-.352.351H3.162a.352.352 0 0 1-.352-.351zm.703 1.054h16.969v-.703H3.513z"/></g><g><path fill="#c02524" d="M3.162 14.813h8.836a.352.352 0 0 0 0-.703H3.162a.352.352 0 0 0 0 .703z"/></g><g><path fill="#c02524" d="M3.865 10.599A1.056 1.056 0 0 1 2.81 9.544v-2.11c0-.58.473-1.054 1.055-1.054H7.38c.582 0 1.055.473 1.055 1.055v2.11c0 .58-.473 1.054-1.055 1.054zm-.352-1.055c0 .194.158.352.352.352H7.38a.352.352 0 0 0 .352-.352v-2.11a.352.352 0 0 0-.352-.35H3.865a.352.352 0 0 0-.352.35z"/></g></g></g></g></svg>