<svg xmlns="http://www.w3.org/2000/svg" width="87" height="55" viewBox="0 0 87 55"><g><g><g/><g><g><g><path fill="#c02524" d="M72.014 44.67l-.036-.006a.977.977 0 0 0-.322 1.926l.035.006a.977.977 0 0 0 .322-1.926z"/></g></g></g><g><g><g><path fill="#c02524" d="M53.146 45.466a.977.977 0 0 0-1.125-.802l-.035.006a.977.977 0 0 0 .322 1.926l.036-.006a.977.977 0 0 0 .802-1.124z"/></g></g></g><g><g><g><path fill="#c02524" d="M76.56 31.694c-.264.533-1.594 2.718-1.99 3.256 2.251-.322 5.174.125 8.798 2.325a.977.977 0 0 1 .192 1.517c-.213.217-5.027 5.092-9.783 5.092-.239 0-.477-.013-.715-.039-1.92-.207-3.515-1.237-4.744-3.06a31.242 31.242 0 0 1-3.69 2.076c1.109.366 2.269.698 3.479.995a.977.977 0 0 1-.466 1.897 45.903 45.903 0 0 1-5.64-1.758 45.892 45.892 0 0 1-5.642 1.758.977.977 0 0 1-.466-1.897 46.34 46.34 0 0 0 3.48-.995 31.244 31.244 0 0 1-3.691-2.076c-1.229 1.823-2.823 2.853-4.744 3.06a6.616 6.616 0 0 1-.714.039c-4.757 0-9.571-4.875-9.783-5.092a.976.976 0 0 1 .191-1.517c3.624-2.2 6.547-2.647 8.8-2.325-.398-.538-1.728-2.723-1.993-3.256-.88.45-1.756.674-2.621.674a5.1 5.1 0 0 1-1.736-.308c-3.934-1.414-5.948-7.343-6.032-7.594a.976.976 0 0 1 .843-1.282c3.03-.262 5.503.232 7.364 1.468a27.358 27.358 0 0 1-.275-2.836h-.047c-1.356 0-2.52-.44-3.472-1.315-2.828-2.598-2.574-8.177-2.562-8.413a.977.977 0 0 1 1.302-.87c2.708.96 4.332 2.302 5.3 3.632.13-.67.26-1.207.36-1.585-.777-1.13-1.051-2.334-.817-3.586.665-3.554 5.378-6.071 5.578-6.177a.976.976 0 0 1 1.403.63c.715 2.882.486 5.285-.68 7.14-1.156 1.837-2.904 2.572-3.679 2.82a27.793 27.793 0 0 0-.73 5.14c2.14-2.512 5.44-3.984 5.48-3.996a.977.977 0 0 1 1.239.751c.67 3.49.25 6.338-1.247 8.465-1.494 2.122-3.627 2.865-4.513 3.093.067.223 1.242 3.27 1.867 4.354.8-3.933 4.949-7.38 5.144-7.54a.977.977 0 0 1 1.505.342c1.55 3.324 1.85 6.291.89 8.819-.724 1.912-2.016 3.132-2.97 3.818a26.043 26.043 0 0 0 4.445 3.025c-.293-.662-.489-1.397-.489-2.179 0-3.052 2.987-5.397 3.114-5.495a.977.977 0 0 1 1.194 0c.128.098 3.114 2.443 3.114 5.496 0 .78-.196 1.516-.489 2.179a26.042 26.042 0 0 0 4.444-3.026c-.953-.686-2.245-1.906-2.97-3.818-.958-2.528-.659-5.495.89-8.82a.977.977 0 0 1 1.506-.341c.195.16 4.343 3.607 5.144 7.54.625-1.083 1.8-4.13 1.867-4.354-.886-.227-3.019-.97-4.513-3.093-1.498-2.126-1.917-4.974-1.247-8.465a.977.977 0 0 1 1.238-.751c.041.012 3.34 1.484 5.482 3.996a27.8 27.8 0 0 0-.73-5.14c-.775-.248-2.523-.983-3.68-2.82-1.166-1.855-1.395-4.257-.68-7.14a.976.976 0 0 1 1.403-.63c.2.106 4.913 2.623 5.578 6.177.235 1.252-.04 2.455-.816 3.586.099.378.228.916.358 1.585.97-1.33 2.593-2.672 5.301-3.632a.977.977 0 0 1 1.302.87c.012.236.266 5.815-2.562 8.413-.952.874-2.116 1.315-3.471 1.315h-.048a27.35 27.35 0 0 1-.275 2.836c1.86-1.236 4.334-1.73 7.365-1.468a.976.976 0 0 1 .842 1.282c-.084.251-2.098 6.18-6.032 7.594a5.102 5.102 0 0 1-1.736.309c-.865 0-1.74-.225-2.621-.675zm2.509-11.832c.859-.002 1.564-.265 2.144-.797 1.34-1.228 1.796-3.717 1.912-5.458-4.076 1.962-4.215 4.959-4.056 6.255zm-1.633 10.086c.992.51 1.92.598 2.822.274 1.995-.717 3.548-3.352 4.355-5.153h-.04c-2.443 0-4.224.742-5.595 1.896-.92.776-1.516 2.805-1.542 2.983zm-.401-19.907c-.303-1.63-2.077-3.179-3.425-4.106-.237 1.74-.004 3.182.697 4.297.67 1.063 1.641 1.609 2.25 1.862l.021-.011c.437-.672.587-1.344.457-2.042zm-36.16 3.566c.116 1.74.572 4.23 1.912 5.458.58.532 1.286.795 2.145.797.158-1.292.022-4.291-4.057-6.255zm5.69 16.341c-.027-.178-.254-.954-.302-1.099a5.48 5.48 0 0 0-1.241-1.884c-1.274-1.26-3.152-1.897-5.594-1.897h-.039c.81 1.804 2.367 4.442 4.356 5.155.901.323 1.828.234 2.82-.275zm.861-17.859a.505.505 0 0 1 .013.007c.612-.255 1.598-.807 2.269-1.888.69-1.112.918-2.545.682-4.273-1.348.927-3.122 2.476-3.425 4.106-.13.7.02 1.375.461 2.048zm.32 13.465c.754-.248 2.117-.862 3.085-2.251.984-1.414 1.355-3.3 1.108-5.621-1.731 1.024-4.325 2.891-4.745 5.046-.217 1.114.23 2.317.552 2.826zm6.178 14.338c-.207-.32-1.76-2.224-3.56-2.724-2.226-.62-4.737-.35-7.578 1.132 1.609 1.392 4.988 3.924 7.945 3.603 1.27-.138 2.318-.798 3.193-2.011zm1.564-7.092c.638-1.708.53-3.73-.321-6.025-1.352 1.343-3.667 3.97-3.583 6.456.052 1.544 1.244 2.698 1.286 2.738.709-.45 1.978-1.455 2.618-3.17zm8.27 5.384c0-1.407-1.06-2.704-1.758-3.405-.698.701-1.758 1.998-1.758 3.405 0 1.398 1.062 2.7 1.76 3.404.697-.701 1.756-1.997 1.756-3.404zm7.372-2.215a5.498 5.498 0 0 0 .245-.247c.686-.743 1.028-1.564 1.041-2.49.036-2.487-2.23-5.114-3.583-6.457-.85 2.295-.96 4.317-.321 6.025.64 1.713 1.908 2.718 2.618 3.17zm2.506 1.199c-1.577.513-3.353 2.403-3.56 2.724.876 1.215 1.926 1.874 3.196 2.012 2.77.3 6.115-2.014 7.95-3.6-2.845-1.485-5.386-1.851-7.586-1.136zm2.615-11.61c.324-.51.772-1.976.555-2.83-.54-2.128-3.014-4.022-4.745-5.046-.249 2.333.128 4.228 1.125 5.645.977 1.387 2.32 1.99 3.065 2.23z"/></g></g></g></g><g opacity=".3"><path fill="#c12d30" d="M31.424 48.448c.029 0 .057 0 .057.043-.085 0 .114.37-.142.305.057-.152.028-.196-.057-.305.057 0 .057-.065.142-.043zm0 1.719c.143.022.257.087.457.152-.143-.13.086-.087.143-.152 0 .24.114-.13.2.043-.143.349-.857.11-.8-.043zm.543.87c.17.044.257-.021.37-.043.03.109.058.218.143.305-.2-.066-.542 0-.513-.261zm-6.622-.63c0-.088-.057-.11-.029-.218.143-.044.143.087.257.065 0 .152-.085.174-.228.152zm5.794 0c.143 0 .257.043.314.108zm3.082-2.155c.058 0 .115-.087.143 0-.085.065-.257.043-.285.152-.086-.13-.115-.087-.057-.261.142-.065.114.065.2.109zm-1.855 2.611c-.028-.152-.057-.043-.2-.043v-.152c.143-.022.086.108.2.108.029-.043 0-.108.057-.108 0 .065.086.065.057.152-.057 0-.085.043-.114.043zm-1.598-2.11c-.143-.11-.514 0-.542-.218.17-.044.114.087.2.109-.03-.218.285-.131.399-.088-.114 0 .057.131-.057.196zm5.737-.61c.028 0 .085 0 .085-.044-.057-.021 0-.087.057-.108.029.065.086.13.115.195-.058.066-.2.022-.257-.043zm-4.624 1.24c.086-.283.428-.021.6 0zm-3.939-1.85c-.143-.021-.314.131-.342-.065zm4.167 1.437c0-.152-.2-.13-.228-.261.143-.044.228.022.342.043-.028.11-.057.174-.114.218zm-.142.522c.142 0 .085-.087.2 0v.11c-.086.086-.058 0-.2 0zm.285 2.307c-.086-.022-.285.065-.314-.043.086-.087.057 0 .2 0 .028-.044 0-.11.057-.11 0 .023 0 .044.057.044zm4.66-4.112c.085.004.176 0 .192.086zm-.078-.01a.446.446 0 0 1-.187.052.534.534 0 0 1-.231-.06c-.012-.028-.054-.036-.054-.092h-.086c.022.01.032.024.034.041a.682.682 0 0 0-.262-.084c-.108-.006-.178.152-.285.152-.055 0-.004-.141-.057-.152-.047-.01-.103.027-.129.072a.297.297 0 0 1-.071-.138c-.007-.047.088-.047.114-.087.016-.024-.02-.066 0-.087.036-.038.133-.014.143-.065.008-.047-.102-.04-.114-.087-.02-.073.176-.274.2-.283.046-.018.115.085.142.043.026-.04-.12-.04-.114-.087.008-.069.09-.106.143-.152.015-.013.057-.001.057-.022 0-.089.013-.207-.057-.26-.056-.043-.132.05-.2.064-.02.005-.409-.042-.2.196.046.053.144-.023.2-.065.019-.014-.029-.042-.029-.065 0-.01.02.002.029 0 .02-.005.04-.034.057-.022.041.031.095.08.085.13-.03.166-.322.269-.428.305-.011.004-.019-.014-.028-.022-.02-.014-.036-.055-.057-.043a.478.478 0 0 0-.075.052c.015.01.03.027.046.035.029.014.056.032.086.043.009.004.019 0 .028 0h.057c.02 0 .057-.019.057 0 0 .075-.04.145-.057.218-.003.014 0 .03 0 .044v.021c0 .03.015.062 0 .087-.017.032-.06.04-.085.066-.033.033-.073.064-.086.109-.008.029.06.088.029.087-1.077-.066-2.146-.277-3.226-.283-.122-.001-.256.139-.256.26 0 .094.224.023.256.11.024.064-.175-.02-.2.043-.02.056.203.117.143.109-.168-.021-.36-.038-.485-.152-.056-.052.184-.035.2-.11.015-.067-.184-.096-.143-.151.052-.069.288.08.257 0-.05-.126-.21-.193-.342-.218-.05-.01.05.154 0 .152-.993-.043-1.99-.108-2.969-.283-.09-.016.006-.26-.085-.26-.088 0 .104.216.028.26-.777.461.112-.554-.37-.37-.096.037.072.298-.03.305A2.796 2.796 0 0 1 27 46.815c-.095-.039.028-.245-.057-.304-.062-.044-.194-.016-.24.047a1.025 1.025 0 0 0-.074-.07c-.075-.064-.192.123-.285.088-.06-.023.175-.134.114-.152a.467.467 0 0 0-.4.065c-.053.04.239.101.172.109a.569.569 0 0 1-.371-.087c-.04-.027.155-.063.114-.087-.266-.156-.583-.206-.856-.349-.068-.035.165.065.228.022.055-.037-.037-.206.028-.196.081.013.052.165.115.218.036.03.095-.005.142 0 .534.06 1.068.116 1.599.196.014.002-.015.043 0 .043.032 0 .076-.012.085-.043.015-.05-.08-.151-.028-.153a1.94 1.94 0 0 1 .742.131c.047.018-.045.176 0 .152.177-.093.272-.312.456-.391.06-.026-.065.196 0 .196.256 0 .303-.436.628-.283.08.037-.059.26.029.26.095 0 .021-.241.114-.26.101-.021.269.035.307.127.111-.063.226-.118.35-.15.056-.014.029.139.085.153.112.029.28-.14.343-.043.06.091-.236.157-.2.26.04.119.218.157.342.153.312-.01.63-.07.914-.196.077-.034-.144-.106-.229-.109-.183-.005-.373.159-.542.088-.106-.045.174-.168.285-.196.04-.01.017.116.058.108.075-.014.108-.109.17-.152a.154.154 0 0 1 .086-.022c.008 0-.004.017 0 .022a.135.135 0 0 0 .058.044c.14.044.282.088.428.108.226.031.537-.13.685.044.107.128-.307.146-.428.261-.05.047.159-.098.2-.043.042.057-.152.223-.086.195.14-.06.19-.325.342-.304.131.017.054.272.143.37.037.04.007-.131.057-.153.063-.026.134.062.2.044.08-.022.116-.152.2-.152.07 0 .126.048.183.096.056-.045.188-.026.188-.096 0-.076-.2-.033-.2-.11 0-.098.11-.257.2-.217.12.054.01.37.142.37.182 0 .306-.215.4-.37.167-.276-.301-.199-.314-.196-.148.033-.277.153-.428.153-.054 0-.003-.153-.057-.153-.28 0-.548.17-.828.153-.105-.007-.125-.2-.228-.218-.263-.045-.533.03-.8.044h-.028c-.01 0-.028.009-.029 0-.009-.138-.102-.322 0-.414.09-.08.295 0 .343.109.037.084-.32.152-.228.152.29 0 .566-.165.856-.152.54.024 1.066.35 1.598.261.229-.038.219-.413.371-.588.024-.027.055.048.086.066.028.016.087.035.156.058.028-.019.054-.04.044-.058-.037-.063-.134-.057-.2-.087-.03-.014-.059-.026-.086-.044a.887.887 0 0 1-.114-.087c-.013-.012-.011-.042-.028-.043-.184-.018-.552-.11-.571.217-.006.095.19.204.114.261-.074.057-.18-.105-.2-.196-.023-.102.145-.217.086-.304-.089-.13-.576-.142-.428-.196.288-.106.605-.08.917-.085-.013.031-.018.057-.004.041l.039-.041c.102-.002.204-.008.303-.024.082-.013-.115-.049-.233-.048a.561.561 0 0 0 .091-.117c.113.086.277.17.37.23.04.025.045-.089.086-.108.043-.02.126-.045.143 0 .028.07-.129.239-.057.217.208-.063.123-.42.428-.326.18.054.37.135.485.283.063.08-.07.212-.028.304.044.098.21.293.257.196.088-.183-.099-.41-.057-.61.016-.078.063.18.142.197.125.026.253-.042.371-.087.017-.007-.046-.044-.028-.044.324.008.665-.043.97.065.087.031-.079.216-.171.218-.256.006-.486-.188-.742-.196-.058-.002-.048.142 0 .174.205.137.442.237.685.283.05.01-.05-.16 0-.152.306.045.582.219.885.283.05.01.114-.022.142-.066.028-.042-.049-.138 0-.152.093-.026.19-.04.287-.045-.015-.035-.006-.097-.03-.129-.011-.015-.066.017-.057 0 .041-.078.091-.151.145-.221-.009.019-.011.036-.002.047.08.095.217.152.342.152.051 0-.049-.14 0-.152.14-.035.317-.047.428.043.08.065-.082.246 0 .305.157.114.407.007.571.109.075.046-.058.253.029.261.16.015.269-.232.428-.218.089.008.044.174.057.262.08.516-.829-.044-1.17-.044-.064 0 .173.128.114.152-.194.083-.418.078-.628.066-.167-.01-.32-.108-.485-.13-.208-.03-.425-.074-.628-.023-.062.016.173.129.114.153-.167.068-.373-.043-.542.022-.073.027-.077.14-.086.217-.002.024.08.038.057.044-.094.02-.19.033-.285.043-.004.006 0 .015 0 .022v.022c.018.145.027.292.057.435.008.04.022.088.057.109.059.035.192.111.2.043.013-.115-.18-.188-.171-.304.005-.076.2-.033.2-.11 0-.092-.143-.122-.2-.195-.008-.01.017-.025.028-.022.09.027.177.156.257.109.075-.044-.074-.216 0-.261a.675.675 0 0 1 .542-.065c.083.028-.038.204.029.26.053.046.131-.049.2-.065.028-.006.057-.002.085 0 .115.012.262-.038.343.044.054.056-.009.206-.086.218-.175.025-.337-.138-.514-.131a1.317 1.317 0 0 0-.57.174c-.036.02.016.11.057.109.213-.007.415-.152.628-.13.17.017.332.12.456.239.048.045.062.175 0 .196-.422.14-1-.078-1.313.239-.228.232.647.076.97.109.03.003.059.007.086 0 .031-.008.055-.037.086-.044.113-.023.249.024.342-.043.092-.066.04-.26.143-.305.077-.034.133.203.2.152.1-.076.001-.275.086-.37.08-.089.276-.008.342-.108.042-.064-.162-.077-.171-.153-.014-.107.006-.293.114-.304.188-.02.378.107.514.239.05.049-.167.003-.2.065-.04.078-.01.183.029.261.024.05.191.06.142.088-.1.054-.243-.035-.342.021-.046.026.065.09.114.11.09.033.207.098.285.043.094-.067.068-.221.114-.327.01-.02-.02.06 0 .065.047.015.1 0 .143-.021.021-.011.042-.046.029-.066-.011-.017-.054.042-.057.022-.03-.172-.158-.404-.029-.522.117-.107.36.005.457.13.06.078-.159.143-.171.24-.007.048.169-.062.142-.022-.068.104-.251.12-.285.24a.402.402 0 0 0-.023.175c-.051-.012-.102-.12-.148-.088-.084.057-.204.235-.115.282.124.066.26-.136.4-.13.208.009.414.268.6.174.157-.08.049-.35.085-.522.002-.012.029-.034.029-.022 0 .024-.048.05-.029.065s.033-.041.057-.043c.057-.006.114.015.171.021.013.002.098-.006.086.022-.013.03-.066.019-.086.044-.04.05-.046.122-.085.174-.03.038-.147.052-.114.087.076.083.208.17.313.13.073-.027-.079-.14-.085-.217-.004-.048.031-.091.057-.13.005-.009.02.002.028 0 .02-.006.048-.04.058-.023.02.039-.043.142 0 .131.056-.014.037-.12.085-.152.04-.027.169.04.143 0-.032-.05-.116-.023-.171-.044-.023-.008-.037-.031-.057-.043-.018-.01-.04-.013-.058-.022-.01-.006-.027-.01-.028-.022-.008-.13.081-.298.036-.407a2.002 2.002 0 0 1-.024-.014l.017-.001a.135.135 0 0 0-.029-.035.15.15 0 0 0-.096-.034.43.43 0 0 1-.16-.205c-.042-.122.231-.09.363-.151-.04.023-.068.055-.05.085.086.148.278.202.428.283.021.012-.034-.042-.028-.065.006-.023.04-.025.057-.043.023-.027.035-.06.057-.088.02-.024.075-.037.085-.065-.094-.016-.167-.165-.256-.13-.079.03.15.084.2.152.013.02-.04.027-.058.043-.02.02-.034.048-.057.066-.016.012-.043.037-.057.022-.072-.083-.071-.237-.171-.283-.034-.016-.09-.006-.137.016a.1.1 0 0 0 .051-.06c.033-.119-.258-.086-.314-.196-.029-.057.113-.061.171-.087.021-.009.08.016.086.022.045.045.064.114.114.152.04.03.094.037.143.044.012.001.017-.024.029-.022.031.006.057.028.085.044.01.005.018.016.029.021.018.01.037.017.057.022.009.002.023-.008.028 0 .017.026.009.064.029.087.008.01.016-.022.028-.022v-.021c.009-.066.054-.135.029-.196-.02-.052-.19-.06-.143-.087.153-.09.596.026.514-.13-.088-.17-.402-.067-.57.02-.078.041.028.174.028.262 0 .01-.02.003-.029 0-.011-.004-.018-.017-.028-.022-.037-.017-.078-.025-.115-.043-.096-.048-.189-.104-.285-.153a.278.278 0 0 0-.057-.021c-.01-.003-.02 0-.029 0-.057-.007-.13.019-.17-.022-.036-.036.049-.164 0-.153-.117.027-.167.213-.286.218-.273.011-.527-.174-.8-.174-.058 0 .023.145-.028.174-.06.034-.193.024-.2-.043-.01-.104.089-.198.171-.262.028-.02.023.083.058.087.254.034.518.072.77.022.062-.012-.175-.135-.114-.152.183-.052.39-.037.57.022.05.015-.06.113-.028.152.07.082.221.239.286.152.07-.093-.192-.19-.172-.304.014-.076.163-.06.229-.022.044.025-.05.153 0 .152.328-.007.647-.115.97-.174.038-.007.076-.022.114-.022.019 0 .037.008.052.018.06-.011.12-.034.177-.018.095.028.167.11.257.153.017.008.038.002.057 0 .048-.005.114.016.142-.022.027-.036-.028-.086-.028-.13 0-.024.017-.045.028-.066.008-.015.016-.032.029-.043.064-.055.145-.09.2-.153.011-.013-.044-.035-.029-.043.117-.06.247-.09.371-.13.01-.004.02 0 .029 0 .01 0 .024-.01.028 0 .018.04-.007.103.029.13.054.041.132.037.2.043.012.001.017-.026.028-.022.016.007.022.028.029.044.06.137.109.278.171.413.023.051.049-.006.086.022.027.021.032.063.057.087.042.042.098.07.142.11.013.01.02.027.029.043.011.02.012.048.028.065.082.086.261.25.4.261.093.007.076-.175.2-.043.03.032.016.087.028.13.007.023.008.054.029.065.025.015.06-.012.086 0 .036.019.057.058.085.088.02.02.041.04.057.065.004.006-.004.015 0 .022.026.038.041.097.086.108.035.01.05-.069.085-.065.048.005.144.125.115.087-.058-.073-.132-.132-.2-.196-.018-.016-.04-.028-.057-.043-.049-.043-.092-.092-.143-.13-.007-.007-.02.005-.028 0-.006-.005-.005-.017 0-.023.015-.018.06-.02.057-.043-.018-.142-.009-.317-.115-.414-.07-.064.033.21-.028.283-.038.046-.113-.048-.171-.043-.036.003-.064.094-.086.065-.044-.058.037-.184-.028-.218-.058-.029-.079.131-.143.131-.065 0-.098-.085-.143-.13-.012-.013-.017-.031-.028-.044-.008-.01-.031-.01-.029-.022.009-.04.082-.076.057-.109-.035-.047-.13-.001-.171-.043-.023-.023.062-.022.085-.044.035-.03.058-.072.086-.109.01-.013.018-.03.029-.043.036-.046.094-.096.114-.152.017-.05-.021-.138.028-.153.05-.015.115.162.115.109 0-.082-.1-.137-.115-.218-.006-.034.033-.062.057-.087.028-.028.057.044.058.044.047.006.1.002.142-.022.04-.023.11-.069.086-.109-.037-.062-.178-.017-.2-.087-.054-.174.226-.471-.114-.566-.058-.016-.132.05-.143.11-.013.07.06.129.086.195.041.108.095.213.114.327.003.02-.04.01-.057.021-.03.019-.05.068-.086.066-.099-.006-.26-.184-.285-.087-.027.104.181.119.257.195.015.016 0 .044 0 .066 0 .043.012.088 0 .13-.008.028-.038.044-.057.066-.02.021-.042.04-.057.065-.037.055-.018.091-.086.13-.017.01-.048.017-.057 0-.053-.094-.07-.205-.114-.304-.006-.014.01.032 0 .043-.032.036-.075.114-.114.087-.074-.049-.074-.16-.115-.24a1.604 1.604 0 0 0-.085-.151c-.007-.01-.024-.011-.029-.022-.006-.013-.011-.035 0-.044.042-.031.191-.045.143-.065a1.19 1.19 0 0 0-.457-.065c-.07 0-.149.017-.2.065-.023.022.113.026.086.044a.537.537 0 0 1-.314.108c-.047-.002-.01-.119-.057-.13a.209.209 0 0 0-.2.065.232.232 0 0 0-.028.218c.014.035.093-.032.114 0 .019.029-.04.057-.057.087-.002.003-.04.102-.057.109-.027.01-.063-.018-.086 0-.017.013.021.07 0 .065-.065-.017-.144-.047-.171-.109-.016-.035.114.017.114-.022 0-.075-.04-.184-.114-.196-.076-.011-.1.126-.171.153-.054.02-.114-.022-.172-.022-.02 0-.046.04-.057.022-.056-.093-.009-.278-.114-.305-.113-.029-.227.01-.341.055.01-.1-.086-.2-.173-.25-.04-.024-.058.146-.085.108-.072-.1-.137-.412-.029-.544.019-.023.064.002.086.022.067.063.079.217.171.217.507 0-.28-.279.029-.326.178-.027.666.154.542.022a.418.418 0 0 0-.157-.103l.043-.006c.067-.011-.117-.163-.057-.196.108-.06.254-.02.37.022.06.021.052.163.115.152.272-.047.509-.217.77-.305.064-.021.154-.07.2-.021.06.063-.057.243.029.26.142.03.259-.136.4-.173.11-.03.232-.055.342-.022.096.03.128.202.228.196.18-.011.305-.227.485-.24.092-.006-.14.131-.17.218-.01.028.064 0 .085.022.005.005.006.012.005.02.08-.03.196.022.252-.042.036-.042-.119-.037-.143-.087-.022-.047-.023-.15.028-.152.064-.004.12.028.177.063-.014-.01-.018-.017-.005-.02.14-.032.304-.049.428.022.17.097.084.793.57.174.071-.09-.233.058-.342.022-.082-.028-.171-.11-.171-.196 0-.476.591-.028.628 0 .028.022-.119.05-.086.065.088.038.207.075.286.022.054-.037-.075-.149-.029-.196.216-.22.266-.09.35.022-.005.02 0 .031.018.023.041.05.093.091.174.086.197-.014.107-.173.023-.257.079-.09.154-.183.263-.222.067-.024.018.172.085.196.109.038.235-.004.343-.044.116-.042.191-.209.314-.196.081.01-.18.168-.114.218.387.295.463.055.685-.109.195-.144.368-.34.6-.413 1.231-.396 1.835-.216 3.082-.414.416-.066.815-.215 1.227-.305.122-.026.249-.018.37-.043 2.077-.425 4.165-.8 6.223-1.306.2-.05.312-.303.514-.348 1.897-.423 3.816-.747 5.737-1.045 1.686-.261 3.396-.354 5.08-.63.185-.031.298-.272.485-.284.422-.026.835.137 1.256.174.161.014.345-.102.485-.021.524.298.998.687 1.427 1.11.059.057.013.196-.057.239-.114.07-.49-.055-.4.043.264.288.634.474 1 .61.07.026.114-.12.114-.196 0-.122-.233-.317-.114-.348.397-.105 1.056.151 1.284.522.057.093-.08.254 0 .326.22.199.64.141.8.392.139.222-.07.522-.058.784.001.024.074 1.721.457 1.893.212.095.485-.397.656-.24.497.458.784 1.123 1 1.764.075.226-.244.468-.172.696.134.424.5.736.742 1.11.073.112.099.26.2.348.05.044.208.066.2 0-.031-.249-.525-.62-.286-.696.436-.139.77.994.913 1.175.066.082.24.036.286.13.05.107-.005.243-.057.349-.03.06-.154.043-.171.109-.037.14-.042.307.028.435.043.08.313.016.257.087-.457.58-.563.231-.628-.109-.073-.382-.081-.775-.171-1.153-.01-.04-.074-.037-.114-.044-.094-.015-.237-.104-.286-.022-.137.23.096.784-.171.784-.289 0-.103-.676-.371-.784-.221-.09-.447.208-.6.392-.056.069.022.18.058.261.127.29.28.568.428.849.005.01.017.017.028.022.066.031.128.097.2.087.15-.021.108-.103.114-.174.02-.203.015-.38.171-.544.023-.024.063.021.086.043.055.052.09.12.143.174.007.007.02-.003.028 0 .012.005.018.026.029.022.06-.02.216-.133.171-.087-.069.07-.16.112-.243.165.017-.013.036-.031.015-.035-.047-.007-.095 0-.143 0-.028 0-.067-.021-.086 0-.029.034-.07.115-.028.131.065.025.15-.115.2-.065.202.208.432.451.456.74.02.226-.128.663-.342.587-.295-.103-.248-.575-.4-.848-.01-.018-.037.018-.057.021a.123.123 0 0 1-.057 0c-.106-.03-.203-.1-.314-.108-.029-.002 0 .058 0 .087.018.413.166.84.057 1.24-.065.24-.12-.483-.2-.718-.09-.266-.083-.622-.313-.784-.132-.091-.26.191-.372.305-.033.034-.063.084-.057.13.043.317.2.618.2.937 0 .241-.061.894-.2.696-.262-.375-.112-.915-.256-1.35-.034-.101-.223-.297-.257-.195-.204.599-.146 1.262-.314 1.871-.024.087-.03-1.183-.314-1-.293.187-.264.647-.457.935-.011.017-.03.026-.052.029a.08.08 0 0 1 .052-.029c-.057-.065-.114-.065-.171-.13-.046.017-.064.045-.066.08-.195-.172-.306-.486-.22-.733.035-.1.323-.033.286-.13-.04-.108-.238.023-.343-.023-.09-.04-.11-.26-.2-.217-.151.072-.237.268-.256.435-.008.07.178-.001.2.065.056.173.093.39 0 .544a.15.15 0 0 1-.076.06c-.01-.065-.062-.11-.181-.081l-.017.082a.197.197 0 0 1-.069-.039.701.701 0 0 1-.228-.544c.009-.104.381-.09.285-.13-.166-.071-.393-.082-.542.021-.109.075-.06.26-.057.392.006.248.145.499.085.74-.029.116-.23.26-.314.174-.102-.104.065-.29.057-.435a2.405 2.405 0 0 0-.114-.675c-.032-.093-.148-.302-.2-.218-.266.438-.173 1.082-.542 1.437-.176.169-.228-.452-.228-.697 0-.084.24-.025.228-.108-.012-.093-.164-.122-.257-.11-.295.041-.57.178-.856.262-.97.286-1.939.572-2.911.849-.712.202-1.409.479-2.14.587-.314.047-.626-.127-.943-.13a7.424 7.424 0 0 0-1.455.109c-.058.01.023.146-.029.174-.22.116-.468.175-.713.217-.263.046-.533.03-.8.044-.161.008-.323.022-.485.022-.076 0-.152-.024-.228-.022-.238.005-.48.087-.714.043-.103-.019-.123-.225-.228-.217-.246.017-.46.18-.685.283-.45.207-.592.438-1.199.391-.143-.01-.2-.242-.342-.26-.322-.043-.646.093-.97.086-.118-.002-.034-.215-.2-.13-.09.045-.14.149-.229.196-.19.1-.392.18-.6.239-.054.016-.113-.03-.17-.022a1.708 1.708 0 0 0-.202.042c-.021-.002-.031-.002-.027.002l.025-.001c-.094.024-.186.05-.282.066-.02.003-.06-.002-.057-.022.01-.05.131-.104.086-.13a.587.587 0 0 0-.428-.066c-.057.016.04.117.028.174-.003.02-.044-.005-.057-.021-.018-.024-.01-.062-.028-.087-.07-.1-.22-.162-.229-.283-.005-.073.128-.094.2-.087.038.003.007.078.029.108.028.04.066.088.114.088.09 0 .178-.043.257-.088.215-.123-.03-.307-.114-.435-.016-.024-.03-.055-.057-.065-.036-.014-.077.006-.115 0-.011-.002-.019-.03-.028-.022a.262.262 0 0 0-.056.064c.003-.056.013-.123-.03-.15-.097-.064-.238-.117-.342-.066-.08.039.031.249-.057.261-.111.015-.148-.193-.257-.218-.05-.011-.062.113-.029.153.097.116.52.233.371.26-.177.035-.312-.187-.485-.239a.466.466 0 0 0-.314 0c-.047.021-.075.13-.028.153.078.037.201-.11.256-.044.052.064-.093.139-.114.218-.01.036.065.118.029.109-.081-.02-.123-.12-.2-.153-.08-.034-.204.026-.257-.043-.045-.06.107-.161.057-.218-.041-.048-.066.11-.114.153-.022.019-.057.016-.086.021-.047.01-.128.068-.142.022-.03-.099.074-.203.057-.305a1.007 1.007 0 0 0-.171-.37c-.013-.02-.01.052-.029.066-.098.068-.229.09-.314.174-.027.026-.008.102.029.109.103.02.21-.064.314-.044.036.007.06.088.028.109-.072.048-.173.019-.257.043-.212.063-.42.142-.628.218-.049.018-.193.08-.142.065.173-.05.333-.163.513-.174.08-.005.232.058.2.13-.183.42-.457.088-.685.088-.046 0-.114.072-.085.109.092.12.518.296.37.26-.293-.07-.702-.094-.827-.37-.015-.03-.012-.054.002-.07-.03-.012-.053-.032-.06-.06-.037-.165.23-.32.172-.478-.037-.102-.242.005-.314.087-.178.203.095.57-.4.457-.021-.005-.015-.043-.003-.08a.26.26 0 0 0-.025.145c.03.164.297.033.342.109.047.076.029.286-.057.26-.196-.058-.261-.348-.456-.413-.083-.027.084.241 0 .262-.118.028-.227-.079-.342-.129.077-.042.14-.1.17-.176.072-.174-.087-.42-.256-.5-.112-.055-.175.182-.286.239-.026.013-.047-.093-.057-.066-.025.068.073.218 0 .218-.098 0-.2-.001-.301-.009l.016-.013c-.069-.091-.148-.057-.237-.015a.948.948 0 0 1-.42-.18c-.122-.099.273-.175.428-.196.171-.024.41.202.514.065.128-.17.077-.495-.086-.631-.112-.095-.11.275-.2.391-.023.031-.084.048-.114.022-.053-.047-.014-.203-.085-.196-.082.01-.053.164-.114.218-.08.069-.253.23-.286.13-.045-.139.153-.252.2-.391.012-.036.009-.112-.028-.109-.188.014-.358.116-.543.152-.188.037-.379.066-.57.066-.036 0 .093-.03.085-.066-.017-.079-.062-.19-.143-.196-.147-.01-.283.416-.2.48.163.123.437.006.6.13.086.066-.205.09-.314.087a1.032 1.032 0 0 1-.4-.109c-.021-.01.042-.045.029-.065-.016-.025-.077.006-.086-.022-.025-.083.076-.218 0-.261-.076-.044-.143.109-.228.13-.04.01-.122-.003-.114-.043.01-.059.119-.054.142-.109.014-.032-.022-.083-.057-.087-.348-.035-.493.041-.57.414-.009.04.077.025.114.043.008.004-.032-.009-.029 0 .011.033.076.058.057.087a.29.29 0 0 1-.2.13c-.08.009-.147-.1-.228-.086-.163.026-.295.158-.457.195-.044.011.132-.102.086-.108-.189-.026-.504.222-.57.043-.065-.171.33-.178.513-.196.072-.006.143.197.171.131.033-.074-.209-.15-.142-.196.125-.087.313.03.456-.022.061-.022.14-.138.086-.174-.087-.058-.242.099-.314.022-.056-.06.189-.095.171-.174-.017-.08-.15-.109-.228-.087-.062.017-.05.228-.086.174-.056-.085.093-.263 0-.305-.101-.046-.224.081-.285.174a2.09 2.09 0 0 0-.144.244c-.071-.054-.105-.21-.199-.222-.07-.009-.124.136-.085.196.063.097.422.11.314.152-.138.053-.289-.063-.429-.109-.01-.003.037-.012.03-.021-.097-.117-.17-.287-.315-.327-.257-.07-.534-.003-.799.022-.052.005-.11.025-.143.065-.049.061-.009.203-.085.218-.163.031-.371.011-.486-.109-.066-.07.213-.045.257-.13.031-.06-.14.052-.2.021-.071-.036-.175-.122-.142-.196.035-.08.186-.011.257-.065.03-.023.008-.114-.029-.109-.147.02-.288.071-.429.121-.1-.003-.139.004-.284-.012-.015.044-.03.077-.044.11-.051.01-.103.018-.156.02a.193.193 0 0 1-.088-.017.236.236 0 0 1-.026-.026.03.03 0 0 0-.01.007c-.091-.053-.175-.143-.276-.137-.066.003.088.166.029.195-.217.11-.47.149-.714.153-.155.003-.3-.107-.451-.13a34.528 34.528 0 0 0-.405-.131 1.038 1.038 0 0 0-.662.004c.362.086.715.168.994.23.021.042.04.083.01.092-.083.027-.142-.147-.228-.13-.103.02-.128.248-.228.217a208.45 208.45 0 0 1-.413-.126c-.508.044-1.022-.02-1.528.04-.058.006-.027.153-.086.151-.208-.006-.43-.053-.599-.174-.062-.043.124-.104.2-.108.064-.004.145.145.171.087.055-.127-.087-.289-.029-.414.034-.071.122-.093.207-.112a13.754 13.754 0 0 1-.066-.023c-.159.077-.31.177-.483.2-.104.014.327-.182.228-.217-.224-.08-.487-.03-.713.043-.074.025-.009.206-.086.218-.067.01.01-.206-.057-.196-.108.017-.019.545-.342.174-.039-.044.143-.148.085-.152-.797-.06-1.606.087-2.397-.022-.101-.014.084-.22.028-.305-.043-.065-.007.217-.085.218-.869.007-1.73-.182-2.598-.196-.058 0-.027.152-.085.152-.197 0-.437-.008-.571-.152-.086-.093.103-.244.085-.37-.006-.05-.108-.08-.142-.043-.104.112-.05.378-.2.413-.17.04-.302-.178-.457-.261-.036-.02-.097-.006-.114-.044-.065-.142-.136-.301-.114-.457.05-.362.316-.043.4-.043.04 0 .057-.068.057-.109 0-.103-.149-.256-.057-.305.11-.058.227.105.342.153.009.003.029-.01.029 0 0 .051-.076.131-.029.152.113.05.257-.047.371 0 .047.02-.048.168 0 .152.137-.043.28-.131.343-.26.03-.063-.082-.12-.143-.153-.078-.042-.193-.004-.257-.065-.011-.011-.006-.018.008-.023-.052-.007-.106-.044-.15-.02-.053.025-.068.096-.086.151-.002.006.008.013.017.018-.093-.039-.19-.07-.274-.126-.015-.01.04-.03.028-.044-.055-.063-.2-.068-.2-.152 0-.07.224 0 .2-.066a.41.41 0 0 0-.314-.26c-.077-.01-.007.211-.085.217-.056.004-.098-.038-.134-.09-.033-.016-.07-.034-.095-.019-.036.023-.023.094 0 .13.04.06.158.06.172.131.012.062-.169.12-.115.153-.092 0-.115.328-.142.239-.05-.168.086-.35.057-.522-.013-.076-.136-.22-.171-.153-.044.084.16.178.114.261-.06.11-.298.27-.343.153-.067-.174.08-.38.2-.523.044-.052.183.11.2.044.025-.096-.045-.246-.143-.261-.086-.013-.056.227-.143.217-.12-.013-.135-.25-.256-.26-.112-.01-.201.314-.257.217-.095-.164-.057-.414.057-.566.08-.107.266-.033.4-.043.26-.021.401.068.684.195.038.017.046.082.086.088.036.004.05-.06.086-.066.169-.03.349-.092.513-.043.063.018-.063.178 0 .196.107.03.213-.064.314-.11.016-.006.012-.04.029-.043.057-.006.115.011.171.022.02.004.047.004.057.022.04.074.013.196.086.24.327.195.32-.153.6-.153.057 0 .027.148.085.152.174.013.34-.08.514-.109a.383.383 0 0 1 .142 0c.024.005.036.054.057.044.222-.102.052-.106-.01-.16a1.471 1.471 0 0 1-.304-.058c-.056-.019-.083-.103-.142-.109-.116-.01-.227.07-.343.066-.055-.003-.16-.034-.143-.087.023-.07.248-.033.2-.087-.18-.206-.402.011-.513.108-.006.005.007.023 0 .022-.068-.007-.133-.032-.2-.043-.104-.018-.209-.04-.314-.044-.153-.004-.311.067-.457.022-.175-.054-.275-.282-.457-.305-.094-.012.19.204.115.261-.088.068-.205-.09-.314-.108-.198-.033-.407.01-.6-.044-.13-.036-.36-.084-.342-.218.058-.425.689-.078.799-.087.07-.005.11-.214.143-.152.042.081-.105.172-.086.261.01.047.12.042.143 0 .042-.076-.084-.237 0-.261.284-.08.587-.029.885-.022 0 .109.049.218.114.305.023.03.11.038.114 0 .019-.225-.132-.462-.057-.675.03-.087.202.184.257.11.064-.089-.014-.266-.115-.306-.197-.077-.413-.08-.629-.086h.002c.055-.027-.002-.16.057-.175.277-.072.57-.09.856-.065.063.006.051.145.114.152a.34.34 0 0 0 .207-.04c.014.046.018.09-.007.127-.064.097-.343-.05-.343.066 0 .504.667.016.685.021.061.018.046.098.035.176a.012.012 0 0 0-.006-.002c-.166 0-.397-.031-.485.11-.071.113.066.333.2.347.225.024.47-.098.627-.26.097-.1-.02-.285.029-.414.015-.038.104.004.114.043.027.102.024.21.023.319l-.023-.014.023.034c-.002.134 0 .266.063.38.047.085.068-.139.117-.258a.27.27 0 0 0 .054-.004l-.04-.024a.15.15 0 0 1 .011-.02c.015-.018.035.036.058.044.017.007.044-.014.057 0 .05.057.15.13.114.196-.066.119-.353.083-.343.218.01.133.24.177.371.152.108-.02.134-.349.2-.26.085.112.004.304-.086.413-.054.066-.188-.052-.256 0-.018.013-.024.032-.025.054a.057.057 0 0 1 .025.01c.038.03.022.086.003.144.011.027.046.058.025.075a.078.078 0 0 1-.05.014c-.004.03 0 .056.022.073.066.05.12-.176.2-.153.1.03.079.213.17.261.158.084.184-.104.286-.13.08-.02.265.013.343.022.076.008.151.021.228.021.067 0 .133-.021.2-.021.012 0-.04.027-.029.021.068-.034.173-.038.2-.108.032-.084.028-.236-.057-.262-.075-.022-.024.17-.086.218-.143.11-.418.05-.57.044-.04-.002-.238.05-.257-.066-.042-.25.448-.138.485-.217.052-.112-.353-.079-.314-.196.06-.185.291-.303.485-.327.088-.01.093.18.057.261-.028.065-.205-.004-.2.066.01.138.09.348.229.348.122 0-.2-.261-.115-.348.09-.09.247.112.371.087.118-.024.174-.175.286-.218.032-.012.022.087.057.087.056 0 .097-.12.143-.087.14.1.263.248.314.414.015.05-.12-.043-.176-.057a1.612 1.612 0 0 0-.167-.14c-.024-.016-.085-.007-.085.023 0 .105.134.21.085.304-.034.065-.13-.107-.2-.087-.05.014-.078.14-.028.153.296.072.615-.002.913.065.053.012.006.134.057.152.1.035.32.083.314-.022-.01-.208-.18-.39-.342-.522-.05-.04-.102.112-.086.174a.035.035 0 0 0 .014.019c-.052-.008-.101-.021-.128-.062-.22-.334.203-.255.285-.327.031-.027-.082-.076-.057-.109.03-.037.105-.028.143 0 .029.022.02.079 0 .11-.033.05-.196.08-.143.108.181.095.437.007.6.13.08.062-.22.032-.286.11-.042.05-.018.15.029.195.1.098.231.204.37.196.074-.004-.04-.239.03-.217.053.016.132.644.427.239.073-.1-.15-.393-.028-.37.251.048.359.392.6.479.101.036-.218-.271-.115-.305.125-.04.184.218.314.24.067.01-.103-.147-.057-.196.047-.05.177.107.2.043.076-.212-.002-.452.028-.675.018-.127-.014-.38.114-.37.27.023.505.234.685.436.051.056-.124.119-.2.109-.062-.01-.097-.214-.113-.153-.024.089 0 .227.085.261.499.205.19-.428.2-.457.02-.063.165-.056.2 0 .082.132-.066.492.085.457.182-.041.033-.439.2-.522a1.14 1.14 0 0 1 .441-.104.125.125 0 0 1-.041-.027c-.1-.098-.216-.36-.086-.413.258-.106.56.034.828.109.067.019-.252.019-.2.065a.459.459 0 0 0 .371.087c.05-.009-.01-.102 0-.152.002-.01.02.001.029 0 .047-.006.094-.022.142-.022.012 0 .027.01.029.022.008.05-.045.13 0 .152.041.021.044-.088.085-.109.027-.013.057.015.086.022.095.022.19.046.286.065.009.002.02-.003.028 0 .096.034.245.202.285.11.202-.46-.518-.265-.542-.262-.031.004-.119-.008-.114-.044.01-.068.179-.149.114-.174-.078-.03-.247.219-.37.153-.067-.036-.073-.15-.144-.174-.209-.074-.436-.138-.656-.11-.196.027-.1.428-.343.131-.019-.023.018-.058.03-.087.018-.05.028-.087.085-.109.006-.002-.007.024 0 .022.23-.044.519.013.685-.152.1-.099-.26-.116-.4-.13a.357.357 0 0 0-.228.065c-.031.02-.004.08-.029.108-.036.042-.103.048-.143.087-.02.022-.02.058-.028.088-.01.036.004.09-.029.108-.066.04-.192.113-.228.044-.058-.11.07-.246.057-.37-.005-.046-.04.104-.085.109-.048.005-.067-.094-.115-.087-.037.005-.033.071-.028.108.014.105.002.241.085.305.091.07.271-.067.343.022.06.074-.023.235-.114.261-.073.02-.041-.214-.114-.196-.118.03-.111.253-.229.283-.127.032-.25-.18-.37-.13h-.001c.034-.075.033-.186-.028-.196-.234-.04-.473.006-.708.057a.256.256 0 0 0-.006-.014c-.037-.084-.125-.138-.171-.217-.01-.018.038.014.057.021.038.015.074.035.114.044.05.01.125-.004.171-.022.012-.004.017-.019.029-.022.075-.019.151-.037.228-.043.013-.001.062.034.086.022.05-.026.097-.056.143-.087.049-.034.155-.05.142-.11-.018-.081-.116-.152-.2-.152-.051 0 .045.104.03.153-.017.05-.07.081-.115.109-.01.006-.02-.015-.029-.022-.019-.015-.05-.02-.057-.044-.014-.048.04-.121 0-.152-.15-.115-.324-.24-.513-.24-.164 0 .32.117.428.24.048.055.024.167-.029.218-.048.046-.133-.008-.2 0-.007 0 .007.019 0 .021-.037.014-.115-.017-.142-.021-.057-.01-.114-.028-.172-.022-.017.002-.024.06-.028.043-.022-.1.048-.237-.029-.304-.052-.047-.126.085-.142.152a.421.421 0 0 0 .028.305c.037.062.265.054.2.087a.965.965 0 0 1-.542.087c-.05-.006.047-.134 0-.153-.107-.04-.258.099-.343.022-.076-.068-.067-.268.029-.305.111-.042.195.16.314.175.083.01.225-.025.228-.11a1.03 1.03 0 0 0-.2-.609c-.05-.07-.191-.1-.257-.043-.04.035-.043.548-.314.435-.026-.01-.04-.034-.05-.062a.026.026 0 0 1-.007.019c-.045.048-.194.066-.2 0-.01-.136.078-.272.172-.37.034-.036.122.089.142.043.021-.048-.061-.109-.114-.109a.3.3 0 0 0-.228.11c-.08.104-.054.285-.134.38-.01-.037-.024-.067-.037-.098-.049-.006-.081.003-.105.02-.018-.036-.039-.071-.067-.085a.714.714 0 0 0-.4-.087c-.057.008-.028.14-.085.152-.242.051-.507.1-.742.022-.083-.028.074-.186.029-.261-.03-.05-.115.012-.172.021-.029.005-.062.004-.085.022-.084.064-.124.21-.229.218-.067.005.01-.183-.057-.196-.27-.053-.555-.026-.827.022-.118.02-.222.096-.33.152l-.098-.043c.014.032.04.048.072.057zm-2.67-3.19c.012-.059-.084-.098-.142-.11h-.005c-.02.056.036.12.12.184a.27.27 0 0 0 .027-.074zm-1.056-.196c-.304-.007-.615.108-.913.043-.09-.02-.127-.18-.086-.26a.649.649 0 0 1 .371-.306c.08-.026.145.122.229.11.053-.009.003-.144.057-.153.262-.047.538-.054.799 0 .079.016.065.172.143.196.048.015-.047-.172 0-.153.112.048.134.262.257.262.11 0 .099-.306.2-.262.184.082.19.368.342.501.04.036.072-.1.057-.152-.037-.129-.21-.215-.2-.349.006-.075.17-.05.228 0 .05.043-.064.186 0 .196.107.017.185-.114.286-.152.027-.01-.05.037-.057.065-.015.055.045.041.08.05l.005-.006c.202-.154.595-.248.828-.109.063.038.09.203.15.313-.023.007-.04.018-.036.035.02.067.207.18.143.153-.213-.09-.45-.463-.742-.196-.05.046.125.196.057.196-.091 0-.108-.208-.194-.197.07-.05.165-.087.137-.152-.038-.087-.19.034-.285.022a.09.09 0 0 1-.04-.02.164.164 0 0 1-.018.042c-.042.077-.276.13-.2.174.105.061.23.054.357.046 0 .067.007.14-.043.15-.317.065-.718-.247-.97-.044a.1.1 0 0 0-.033.043 5.777 5.777 0 0 0-.909-.086zm3.083-.153c.01-.008.01-.023.004-.039l-.261.018a.276.276 0 0 0-.05.008c.055.103.139.157.307.013zm-.057-.174c.057.006.106.073.152.13l-.091.005c-.02-.056-.108-.14-.061-.135zm.285.196c.026-.02.032-.046.027-.077l-.16.01c.045.056.087.102.133.067zm-.057-.37c.022-.072.155-.17.2-.109.073.1-.02.285.01.394l-.126.008c-.013-.086-.11-.205-.084-.293zm.257.348c.197.116.465.042.685-.021.035-.01.05-.048.063-.09l-.796.048a.1.1 0 0 0 .048.063zm.828-.239c.04-.004.028.065.027.123l-.107.006c.017-.058.03-.123.08-.129zm.057.196c.22.014.436-.064.653-.106-.183.006-.426.019-.683.033-.001.038.003.071.03.073zm.942-.13c.015 0 .025.009.033.022h-.005a3.142 3.142 0 0 0-.317.002c.096-.019.192-.03.289-.025zm.114.195c.105-.006.256-.116.228-.217a.796.796 0 0 0-.007-.025c.143-.007.296-.075.435-.04.128.03.184.222.314.239.088.01.118-.141.2-.174a.524.524 0 0 1 .285-.022c.15.027.279.13.428.152.302.044.614-.011.914.044.045.008-.129.092-.086.108.066.025.154-.118.2-.065.058.066.006.181-.029.261-.011.027-.058-.008-.085 0-.023.007-.053.068-.057.044-.012-.072.083-.17.028-.218-.052-.046-.13.058-.2.066-.014.001.015-.046 0-.044-.07.008-.131.08-.2.065-.172-.038-.319-.28-.485-.217-.149.057 0 .384-.142.457-.11.056.064-.289-.029-.37-.093-.082-.259-.032-.37.021-.051.024.196.075.142.088-.14.031-.31.06-.428-.022-.062-.043.16-.137.114-.196-.045-.057-.127.093-.2.087-.122-.01-.22-.13-.342-.13-.223 0-.435.15-.657.13-.037-.003-.03-.06-.028-.112.01.047.02.093.057.09zm-.343-.413c-.065-.038-.18-.16-.114-.196a1.3 1.3 0 0 1 .714-.13c.075.005.049.156.114.195.082.05.193.07.285.044.122-.036.197-.168.314-.218a.258.258 0 0 1 .2 0c.036.016.038.074.059.108-.049.009-.097.02-.145.023-.028.001-.066-.021-.085 0-.056.06-.036.192-.114.217-.137.044-.29-.004-.429-.043-.095-.028-.157-.153-.256-.153-.064 0 .136.093.114.153-.014.036-.072.063-.128.084-.13-.244-.358.013-.529-.084zm1.599-.174c.047.016.1-.004.147-.03a.406.406 0 0 0-.174.007.05.05 0 0 0 .027.023zm.17-.044c.06-.037.075-.164.144-.152.074.012.038.188.114.196.05.005.1.008.149.008-.093.069-.185.158-.292.166-.075.005-.044-.17-.114-.196a.209.209 0 0 0-.024-.008.537.537 0 0 0 .024-.014zm1.4-.022c.077 0 .155.005.232.012.004-.029.006-.052-.004-.055a.593.593 0 0 0-.457.022.14.14 0 0 0-.042.037c.09-.008.18-.015.27-.016zm-7.709 6.974a.064.064 0 0 1-.026-.01.04.04 0 0 1 .026.01zm3.235-2.794a.37.37 0 0 1-.078-.01 1.01 1.01 0 0 0 .026-.013zm.586.313c-.085.036-.157.096-.194.012zm.148-.01l-.148.01c.047-.02.098-.033.148-.01zm-1.227-.304a.296.296 0 0 0-.143.152c.029.022.057.044.057.11-.242-.038-.01-.232-.023-.33l.106.052c.002.004.003.01.003.016zm-1.398-4.31c.114-.108.285-.043.342.044 0-.109.2-.24.285-.109-.17.175-.428.262-.628.066zm-4.774-1.913c.097.004.201 0 .235.064zm-.164-.045l.164.045c-.066-.003-.13-.01-.164-.045zm-.4 2.699c.114.021.2-.022.229-.087-.057-.153.028-.262-.086-.414.228-.152.143.37.457.174-.029.13 0 .196.028.261-.228.044-.485.218-.628.066zm.428-1.067c.086.066.286.022.257.218zm-4.395 7.53c.029-.26.2-.065.257.022zm5.023-7.508c-.109.042-.148.03-.2.028zm-.2.028l-.114.016c.052-.016.085-.018.114-.016zm.628.843c-.192.065.031.166.06.305h-.003c.002 0 .003 0 .004.002.009.046-.004.096-.06.15-.115 0-.229-.044-.286-.11.086 0 .114-.043.143-.108-.114-.109-.229.109-.229-.109 0-.087.172.022.229-.109-.143-.065-.2.044-.286-.108.115.021.371-.066.428.087zm-.513 1.218c.17.087.028-.217.142-.196-.028.153.086.11.086.218-.029.044-.228.13-.228-.022zm.628-3.59c-.029-.131.114-.088.142-.153-.057.174.172.022.143.152-.114.13-.143-.021-.285 0zm-.828 3.199c-.029-.11.057-.11.086-.153-.029 0-.086 0-.086-.043.028-.044.228-.13.228 0-.142.021-.057.326-.228.196zm.314-.087c.2.021-.057-.131.143-.153.057.065.028.24.085.305-.142 0-.257 0-.228-.152zm-.257-.566c0 .021.029.043.057.043 0-.065 0-.13.086-.109.028.131-.115.349-.2.196.143 0-.114-.174.057-.13zm-.171-.392c-.057.022-.114-.022-.143-.044v-.108c.057.043.143-.153.171 0-.057.021-.057.087-.028.152zm.171 1.332c.017-.07.035-.135.114-.135zm-.143.17l.143-.17c-.019.081-.035.17-.143.17zm-.257-.566c.057-.022.057-.044.057-.11.086.023.143.044.172.11-.029.043-.229.13-.229 0zm2.113.13c.228-.087.313.153.428.044v.152c-.2-.022-.286-.087-.343-.109.029 0 .057 0 .057-.043-.057 0-.143.022-.143-.044zm.456 1.393c.171.044.2-.043.257-.109-.028.153.086.131.057.262a.354.354 0 0 1-.314-.153zm-1.712-1.567c.257-.022.285.196.485.066 0 .065.086.065.057.152-.171 0-.228-.022-.428.043 0-.087-.086-.13-.114-.26zm2.854.044a.33.33 0 0 1-.343-.044zm-8.391 6.746c.085-.217.57-.239.542-.021zm5.797-7.157v-.002c.224.02.169-.153.339-.044.086-.044-.029-.305.143-.261.057.108-.143.174 0 .217.057 0 .028-.087.085-.109-.057.174.2.218.2.153 0-.022.029-.044.057-.044-.085.325-.649.22-.824.09zm1.452-1.026c-.057-.239.114.087.086-.152.028.044.342.044.228.109-.171-.044-.2.087-.314.043zm-1.142.11c.057-.023.057-.044.057-.11-.313.044-.599-.021-.827-.108.314-.044.485-.153.799.065-.029-.065-.029-.13.057-.153 0 .131.171.11.285.11 0 .152-.285.26-.37.195zm2.883-1.611c-.057.152.057.196-.114.26 0-.108-.086-.13-.086-.26zm-.342 1.545c.2.022.456-.022.485.152zm-.514-.13c0 .217-.285.13-.143.391a.257.257 0 0 0-.142.044c-.086-.175.142-.196.085-.414-.114-.022-.171 0-.228.044-.029-.196.2-.11.228-.218-.028 0-.085 0-.085-.044.228-.087.085.262.285.196zm-23.088-1.976c.094.058.243-.03.14.125zm-.03-.027l.03.027a.114.114 0 0 1-.03-.027zm3.053-.827c-.114-.174-.4.065-.285-.24.114.197.171-.043.342-.086-.2.217.086.195-.057.326zm.457.065c-.057.11-.143.153-.2.087 0-.108.114-.13.2-.217.171.152.228.174.37.326-.142-.022-.456.066-.37-.196zm-.2-1.066c.143 0 .285 0 .228.152zm-.171 2.655c.257.109.828.109.856.414zm1.826-1.045c.057-.13.057-.26.086-.37.114.088.057.262.057.414zm1.123 4.828c.05.022.111.037.048.135zm-.038-.105l.038.105c-.041-.017-.076-.037-.038-.105zm-2.14-5.615c.085-.305-.115-.174.2-.283.056-.13-.2.044-.058-.152.086.022.171.065.171.13-.085.153-.17.262-.314.305zm.742 3.439c.028-.066.028-.11.028-.153.342-.021.485.218.285.37-.057-.108.029-.108 0-.174l-.085-.021c-.086.087.028.217-.086.195.057-.13-.142.11-.2.044.029-.087.143-.109.086-.152-.4.174-.514-.196-.8-.262.087-.065.144-.26.258-.195.143.021-.171.108-.029.152.086-.044.172-.174.314-.065-.142.13-.114.174-.057.26.086-.043.228.066.285 0zm-.914-.087c-.086-.13-.2-.044-.342 0-.057-.196.057-.24.085-.48.057.153.4.023.457.219-.114.065-.257-.022-.371.043.029.152.257.065.171.218zm1.181-1.074c.118.03.265-.046.218.116zm-.068-.036l.068.036a.15.15 0 0 1-.068-.036zm-2.825-.37c.085-.13.2-.261.114-.305-.114.044-.371-.022-.2-.196.228-.043.257.13.4.174 0-.021.028-.043.057-.021-.257.087-.114.413-.371.348zm.856-.849c-.057 0-.114.109-.171.174-.114-.022.028-.174.057-.261.057.022.143.022.114.087zm.085-1.959c-.142.174.115.174.115.283a.496.496 0 0 0-.171.044c-.058-.066-.143-.261.056-.327zm-.428 2.83c-.057-.153-.37 0-.142-.283.2.065.37.043.428.108-.086.044-.2.066-.286.175zm2.027-1.61c.086-.088.143-.197.228-.153l-.114.196zm3.14 4.787c-.086.044-.172.022-.286 0zm-.857-1.632c.057-.11 0-.153-.028-.218h-.057c.114-.109.37-.087.4-.043-.058.152-.2.13-.315.26zm-.085-.218s-.029 0-.029.022v-.022h.029zm.685-.348c-.172-.044-.314-.087-.343-.174.114.022.143-.13.257-.109 0 .109.086.174.086.283zm-2.712-.152c.029-.196-.085-.087-.114-.044.029-.152-.2-.152-.228-.065.057-.261-.514-.044-.314-.327.4.196.941.153 1.227.5-.257.023-.343-.195-.57-.064zm3.054-1.241c-.057-.022-.228-.174-.342-.087.142 0-.143.24-.2.326.085-.26-.2-.087-.257-.239.114-.152.228-.174.371-.174-.029.218-.171-.022-.2.174a.181.181 0 0 0 .228-.043c-.028-.022-.028-.044 0-.11.172 0 .457-.108.4.153zm-.7 4.008c.133.03.334.019.358.127zm-.07-.025l.07.025a.262.262 0 0 1-.07-.025zm.17-2.22c.086.087.229-.022.172.196zm-1.284-2.612c.114.022.057.153-.028.283zm.537.692c-.1-.03-.364.037-.194-.148zm.034.026l-.034-.026c.017.005.03.013.034.026zm-1.113 1.502c.086-.087.114-.065.285-.13.143.174.8.217 1.085.239-.057.13-.029.196 0 .261-.314 0-.8-.174-1.028-.37-.142.218-.228-.087-.342 0zm.2-1.72c.028-.13-.171.023-.114-.152.114.044.17-.065.285-.065-.057.087-.114.087-.143.174 0 0 0 .044-.028.044zm.999-.521c.143 0-.171-.11.028-.153-.028.109.143.087.114.196-.028 0-.17.087-.142-.043zm-.2-.066c.057-.043.2-.022.143.109zm14.128 4.527c0-.109.029-.152.143-.152.028.043 0 .108.057.108.057-.021.086-.087.086.044-.143-.044-.2.109-.286 0zM9.133 37.958c.257-.131.029-.153.2-.283.143-.044.086.065.086.13-.114.087-.2.153-.286.153zm-1.598 4.461c.086-.022.371.044.2.174zm-.334-3.123c.083-.09.108-.207.248-.207zm-.066.054l.066-.054a.303.303 0 0 1-.066.054zm2.797 7.814c-.085.174-.342.087-.2-.066zm-.376-5.981c.068-.068.137-.144.205-.157zm-.137.104l.137-.104a.448.448 0 0 1-.137.104zm.342 1.002c.057-.153.371-.022.2.087zM7.278 46.75c-.086.044-.314-.043-.228-.174zm2.769-4.875c-.057-.087.2-.479.285-.348zm-4.13 5.209c.124.03.3-.023.277.123zm-.066-.03l.065.03a.173.173 0 0 1-.065-.03zm.314.218c.143-.043.314.11.342.218zm-3.958-2.18c.208.167.618.31.476.526zm-.095-.105l.095.106a.357.357 0 0 1-.095-.106zm4.71 2.024c.057-.022.313.13.37.218-.17.109-.2-.218-.313-.022-.086-.022-.086-.065-.115-.109zm-.03 1.154c-.227 0-.085-.327-.256-.11-.057-.26-.428-.217-.457-.456.143-.087.143.24.314.022.114.239.486.283.4.544zm.058.065c.228-.305.485.196.143.174-.086-.109.2-.087.085-.196-.085-.022-.142.087-.228.022zm7.535-3.613c-.2.022-.228-.043-.457-.087zm-.529 1.576c.103.053.41.021.3.187zm-.013-.009l.013.009a.091.091 0 0 1-.013-.009zm.513-2.416c-.028.066-.085.131-.028.153l.171.043c0-.13.057-.087.086-.26.085.217.57.108.742.282-.257-.043-.086.152-.029.152.229.044.143.044.343.153.285.152.77.152.77.304-.513 0-1.056-.195-1.54-.326-.515-.152-.943-.283-1.228-.5.2 0 .457.26.713 0zm.4.131c-.086.022-.228.065-.171.174zm-1.17.24c.085-.066.285-.11.171.108-.257-.152-.028.153-.2.153.029-.066-.057-.066-.028-.131.114.022-.029-.087.057-.13zm3.34-.762c.085 0 .342-.066.285.174-.115-.065-.143.043-.257-.022 0-.087-.029-.109-.029-.152zm.17 1.48c-.2 0-.428-.044-.656-.218zm-5.137-3.265c.171.044-.143.283-.2.261zm-1.513 5.833c.114.022.057.109.086.152.143.022.2-.043.171.109-.086-.022-.171.043-.285 0 .028-.087-.029-.152.028-.261zm-.057-.631c.228.108.571.174.6.348zm8.306-3.787c-.171-.022-.542.043-.571-.174.257.043.371.021.6.021-.03.066.028.087-.03.153zm-2.14.74c.085-.022.484-.044.284.087zm-4.282-1.284c.114-.11.342.065.342-.153.057.5.571.174.97.436-.113.282.086.304.143.457-.4.043-.485-.327-.884-.262.028-.087.142-.087.085-.13-.228.174-.257-.13-.456-.174-.115 0-.229.109-.343.152 0-.13-.143-.196-.285-.24.142-.239.285-.173.428-.173.057.021-.029.087 0 .087zm-.6.021c.086-.152.058-.087.172-.217zm-.342-.087c.086-.196.314-.087.143.066zm16.697 3.483c.257.065.4-.022.514.13a2.125 2.125 0 0 1-.543.13zm.457-.11c.057-.195-.229-.065-.172-.26.114-.11.314-.044.486-.044-.03.065 0 .109.028.152-.143.044-.2 0-.343.153zm-.813-.849c.127-.009.258-.109.213.044zm-.1-.02l.1.02a.167.167 0 0 1-.1-.02zm1.426-1.22c.029.218-.542.175-.514.044-.057 0-.028.109-.085.109-.029-.044 0-.174-.114-.153 0 .087.057.131 0 .153 0-.13-.114-.13-.171-.066.028-.13-.143-.108-.058-.304.226.107.48-.083.568.166-.043-.144.232-.121.232-.036-.057-.021-.2.11-.086.11.171-.044.285-.153.542-.131-.085.26.057.108.086.304-.228.044-.171-.196-.4-.196zm-2.597.958l-.029.196c-.085-.044-.256-.044-.256-.174.114 0 .142-.087.285-.022zm.001-.49c-.158.027-.296.131-.315-.076zm.227.055l-.227-.055a.26.26 0 0 1 .227.055zm-.513-1.415c.228.065.485-.24.57.087-.142.022-.2-.022-.4.022.115-.196-.313.043-.17-.109zm-1.513 8.923c0 .109-.029.24-.143.24zm.4-5.637c-.314-.065-.257.196-.2.349-.4.195-.057-.48-.457-.414.143-.305.628.022.656.065zm1.34-.544c-.456-.457-1.055-.109-1.626-.37.057-.26.228-.065.343-.065.485.044 1.056.044 1.455.109-.085-.109-.114-.37 0-.566.057.218.628.261.685.152.029.174.114.283-.085.349.057-.196-.543-.283-.543-.022.057.217.514.109.685.087-.114.24-.028.392-.228.5.171-.217-.171-.195-.057-.37-.057-.021-.057-.043-.086-.065-.085.261-.4-.022-.4.283-.028-.065-.056-.109-.085-.152-.029.109.114.174-.057.13zm.23-1.48c.085-.348.399 0 .484-.326-.028.196-.057.174.029.305-.2-.044-.314-.066-.514.021zm2.768-.457c.028-.043.314-.217.228-.087-.057 0-.028.153-.085.153.028-.153-.143.13-.143-.066zm-1.627 1.937c-.029-.174.171-.065.114-.26.228-.023.257.151.371.217-.086.065-.314-.022-.257.24-.2.043-.028-.262-.228-.197zm-1.227-2.133c-.057.022-.115.066-.115.153-.114-.087-.314-.087-.37-.24.285.196.57.044.742-.217.028.152.057.065.17.065-.056.218.258.261.343.174-.028-.043-.171-.022-.114-.152.314.109.6.457.8.087-.058-.022-.144 0-.144-.065a.282.282 0 0 1 .314.065c-.17-.022 0 .087 0 .152-.17-.065-.142.13-.142.261-.143-.065-.114.066-.2.087-.029-.087-.143-.087-.2-.174-.085.24-.285.087-.257-.065-.142.044-.628.044-.827-.13zm3.368-.195c.085-.37-.628-.327-.771-.632.2.066.685.022.999.131-.057.261-.029.588-.228.5zm-3.483-.914c.229-.044.286.348.4.021.114 0 .114.087.257.066-.114.348-.542.174-.657-.087zm1.085.108c.314-.021.57-.043.685.24zm-.285-.021c.057-.066.257-.066.257.065zm2.055.609c.028.218.314-.044.4.174-.457.13-.828-.283-.914.13-.029-.173-.057-.326-.2-.37-.485.305-1.427.044-1.77-.13.4.044.8-.043 1.057.152 0-.108.057-.174.142-.152.428.218.942-.196 1.456.152-.029.175-.171-.13-.171.044zm-.029-1.458c.143-.196.485.087.656-.13-.028.065 0 .108.029.152-.228.152-.457.043-.685-.022zm.742 3.395h.2c-.029.087-.029.218-.114.261.057-.174-.114-.109-.086-.261zm-5.594 7.117c.086-.066.285.021.371.087zm.285-8.249c.115 0 .172.044.2.13zm.714-1.131c-.029-.262.314-.066.171.021zm.542.152c-.057-.196-.085-.022-.143.043-.057-.13.03-.174.086-.26-.114 0-.2 0-.2-.11.172.087.371 0 .257.131.057 0 .086-.065.143-.087.086.087-.057.109.028.152.115.044.086-.109.143-.152.114 0 .114.087.257.065-.057.261-.428-.022-.57.218zm.114.37c.029.022.029.022.029.065-.343-.065-.4-.152-.714 0 0-.152.086-.13.086-.261.228.044.285.087.485-.022-.028.153-.028.24.114.218zm.314.5c.143.022.086.131.057.262zm-1.113-1.436c.057 0 .4-.13.457.087zm.605.002c.09.037.336-.063.28.129zm-.005-.002l.005.002a.071.071 0 0 1-.005-.002zm-5.928-.365c.172.042.475.099.59.17zm-.095-.027l.095.027a.89.89 0 0 1-.095-.027zm2.912.806c0 .021 0 .065-.115.043.057-.13.029-.196-.085-.174-.029.196-.057.13-.057.305-.057.065-.143.043-.257.021-.057-.348-.542-.304-.885-.348 0-.174.143-.022.143-.196-.029-.021-.057-.021-.057-.065.17.109.314.022.456.022 0 .087-.057.196 0 .217.143-.065.143.087.229-.021-.057 0-.086-.044-.086-.11.057 0 .086-.086.143-.086.142.217.628.022.656.413zm-.657 2.089c.057.022.143.065.143.13-.114-.043-.029.283-.143.24.057-.153-.228-.044-.143-.218 0-.087.115-.022.143-.087-.028 0-.057 0 0-.065zm1.199 3.874c.028-.087.057-.174.143-.196 0 .109.228.043.17.174-.056.043-.17.043-.313.022zm.419-4.921c-.167-.036-.306.107-.362-.085zm.009.002l-.01-.002.01.002zm-.171 4.092c-.2.021-.229-.087-.428-.087 0-.196.228-.11.37-.11-.028.088.115.066.058.197zm-1.656.718c.314-.065.77.283.857 0-.229-.109-.486.109-.628-.174.4-.022.742.109 1.113.217-.2.087.057.174.057.262-.514.196-.685-.087-1.256-.087-.114-.088 0-.11-.057-.175 0 .087-.057.022-.086-.043zm1.2.196c.085-.174-.258-.13-.286-.087zm-2.07-6.53c.153.01.305-.037.385.131zm-.186-.065l.187.064a.333.333 0 0 1-.187-.064zm.914-.391c-.029-.196.228-.174.228-.066zm-3.368-.566c.028-.283.428-.174.37-.022zm.314.631c.085.065-.143.152-.057.261-.086-.065-.2-.261 0-.326-.057-.044-.057-.13-.143-.153-.029.11-.086.087-.143.13.143-.064.228.066.086.131-.029-.043-.172.044-.172-.152.03 0 .058-.065.086-.13.286-.066.856-.022.742.217-.057-.065-.228-.13-.4.022zm1.37 1.545c-.114-.022-.029-.217 0-.37zm1.883.74c-.085-.087-.2.196-.228 0l.086.022.057-.196c.057 0 .085.044.114.065zm-.2.218c.03.152.115-.109.2-.022-.085.13.058.109.029.218-.228-.087-.029.108-.171.13a.149.149 0 0 0-.057-.109c0 .022-.029.066-.057.044.057-.087-.058-.218.057-.261zm-.684-.805c0-.196-.058.152-.115.087-.142-.11-.256-.044-.513-.153.028-.065 0-.109 0-.152.2-.196.57.218.6-.152.17-.066.17.065.342 0-.058.195 0 .348.142.391.086-.217.143.022.314-.065-.085.218.2.218.286.152-.257.262-.714-.065-1-.043.143-.109.03-.348-.113-.218-.029.065.228.109.057.153zm3.14-.501c-.086.109.085.196-.03.196 0-.153-.114.152-.17-.022.028-.109.057-.24.2-.174zm-.349-.747c-.172-.208-.481-.104-.65-.276.142.022.77-.022.77.152-.138-.063-.17.057-.12.124zm.006.007zm-.172.849c-.285-.044-.542-.022-.685-.196zm.3 2.927c-.032.015-.068.022-.1-.01zm.1.01l-.1-.01c.055-.025.1-.071.1.01zm-.057-3.59c.114.022.171.109.257.022-.114.304.2-.022.228.174-.143.043-.514.065-.485-.196zm-1.354 5.126c.12.019.298-.02.298.075zm-.045-.012l.045.012a.225.225 0 0 1-.045-.012zm2.797-5.049c-.028 0-.057.087-.057.153-.228 0-.085.174-.256.239.057 0 0 .087.057.109.057.021.057-.087.114-.087 0 .065.057.065.114.065-.2.283 0 .261-.228.348-.2-.196-.486-.13-.514-.413.4.021.514-.37.542-.523.029.153.2-.087.228.11zm-2.854 5.398c-.142.435-.085.152-.257-.022zm-.257-1.328c.029.13.115.174.257.13 0 .088.057.131.057.218-.228-.022-.314-.109-.57-.109.057-.13.17-.174.256-.239zm-.02-.531c.097-.014.199-.084.22.03zm-.094-.013l.093.013a.142.142 0 0 1-.093-.013zm0 2.002a.091.091 0 0 1-.02-.066zm-.02-.066l-.065-.217c.183.035.072.126.065.217zm-.001-4.285c.2.04.508-.065.62.129zm-.007-.002l.007.002-.007-.002zm.122 3.74c.074.028.196.04.22.112zm-.037-.018l.037.019a.144.144 0 0 1-.037-.019zm-.057-3.003c0-.022.029-.066.057-.044 0 .087.086.044.143.022-.029.065 0 .109 0 .152-.114.087-.086-.022-.228-.022 0-.021 0-.065.028-.108zm-3.535 6.148c-.134-.045-.455.02-.375-.163zm.025.01l-.025-.01a.136.136 0 0 1 .025.01zm1.17-6.137c0 .24.257-.108.285.153-.057 0-.085.043-.114.087-.086-.044-.342-.153-.171-.24zm-1.541 0c.057-.152.142-.283.285-.304zm2.968 1.916l-.029.152c-.085-.044-.2-.13-.314-.044.057-.174.229-.087.343-.108zm-1.027 4.526c.028-.13.142-.109.228-.109 0 .066.057.066.028.153zm1.255 1.437c-.114.065-.257-.065-.314-.153zm-.171-1.284c-.314.065-.57.022-.742-.153zm.029.696l.2-.13c0-.066-.086-.044-.086-.11.257-.043.057.218.285.197 0 .174-.2.13-.257.239 0-.087-.171-.043-.142-.196zm-2.227-5.44c-.2.021-.4.304-.542.043zm-.628-1.524c-.114-.022-.17-.065-.114-.196zm1.342 5.963c.086-.087.457-.022.342.152zm.4-1.741c.028.152.028.305.028.479zm.913-3.33c.171.218.57.022.6.392-.543-.196-1.143-.24-1.942-.392.371-.326 1.085.348 1.342 0zm.314 3.613c.085-.044.342.022.285.196-.086-.022-.114 0-.171.021 0-.065.028-.13-.029-.152-.028.065-.085 0-.085-.065zm-3.197 2.764l-.057.152c-.285-.196-.656.022-.913-.261.37-.109.513.174.97.109zm-.842-7.161c.113.032.242.06.328.153zm-.185-.086l.185.086a.441.441 0 0 1-.185-.086zm0 7.138c-.057.043-.172.043-.286 0zm-.885-4.58c.183.071.54.042.513.227zm-.029-.012l.029.013a.304.304 0 0 1-.029-.013zm.343-1.415c.057-.152 0-.326.2-.283zm2.968 4.68c-.029.108.029.13 0 .217-.342-.13-.656-.022-.742-.283.171-.043.428.044.742.065zm.396 1.47c-.124-.028-.339 0-.339-.1zm.032.01l-.032-.01a.235.235 0 0 1 .032.01zm-3.51-.175c-.172 0-.229.196-.428.174-.03-.13.028-.087.028-.26.143-.066.371.043.4.086zm2.246-.448c.097.032.232.034.123.187zm-.077-.118l.077.118c-.055-.019-.098-.047-.077-.118zm-.628-5.092c-.114-.022-.114-.13-.171-.196.142-.022.257 0 .314.109-.057 0-.086.043-.143.087zm.642 6.04c-.036.032-.071.064-.157.032zm.157-.034l-.157.033c.036-.032.071-.065.157-.033zm1.305-.391a.212.212 0 0 1-.078 0zm.265 0h-.265c.072-.013.136-.05.265 0zm6.736-.893c.057 0 .057-.043.114-.043 0 .283.4-.087.4.174-.143.109-.457 0-.571-.065.057 0 .085 0 .057-.066zm.77 1.24c-.114.088-.314.023-.37-.064zm-.028-1.087c.085-.11.456 0 .57.13zm-.314.544l.028-.196c.257.24.628-.087.828.24-.4.086-.457-.11-.856-.044zm-.2-.196v.152c-.428-.109-.714.066-1.085-.26.286-.044.628.086 1.085.108zm-.143.718c-.143.087-.4 0-.428-.13zm3.653-1.131c0 .13.03.195.058.26-.343.175-.514-.282-.685-.065 0-.108-.029-.174-.086-.217-.029.065-.314-.022-.371-.066.485.022.714-.108 1.085.087zm.314 1.175c0 .065.086.065.058.152-.257.24-.771-.044-1.114-.065.2-.327.657.065 1.056-.087zm-1.232-2.647c-.102-.004-.252.036-.252-.052zm.062.013l-.062-.013a.155.155 0 0 1 .062.013zm.714 3.678c-.143.11-.228-.13-.314-.217zm-4.538-1.131c-.029-.327.37-.196.314.021zm3.767-.044c.029.044 0 .109.057.109 0-.065.086-.044.057.043-.142-.021-.114.11-.228.11-.057-.066-.057-.284.114-.262zm-7.82-3.177c-.143.043-.485.021-.286-.13zm1.684 1.218c-.143 0-.143-.087-.114-.217zm-.4-.087c.029-.065-.028-.065-.028-.152l.142.022-.028.152c-.086-.065-.2.13-.2-.022zm-.085-1.24c.313.065.513-.348.827-.087-.085 0-.085.065-.171.043 0 .066.057.066.029.153-.314-.13-.628.217-.685-.11zm-.115 3.112c-.2-.043-.628.087-.456-.152zm14.3-6.855c.057.152.2-.066.228-.11-.057-.13-.285.044-.143.11zm-12.387 7.269c.2.043.428.043.456.217-.085.087-.256-.043-.485-.022zm.942 0c-.143-.022-.314 0-.314-.131zm.513-3.287c-.114.066-.428.044-.456-.087zm-2.483-3.982c.171-.088.428-.131.485.043zm.913 7.29h-.028c-.2.218-.485.022-.714 0 .143-.152.657-.13.742 0zm-.17-.217c0-.174.17-.24.056-.37.371.108.628.021 1 .174-.258.217-.315.043-.657.022-.086.065-.057.239-.143.304-.143 0-.171-.087-.257-.13zm-14.7-2.764c.257.108.286.13.571.196-.057.087-.114.152-.171.174-.086-.218-.514-.087-.4-.37zm-1.455.217c-.114-.087-.485-.087-.314-.24zM5.88 47.925c.4.262.542.153.884.414a.3.3 0 0 0-.085.196c-.057 0-.114-.044-.143 0-.029-.436-.428-.087-.685-.5-.2.152.029.195.029.304a.256.256 0 0 1-.2-.152zm2.055-2.328c-.286-.131-.6-.262-.714-.457.257.043.514.282.828.326zm.314-6.66c-.115.087-.229.152-.314.13zm-.6 10.12c-.2-.065-1.113-.152-.885-.435zm-.685.479c.2-.13-.114-.261.143-.261-.057.174.143-.087.085-.131.2.13-.028.218-.057.457zm1.227-11.818c.115.065-.085.196-.17.305zm1.399 9.337c-.114-.022-.029.152-.2.109.029-.262-.37-.175-.4-.392.257.109.514.217.6.283zm-.371 2.002c-.086-.022-.2-.087-.086-.087.143.13.143.044.229.152-.086.13-.172.11-.286.13-.028-.13.029-.064.143-.195zM8.39 37.152l.2-.152c.057.087.086.13.257.109a.468.468 0 0 0-.114.13c-.086-.087-.2-.152-.343-.087zm.6 9.206c.21 0 .311.106.475.197zm.475.197l.21.086a.947.947 0 0 1-.21-.086zm-.219 3.742c-.17-.043-.2-.326-.028-.348 0 .087-.086.196.114.218zm-.659-10.082a.154.154 0 0 1-.054-.016zm.174.05l-.174-.05c.067.007.13-.02.174.05zm-7.078 4.592c-.314-.218-.628-.436-.714-.632zm-.171 1.719c-.143-.13-.457.022-.229-.218zm-.77-1.741c-.058.065-.087.109-.058.152l-.228-.152c.114-.065.599-.13.428.087zm.77-.784a.11.11 0 0 0 0-.13c-.057.022-.143-.022-.086-.065.114.087.228-.088.343.087-.115.065-.2.108-.257.108zm14.756 6.246c-.2-.021-.314-.108-.314-.239zM3.31 45.422c-.057-.174-.4-.021-.286-.304.143-.066.257.13.4.174zm1.455 1.872c.029-.022.058-.087.115-.065-.229.196.256.24.057.413-.2-.021-.314-.217-.371-.37.085.022.142.087.2.022zM3.71 45.662c-.114-.065-.285-.13-.17-.24zm-.884 1.175c-.029-.022-.086-.065 0-.13-.057-.044-.115.021-.172-.044.115-.174.371.087.172.174zm-.742-.783c.256.087.57.283.97.5zm2.854 1.85c-.114-.044-.2.065-.314-.044.085-.065.114-.13.114-.196.143.065.228.13.2.24zM.426 45.16C.222 45.046 0 44.955 0 44.748zm.316.306l-.316-.306c.139.077.27.165.316.306zm13.215 1.16c.162.027.391.002.37.19zm-.143-.072l.143.073c-.065-.011-.119-.03-.143-.073zm.714-.957c.114-.175-.229-.022-.143-.218.2.022.314.109.371.283zm-.143 3.33c-.114.043-.343 0-.285-.131zm-1.57 1.48c.176-.034.291.012.424.06zm.424.06l.49.07a1.026 1.026 0 0 1-.49-.07zm.29-.975c-.286.022-.543-.13-.714-.196zm-.486-5.027c.058-.087.315.022.257.087zm.286 4.157c.086.021.171.049.257.076zm.257.076l.257.076c-.086-.022-.172-.049-.257-.076zm1.712-1.556c.2-.044.229.065.4-.065-.057.108.028.174-.114.239-.057-.087-.286-.087-.286-.174zm.657-1.48c-.171-.022-.229 0-.229-.174zm-.942-1.088l.257.065-.086.152c-.114-.152-.257.153-.485-.021.029-.262.342.021.314-.196zm.485 5.484c-.171.044-.4-.022-.371-.196zm-.314-3.983c-.143-.043-.171-.174-.057-.239zm-2.968 4.723c-.143-.044-.343-.065-.286-.196zm18.951.544c0-.174-.285-.348 0-.37.029.065 0 .152.057.152h.115c.085-.13-.057-.174.057-.26.028.152.171-.088.2.108-.058 0-.115 0-.115.044.257.022.172.13.371 0-.142.174-.028.304-.17.37-.172.043-.372-.218-.515-.044zm-20.378-3.7c.057-.021.142 0 .257.044-.029.109-.115.174-.2.152.085-.109-.086-.109-.057-.196zm-.885 2.068c.143-.044.342.109.4.196zm1.798-1.763l-.086.152c-.342 0-.57-.108-.485-.391.257.021.314.065.571.24zm-1.113 2.329c-.171.021-.2-.022-.2-.174zm.6-.414c.142.022.285 0 .456.087zm.998-1.61c-.171-.087-.456-.044-.428-.261zm-1.883 1.893a3.023 3.023 0 0 1-1.085-.435zm1.255-7.182c.029.022.314-.087.172.13zm.457.174c.4.066.8.218 1.313.5.114-.108 0-.282.171-.217-.028.11-.057.24-.085.37-.257-.13-.543-.196-.8-.283-.256-.087-.513-.174-.599-.37zm-.656 5.158c.142.022.256.022.256.153zm9.304-3.351c-.114-.11.171-.13.057-.196-.143.196-.171-.261-.342-.065.085 0 .17.043.142.13-.142-.065-.37-.065-.4-.218.058 0 .058-.087.087-.152.2.109.256-.13.142-.196.171.087.428.436.6.261-.172-.021-.172-.152-.257-.239.085 0 .17.022.17-.087-.17-.109-.227-.044-.256-.24-.2.392-.343 0-.6-.043-.313-.043-.656.087-.799-.261-.285.261-.742-.218-1.198.022.114-.196-.114.021-.057-.11.142-.064-.229-.195 0-.326.114.13.228.218.37.087.229.457.886-.021 1.085.327.172 0 .314-.022.457-.022.029.065-.029.196.057.218.114-.24.114 0 .257.043.143-.24.97-.065.999.11.086.02.086-.131.2-.066.085.109.257.326.085.5.029-.108 0-.174-.085-.174-.057.196-.114 0-.172.174.143-.087.314.066.2.13.029-.086-.171-.02-.2.023.115.043.172.13.286.152.2-.326.285.13.57-.283 0 .087.115.109.03.261-.115.044-.258.066-.286.283-.514-.13-.685-.217-1.142-.043zm29.927-3.224c.096-.048.19-.103.127-.02zm-.158.024l.158-.024c-.078.04-.158.073-.158.024zm2.426-.021c0-.196-.257-.044-.285-.218.114 0 .314-.109.37 0-.114.022.03.218-.085.218zm8.82 12.361c-.143.066-.172-.065-.257.044 0-.087-.058-.109-.086-.152.143-.022.314-.066.342.108zm-8.42-12.688c.142.022.085-.152.257-.13 0 .283-.03.108.114.304-.086.066-.143.022-.314.087 0-.152 0-.108-.057-.26zm-2.34.24c.113 0 .199.043.256.13zm25.63 9.858l.04-.2a.302.302 0 0 0 .198-.001c.02.136-.142.364-.238.201zm-14.842 2.307c.143-.065.086-.043.257-.043zm15.755-2.306c-.034-.079-.069-.15-.066-.203a.58.58 0 0 0 .066.05c.03.02.08.034.12.029-.036.045-.01.124-.12.124zM64.96 53.431l-.257.043c-.057-.109.028-.109.057-.174-.228-.13.2-.022.2.13zm-27.058-9.685c-.171-.022-.257-.13-.342-.24zm.086-.784c-.057.13-.228.109-.371.022zm1.113 0c.057-.109.343-.022.428.022zm-2.312.87c.029 0 .057 0 .057-.043-.057-.043-.314-.109-.2-.196.115.022.4.37.143.24zm.57-.347c-.227 0 .115.282-.113.304-.086-.152-.171-.087-.257-.152.057 0 .057-.109.085-.152.115.021.372-.153.286 0zm-.541.108c-.057-.13.2-.217.228-.108zm12.53-1.915c.142.13.342-.152.342.065.057-.108.2-.152.314-.195.114.152.228-.044.314.13-.428.109-.742.153-.914.153.172-.022-.2-.066-.057-.153zm-13.272 1.828c-.115.044-.343.196-.371-.043zm.114-.043c.028-.022.37-.087.37.087zm-.2-.066c-.029-.108-.114-.13-.114-.26h.228c-.114.282.4.065.257.195-.171 0-.257.044-.371.065zm.57 1.023c0-.152-.113-.152-.256-.152zm9.134-2.328c0-.262-.2.13-.285-.087.114-.087.17-.218.4-.196-.03.087.028.283-.115.283zm.514-.153c0-.174.171-.174.285-.24zm-2.14 0c.113-.021.142.11.17.196zm4.594.327c.115.022.229.087.314.13zm.343-.588a.221.221 0 0 1-.018.01zm-.018.01l-.325.186c-.027-.273.158-.1.325-.185zm-10.257.186c-.114.044-.257.109-.457.109zm-.77.283c0-.152-.258-.305-.372-.152.057.021.086.021.086.108-.114.022-.286-.108-.457.022.029 0 .057.022 0 .044 0-.11-.114-.087-.143-.196.372-.174.514-.044.942-.196-.085.13.086.305-.057.37zm.998 1.066c.057.262-.285.131-.456.174.057-.195-.172-.282-.029-.522.143-.022.2.022.257.087-.057.044-.2.066-.228.153.142 0 .2.13.285.195-.057-.152.114-.087.171-.087zm1.056-1.153c.172 0 .115-.218.257-.218.029.13-.085.153-.057.305a.236.236 0 0 1-.2-.087zm-1.141-.109c.228-.174.57-.24.827-.24-.028.153-.342.022-.314.218.286.022.514-.26.743-.13-.229.065-.4.24-.771.24-.057-.327-.286-.11-.485-.088zm.399 6.583a1 1 0 0 1-.2-.076zm.2.077l-.2-.077c.071.022.143.044.2.077zm21.406 5.528c-.114-.218.229-.218.257-.044zm-21.406-5.963c0-.022-.029-.066-.057-.044-.2 0-.2.152-.228.218-.029-.066-.086-.087-.115-.153.143-.13.058-.304.115-.522.114-.022.114.087.257.043.057.175-.172.088-.143.218.028.087.257.218.171.24zm-4.196 4.417c0-.021.057-.065.057 0-.057.022-.057.044-.057.11h-.142c0-.153-.086-.11 0-.218.085 0 .085.087.142.108zm.2-.5c.057.152.172.087.172.196 0-.022 0-.044.057-.044.057.196-.286.044-.314.153-.115-.11-.029-.283.085-.305zm-.742.457v.152c-.342-.043-.799.066-.999-.13.286-.174.657-.022 1-.022zm-1.297-1.788c-.104.223.334.357.098.417-.028-.044 0-.109-.057-.109-.057.022-.085.065-.114.109 0 .109.143.109.2.196-.171.043-.228-.066-.4-.044.05-.25.168-.415.273-.57zm.041-.062l-.04.061c.008-.02.022-.04.04-.061zm-.913.522a.203.203 0 0 1 .039-.013c-.006.013-.022.013-.039.013zm.039-.013c.003-.009.001-.025-.01-.052-.115.022-.143-.043-.143-.152.314 0 .37.087.57-.044a.844.844 0 0 1 .115.305c-.131 0-.382-.092-.532-.057zm.532 1.406c-.143.022-.114-.13-.2-.196h.2zm3.34-.413c0-.13-.086-.087 0-.196.37.13.684 0 .998.13-.086.131-.171.022-.257.11.086 0 .171.021.2.086-.4.13-.97.066-1.513.044 0-.196.4-.174.571-.174zm4.766-3.221c.17-.044-.057-.153.114-.218.085.13.028.109.085.261-.057 0-.17.022-.2-.043zm-.172.24c-.228-.088-.17-.632.057-.37zm-1.084-1.307c-.143.066-.229.044-.314-.087.082-.015.09-.11.152-.153.032.066.058.14.105.11a.16.16 0 0 0 .037-.033.59.59 0 0 1 .02.163zm12.216 5.289c.068 0 .132-.032.191-.06.073.015.147.023.22.029-.02.019-.035.043-.012.096-.143.044-.314.044-.4-.065zm.142.326c-.057.066-.257.066-.285-.087zm1.541.11c-.085.02-.2.02-.142.13.085-.022.342.065.228.13-.057-.109-.114.11-.257.087-.057-.196-.285-.13-.428-.217a.78.78 0 0 1 .6-.13zm6.88.217c-.058.065-.172.065-.315.087-.028-.109-.086-.109-.114-.196.057-.087.314 0 .428.109zm-1.856.108c.143-.021.228.066.314.11zm-1.77-.326c-.057 0-.142 0-.142.065.114.022.599-.087.456.087-.142-.13-.485.087-.57-.087.114-.065.142-.304.256-.065zm-.228-.348c.057-.065.314-.065.342.109zm-20.407-.13c-.229 0-.486 0-.571-.153zm22.092.694h-.005.005zm0 0l.513-.02c-.047.09-.404.032-.513.02zm-19.499-1.408c-.118.02-.244.115-.224-.092zm.147.06l-.147-.06c.056-.01.11-.002.147.06zm1.998.305a.37.37 0 0 1 .007.001zm.007.001l.535.086c-.309.022-.397-.062-.535-.086zm-.835-.37c-.2.043-.143.043-.343.13-.085-.044-.17-.066-.17-.196.256.065.427-.109.513.065zm-3.282.74c-.172.064-.429.043-.486-.153zm.886-.771c-.097-.003-.401.087-.401-.122zm.027.008l-.027-.008c.014 0 .023.003.027.008zm10.026.424c-.08.063-.116.178-.236.055zm.135-.032l-.135.032a.151.151 0 0 1 .135-.032zm-2.255-.435c.014-.043.028-.075.042-.108.111-.022.22-.06.328-.098.037.001.082.004.144.01l.028.152c-.2.044-.285.11-.428-.022 0 .175-.314.218-.4.088.08 0 .012-.112.047-.146a.358.358 0 0 0 .037.019c.055.046.128.067.202.105zm-13.272.087c-.428.13-.942.022-1.256-.109zm16.098.762c0 .065.028.13-.029.152a.497.497 0 0 0-.428-.022c.057-.218.257-.109.457-.13zm1.227-.174c-.029 0-.057-.022 0-.044.114.174.485-.022.57.152-.228.087-.485.022-.627.022.057-.022.057-.065.057-.13zm-15.184-7.53c.014-.042-.057-.024-.12-.021.04.032.065.068.066.11a.278.278 0 0 0 .054-.09zm-.114-.197a.851.851 0 0 1 .485.196c.044.039-.028.153-.086.153-.054 0-.01-.127-.057-.153-.044-.023-.095.028-.143.044.011.058-.087.174-.028.174.19 0 .415-.033.542-.174.103-.113.162-.384.029-.457-.167-.092-.353.166-.543.174-.05.002.025-.108 0-.152-.054-.1-.254-.188-.342-.044-.03.047.04.251-.027.324.026.01.052.022.076.035 0-.054.046-.123.094-.12zm-.662-.657l-.07.072h-.035c.012-.03.033-.064.053-.067a.305.305 0 0 1 .052-.005zm1.081-.454a.206.206 0 0 1-.063-.016v.02l.063-.004zm-.077-.042a.115.115 0 0 1 .023-.033.187.187 0 0 0-.009.06c-.013-.007-.019-.016-.014-.027zm10.446-.522c.08 0 .103.003.2-.022.012-.003.017-.022.029-.022.032 0 .033.037.03.064.008-.003.024.01.027.001.027-.084.124-.203.057-.26-.074-.064-.22-.007-.286.065-.039.042.066.097.086.152.003.009-.02-.001-.028 0-.048.006-.095.018-.143.022l-.019.001c.016.002.032-.001.047-.001zm.229.152c-.004.006-.003.015 0 .022.016.044.014.11.057.13.077.038.21.094.257.022.041-.063-.135-.07-.2-.109a.44.44 0 0 1-.086-.065c-.005-.005 0-.015 0-.022-.003.012-.022.012-.028.022zm-.114-.479c.037.01-.073-.03-.125-.06.04.025.08.05.124.06zm1.706-.3a.683.683 0 0 1-.197.171.587.587 0 0 1-.018-.023.436.436 0 0 1 .135-.196c.012-.007.046.014.08.048zm33.556 5.732c-.015.011-.027.018-.014.01a.93.93 0 0 1 .014-.01zM57.855 53.06a.39.39 0 0 0-.001.023c0 .012-.035.032-.029.022l.03-.045zm-2.77.197c.044-.015.13-.096.086-.109-.129-.035-.282.085-.4.022-.06-.032.178-.146.114-.174-.1-.043-.257-.006-.314.087-.041.069.192.133.144.195.13.001.282.01.37-.02zm-1.74.22a.748.748 0 0 1-.279.082.806.806 0 0 1 .164-.106.251.251 0 0 1 .115.024zm-.743.412c-.089-.114.225-.208.257-.349l.001-.01c.007.018.032.03.085.032a.79.79 0 0 0 .121-.003c-.183.134-.452.345-.464.33zm.257-.632c.705-.191.017.134 0 .26-.025-.107-.367-.16 0-.26zm-3.893-.64c.041-.067.069-.16.125-.208.286-.249.06.029-.125.207zm-.077.069c-.08.068-.13.089-.084-.012.017.012.036.02.058.017.01 0 .018-.002.026-.005zm-4.587-.341c.815.273.554.24-.073.101-.024-.048-.053-.098-.018-.103a.33.33 0 0 1 .09.002zm-2.403-.22c.005.006-.006-.018 0-.021a.78.78 0 0 0 .073-.045 26.968 26.968 0 0 1-.15-.05c.025.04.048.08.077.117zm-.029.24c.044.139.313.175.429.087.089-.068-.207-.212-.143-.305a.134.134 0 0 1 .02-.022 44.086 44.086 0 0 1-.08-.026c-.094.09-.26.155-.225.266zm.828-.305c.076-.063.102-.208.2-.217.066-.007-.035.18.029.196.072.018.146.031.221.039-.051-.128.01-.395-.05-.431-.188-.114-.334.286-.371.348-.006.01-.017.02-.029.022-.047.006-.1.02-.143 0-.02-.01.02-.075 0-.065-.026.013-.038.065-.054.093l.152.036a.09.09 0 0 0 .045-.02zm.97-.021c.064-.018-.094-.196-.028-.196.115 0 .18.148.285.196.044.02.096.009.143 0 .069-.014.177 0 .2-.066.18-.512-.342-.126-.371-.13-.075-.012-.042-.174-.114-.196-.05-.015.023.149-.029.152-.104.007-.206-.2-.285-.13-.08.069.167.237.086.304a1.426 1.426 0 0 1-.149.11c.09-.007.178-.021.263-.044zm-1.312-.24c-.11-.01-.199.074-.291.146l.382.088c-.041-.076-.009-.227-.091-.234zm-.486.066a.692.692 0 0 0-.079.02l.134.029c-.012-.03-.028-.055-.054-.05zm-6.906-1.459c.039.01.078.024.114.044.006.003-.003.015 0 .022a.106.106 0 0 0 .028.043c.035.027.08.039.114.065.014.01.012.044.029.044.024 0 .036-.033.057-.044.008-.004.019 0 .029 0 .019 0 .039-.006.057 0 .006.003-.006.018 0 .022.007.006.024-.009.028 0 .049.112-.155.156-.171.218-.013.048.094-.056.143-.044.05.013.062.101.114.11.03.004.002-.072.028-.088.033-.02.076 0 .114 0 .01 0 .021-.006.029 0 .006.004-.007.02 0 .022.113.014.228.012.342.022.067.005.133.021.2.021.03 0 .057-.016.086-.021.116-.023.016.193.171.217.065.01-.063-.214 0-.196.111.032.114.247.228.261.082.01-.082-.161-.057-.239.014-.042.076.046.115.065.056.029.167.045.2.087.04.054-.007.172.056.196.051.02.006-.135.057-.152.191-.063.4-.039.6-.065.02-.003.038-.028.057-.022.053.017.09.107.143.087.048-.018.005-.106.028-.152.01-.019.04-.013.057-.022.011-.006.02-.03.029-.022.075.064.102.207.2.218.065.007-.065-.204 0-.196.146.017.224.226.37.24.076.006.047-.164.115-.197.043-.02.094.044.114.087.031.067-.044.227.029.218.142-.017.253-.148.342-.261.022-.028-.071-.032-.086-.065-.01-.022.007-.074.029-.066.099.038.14.112.171.196.01.029.033.057.029.087-.006.047-.087.094-.057.13.043.054.133.059.2.044.028-.006 0-.058 0-.087v-.021c0-.022-.006-.045 0-.066.004-.016.035-.027.028-.043-.008-.019-.047-.004-.057-.022-.022-.039-.02-.087-.029-.13 0-.008-.007-.023 0-.022.115.007.23.022.343.043.007.002-.007.019 0 .022.045.02.097.024.143.043.022.01.038.03.057.044.019.014.041.025.057.043.005.006-.007.02 0 .022.018.007.038 0 .057 0 .219.014.438.022.656.044.008 0-.006.026 0 .022.04-.027.075-.06.111-.091-.064-.076-.041-.25-.14-.28-.083-.025.11.228.03.262-.185.077-.429.081-.6-.022-.047-.028-.03-.083-.003-.144-.03-.04-.044-.14-.083-.117-.056.032.01.131 0 .196-.001.01-.02.003-.028 0-.03-.012-.056-.031-.086-.044-.056-.024-.12-.032-.171-.065-.074-.048-.114-.152-.2-.174-.043-.011.061.1.029.13-.035.034-.11.013-.143-.021-.054-.057-.024-.17-.086-.218-.032-.025-.026.082-.057.109a.262.262 0 0 1-.143.065c-.128.012-.137-.236-.17-.261-.04-.03-.1.069-.143.043-.065-.038-.08-.129-.115-.195-.003-.007-.007-.022 0-.022.02 0 .04.011.057.022.031.018.052.075.086.065.04-.012.067-.07.057-.109a.808.808 0 0 0-.171-.348c-.024-.027-.08.03-.086.065-.014.08.029.16.029.24 0 .011-.02.013-.029.021-.032.034-.086.073-.057.13.04.078.092.148.143.219.007.01.018.016.028.021.057.03.118.053.172.087.006.004 0 .015 0 .022 0 .03.019.065 0 .087-.014.015-.04-.032-.057-.022-.03.018-.023.08-.057.087-.029.006-.037-.044-.058-.065-.008-.008-.023-.01-.028-.022-.006-.013.012-.035 0-.043-.184-.126-.354-.296-.57-.348-.074-.018-.084.128-.144.174-.022.017-.057-.006-.085 0-.012.002-.022.011-.029.022a.731.731 0 0 0-.057.108c-.003.007.007.02 0 .022-.227.058-.451.169-.685.152-.068-.004.12-.168.057-.195-.14-.061-.305.007-.456.021-.008.001.007.023 0 .022-.04-.008-.088-.013-.115-.043-.019-.022.025-.072 0-.087-.094-.06-.204-.128-.314-.11-.053.01.048.1.057.153.002.01-.019-.002-.028 0-.02.005-.038.015-.057.022-.02.007-.042.036-.057.022-.035-.033-.011-.12-.057-.131-.047-.012-.07.067-.114.087-.011.005-.027-.01-.029-.022-.008-.057.05-.146 0-.174a.335.335 0 0 0-.314 0c-.047.028.047.1.057.152.002.01-.019 0-.028 0-.02 0-.039.003-.057 0-.039-.004-.093.011-.115-.021-.126-.193.212-.039.143-.196-.193-.441-.2-.027-.228 0-.021.02-.079.027-.086 0-.028-.105-.046-.228 0-.327.037-.077.151.049.2.044.134-.013.273-.113.4-.065.088.033.036.206.114.26.086.062.209.057.314.044.028-.003.032-.044.046-.072-.158-.1-.264-.296-.446-.341-.17-.042-.34.12-.514.109-.063-.005-.052-.137-.114-.153-.04-.01-.017.099-.057.11-.066.016-.135-.066-.2-.044-.034.01-.01.074 0 .108.038.127.102.245.143.37.004.012-.02-.014-.029-.021-.01-.008-.028-.01-.028-.022 0-.01.034.008.028 0-.08-.106-.133-.256-.257-.305-.107-.043-.313-.047-.342.066-.027.102.239-.031.314.043.045.044-.062.116-.114.152a.179.179 0 0 1-.017.01.224.224 0 0 1 .103-.01zm5.194.37c.001-.017-.02-.028-.029-.043-.02-.036-.057-.068-.057-.109 0-.019.055.019.057 0 .01-.087.015-.185-.028-.261-.024-.044-.093-.044-.143-.044-.024 0-.063.02-.057.044.018.067.081.113.114.174.034.063.055.131.086.196.007.015.026.026.029.043.002.018.008.038.013.06a.224.224 0 0 0 .015-.06zm-3.482-.479c.011-.004.017-.017.028-.021a3.316 3.316 0 0 1 .235-.089l-.035.002c-.01 0-.028.01-.028 0 0-.06.07-.132.028-.174-.046-.048-.155-.05-.2 0-.064.07-.023.192-.057.282-.007.02-.037.016-.057.022a.256.256 0 0 0 .086-.022zm.428-.043c.017.006.056.02.104.033-.024-.021-.05-.045-.075-.055a1.007 1.007 0 0 0-.172-.043c.05.018.094.048.143.065zm.457.065c.05-.042.035-.141 0-.196-.023-.034-.018.1-.057.11a.246.246 0 0 1-.148-.01c-.006.037-.019.07-.045.091.102.024.21.039.25.005zm-3.094.279zm-.56-.192c.053.015.08.104.058.153-.036.076-.12.174-.2.152-.075-.02-.039-.189-.088-.23.07.008.155-.096.23-.075zm5.162-1.101c.07.066.138.138.204.209.069.073-.21-.097-.228-.196-.003-.015.007-.018.024-.013zm.475.119c.044.006.09.01.129.025.04.015-.085.007-.129-.025zm4.068-.89c-.048-.002.156.065.114.088a.564.564 0 0 1-.1.042c.167-.002.337.002.5-.02-.175-.018-.34-.1-.514-.11zm-1.285.218c0 .01.004.022.01.035-.094-.137-.212-.265-.238-.426-.015-.09.144.188.228.152l.002-.001c-.02.067-.002.168-.002.24zm.01.035c.017.025.033.05.047.074.016.027-.027-.028-.047-.074zm-.69-.478c.068.182-.24.053-.233.052.077-.016.155-.034.234-.052zm-1.375-.754c-.028-.021.02.033.048.085-.01-.033-.023-.066-.048-.085zm-4.695.05c.053.069.115.134.1.212a.107.107 0 0 1-.05.068c-.024-.079-.078-.165-.064-.243a.112.112 0 0 1 .014-.036zm.42.67c.027.015 0 .141-.006.107a.371.371 0 0 1 .006-.107zm-1.29.39c0-.038.152 0 .114 0h-.114zm-.628-.674c-.144-.021-.47.052-.429-.087.047-.16.32-.123.486-.11.054.005.03.106.057.153.004.008.02-.003.028 0 .039.013.077.049.115.064a2.477 2.477 0 0 1-.257-.02zm-7.377-1.433c.054.058.075.1.074.13-.051-.025-.093-.055-.09-.09a.082.082 0 0 1 .016-.04zm.213.214a.593.593 0 0 1-.282-.018c.079-.001.14-.019.143-.067.087.043.198.071.139.085zm-.282-.018c-.178.003-.445-.077-.318-.07.107.007.213.044.318.07zm26.226 6.762c.001.005.002.01.001.014a.029.029 0 0 1-.001-.014zm-3.97-.83c.024-.02.05-.044.077-.07a.155.155 0 0 1-.077.07zm-6.56-4.174a.095.095 0 0 1 .055-.064.126.126 0 0 1-.054.064zm-7.993-.501l.055.002c-.018.008-.036.006-.055-.002zm2.343.549c-.089-.005-.138-.06-.18-.122v-.02l.193.114a.281.281 0 0 0-.013.028zm5.106-5.074c-.02-.002-.012.023-.004.051.178.021.356.042.532.02-.158-.061-.358-.055-.528-.071zm0 .108c-.009.017-.042-.011-.057 0-.02.015-.007.057-.029.066-.114.043-.09-.069-.08-.14.053.004.108.01.162.017.006.021.011.044.004.057zm-.685.153c.088.073.304-.13.342-.022.042.115-.138.292-.257.261-.195-.051-.29-.302-.45-.422.126-.012.253-.029.38-.04-.05.064-.07.177-.015.223zm-.485-.24c-.08-.017-.151.022-.222.074.114.002.228-.005.342-.017a.312.312 0 0 0-.12-.057zm-1.97.392a.333.333 0 0 0 .136.019.506.506 0 0 0-.035-.087c-.077.03-.15.05-.1.068zm-3.539.218c-.017.004-.028.016-.034.032a.268.268 0 0 1 .04-.033h-.006zm3.198 1.108c.006.012.014.02.027.023a.985.985 0 0 0 .314 0 1.445 1.445 0 0 0-.34-.023zm.398.176c.122.006.456-.084.343-.13-.123-.051-.259-.036-.395-.021.046.016 0 .148.052.15zm-2.026.783c.007-.01.04-.023.028-.022-.095.009-.38.052-.285.044.086-.007.171-.013.257-.022zm4.11-.043c-.036.101.198.106.257.196.02.03-.052.052-.086.065-.026.01-.057 0-.085 0-.01 0-.022.006-.029 0-.07-.06-.281-.15-.2-.196.046-.026.094-.048.144-.068l-.001.003zm.4-.096l.007.015c.078.044.162.085.238.132.035-.072.072-.134.04-.138a1.275 1.275 0 0 0-.285-.01zm.313.379c.047 0 .117-.075.086-.11a.732.732 0 0 0-.154-.122c-.051.105-.1.232.068.232zm.314-.784c0 .008.002.017.005.027l-.004-.032v.005zm.737-.744a.367.367 0 0 1-.023.004c-.01.001.036.006.029 0a.127.127 0 0 0-.006-.004zm-.736.739c.002-.008.005-.017 0-.017v.017zm0 .092c.02.004.01-.03.004-.06a.131.131 0 0 1-.005.06zm-3.335-1.74c.013.02.018.052.024.083.002-.04.001-.076-.024-.083z"/></g></g></svg>