<svg xmlns="http://www.w3.org/2000/svg" width="100" height="100" viewBox="0 0 100 100"><g><g><g/><g><path fill="#c02524" d="M94.044 54.411L42.071 29.794a7.69 7.69 0 0 0-10.083 10.542l8.327 15.72 24.042 4.573a1.562 1.562 0 0 1 0 3.07l-24.042 4.586-8.327 15.719a7.69 7.69 0 0 0 10.083 10.543L94.044 69.93a7.724 7.724 0 0 0 4.396-6.948v-1.624a7.722 7.722 0 0 0-4.396-6.947z"/></g><g><g><path d="M79.529 35.24c.097.22.15.457.156.697V56.25a4.688 4.688 0 0 1-4.688 4.688h-4.812a10.924 10.924 0 0 1-21.625 0H32.685a10.924 10.924 0 0 1-21.625 0H6.248A4.688 4.688 0 0 1 1.56 56.25V10.937A4.687 4.687 0 0 1 6.248 6.25h40.625a4.688 4.688 0 0 1 4.687 4.688v4.687h15.256a4.66 4.66 0 0 1 4.2 2.583zM51.56 18.75v15.625h24.034l-7.38-14.76a1.562 1.562 0 0 0-1.398-.865zm-32.813 5.284l5.716-2.857a4.712 4.712 0 0 1 4.194 0l5.716 2.857V9.375H18.748zM4.686 56.25a1.563 1.563 0 0 0 1.562 1.563h4.813a10.924 10.924 0 0 1 21.625 0h15.75V10.937a1.563 1.563 0 0 0-1.563-1.562h-9.374v14.66a3.125 3.125 0 0 1-4.516 2.795l-5.716-2.858a1.562 1.562 0 0 0-1.397 0l-5.715 2.858a3.126 3.126 0 0 1-4.531-2.796V9.375H6.248a1.562 1.562 0 0 0-1.563 1.562zm22.709 8.647a7.822 7.822 0 0 0 2.291-5.522 7.813 7.813 0 1 0-7.813 7.813 7.822 7.822 0 0 0 5.522-2.292zm37.5 0a7.822 7.822 0 0 0 2.291-5.522 7.813 7.813 0 1 0-7.812 7.813 7.822 7.822 0 0 0 5.521-2.292zm10.103-7.085a1.563 1.563 0 0 0 1.563-1.562V37.5h-25v14.236a10.916 10.916 0 0 1 18.625 6.077z"/></g><g><path d="M34.373 46.875h9.375a1.563 1.563 0 0 0 0-3.125h-9.375a1.563 1.563 0 0 0 0 3.125z"/></g><g><path d="M43.75 50h-4.688a1.563 1.563 0 0 0 0 3.125h4.688a1.563 1.563 0 0 0 0-3.125z"/></g></g></g></g></svg>