<svg xmlns="http://www.w3.org/2000/svg" width="48" height="48" viewBox="0 0 48 48"><g><g><g/><g><g><path fill="#c02524" d="M23.63 21h3v1.5h-3z"/></g><g><path fill="#c02524" d="M21 30.75h8.25a2.253 2.253 0 0 0 2.25-2.25v-5.25A2.253 2.253 0 0 0 29.25 21h-1.125v2.25a.75.75 0 0 1-.75.75h-4.5a.75.75 0 0 1-.75-.75V21H21a2.252 2.252 0 0 0-2.25 2.25v5.25A2.252 2.252 0 0 0 21 30.75z"/></g><g><path fill="#c02524" d="M37.88 18.75h4.5v3h-4.5z"/></g><g><path fill="#c02524" d="M45 18.75A2.253 2.253 0 0 1 47.25 21v7.5A2.253 2.253 0 0 1 45 30.75h-9.75A2.253 2.253 0 0 1 33 28.5V21a2.252 2.252 0 0 1 2.25-2.25h1.125v3.75a.75.75 0 0 0 .75.75h6a.75.75 0 0 0 .75-.75v-3.75zm-6.75 9.75a.75.75 0 0 0 0-1.5H36a.75.75 0 0 0 0 1.5z"/></g><g><path fill="#c02524" d="M30 32.25h6v3h-6z"/></g><g><path fill="#c02524" d="M45 32.25a2.253 2.253 0 0 1 2.25 2.25V45A2.253 2.253 0 0 1 45 47.25H21A2.253 2.253 0 0 1 18.75 45V34.5A2.252 2.252 0 0 1 21 32.25h7.5V36a.75.75 0 0 0 .75.75h7.5a.75.75 0 0 0 .75-.75v-3.75zm-18 12a.75.75 0 1 0 0-1.5h-4.5a.75.75 0 1 0 0 1.5zm0-3a.75.75 0 0 0 0-1.5h-4.5a.75.75 0 0 0 0 1.5z"/></g></g><g><path d="M38.057 15.238a.773.773 0 0 1-.006 1.01l-4.68 5.07a4.872 4.872 0 0 0 4.129 2.297.75.75 0 1 1 0 1.5 4.88 4.88 0 0 0-4.875 4.875.75.75 0 1 1-1.5 0 4.869 4.869 0 0 0-2.079-3.987l-8.995 9.746a.761.761 0 0 1-1.102 0l-4.441-4.812a8.232 8.232 0 0 0-3.258 6.553.75.75 0 1 1-1.5 0 8.26 8.26 0 0 0-8.25-8.25.75.75 0 1 1 0-1.5 8.242 8.242 0 0 0 6.775-3.555L.949 16.25a.77.77 0 0 1-.006-1.01l6.75-7.5a1 1 0 0 1 .557-.249h14.977A3.715 3.715 0 0 0 21 6.74a.75.75 0 1 1 0-1.5 3.754 3.754 0 0 0 3.75-3.75.75.75 0 1 1 1.5 0A3.755 3.755 0 0 0 30 5.24a.75.75 0 0 1 0 1.5 3.715 3.715 0 0 0-2.227.75c.832.003 2.763-.007 3.025.01a.85.85 0 0 1 .51.238zM19.5 32.948l5.697-16.458H13.803l3.816 11.026a8.223 8.223 0 0 0 1.88.224.75.75 0 1 1 0 1.5 8.242 8.242 0 0 0-1.247.105zM3.184 14.99h8.241L8.13 9.496zm21.248-6h-3.248l4.945 5.494 3.296-5.494h-2.857a3.72 3.72 0 0 0-.318 1.5.75.75 0 1 1-1.5 0c0-.517-.109-1.027-.318-1.5zm-4.932.37l-5.066 5.63h10.132zm-1.684-.37H9.575l3.296 5.494zm9.759 6h8.24l-4.944-5.494zm-3.873-9A5.293 5.293 0 0 1 25.5 7.788a5.293 5.293 0 0 1 1.798-1.798A5.293 5.293 0 0 1 25.5 4.192a5.293 5.293 0 0 1-1.798 1.798zM9.047 22.81a8.194 8.194 0 0 0 .703-3.32.75.75 0 1 1 1.5 0 8.252 8.252 0 0 0 4.554 7.365L12.216 16.49H3.213zm6.703 5.68a9.81 9.81 0 0 1-5.25-5.25 9.7 9.7 0 0 1-.598 1.171l-.001.002A9.804 9.804 0 0 1 5.25 28.49a9.81 9.81 0 0 1 5.25 5.25 9.81 9.81 0 0 1 5.25-5.25zm1.04 1.216c-.338.119-.67.259-.99.42l1.817 1.97zm15.085-7.968a6.422 6.422 0 0 1-2.627 2.627 6.422 6.422 0 0 1 2.627 2.627 6.422 6.422 0 0 1 2.627-2.627 6.422 6.422 0 0 1-2.627-2.627zm.867-1.949l3.045-3.299h-9.003l-5.401 15.605 6.254-6.776a4.853 4.853 0 0 0-1.387-.204.75.75 0 1 1 0-1.5 4.88 4.88 0 0 0 4.875-4.875.75.75 0 1 1 1.5 0c0 .353.04.705.117 1.049z"/></g></g></g></svg>