<svg xmlns="http://www.w3.org/2000/svg" width="24" height="24" viewBox="0 0 24 24"><g><g><g/><g><g><path fill="#c02524" d="M10.499 5.73a1.942 1.942 0 0 1-.242-2.448 1.94 1.94 0 1 1 .242 2.449zm1.37-2.654a1.285 1.285 0 0 0-.49 2.47 1.283 1.283 0 1 0 .49-2.47z"/></g><g><path fill="#c02524" d="M19.725 18.368a1.5 1.5 0 0 1-2.74 1.224l-1.467-3.284h-3.31a2.08 2.08 0 0 1-2.078-2.077V8.632a1.719 1.719 0 0 1 1.733-1.742 1.486 1.486 0 0 1 1.06.44l1.901 1.902h2.765a1.5 1.5 0 1 1 0 3c-2.295 0-3.332.001-3.378-.002-.241 0-.479-.057-.695-.165v1.243h2.93a1.488 1.488 0 0 1 1.414.887l1.864 4.173zm-.583.913a.84.84 0 0 0-.018-.646l-1.863-4.171a.845.845 0 0 0-.769-.5c-.02.003-3.285 0-3.304 0a.328.328 0 0 1-.328-.327V11.37a.328.328 0 0 1 .56-.232c.11.086.333.452.796.435.063.002-.3.002 3.373.002a.844.844 0 1 0 0-1.688h-2.9a.328.328 0 0 1-.233-.096l-1.997-1.999a.847.847 0 0 0-.615-.245 1.059 1.059 0 0 0-1.058 1.084v5.599a1.423 1.423 0 0 0 1.422 1.42h3.523a.328.328 0 0 1 .3.195l1.554 3.478a.842.842 0 0 0 1.557-.043z"/></g><g><path fill="#c02524" d="M15.592 17.92a.986.986 0 0 1-.118.743A6.113 6.113 0 1 1 8.62 9.581a.984.984 0 1 1 .527 1.896 4.144 4.144 0 1 0 4.648 6.156.985.985 0 0 1 1.796.286zm-.677.4a.326.326 0 0 0-.014-.365.328.328 0 0 0-.546.021 4.8 4.8 0 1 1-5.382-7.131.328.328 0 0 0-.176-.633 5.456 5.456 0 1 0 6.117 8.108z"/></g></g></g></g></svg>