<svg xmlns="http://www.w3.org/2000/svg" width="24" height="24" viewBox="0 0 24 24"><g><g><g/><g><path fill="#c02524" d="M11.994 13.324c-2.925-.095-3.626-2.6-3.776-3.408a1.27 1.27 0 0 1-.712-.452 1.43 1.43 0 0 1-.266-.973 1.342 1.342 0 0 1 .317-1.043.981.981 0 0 1 .236-.179 5.158 5.158 0 0 1-.769-2.93c.339-2.419 2.289-2.654 2.9-2.668A2.859 2.859 0 0 1 10.95.913a3.622 3.622 0 0 1 2.329-.13c1.512.395 2.52 1.152 2.998 2.25.681 1.562.084 3.359-.26 4.166.132.042.252.111.355.203a1.3 1.3 0 0 1 .362 1.09c.033.346-.062.692-.266.973-.179.227-.43.387-.711.452-.15.807-.85 3.312-3.764 3.407zM8.335 7.788a.439.439 0 0 0-.313.112.773.773 0 0 0-.133.58.332.332 0 0 1-.002.065.8.8 0 0 0 .136.527.74.74 0 0 0 .519.246.324.324 0 0 1 .285.294c.01.12.298 2.97 3.168 3.064 2.854-.094 3.143-2.943 3.154-3.065a.324.324 0 0 1 .285-.293.74.74 0 0 0 .519-.246.802.802 0 0 0 .136-.53.338.338 0 0 1-.003-.063.773.773 0 0 0-.146-.595.492.492 0 0 0-.352-.092.324.324 0 0 1-.342-.474c.012-.022 1.2-2.277.436-4.03-.395-.905-1.258-1.537-2.565-1.878a2.97 2.97 0 0 0-1.905.097 2.181 2.181 0 0 0-.874.684.321.321 0 0 1-.288.13c-.084-.007-2.07-.136-2.38 2.084 0 0-.09 1.766.932 2.837a.324.324 0 0 1 .062.356.307.307 0 0 1-.307.192z"/></g><g><path fill="#c02524" d="M15.532 7.796a.324.324 0 0 1-.325-.31c-.003-.085-.104-2.044-1.567-2.232a4.938 4.938 0 0 1-3.766-1.092C9.46 4.473 8.508 5.42 8.69 7.435a.324.324 0 0 1-.645.059c-.269-2.958 1.63-3.985 1.712-4.027a.324.324 0 0 1 .374.053 4.331 4.331 0 0 0 3.446 1.087.363.363 0 0 1 .09-.003c1.649.172 2.152 1.943 2.188 2.854a.324.324 0 0 1-.31.337z"/></g><g><path fill="#c02524" d="M21.114 23.347H2.894a.324.324 0 0 1-.324-.324v-3.616A4.316 4.316 0 0 1 6.884 15.1h.622a.324.324 0 0 1 0 .649h-.622a3.667 3.667 0 0 0-3.665 3.658V22.7h17.57v-3.292a3.663 3.663 0 0 0-3.658-3.658h-.667a.324.324 0 1 1 0-.649h.667a4.313 4.313 0 0 1 4.308 4.307v3.616a.324.324 0 0 1-.325.324z"/></g><g><path fill="#c02524" d="M13.084 23.355a.324.324 0 0 1-.32-.373l1.312-8.686a.324.324 0 0 1 .414-.262l2.265.682a.324.324 0 0 1 .198.455l-.9 1.806.521.586a.324.324 0 0 1 .033.386l-3.247 5.252a.324.324 0 0 1-.276.154zm1.578-8.592l-1.02 6.75 2.287-3.697-.507-.57a.324.324 0 0 1-.048-.36l.826-1.658z"/></g><g><path fill="#c02524" d="M10.883 23.354a.324.324 0 0 1-.276-.154l-3.248-5.25a.324.324 0 0 1 .033-.387l.522-.586-.9-1.807a.324.324 0 0 1 .197-.454l2.265-.682a.324.324 0 0 1 .414.262l1.313 8.686a.324.324 0 0 1-.32.372zm-2.845-5.54l2.288 3.697-1.02-6.75-1.54.465.827 1.658a.324.324 0 0 1-.048.36z"/></g><g><path fill="#c02524" d="M12.003 17.304c-.701 0-1.402-.043-2.098-.127a.324.324 0 1 1 .077-.643c1.325.163 2.666.163 3.991 0a.324.324 0 0 1 .081.643 16.38 16.38 0 0 1-2.051.127z"/></g><g><path fill="#c02524" d="M14.397 14.662a.324.324 0 0 1-.26-.131c-.481-.652-.568-1.943-.576-2.088a.324.324 0 0 1 .647-.038c.02.341.14 1.32.451 1.74a.324.324 0 0 1-.26.517z"/></g><g><path fill="#c02524" d="M9.563 14.663a.324.324 0 0 1-.26-.517c.312-.422.432-1.4.452-1.74a.325.325 0 0 1 .649.038c-.009.145-.098 1.436-.578 2.088a.324.324 0 0 1-.263.131z"/></g><g><path fill="#c02524" d="M18.54 18.809a.324.324 0 0 1-.325-.315c-.06-2.112-.864-2.777-.871-2.783a.327.327 0 0 1 .155-.578c.084-.012.17.01.237.061.043.033 1.057.82 1.128 3.28a.324.324 0 0 1-.315.334z"/></g><g><path fill="#c02524" d="M18.532 20.724a1.282 1.282 0 1 1 0-2.564 1.282 1.282 0 0 1 0 2.564zm0-1.915a.633.633 0 1 0 0 1.267.633.633 0 0 0 0-1.267z"/></g><g><path fill="#c02524" d="M5.22 18.8a.324.324 0 0 1-.324-.3c-.177-2.49 1.195-3.285 1.253-3.318a.324.324 0 1 1 .319.565c-.05.029-1.07.66-.926 2.707a.324.324 0 0 1-.3.346z"/></g><g><path fill="#c02524" d="M4.559 21.402a.324.324 0 0 1-.26-.128 2.027 2.027 0 0 1-.343-.696 1.95 1.95 0 0 1 1.274-2.43 1.816 1.816 0 0 1 1.394.172 2.081 2.081 0 0 1 1.012 2.145.324.324 0 0 1-.64-.107 1.434 1.434 0 0 0-.689-1.472 1.174 1.174 0 0 0-.901-.115 1.302 1.302 0 0 0-.826 1.634c.047.172.127.334.235.477a.324.324 0 0 1-.258.52z"/></g><g><path fill="#c02524" d="M7.32 20.742c-.012 0-.025 0-.038-.002l-.366-.043a.325.325 0 0 1 .077-.645l.365.044a.324.324 0 0 1-.038.646z"/></g><g><path fill="#c02524" d="M4.565 21.403a.324.324 0 0 1-.113-.629l.39-.144a.324.324 0 1 1 .226.609l-.39.144a.325.325 0 0 1-.113.02z"/></g></g></g></svg>