<svg xmlns="http://www.w3.org/2000/svg" width="44" height="44" viewBox="0 0 44 44"><g><g><g/><g><path fill="#c02524" d="M25.239 30.451a.688.688 0 0 0-.486-.201h-11a.688.688 0 0 0-.487.201l-4.125 4.125a.688.688 0 0 0-.201.487v6.187a2.063 2.063 0 0 0 2.063 2.063h16.5a2.062 2.062 0 0 0 2.062-2.063v-6.187a.687.687 0 0 0-.201-.487z"/></g><g><path fill="#c02524" d="M11.688 28.878h15.124a.687.687 0 0 0 .688-.688v-.688a2.062 2.062 0 0 0-2.063-2.062H13.063A2.063 2.063 0 0 0 11 27.503v.687a.688.688 0 0 0 .688.688z"/></g><g><path fill="#c02524" d="M43.292 31.441a.688.688 0 0 1-.178.666L36.44 38.78v3.84a.687.687 0 0 1-1.375 0v-3.84l-6.673-6.674a.687.687 0 0 1-.178-.666l5.55-20.526a2.063 2.063 0 0 1 3.983 0zm-6.852 1.27v-3.556l2.549-2.548a.687.687 0 0 0-.972-.972L36.44 27.21v-6.59a.688.688 0 1 0-1.375 0v6.59l-1.576-1.576a.688.688 0 0 0-.972.972l2.548 2.548v3.556l-1.577-1.576a.688.688 0 0 0-.973.972l2.75 2.75a.689.689 0 0 0 .974 0l2.75-2.75a.687.687 0 0 0-.972-.972z"/></g><g><g><path d="M33.002 27.503a2.062 2.062 0 0 1 2.063 2.062v2.75a2.75 2.75 0 0 1-2.75 2.75H7.565a2.75 2.75 0 0 1-2.75-2.75v-22H2.752A2.063 2.063 0 0 1 .69 8.252V3.44A2.75 2.75 0 0 1 3.44.69h26.125a2.063 2.063 0 0 1 2.062 2.062v24.75zM4.815 3.44a1.375 1.375 0 0 0-2.75 0v4.813a.688.688 0 0 0 .688.687h2.062zM8.94 29.565a2.063 2.063 0 0 1 2.063-2.063h19.25V2.753a.687.687 0 0 0-.688-.687H5.808c.247.416.38.89.382 1.375v28.875a1.375 1.375 0 0 0 2.75 0zm24.75 0a.687.687 0 0 0-.688-.688h-22a.687.687 0 0 0-.687.688v2.75c0 .483-.127.957-.37 1.375h22.37a1.375 1.375 0 0 0 1.375-1.375z"/></g><g><path d="M28.188 23.378a.687.687 0 0 0-.688-.688H8.937a.688.688 0 1 0 0 1.375H27.5a.687.687 0 0 0 .688-.688z"/></g><g><path d="M8.938 18.565H27.5a.687.687 0 0 0 0-1.375H8.937a.688.688 0 1 0 0 1.375z"/></g><g><path d="M8.938 13.065H27.5a.687.687 0 0 0 0-1.375H8.937a.688.688 0 1 0 0 1.375z"/></g><g><path d="M8.938 7.565H27.5a.687.687 0 0 0 0-1.375H8.937a.688.688 0 1 0 0 1.375z"/></g></g></g></g></svg>