<svg xmlns="http://www.w3.org/2000/svg" width="24" height="24" viewBox="0 0 24 24"><g><g><g/><g><path fill="#c02524" d="M16.054 16.73a.324.324 0 0 1-.235-.547c.421-.448.795-.867 1.135-1.284a.324.324 0 1 1 .5.412c-.35.428-.731.859-1.167 1.318a.325.325 0 0 1-.233.101z"/></g><g><path fill="#c02524" d="M11.527 20.685a.325.325 0 0 1-.187-.06c-.212-.148-5.209-3.688-7.589-7.969a8.536 8.536 0 0 1-1.221-4.11 5.225 5.225 0 0 1 8.996-3.618 5.224 5.224 0 0 1 8.994 3.617 8.27 8.27 0 0 1-1.048 3.79c-.328.627-.7 1.23-1.114 1.805a.325.325 0 0 1-.528-.377c.397-.55.753-1.127 1.066-1.728a7.63 7.63 0 0 0 .976-3.49 4.574 4.574 0 0 0-8.096-2.923.324.324 0 0 1-.498 0 4.577 4.577 0 0 0-8.1 2.923 7.905 7.905 0 0 0 1.14 3.795c2.054 3.694 6.273 6.93 7.21 7.619.186-.137.502-.375.902-.696a.324.324 0 1 1 .406.506c-.672.539-1.105.844-1.123.856a.324.324 0 0 1-.186.06z"/></g><g><path fill="#c02524" d="M13.754 18.92a.324.324 0 0 1-.213-.57c.462-.401.876-.78 1.269-1.16a.324.324 0 1 1 .45.468c-.4.386-.823.773-1.292 1.182a.324.324 0 0 1-.214.08z"/></g><g><path fill="#c02524" d="M9.645 14.063c-.012 0-.025 0-.037-.002a.324.324 0 0 1-.272-.222l-1.202-3.735-.82 2.488a.324.324 0 0 1-.308.223H.974a.324.324 0 1 1 0-.649h5.798l1.057-3.21a.324.324 0 0 1 .616.001l1.29 4.005.385-.639a.324.324 0 0 1 .278-.156h.714l1.243-3.53a.324.324 0 0 1 .601-.026l1.976 4.363.454-.936a.324.324 0 0 1 .292-.184h7.35a.324.324 0 1 1 0 .649h-7.147l-.666 1.378a.324.324 0 0 1-.292.183h-.003a.324.324 0 0 1-.292-.19l-1.93-4.26-1.05 2.983a.325.325 0 0 1-.306.217h-.76l-.659 1.092a.324.324 0 0 1-.278.157z"/></g></g></g></svg>