<svg xmlns="http://www.w3.org/2000/svg" width="24" height="24" viewBox="0 0 24 24"><g><g><g/><g><g><path fill="#c02524" d="M3.005 23.63c-.62 0-1.125-.505-1.125-1.125v-.75c0-.62.505-1.125 1.125-1.125v-1.125c0-.62.466-1.125 1.039-1.125h.086v-6.375c0-4.343 3.533-7.875 7.875-7.875 4.342 0 7.875 3.532 7.875 7.875v6.375h.086c.573 0 1.039.505 1.039 1.125v1.125c.62 0 1.125.505 1.125 1.125v.75c0 .62-.505 1.125-1.125 1.125zm1.875-5.25h14.25v-6.375a7.133 7.133 0 0 0-7.125-7.125 7.133 7.133 0 0 0-7.125 7.125zm-1.125 2.25h16.5v-1.125c0-.203-.132-.375-.289-.375H4.044c-.157 0-.289.172-.289.375zM2.63 22.505c0 .207.168.375.375.375h18a.375.375 0 0 0 .375-.375v-.75a.375.375 0 0 0-.375-.375h-18a.375.375 0 0 0-.375.375z"/></g><g><path fill="#c02524" d="M17.25 13.13H18v1.5h-.75z"/></g><g><path fill="#c02524" d="M18 12c0-3.308-2.692-6-6-6v.75A5.256 5.256 0 0 1 17.25 12z"/></g><g><path fill="#c02524" d="M11.63.75h.75v2.625h-.75z"/></g><g><path fill="#c02524" d="M18.123 5.36l1.856-1.856.53.53-1.855 1.857z"/></g><g><path fill="#c02524" d="M3.503 4.035l.53-.53L5.89 5.36l-.53.53z"/></g><g><path fill="#c02524" d="M6.433 1.324l.636-.397 1.875 3-.636.397z"/></g><g><path fill="#c02524" d="M15.058 3.926l1.875-3 .636.397-1.875 3z"/></g></g></g></g></svg>