<svg xmlns="http://www.w3.org/2000/svg" width="100" height="100" viewBox="0 0 100 100"><g><g><g/><g><path fill="#c02524" d="M93.748 20.31h-43.75a4.687 4.687 0 0 0-4.688 4.688v4.687h35.938a7.822 7.822 0 0 1 7.812 7.813v48.437h4.688a4.688 4.688 0 0 0 4.687-4.688v-56.25a4.688 4.688 0 0 0-4.688-4.687z"/></g><g><path fill="#c02524" d="M81.248 32.81a4.702 4.702 0 0 1 4.687 4.688v56.25a4.702 4.702 0 0 1-4.688 4.687H46.873c-.415 0-.814-.163-1.11-.453l-12.5-12.5a1.584 1.584 0 0 1-.453-1.11V37.498a4.702 4.702 0 0 1 4.688-4.688zM45.31 85.935h-7.172l7.172 7.172zm23.438-16.094a14.063 14.063 0 1 0-18.75 0v3.594a4.688 4.688 0 0 0 4.687 4.688h9.375a4.688 4.688 0 0 0 4.688-4.688z"/></g><g><g><path fill="#c02524" d="M41 43h33v38H41z"/></g><g><path d="M59.373 1.56a4.688 4.688 0 0 1 4.687 4.688v68.75a4.688 4.688 0 0 1-4.688 4.687h-43.75c-.413 0-.81-.164-1.103-.456l-12.5-12.5a1.562 1.562 0 0 1-.459-1.106V6.247A4.687 4.687 0 0 1 6.248 1.56zM14.06 67.185H6.894l7.166 7.166zM60.935 6.247a1.563 1.563 0 0 0-1.563-1.562H6.248a1.562 1.562 0 0 0-1.563 1.563V64.06h10.938a1.563 1.563 0 0 1 1.562 1.563V76.56h42.188a1.563 1.563 0 0 0 1.562-1.563z"/></g><g><path d="M49.998 14.06H15.623a1.562 1.562 0 1 0 0 3.125h34.375a1.563 1.563 0 0 0 0-3.125z"/></g><g><path d="M49.998 26.56H15.623a1.562 1.562 0 1 0 0 3.125h34.375a1.563 1.563 0 0 0 0-3.125z"/></g><g><path d="M49.998 39.06H15.623a1.562 1.562 0 1 0 0 3.125h34.375a1.563 1.563 0 0 0 0-3.125z"/></g><g><path d="M49.998 51.56H15.623a1.562 1.562 0 1 0 0 3.125h34.375a1.563 1.563 0 0 0 0-3.125z"/></g><g><path d="M50 64.06H26.562a1.563 1.563 0 0 0 0 3.125H50a1.563 1.563 0 0 0 0-3.125z"/></g></g></g></g></svg>