<svg xmlns="http://www.w3.org/2000/svg" width="48" height="48" viewBox="0 0 48 48"><g><g><g/><g><g><path fill="#c02524" d="M39.511 26.109A9.761 9.761 0 0 1 42.37 33a9.75 9.75 0 1 1-9.75-9.75 9.761 9.761 0 0 1 6.891 2.859zM26.62 35.25a.75.75 0 1 0 0-1.5h-1.5a.75.75 0 1 0 0 1.5zm0-3a.75.75 0 1 0 0-1.5h-1.5a.75.75 0 1 0 0 1.5zm9.625 1.593a3.688 3.688 0 0 0-2.078-1.623c-.319-.113-.605-.22-.877-.323v-4.458c.482.082.936.283 1.32.585a.75.75 0 0 0 1.014-1.107 4.476 4.476 0 0 0-2.334-.998v-.98a.75.75 0 1 0-1.5 0v1.037c-.163.032-.33.072-.5.124a3.48 3.48 0 0 0-2.382 2.73 3.048 3.048 0 0 0 .992 3.005 8.627 8.627 0 0 0 1.89 1.07v5.564a3.75 3.75 0 0 1-2.153-.76.748.748 0 0 0-1.15.488.75.75 0 0 0 .328.768 5.24 5.24 0 0 0 2.975 1.003v1.094a.75.75 0 1 0 1.5 0v-1.157a4.208 4.208 0 0 0 3.417-3.466 3.688 3.688 0 0 0-.462-2.596zm3.875 1.407a.75.75 0 1 0 0-1.5h-1.5a.75.75 0 1 0 0 1.5zm.693-4.037a.751.751 0 0 0-.693-.463h-1.5a.75.75 0 1 0 0 1.5h1.5a.75.75 0 0 0 .693-1.037z"/></g><g><path fill="#c02524" d="M33.3 33.5v4.868a2.735 2.735 0 0 0 1.938-2.175c.26-1.556-.709-2.246-1.938-2.693z"/></g><g><path fill="#c02524" d="M30.383 29.107a1.567 1.567 0 0 0 .443 1.546c.302.228.625.427.965.593V27.52a1.97 1.97 0 0 0-1.409 1.587z"/></g><g><path fill="#c02524" d="M45.736 29.473c-.249.955-.248.964.334 1.734.462.49.747 1.122.81 1.793a3.031 3.031 0 0 1-.81 1.794c-.584.77-.583.78-.334 1.733.44 1.697.199 2.349-1.363 3.263-.84.49-.847.504-.982 1.471-.245 1.763-.738 2.255-2.5 2.5-.97.136-.98.142-1.472.982-.92 1.575-1.58 1.799-3.262 1.362-.953-.246-.957-.252-1.733.335a3.027 3.027 0 0 1-1.794.81 3.027 3.027 0 0 1-1.794-.81c-.77-.583-.779-.583-1.733-.335-1.716.448-2.36.18-3.263-1.362-.492-.84-.503-.847-1.471-.982-1.77-.247-2.255-.745-2.5-2.5-.134-.967-.14-.98-.982-1.471-1.589-.93-1.794-1.601-1.363-3.263.249-.955.249-.963-.334-1.734A3.026 3.026 0 0 1 18.38 33a3.03 3.03 0 0 1 .81-1.794c.584-.77.583-.78.334-1.733-.44-1.697-.199-2.349 1.363-3.263.84-.49.848-.504.982-1.471.246-1.763.737-2.255 2.5-2.5.97-.135.98-.142 1.472-.982.922-1.578 1.59-1.798 3.262-1.363.956.249.963.249 1.734-.334a3.03 3.03 0 0 1 1.793-.81 3.031 3.031 0 0 1 1.793.81c.766.58.777.584 1.734.334 1.7-.441 2.351-.195 3.263 1.363.49.838.503.847 1.471.982 1.767.246 2.255.741 2.5 2.5.135.966.137.978.982 1.471 1.589.93 1.794 1.601 1.363 3.263zM40.58 40.951A11.262 11.262 0 0 0 43.88 33a11.25 11.25 0 1 0-11.25 11.25 11.262 11.262 0 0 0 7.951-3.299z"/></g></g><g><path d="M36.38 5.25a2.253 2.253 0 0 1 2.25 2.25V9a2.246 2.246 0 0 1-1.5 2.112V36a2.253 2.253 0 0 1-2.25 2.25h-30A2.252 2.252 0 0 1 2.63 36V11.112A2.246 2.246 0 0 1 1.13 9V7.5a2.252 2.252 0 0 1 2.25-2.25h5.667a2.965 2.965 0 0 1-.417-1.5 3.003 3.003 0 0 1 3-3 9.74 9.74 0 0 1 6.932 2.871L19.88 4.94l1.318-1.318A9.74 9.74 0 0 1 28.13.75a3.003 3.003 0 0 1 3 3 2.965 2.965 0 0 1-.417 1.5zm-14.69 0h6.44a1.5 1.5 0 0 0 0-3 8.25 8.25 0 0 0-5.872 2.432zm-6.31 31.5h9v-25.5h-9zm9-30h-9v3h9zM10.57 4.81c.281.281.662.44 1.06.44h6.44l-.569-.568A8.25 8.25 0 0 0 11.63 2.25a1.502 1.502 0 0 0-1.06 2.56zM2.63 9a.751.751 0 0 0 .75.75h10.5v-3H3.38a.75.75 0 0 0-.75.75zm1.5 27a.75.75 0 0 0 .75.75h9v-25.5H4.13zm30.75.75a.75.75 0 0 0 .75-.75V11.25h-9.75v25.5zM37.13 7.5a.751.751 0 0 0-.75-.75h-10.5v3h10.5a.75.75 0 0 0 .75-.75z"/></g><g><path d="M7.13 31.5h4.5a.75.75 0 0 0 0-1.5h-4.5a.75.75 0 0 0 0 1.5z"/></g><g><path d="M11.63 33h-4.5a.75.75 0 0 0 0 1.5h4.5a.75.75 0 0 0 0-1.5z"/></g></g></g></svg>