<svg xmlns="http://www.w3.org/2000/svg" width="23" height="23" viewBox="0 0 23 23"><g><g><g/><g><g><g><g><path fill="#ffda2d" d="M12.236 12.057l-2.469 3.816-2.356 1.008c-1.388-1.59-2.87-3.477-3.571-5.862l1.41-2.623L7.52 7.34c-.041.243-.068.485-.068.741a4.055 4.055 0 0 0 4.043 4.043c.256 0 .498-.027.74-.067z"/></g></g></g><g><path fill="#80aef8" d="M15.477 8.828a4.41 4.41 0 0 0 .067-.738 4.055 4.055 0 0 0-4.038-4.043h-.005c-.256 0-.498.027-.741.068L14.345.53a8.066 8.066 0 0 1 4.717 4.717l-3.585 3.585v-.004z"/></g><g><path fill="#4086f4" d="M19.059 5.247L17.833 7.64l-2.359 1.19v-.003a4.41 4.41 0 0 0 .068-.738 4.055 4.055 0 0 0-4.038-4.043H11.5v-.675l.807-1.795L14.342.53a8.066 8.066 0 0 1 4.717 4.717z"/></g><g><g><path fill="#59c36a" d="M19.064 5.24l-3.585 3.585a4.084 4.084 0 0 1-3.234 3.234l-3.903 3.902-.922.923c.23.256.431.485.647.727 1.482 1.685 2.763 3.23 2.763 4.713 0 .377.296.674.673.674a.667.667 0 0 0 .674-.674c0-1.483 1.28-3.028 2.763-4.713 2.075-2.331 4.65-5.242 4.65-9.527 0-.998-.176-1.955-.526-2.844z"/></g><g><path fill="#00a66c" d="M19.059 5.24l-3.585 3.585a4.084 4.084 0 0 1-3.234 3.234l-.74.74v10.198a.667.667 0 0 0 .672-.673c0-1.483 1.28-3.028 2.763-4.712 2.076-2.332 4.65-5.243 4.65-9.528 0-.998-.176-1.955-.526-2.844z"/></g></g><g><g><path fill="#fdbf00" d="M11.5 12.8l.74-.74c-.242.04-.484.067-.74.067z"/></g></g><g><path fill="#4086f4" d="M14.348.526L10.763 4.11A4.09 4.09 0 0 0 8.647 5.23l-2.084-.872-.773-1.985A8.01 8.01 0 0 1 11.504 0c.997 0 1.954.175 2.844.526z"/></g><g><path fill="#4175df" d="M11.5 3.368L14.342.525A7.72 7.72 0 0 0 11.5 0v3.368z"/></g><g><path fill="#f03800" d="M8.639 5.227A4.09 4.09 0 0 0 7.52 7.343l-3.679 3.679a10.174 10.174 0 0 1-.431-2.938A8.01 8.01 0 0 1 5.782 2.37z"/></g></g></g></g></svg>