<svg xmlns="http://www.w3.org/2000/svg" width="48" height="48" viewBox="0 0 48 48"><g><g><g/><g><g><path fill="#c02524" d="M18 26.25a.75.75 0 0 1 .75.75v19.5a.75.75 0 0 1-.75.75h-7.5a.75.75 0 0 1-.75-.75v-18A2.25 2.25 0 0 1 12 26.25zm-3 18a.75.75 0 1 0 0-1.5h-1.5a.75.75 0 1 0 0 1.5zm0-4.5a.75.75 0 1 0 0-1.5h-1.5a.75.75 0 1 0 0 1.5zm0-4.5a.75.75 0 0 0 0-1.5h-1.5a.75.75 0 0 0 0 1.5zm0-4.5a.75.75 0 0 0 0-1.5h-1.5a.75.75 0 0 0 0 1.5z"/></g><g><path fill="#c02524" d="M45 26.25a2.25 2.25 0 0 1 2.25 2.25v18a.75.75 0 0 1-.75.75H39a.75.75 0 0 1-.75-.75V27a.75.75 0 0 1 .75-.75zm-1.5 18a.75.75 0 1 0 0-1.5H42a.75.75 0 1 0 0 1.5zm0-4.5a.75.75 0 1 0 0-1.5H42a.75.75 0 1 0 0 1.5zm0-4.5a.75.75 0 0 0 0-1.5H42a.75.75 0 0 0 0 1.5zm0-4.5a.75.75 0 0 0 0-1.5H42a.75.75 0 0 0 0 1.5z"/></g><g><path fill="#c02524" d="M27 40.5h3v6.75h-3z"/></g><g><path fill="#c02524" d="M36.469 24.914a.749.749 0 0 1 .281.586v21a.75.75 0 0 1-.75.75h-4.5v-7.5a.75.75 0 0 0-.75-.75h-4.5a.75.75 0 0 0-.75.75v7.5H21a.75.75 0 0 1-.75-.75v-21a.75.75 0 0 1 .281-.586l7.219-5.775V17.25h-7.5a.75.75 0 0 1-.6-1.2l1.913-2.55-1.913-2.55a.75.75 0 0 1 .6-1.2h8.25a.75.75 0 0 1 .75.75v8.64zm-9.56.495a2.25 2.25 0 1 0 3.182 3.182 2.25 2.25 0 0 0-3.182-3.182zM33 36a.75.75 0 1 0 0-1.5h-9a.75.75 0 1 0 0 1.5zm0-3.75a.75.75 0 1 0 0-1.5h-9a.75.75 0 1 0 0 1.5z"/></g></g><g><path d="M37.773 7.551a.75.75 0 0 1 0 1.398l-4.023 1.575v7.463a2.237 2.237 0 0 1-1.43 2.1l-11.797 4.616a.75.75 0 0 1-.546 0L8.18 20.087a2.24 2.24 0 0 1-1.43-2.1v-7.463l-3-1.175v12.54a2.25 2.25 0 1 1-1.5 0V8.25a.772.772 0 0 1 .424-.667c.235-.116-1.52.592 17.303-6.782a.75.75 0 0 1 .546 0zM3.53 24.531a.75.75 0 1 0-1.06-1.06.75.75 0 0 0 1.06 1.06zm28.72-13.42l-11.727 4.588a.749.749 0 0 1-.546 0L8.25 11.11v6.877a.75.75 0 0 0 .478.7l11.522 4.508 11.523-4.509a.75.75 0 0 0 .477-.7zm3.192-2.86L20.25 2.305 5.058 8.25l15.192 5.945z"/></g></g></g></svg>