<svg xmlns="http://www.w3.org/2000/svg" width="48" height="48" viewBox="0 0 48 48"><g><g><g/><g><path fill="#c02524" d="M19.457 38.204a4.129 4.129 0 0 1 1.86-1.518l-2.13-6.39a4.124 4.124 0 1 1 2.144-6.92l6.034-5.28a4.125 4.125 0 1 1 6.78 0l6.034 5.28a4.125 4.125 0 1 1 2.144 6.92l-2.13 6.39a4.126 4.126 0 1 1-5.67 4.19h-7.537a4.126 4.126 0 0 1-8.23-.375 4.129 4.129 0 0 1 .7-2.297zm3.34-1.823c.028 0 .055-.004.083-.004a4.13 4.13 0 0 1 3.965 3h7.823a4.129 4.129 0 0 1 3.965-3c.028 0 .055.004.083.004l2.216-6.647a4.115 4.115 0 0 1-1.592-5.1l-6.258-5.475a4.11 4.11 0 0 1-4.65 0l-6.26 5.475a4.112 4.112 0 0 1-1.59 5.1z"/></g><g><path d="M37.563 26.966a5.25 5.25 0 0 1-1.873 1.912 5.25 5.25 0 0 1 2.56 4.5v2.25a.75.75 0 0 1-.75.75h-9a.75.75 0 0 1-.75-.75v-2.25a5.25 5.25 0 0 1 2.56-4.5 5.25 5.25 0 0 1-2.5-3.75h-3.12a5.249 5.249 0 0 1-2.5 3.75 5.25 5.25 0 0 1 2.56 4.5v2.25a.75.75 0 0 1-.75.75h-9a.75.75 0 0 1-.75-.75v-2.25a5.25 5.25 0 0 1 2.56-4.5 5.25 5.25 0 0 1-2.5-3.75h-3.12a5.249 5.249 0 0 1-2.5 3.75 5.25 5.25 0 0 1 2.56 4.5v2.25a.75.75 0 0 1-.75.75h-9a.75.75 0 0 1-.75-.75v-2.25a5.25 5.25 0 0 1 2.56-4.5 5.245 5.245 0 0 1 4.19-9.525v-1.725a5.25 5.25 0 0 1 2.56-4.5 5.25 5.25 0 1 1 5.38 0 5.25 5.25 0 0 1 2.56 4.5v1.725a5.195 5.195 0 0 1 3 0v-1.725a5.25 5.25 0 0 1 2.56-4.5 5.25 5.25 0 1 1 5.38 0 5.25 5.25 0 0 1 2.56 4.5v1.725a5.245 5.245 0 0 1 6.75 5.025 5.25 5.25 0 0 1-.687 2.588zM22.5 8.628a3.755 3.755 0 0 0 3.75 3.75 3.75 3.75 0 1 0-3.75-3.75zm0 11.25a.735.735 0 0 1-.035.172 5.25 5.25 0 0 1 2.225 3.578h3.12a5.251 5.251 0 0 1 2.225-3.578.735.735 0 0 1-.035-.172v-2.25a3.75 3.75 0 0 0-7.5 0zM9 8.628a3.755 3.755 0 0 0 3.75 3.75A3.75 3.75 0 1 0 9 8.628zm0 11.25a.735.735 0 0 1-.035.172 5.249 5.249 0 0 1 2.225 3.578h3.12a5.251 5.251 0 0 1 2.225-3.578.735.735 0 0 1-.035-.172v-2.25a3.75 3.75 0 0 0-7.5 0zm.75 13.5a3.75 3.75 0 0 0-7.5 0v1.5h7.5zm-1.1-6.35a3.75 3.75 0 1 0-2.65 1.1 3.755 3.755 0 0 0 2.65-1.1zm14.6 6.35a3.75 3.75 0 0 0-7.5 0v1.5h7.5zm-1.1-6.35a3.75 3.75 0 1 0-2.65 1.1 3.754 3.754 0 0 0 2.65-1.1zm14.6 6.35a3.75 3.75 0 0 0-7.5 0v1.5h7.5zm-6.4-6.35a3.75 3.75 0 1 0-1.1-2.65 3.755 3.755 0 0 0 1.1 2.65z"/></g></g></g></svg>