<svg xmlns="http://www.w3.org/2000/svg" width="48" height="48" viewBox="0 0 48 48"><g><g><g/><g><g><path fill="#c02524" d="M43.501 39.021v-.019a2.25 2.25 0 0 0-2.25-2.25h-7.5v-1.544a6.75 6.75 0 1 0-1.5 0v1.544h-8.25a2.25 2.25 0 0 0-2.25 2.25v.16a4.12 4.12 0 1 0 1.5-.14v-.02a.75.75 0 0 1 .75-.75h8.25v.825a4.125 4.125 0 1 0 1.5 0v-.825h7.5a.75.75 0 0 1 .75.75v.16a4.12 4.12 0 1 0 1.5-.14z"/></g><g><path fill="#c02524" d="M6.75 38.25h10.5a.75.75 0 1 0 0-1.5H6.75a.75.75 0 0 0 0 1.5z"/></g><g><path fill="#c02524" d="M15.75 42a.75.75 0 0 0-.75-.75H6.75a.75.75 0 0 0 0 1.5H15a.75.75 0 0 0 .75-.75z"/></g></g><g><path d="M33.75 23.31a5.25 5.25 0 1 1-1.5 0V21a.75.75 0 0 0-.75-.75H20.25v3.06a5.25 5.25 0 1 1-1.5 0v-3.06H7.5a.75.75 0 0 0-.75.75v2.31a5.25 5.25 0 1 1-1.5 0V21a2.25 2.25 0 0 1 2.25-2.25h11.25v-3.038a7.5 7.5 0 1 1 1.5 0v3.039H31.5A2.25 2.25 0 0 1 33.75 21zM15.26 12.492a6.007 6.007 0 0 0 4.24 1.76 6 6 0 1 0-6-6 6.007 6.007 0 0 0 1.76 4.24zm-6.61 13.36a3.75 3.75 0 1 0 1.1 2.65 3.755 3.755 0 0 0-1.1-2.65zm13.5 0a3.75 3.75 0 1 0 1.1 2.65 3.755 3.755 0 0 0-1.1-2.65zm13.5 5.3a3.75 3.75 0 1 0-2.65 1.1 3.754 3.754 0 0 0 2.65-1.1z"/></g><g><path d="M37.5 14.25h-9a.75.75 0 0 0 0 1.5h9a.75.75 0 1 0 0-1.5z"/></g><g><path d="M37.5 9.75h-6.75a.75.75 0 0 0 0 1.5h6.75a.75.75 0 0 0 0-1.5z"/></g></g></g></svg>