<svg xmlns="http://www.w3.org/2000/svg" width="48" height="48" viewBox="0 0 48 48"><g><g><g/><g><path d="M18.07 6.375h1.125V7.5a.75.75 0 0 0 1.5 0V6.375h1.125a.75.75 0 0 0 0-1.5h-1.125V3.75a.75.75 0 0 0-1.5 0v1.125H18.07a.75.75 0 0 0 0 1.5z"/></g><g><path fill="#c02524" d="M46.876 35.1l-6.241-3.6 6.24-3.6a.75.75 0 0 0 .275-1.024L43.4 20.38a.75.75 0 0 0-1.024-.28l-6.241 3.6v-7.2a.75.75 0 0 0-.75-.75h-7.5a.75.75 0 0 0-.75.75v7.206l-6.24-3.6a.75.75 0 0 0-1.025.274l-3.75 6.495a.75.75 0 0 0 .275 1.025l6.24 3.6-6.24 3.6a.75.75 0 0 0-.275 1.024l3.75 6.495a.75.75 0 0 0 1.025.275l6.24-3.6V46.5a.75.75 0 0 0 .75.75h7.5a.75.75 0 0 0 .75-.75v-7.206l6.24 3.606a.75.75 0 0 0 1.025-.275l3.75-6.495a.75.75 0 0 0-.274-1.03z"/></g><g><g><path d="M12.82 18a.75.75 0 0 1-.75-.75v-4.5a.75.75 0 0 1 .75-.75h4.5a.75.75 0 0 1 .75.75v4.5a.75.75 0 0 1-.75.75zm.75-1.5h3v-3h-3z"/></g><g><path d="M22.57 18a.75.75 0 0 1-.75-.75v-4.5a.75.75 0 0 1 .75-.75h4.5a.75.75 0 0 1 .75.75v4.5a.75.75 0 0 1-.75.75zm.75-1.5h3v-3h-3z"/></g><g><path d="M26.38 27a.75.75 0 0 1-.75-.75v-4.5a.75.75 0 0 1 .75-.75h4.5a.75.75 0 0 1 .75.75v4.5a.75.75 0 0 1-.75.75zm.75-1.5h3v-3h-3z"/></g><g><path d="M14.25 26.25a.75.75 0 0 1-.75.75H9a.75.75 0 0 1-.75-.75v-4.5A.75.75 0 0 1 9 21h4.5a.75.75 0 0 1 .75.75zm-1.5-3.75h-3v3h3z"/></g><g><path d="M22.57 26.25a.75.75 0 0 1-.75.75h-3.75a.75.75 0 0 1-.75-.75v-4.5a.75.75 0 0 1 .75-.75h3.75a.75.75 0 0 1 .75.75zm-1.5-3.75h-2.25v3h2.25z"/></g><g><path d="M37.634 34.638a2.244 2.244 0 0 1-.75 4.362H3a2.244 2.244 0 0 1-.75-4.362V6.75H1.5a.75.75 0 0 1 0-1.5h9.818V3a2.25 2.25 0 0 1 2.25-2.25h12.75A2.25 2.25 0 0 1 28.568 3v2.25h9.816a.75.75 0 0 1 0 1.5h-.75zM12.818 8.25a.75.75 0 0 0 .75.75h12.75a.75.75 0 0 0 .75-.75V3a.75.75 0 0 0-.75-.75h-12.75a.75.75 0 0 0-.75.75zM3.75 34.5h11.693v-3.75a2.25 2.25 0 0 1 2.25-2.25h4.5a2.25 2.25 0 0 1 2.25 2.25v3.75h11.691V6.75h-7.566v1.5a2.25 2.25 0 0 1-2.25 2.25h-12.75a2.25 2.25 0 0 1-2.25-2.25v-1.5H3.75zM19.192 30h-1.5a.75.75 0 0 0-.75.75v3.75h2.25zm3.75.75a.75.75 0 0 0-.75-.75h-1.5v4.5h2.25zm13.942 6.75a.75.75 0 0 0 0-1.5H3a.75.75 0 1 0 0 1.5z"/></g></g></g></g></svg>