<svg xmlns="http://www.w3.org/2000/svg" width="48" height="48" viewBox="0 0 48 48"><g><g><g/><g><path fill="#c02524" d="M40.731 23.769c2.25 2.25 3.515 5.3 3.519 8.481a12 12 0 1 1-12-12 12.014 12.014 0 0 1 8.481 3.519zm-9.277-1.69a1.125 1.125 0 1 0 1.591 1.591 1.125 1.125 0 0 0-1.59-1.59zM23.67 33.046a1.125 1.125 0 1 0-1.59-1.59 1.125 1.125 0 0 0 1.59 1.59zm9.375 9.375a1.125 1.125 0 1 0-1.59-1.59 1.125 1.125 0 0 0 1.59 1.59zm6.39-3.39a.75.75 0 0 0-.162-.817l-5.579-5.58a1.497 1.497 0 1 0-1.06 1.061l5.579 5.58a.748.748 0 0 0 1.223-.244zm2.985-5.985a1.125 1.125 0 1 0-1.59-1.59 1.125 1.125 0 0 0 1.59 1.59z"/></g><g><path fill="#c02524" d="M43.006 21.817a15.006 15.006 0 1 1-11.504-4.529V15.75h-.75a.75.75 0 0 1-.75-.75v-1.5a.75.75 0 0 1 .75-.75h3a.75.75 0 0 1 .75.75V15a.75.75 0 0 1-.75.75h-.75v1.538a14.92 14.92 0 0 1 8.91 3.504l1.555-1.67a.75.75 0 0 1 1.097 1.023zM41.793 41.79a13.516 13.516 0 0 0 3.959-9.541 13.5 13.5 0 1 0-13.5 13.5 13.516 13.516 0 0 0 9.541-3.959z"/></g><g><path d="M33 36.75a.75.75 0 1 1 0 1.5H1.5a.75.75 0 1 1 0-1.5H3v-1.88a16.6 16.6 0 0 1 8.49-14.467 1.055 1.055 0 0 0 0-1.805A16.602 16.602 0 0 1 3 4.13V2.25H1.5a.75.75 0 0 1 0-1.5H33a.75.75 0 1 1 0 1.5h-1.5v1.88a16.6 16.6 0 0 1-8.49 14.467 1.055 1.055 0 0 0 0 1.805A16.602 16.602 0 0 1 31.5 34.87v1.881zm-6.162 0l-9.026-10.23a.766.766 0 0 0-1.124 0L7.662 36.75zM30 34.87a15.101 15.101 0 0 0-7.723-13.159 2.554 2.554 0 0 1 .001-4.423A15.1 15.1 0 0 0 30 4.131V2.25H4.5v1.88a15.1 15.1 0 0 0 7.723 13.159 2.554 2.554 0 0 1-.001 4.423A15.098 15.098 0 0 0 4.5 34.869v1.881h1.162l9.9-11.221a2.25 2.25 0 0 1 3.375 0l9.901 11.221H30z"/></g><g><path d="M27.615 7.613a10.439 10.439 0 0 1-8.115 8.639v4.75a2.25 2.25 0 1 1-4.5 0v-4.754A10.428 10.428 0 0 1 6.75 6.002a.75.75 0 0 1 .75-.75 7.46 7.46 0 0 1 3.563.82 6.548 6.548 0 0 0 5.87 0 8.07 8.07 0 0 1 7.133-.002 5.949 5.949 0 0 0 2.817.679.75.75 0 0 1 .732.864zm-4.299 5.04a8.94 8.94 0 0 0 2.653-4.458 7.49 7.49 0 0 1-2.53-.763 6.567 6.567 0 0 0-5.877.002 8.054 8.054 0 0 1-7.127 0c-.67-.35-1.4-.57-2.152-.646a8.937 8.937 0 0 0 7.582 8.096.75.75 0 0 1 .635.741v5.377a.75.75 0 1 0 1.5 0V15.63a.75.75 0 0 1 .635-.742 8.94 8.94 0 0 0 4.681-2.234z"/></g></g></g></svg>