<svg xmlns="http://www.w3.org/2000/svg" width="48" height="48" viewBox="0 0 48 48"><g><g><g/><g><path fill="#c02524" d="M13.5 35.25a.75.75 0 1 1 0-1.5A11.263 11.263 0 0 0 24.75 22.5a.75.75 0 1 1 1.5 0A11.263 11.263 0 0 0 37.5 33.75a.75.75 0 1 1 0 1.5A11.263 11.263 0 0 0 26.25 46.5a.75.75 0 1 1-1.5 0A11.263 11.263 0 0 0 13.5 35.25zm33.53-10.28a.75.75 0 0 1-.53 1.28 5.257 5.257 0 0 0-5.25 5.25.75.75 0 1 1-1.5 0 5.257 5.257 0 0 0-5.25-5.25.75.75 0 1 1 0-1.5 5.256 5.256 0 0 0 5.25-5.25.75.75 0 1 1 1.5 0 5.256 5.256 0 0 0 5.25 5.25.75.75 0 0 1 .53.22zm-17.38-5.12a3.754 3.754 0 0 0-2.65-1.1.75.75 0 1 1 0-1.5 3.754 3.754 0 0 0 3.75-3.75.75.75 0 1 1 1.5 0A3.755 3.755 0 0 0 36 17.25a.75.75 0 1 1 0 1.5 3.754 3.754 0 0 0-3.75 3.75.75.75 0 1 1-1.5 0 3.755 3.755 0 0 0-1.1-2.65z"/></g><g><path d="M37.689 16.74a2.924 2.924 0 0 1-.138 3.603L21.303 39.415a2.375 2.375 0 0 1-3.615 0L1.441 20.34a2.925 2.925 0 0 1-.138-3.6L6.44 9.676a2.259 2.259 0 0 1 1.82-.926h22.472a2.299 2.299 0 0 1 1.82.927zm-16.792-6.49l4.599 6.9 4.599-6.9zm-1.401.6l-4.6 6.9h9.199zm-10.6-.6l4.6 6.9 4.599-6.9zm-6.38 7.372c-.029.04-.04.087-.065.128h9.643l-4.628-6.938zm15.688 20.085L12.93 19.25H2.498c.026.042.055.082.085.12zm1.292-.937L24.5 19.25h-10.01zm16.912-17.4c.03-.038.06-.079.085-.12h-10.43l-5.275 18.457zm.133-1.62a1.37 1.37 0 0 0-.065-.128l-4.954-6.81-4.625 6.938z"/></g></g></g></svg>