<svg xmlns="http://www.w3.org/2000/svg" width="50" height="50" viewBox="0 0 50 50"><g><g><g/><g><g><g><path fill="#c02524" d="M35.014 44.67l-.036-.006a.977.977 0 0 0-.322 1.926l.035.006a.977.977 0 0 0 .322-1.926z"/></g></g></g><g><g><g><path fill="#c02524" d="M16.146 45.466a.977.977 0 0 0-1.125-.802l-.035.006a.977.977 0 0 0 .322 1.926l.036-.006a.977.977 0 0 0 .802-1.124z"/></g></g></g><g><g><g><path fill="#c02524" d="M39.56 31.694c-.264.533-1.594 2.718-1.99 3.256 2.251-.322 5.174.125 8.798 2.325a.977.977 0 0 1 .192 1.517c-.213.217-5.027 5.092-9.783 5.092-.239 0-.477-.013-.715-.039-1.92-.207-3.515-1.237-4.744-3.06a31.242 31.242 0 0 1-3.69 2.076c1.109.366 2.269.698 3.479.995a.977.977 0 0 1-.466 1.897 45.903 45.903 0 0 1-5.64-1.758 45.892 45.892 0 0 1-5.642 1.758.977.977 0 0 1-.466-1.897 46.34 46.34 0 0 0 3.48-.995 31.244 31.244 0 0 1-3.691-2.076c-1.229 1.823-2.823 2.853-4.744 3.06a6.616 6.616 0 0 1-.715.039c-4.756 0-9.57-4.875-9.783-5.092a.976.976 0 0 1 .192-1.517c3.624-2.2 6.547-2.647 8.8-2.325-.398-.538-1.728-2.723-1.993-3.256-.88.45-1.756.674-2.621.674a5.1 5.1 0 0 1-1.736-.308C2.148 30.646.134 24.717.05 24.466a.976.976 0 0 1 .843-1.282c3.03-.262 5.503.232 7.364 1.468a27.358 27.358 0 0 1-.275-2.836h-.047c-1.356 0-2.52-.44-3.472-1.315-2.828-2.598-2.574-8.177-2.562-8.413a.977.977 0 0 1 1.302-.87c2.708.96 4.332 2.302 5.3 3.632.13-.67.26-1.207.36-1.585-.777-1.13-1.052-2.334-.817-3.586.665-3.554 5.378-6.071 5.578-6.177a.976.976 0 0 1 1.403.63c.715 2.882.486 5.285-.68 7.14-1.157 1.837-2.904 2.572-3.679 2.82a27.793 27.793 0 0 0-.73 5.14c2.14-2.512 5.44-3.984 5.48-3.996a.977.977 0 0 1 1.239.751c.67 3.49.25 6.338-1.247 8.465-1.494 2.122-3.627 2.865-4.513 3.093.067.223 1.242 3.27 1.867 4.354.8-3.933 4.949-7.38 5.144-7.54a.977.977 0 0 1 1.505.342c1.55 3.324 1.85 6.291.89 8.819-.724 1.912-2.016 3.132-2.97 3.818a26.043 26.043 0 0 0 4.445 3.025c-.293-.662-.489-1.397-.489-2.179 0-3.052 2.986-5.397 3.114-5.495a.977.977 0 0 1 1.194 0c.127.098 3.114 2.443 3.114 5.496 0 .78-.196 1.516-.489 2.179a26.042 26.042 0 0 0 4.444-3.026c-.953-.686-2.245-1.906-2.97-3.818-.959-2.528-.659-5.495.89-8.82a.977.977 0 0 1 1.505-.341c.196.16 4.344 3.607 5.145 7.54.625-1.083 1.8-4.13 1.867-4.354-.886-.227-3.019-.97-4.514-3.093-1.497-2.126-1.916-4.974-1.246-8.465a.977.977 0 0 1 1.238-.751c.041.012 3.34 1.484 5.482 3.996a27.8 27.8 0 0 0-.73-5.14c-.776-.248-2.524-.983-3.68-2.82-1.166-1.855-1.395-4.257-.68-7.14a.976.976 0 0 1 1.403-.63c.2.106 4.913 2.623 5.578 6.177.235 1.252-.04 2.455-.816 3.586.099.378.228.916.358 1.585.97-1.33 2.593-2.672 5.301-3.632a.977.977 0 0 1 1.302.87c.012.236.266 5.815-2.562 8.413-.952.874-2.116 1.315-3.471 1.315h-.048a27.35 27.35 0 0 1-.275 2.836c1.86-1.236 4.334-1.73 7.364-1.468a.976.976 0 0 1 .843 1.282c-.084.251-2.098 6.18-6.032 7.594a5.102 5.102 0 0 1-1.736.309c-.865 0-1.74-.225-2.621-.675zm2.509-11.832c.859-.002 1.564-.265 2.144-.797 1.34-1.228 1.796-3.717 1.912-5.458-4.076 1.962-4.215 4.959-4.056 6.255zm-1.633 10.086c.992.51 1.92.598 2.822.274 1.995-.717 3.547-3.352 4.355-5.153h-.04c-2.443 0-4.224.742-5.595 1.896-.92.776-1.516 2.805-1.542 2.983zm-.401-19.907c-.303-1.63-2.077-3.179-3.425-4.106-.237 1.74-.004 3.182.697 4.297.67 1.063 1.641 1.609 2.25 1.862l.021-.011c.437-.672.587-1.344.457-2.042zm-36.16 3.566c.116 1.74.572 4.23 1.912 5.458.58.532 1.286.795 2.145.797.158-1.292.022-4.291-4.057-6.255zm5.69 16.341c-.027-.178-.254-.954-.302-1.099a5.48 5.48 0 0 0-1.241-1.884c-1.274-1.26-3.152-1.897-5.594-1.897h-.039c.81 1.804 2.367 4.442 4.356 5.155.901.323 1.828.234 2.82-.275zm.861-17.859a.505.505 0 0 1 .013.007c.612-.255 1.598-.807 2.269-1.888.69-1.112.918-2.545.682-4.273-1.348.927-3.122 2.476-3.425 4.106-.13.7.02 1.375.461 2.048zm.32 13.465c.754-.248 2.117-.862 3.085-2.251.984-1.414 1.355-3.3 1.108-5.621-1.731 1.024-4.326 2.891-4.745 5.046-.217 1.114.23 2.317.552 2.826zm6.178 14.338c-.207-.32-1.76-2.224-3.56-2.724-2.226-.62-4.737-.35-7.578 1.132 1.609 1.392 4.988 3.924 7.945 3.603 1.27-.138 2.318-.798 3.193-2.011zm1.564-7.092c.638-1.708.53-3.73-.321-6.025-1.352 1.343-3.667 3.97-3.583 6.456.052 1.544 1.244 2.698 1.286 2.738.709-.45 1.978-1.455 2.618-3.17zm8.27 5.384c0-1.407-1.06-2.704-1.758-3.405-.698.701-1.758 1.998-1.758 3.405 0 1.398 1.062 2.7 1.76 3.404.697-.701 1.756-1.997 1.756-3.404zm7.372-2.215a5.498 5.498 0 0 0 .244-.247c.687-.743 1.029-1.564 1.042-2.49.036-2.487-2.23-5.114-3.583-6.457-.85 2.295-.96 4.317-.321 6.025.64 1.713 1.908 2.718 2.618 3.17zm2.506 1.199c-1.577.513-3.353 2.403-3.56 2.724.876 1.215 1.926 1.874 3.196 2.012 2.77.3 6.115-2.014 7.95-3.6-2.845-1.485-5.386-1.851-7.586-1.136zm2.615-11.61c.324-.51.772-1.976.555-2.83-.54-2.128-3.014-4.022-4.745-5.046-.249 2.333.128 4.228 1.125 5.645.977 1.387 2.32 1.99 3.065 2.23z"/></g></g></g></g></g></svg>