<svg xmlns="http://www.w3.org/2000/svg" width="48" height="48" viewBox="0 0 48 48"><g><g><g/><g><path fill="#c02524" d="M46.13 30h-7.5v-7.5a.75.75 0 0 0-.75-.75h-7.5a.75.75 0 0 0-.75.75V30h-7.5a.75.75 0 0 0-.75.75v7.5a.75.75 0 0 0 .75.75h7.5v7.5a.75.75 0 0 0 .75.75h7.5a.75.75 0 0 0 .75-.75V39h7.5a.75.75 0 0 0 .75-.75v-7.5a.75.75 0 0 0-.75-.75z"/></g><g><path d="M35.733 29.434A3.749 3.749 0 0 1 32.22 34.5H4.876a3.75 3.75 0 0 1-3.507-5.066l1.73-4.617a6.75 6.75 0 0 1 5.366-4.311l2.751-.393a4.858 4.858 0 0 1 3.868-3.538C8.972 11.25 10.892.75 18.55.75c7.635 0 9.588 10.492 3.515 15.832a4.857 4.857 0 0 1 3.819 3.53l2.752.393A6.745 6.745 0 0 1 34 24.817zM24.19 19.87a3.348 3.348 0 0 0-2.214-1.771l.23 1.487zM13.16 10.5c.162.77.425 1.514.78 2.216a12.14 12.14 0 0 1 9.24.009c.367-.73.634-1.506.794-2.307A4.85 4.85 0 0 1 20.44 7.62a8.345 8.345 0 0 1-6.272 2.879zm1.572 3.508a8.964 8.964 0 0 0 2.62 2.377 2.354 2.354 0 0 0 2.444.014 8.949 8.949 0 0 0 2.597-2.38 10.643 10.643 0 0 0-7.66-.01zm1.61 6.032l2.208 2.76 2.208-2.76-.354-2.272a3.784 3.784 0 0 1-3.705-.032zm.099 2.524L17.07 33h2.96l.63-10.436-1.524 1.905a.752.752 0 0 1-1.171 0zM12.968 9h1.2a6.849 6.849 0 0 0 5.891-3.385.784.784 0 0 1 1.42.225 3.526 3.526 0 0 0 2.66 3.075C24.25 4.73 21.738 2.25 18.55 2.25c-3.272 0-5.74 2.63-5.582 6.75zm2.157 9.1a3.343 3.343 0 0 0-2.215 1.77l1.984-.284zm-3.855 6.87a.75.75 0 1 0 1.06 1.06.75.75 0 0 0-1.06-1.06zm-8.494 4.99a2.25 2.25 0 0 0 2.1 3.04h10.692l-.72-11.89-2.3.328v1.95a2.25 2.25 0 1 1-1.5 0V21.65l-2.373.34a5.249 5.249 0 0 0-4.174 3.353zM32.221 33a2.25 2.25 0 0 0 2.107-3.04l-1.732-4.617a5.25 5.25 0 0 0-4.173-3.354l-2.373-.339v1.738a2.25 2.25 0 0 1 1.5 2.112v3a.75.75 0 1 1-1.5 0v-3a.75.75 0 1 0-1.5 0v2.998a.75.75 0 0 1-1.5 0v-3a2.251 2.251 0 0 1 1.5-2.112v-1.95l-2.3-.329L21.533 33z"/></g></g></g></svg>