<svg xmlns="http://www.w3.org/2000/svg" width="48" height="48" viewBox="0 0 48 48"><g><g><g/><g><path fill="#c02524" d="M42.632 20.368A15.768 15.768 0 0 1 47.25 31.5 15.75 15.75 0 1 1 31.5 15.75a15.768 15.768 0 0 1 11.132 4.618zm-2.414 7.218a.75.75 0 1 0-.938-1.172l-10.724 8.581-4.776-4.775a.75.75 0 0 0-1.06 1.06l5.25 5.25a.75.75 0 0 0 .999.056l11.25-9z"/></g><g><g><path d="M27 4.5a2.25 2.25 0 0 1 2.25 2.25V36A2.25 2.25 0 0 1 27 38.25H3A2.25 2.25 0 0 1 .75 36V6.75A2.25 2.25 0 0 1 3 4.5h5.388A2.25 2.25 0 0 1 10.5 3h1.595a3 3 0 0 1 5.81 0H19.5a2.25 2.25 0 0 1 2.112 1.5zm-16.5 0a.75.75 0 0 0 0 1.5h9a.75.75 0 1 0 0-1.5h-2.25a.75.75 0 0 1-.75-.75 1.5 1.5 0 1 0-3 0 .75.75 0 0 1-.75.75zm17.25 2.25A.75.75 0 0 0 27 6h-5.388A2.25 2.25 0 0 1 19.5 7.5h-9A2.25 2.25 0 0 1 8.388 6H3a.75.75 0 0 0-.75.75V36a.75.75 0 0 0 .75.75h24a.75.75 0 0 0 .75-.75z"/></g><g><path d="M12.755 16.125H10.88a.75.75 0 0 1-.75-.75v-3a.75.75 0 0 1 .75-.75h1.875V9.75a.75.75 0 0 1 .75-.75h3a.75.75 0 0 1 .75.75v1.875h1.875a.75.75 0 0 1 .75.75v3a.75.75 0 0 1-.75.75h-1.875V18a.75.75 0 0 1-.75.75h-3a.75.75 0 0 1-.75-.75zm.75-1.5a.75.75 0 0 1 .75.75v1.875h1.5v-1.875a.75.75 0 0 1 .75-.75h1.875v-1.5h-1.875a.75.75 0 0 1-.75-.75V10.5h-1.5v1.875a.75.75 0 0 1-.75.75H11.63v1.5z"/></g><g><path d="M9 20.25a.75.75 0 0 1 .75.75v3.75a.75.75 0 0 1-.75.75H5.25a.75.75 0 0 1-.75-.75V21a.75.75 0 0 1 .75-.75zm-.75 1.5H6V24h2.25z"/></g><g><path d="M9 27.75a.75.75 0 0 1 .75.75v3.75A.75.75 0 0 1 9 33H5.25a.75.75 0 0 1-.75-.75V28.5a.75.75 0 0 1 .75-.75zm-.75 1.5H6v2.25h2.25z"/></g><g><path d="M24.75 20.25H12a.75.75 0 0 0 0 1.5h12.75a.75.75 0 1 0 0-1.5z"/></g><g><path d="M12 24.75h7.5a.75.75 0 0 0 0-1.5H12a.75.75 0 0 0 0 1.5z"/></g><g><path d="M24.75 27.75H12a.75.75 0 0 0 0 1.5h12.75a.75.75 0 1 0 0-1.5z"/></g><g><path d="M19.5 30.75H12a.75.75 0 0 0 0 1.5h7.5a.75.75 0 0 0 0-1.5z"/></g></g></g></g></svg>