<svg xmlns="http://www.w3.org/2000/svg" width="48" height="48" viewBox="0 0 48 48"><g><g><g/><g><g><path fill="#c02524" d="M35.343 32.91a2.25 2.25 0 0 0-1.592.658L30.57 36.75a2.25 2.25 0 1 0 3.182 3.182l3.183-3.182a2.25 2.25 0 0 0-1.591-3.84z"/></g><g><path fill="#c02524" d="M42.632 19.618A15.768 15.768 0 0 1 47.25 30.75 15.75 15.75 0 1 1 31.5 15a15.768 15.768 0 0 1 11.132 4.618zM28.85 22.1A3.75 3.75 0 1 0 31.5 21a3.754 3.754 0 0 0-2.65 1.1zm11.594 14.074a.75.75 0 0 0 0-1.5h-1.401a3.73 3.73 0 0 0-.573-1.583l1.114-1.114a.75.75 0 0 0-1.061-1.06l-1.114 1.113a3.718 3.718 0 0 0-1.583-.573v-1.4a.75.75 0 1 0-1.5 0v1.51a3.705 3.705 0 0 0-1.637.94l-1.06 1.06-.53-.529a.75.75 0 0 0-1.06 1.06l.529.53-1.06 1.061a3.695 3.695 0 0 0-.94 1.637h-1.512a.75.75 0 1 0 0 1.5h1.401a3.73 3.73 0 0 0 .573 1.583l-1.114 1.114a.75.75 0 0 0 1.061 1.06l1.114-1.113c.477.31 1.018.506 1.583.573v1.4a.75.75 0 1 0 1.5 0v-1.51a3.705 3.705 0 0 0 1.637-.94l1.06-1.06.53.529a.75.75 0 0 0 1.06-1.06l-.529-.53 1.06-1.062c.45-.455.774-1.019.94-1.636z"/></g><g><path fill="#c02524" d="M31.5 27a2.25 2.25 0 1 0 0-4.5 2.25 2.25 0 0 0 0 4.5z"/></g></g><g><path d="M24.399 33.782a2.754 2.754 0 0 1-1.65 4.95H8.752a2.753 2.753 0 0 1-1.65-4.95l1.945-1.456a12.653 12.653 0 0 1-6.02-10.093H1.5a.75.75 0 1 1 0-1.5h8.25a.75.75 0 0 1 0 1.5H8.288a7.54 7.54 0 0 0 5.55 6.496l.562-.421a2.26 2.26 0 0 1 2.7 0l.562.421a7.5 7.5 0 0 0 .142-14.46 2.982 2.982 0 0 1-4.461 1.461l-.84.84a2.22 2.22 0 0 1-2.555.433l-1.377 1.378a1.5 1.5 0 0 1-2.121 0L5.39 17.32a1.5 1.5 0 0 1 0-2.121l1.377-1.383a2.245 2.245 0 0 1 .433-2.55l6.361-6.363a2.307 2.307 0 0 1 2.55-.426l1.166-1.165-.53-.531a.75.75 0 0 1 1.06-1.06l4.243 4.242a.75.75 0 0 1-1.061 1.06l-.53-.53-1.158 1.16a2.25 2.25 0 0 1 .117 1.62 12.815 12.815 0 0 1 9.082 12.21 12.668 12.668 0 0 1-6.046 10.843l1.945 1.456zM19.398 5.433l-1.06-1.06-1.062 1.06 1.061 1.06zM8.791 16.04l-1.06-1.061-1.281 1.28 1.062 1.062zm1.591-.53a.766.766 0 0 0 1.06 0l.906-.905A2.957 2.957 0 0 1 12 13.233a3 3 0 0 1 3-3c.479.003.95.122 1.372.347l1.435-1.434a.75.75 0 0 0 0-1.062l-2.121-2.12a.766.766 0 0 0-1.061 0l-6.364 6.364a.75.75 0 0 0 0 1.06zm5.679-1.216a1.5 1.5 0 1 0-2.122-2.121 1.5 1.5 0 0 0 2.122 2.12zm7.142 12.214a9.06 9.06 0 0 1-4.078 3.319l2.025 1.52a11.24 11.24 0 0 0-2.657-20.767l-.996.996c.236.358.391.763.456 1.186a8.99 8.99 0 0 1 6.797 8.721 9.06 9.06 0 0 1-1.548 5.025zM4.526 22.233a11.175 11.175 0 0 0 5.824 9.113l2.025-1.52a9.075 9.075 0 0 1-5.592-7.593zm18.224 15a1.25 1.25 0 0 0 .75-2.25l-7.3-5.475a.75.75 0 0 0-.9 0L8 34.983a1.251 1.251 0 0 0 .75 2.25z"/></g></g></g></svg>