<svg xmlns="http://www.w3.org/2000/svg" width="48" height="48" viewBox="0 0 48 48"><g><g><g/><g><path fill="#c02524" d="M42.02 33.722a51.908 51.908 0 0 0-20.194 0 .744.744 0 0 0-.545.97l2.264 6.793a.74.74 0 0 0 .879.493 28.796 28.796 0 0 1 14.999 0 .734.734 0 0 0 .88-.493l2.264-6.794a.745.745 0 0 0-.546-.97z"/></g><g><path fill="#c02524" d="M46.14 30.813a1.498 1.498 0 0 1 1.033 1.925l-4.246 12.739a1.492 1.492 0 0 1-1.928.933 25.34 25.34 0 0 0-18.147 0 1.49 1.49 0 0 1-1.927-.933l-4.246-12.739a1.498 1.498 0 0 1 1.032-1.925 58.47 58.47 0 0 1 6.43-1.277 1.616 1.616 0 0 1-.737-1.006l-1.452-5.727a1.612 1.612 0 0 1 1.445-2.073h17.057a1.612 1.612 0 0 1 1.446 2.073l-1.453 5.727a1.615 1.615 0 0 1-.737 1.006c2.166.305 4.313.731 6.43 1.277zm-16.669-6.099a.75.75 0 0 0 0 1.5h1.705v1.705a.75.75 0 1 0 1.5 0v-1.705h1.704a.75.75 0 0 0 0-1.5h-1.704V23.01a.75.75 0 1 0-1.5 0v1.704zm14.52 10.453a2.246 2.246 0 0 0-1.68-2.917 53.632 53.632 0 0 0-20.77 0 2.245 2.245 0 0 0-1.681 2.917l2.264 6.793a2.238 2.238 0 0 0 2.688 1.468 27.297 27.297 0 0 1 14.227 0 2.239 2.239 0 0 0 2.688-1.467z"/></g><g><path d="M18.01 7.002h.75v1.053a.75.75 0 0 0 1.5 0V7.002h.75a.75.75 0 0 0 0-1.5h-.75V4.45a.75.75 0 0 0-1.5 0v1.052h-.75a.75.75 0 0 0 0 1.5z"/></g><g><path d="M31.12 20.2a10.404 10.404 0 0 1 7.13 9.859v6.547a2.253 2.253 0 0 1-2.25 2.25H3a2.252 2.252 0 0 1-2.25-2.25v-6.547a10.402 10.402 0 0 1 10.39-10.39h3.485V19.4c-.415.047-.832.072-1.25.076-4.347 0-5.733-2.66-5.796-2.786a.75.75 0 0 1-.055-.522L10.76 3.577c.386-1.51 1.27-2.077 2.206-2.077h13.066a2.723 2.723 0 0 1 2.364 2.077l3.238 12.592a.753.753 0 0 1-.056.522c-.064.127-1.45 2.786-5.796 2.786a12.18 12.18 0 0 1-1.408-.094v.285h3.484c1.1.001 2.191.178 3.235.523.01.001.017.007.026.01zm-1.956 1.075a8.88 8.88 0 0 0-1.305-.106h-4.338l-3.67 3.058v1.879h2.412zm-9.993 1.566l3.704-3.087v-.75a6.693 6.693 0 0 1-6.75 0v.791zm-4.921-9.673a5.25 5.25 0 1 0 10.5 0v-2.062h-10.5zm13.315-2.795a.749.749 0 0 1-.744.663h-.571v2.132a6.72 6.72 0 0 1-1.875 4.656v.052c3.754.502 5.296-1.063 5.726-1.646l-2.214-8.611zM12.967 3c-.492 0-.802.654-.742 1.205l.58 5.331h13.348l.62-5.32C26.84 3.655 26.53 3 26.034 3zm-3.91 13.229c.426.577 1.927 2.104 5.568 1.665v-.07a6.72 6.72 0 0 1-1.875-4.656v-2.132h-.617a.75.75 0 0 1-.746-.669l-.245-2.249zm2.083 4.94a8.864 8.864 0 0 0-1.905.21l6.752 4.727h2.365v-1.963l-2.975-2.975zM2.25 36.605a.75.75 0 0 0 .75.75h5.25v-6a.75.75 0 1 1 1.5 0v6h8.602v-2.25h-1.477a.75.75 0 1 1 0-1.5h1.477v-2.25h-1.477a.75.75 0 1 1 0-1.5h1.477v-2.25H15.75a.753.753 0 0 1-.43-.136l-7.853-5.497a8.896 8.896 0 0 0-5.217 8.086zm34.5-6.547a8.898 8.898 0 0 0-5.686-8.283L22.93 27.47a.751.751 0 0 1-.43.136h-2.648v9.75h9.398v-6a.75.75 0 1 1 1.5 0v6H36a.75.75 0 0 0 .75-.75z"/></g></g></g></svg>