<svg xmlns="http://www.w3.org/2000/svg" width="48" height="48" viewBox="0 0 48 48"><g><g><g/><g><path fill="#c02524" d="M44.63 17.25a2.25 2.25 0 0 1 2.25 2.25V45a2.25 2.25 0 0 1-2.25 2.25h-21A2.25 2.25 0 0 1 21.38 45V19.5a2.25 2.25 0 0 1 2.25-2.25h5.388a2.25 2.25 0 0 1 2.112-1.5h.75a2.25 2.25 0 0 1 4.5 0h.75a2.25 2.25 0 0 1 2.112 1.5zm-13.5 0a.75.75 0 0 0 0 1.5h6a.75.75 0 1 0 0-1.5h-1.5a.75.75 0 0 1-.75-.75v-.75a.75.75 0 1 0-1.5 0v.75a.75.75 0 0 1-.75.75zm2.25 7.875V27a.75.75 0 1 0 1.5 0v-1.875h1.875a.75.75 0 1 0 0-1.5H34.88V21.75a.75.75 0 1 0-1.5 0v1.875h-1.875a.75.75 0 1 0 0 1.5zm.75 16.125a.75.75 0 1 0 0-1.5h-9a.75.75 0 1 0 0 1.5zm9-4.5a.75.75 0 1 0 0-1.5h-18a.75.75 0 1 0 0 1.5zm0-4.5a.75.75 0 1 0 0-1.5h-18a.75.75 0 1 0 0 1.5z"/></g><g><g><path d="M35.734 33.183a3.75 3.75 0 0 1-3.512 5.067H4.877a3.75 3.75 0 0 1-3.508-5.067L3.1 28.567a6.75 6.75 0 0 1 5.367-4.313l6.414-.916.114-.875a10.17 10.17 0 0 1-5.481-2.183 2.804 2.804 0 0 1-.87-3.21l3.13-8.137-.74-3.698A3.75 3.75 0 0 1 14.712.75h7.681a3.75 3.75 0 0 1 3.677 4.485l-.74 3.698 3.13 8.138a2.806 2.806 0 0 1-.869 3.208 10.179 10.179 0 0 1-5.481 2.185l.113.874 6.415.916a6.751 6.751 0 0 1 5.366 4.313zM21.71 9.75a3.33 3.33 0 0 0 2.43 2.165 8.465 8.465 0 0 0-.203-2.165zm-8.544 0A9.094 9.094 0 0 0 12.97 12h1.2a6.843 6.843 0 0 0 5.044-2.25zm-.005 3.75a9.01 9.01 0 0 0 4.192 5.886 2.353 2.353 0 0 0 2.445.012 9.018 9.018 0 0 0 4.177-5.98 4.854 4.854 0 0 1-3.534-2.797A8.347 8.347 0 0 1 14.17 13.5zm3.171 10.3a2.857 2.857 0 0 0 4.436 0l-.392-3.017a3.776 3.776 0 0 1-3.649-.033zm10.32-4.692a1.312 1.312 0 0 0 .404-1.499l-1.58-4.103a10.54 10.54 0 0 1-3.712 6.33l.15 1.136a8.67 8.67 0 0 0 4.737-1.864zM14.712 2.25a2.25 2.25 0 0 0-2.207 2.691l.662 3.309h10.77l.662-3.309a2.25 2.25 0 0 0-2.206-2.691zm.479 18.724l.15-1.178a10.546 10.546 0 0 1-3.709-6.312l-1.588 4.125a1.313 1.313 0 0 0 .407 1.5 8.671 8.671 0 0 0 4.74 1.865zM32.222 36.75a2.25 2.25 0 0 0 2.11-3.04L32.6 29.094a5.25 5.25 0 0 0-4.173-3.355l-6.55-.934a4.35 4.35 0 0 1-6.656 0l-6.545.934a5.25 5.25 0 0 0-4.174 3.355L2.777 33.71a2.25 2.25 0 0 0 2.1 3.04z"/></g></g></g></g></svg>