<svg xmlns="http://www.w3.org/2000/svg" width="20" height="20" viewBox="0 0 20 20"><g><g><g/><g><g><g><path fill="#c02524" d="M15.246 7.9a.288.288 0 0 0-.335.23 4.99 4.99 0 0 1-4.906 4.066 4.996 4.996 0 0 1-4.99-4.99 4.996 4.996 0 0 1 4.99-4.991 4.992 4.992 0 0 1 4.903 4.054.287.287 0 0 0 .565-.108 5.567 5.567 0 0 0-5.468-4.521A5.572 5.572 0 0 0 4.44 7.205a5.565 5.565 0 1 0 11.035 1.03.287.287 0 0 0-.23-.335z"/></g></g></g><g><g><g><path fill="#c02524" d="M9.997 0C6.045 0 2.83 3.215 2.83 7.167c0 2.05.842 4.471 2.502 7.194a.287.287 0 0 0 .49-.3c-1.604-2.63-2.417-4.95-2.417-6.894A6.6 6.6 0 0 1 9.997.575a6.6 6.6 0 0 1 6.593 6.592c0 2.042-.895 4.491-2.658 7.281-1.453 2.298-3.114 4.193-3.76 4.9a.234.234 0 0 1-.175.077.234.234 0 0 1-.174-.077 37.618 37.618 0 0 1-2.96-3.698.287.287 0 1 0-.471.329 38.223 38.223 0 0 0 3.006 3.757.813.813 0 0 0 1.198 0c1.54-1.687 6.568-7.577 6.568-12.569C17.164 3.215 13.95 0 9.997 0z"/></g></g></g><g><g><g><path fill="#c02524" d="M10.528 3.26c1.638 0 2.577.932 2.577 2.556v.06c0 1.638-.969 2.577-2.657 2.577h-.842v2.052c0 .406-.397.7-.943.7-.555 0-.943-.287-.943-.7V3.951c0-.388.343-.691.781-.691zm2.002 2.556c0-.692-.19-1.21-.566-1.538-.336-.294-.82-.443-1.436-.443H8.501c-.129 0-.206.059-.206.116v6.554c0 .043.143.126.368.126s.368-.088.368-.126v-2.34c0-.158.129-.287.287-.287h1.13c.95 0 2.082-.347 2.082-2.001z"/></g></g></g><g><g><g><path fill="#c02524" d="M10.457 4.41c.843 0 1.346.54 1.346 1.447v.121c0 .906-.503 1.447-1.346 1.447h-1.13a.287.287 0 0 1-.287-.287v-2.44c0-.16.129-.288.287-.288zm.771 1.447c0-.595-.245-.872-.771-.872h-.842V6.85h.842c.526 0 .771-.277.771-.872z"/></g></g></g></g></g></svg>