<svg xmlns="http://www.w3.org/2000/svg" width="48" height="48" viewBox="0 0 48 48"><g><g><g/><g><g><path fill="#c02524" d="M40.5 39.75H42v3h-1.5z"/></g><g><path fill="#c02524" d="M24 39.75h1.5v3H24z"/></g><g><path fill="#c02524" d="M45 24a2.253 2.253 0 0 1 2.25 2.25v18A2.253 2.253 0 0 1 45 46.5H21a2.253 2.253 0 0 1-2.25-2.25v-18A2.252 2.252 0 0 1 21 24h6v-1.5a2.252 2.252 0 0 1 2.25-2.25h7.5A2.253 2.253 0 0 1 39 22.5V24zm-16.5 0h9v-1.5a.751.751 0 0 0-.75-.75h-7.5a.751.751 0 0 0-.75.75zM45 39.75a.75.75 0 1 0 0-1.5H21a.75.75 0 1 0 0 1.5h1.5v3.75a.75.75 0 0 0 .75.75h3a.75.75 0 0 0 .75-.75v-3.75h12v3.75a.75.75 0 0 0 .75.75h3a.75.75 0 0 0 .75-.75v-3.75z"/></g></g><g><path d="M32.742 7.008A18.805 18.805 0 0 1 38.25 20.25 18.75 18.75 0 1 1 19.5 1.5a18.806 18.806 0 0 1 13.242 5.508zM6.278 9.186a17.167 17.167 0 0 0-4.014 10.528l1.886.629 4.72-9.562zm28.104 10.271l-5.441-7.944-2.317 1.426 5.874 7.18zm-3.323 1.272l-6.038-7.38-1.152-.576a2.259 2.259 0 0 0-2.4.247l-3.892 3.072a.75.75 0 0 0-.066 1.12l.894.893a.752.752 0 0 0 .947.094L23 15.765a.831.831 0 0 1 .896.048l4.51 3.759c.575.479.991 1.119 1.197 1.837zm-4.358 4.05l-3.974-3.363a.75.75 0 0 1 .97-1.145l4.127 3.494a2.232 2.232 0 0 0-.376-3.041l-4.08-3.4-3.184 2.123a2.255 2.255 0 0 1-2.84-.281l-.893-.894a2.248 2.248 0 0 1 .197-3.357l2.936-2.318-.23-.108a3.765 3.765 0 0 0-2.977-.082l-2.346.938-4.824 8.96 8.887 7.11a2.24 2.24 0 0 0 2.812 0l.4-.32-4.23-3.514a.749.749 0 1 1 .959-1.154l4.466 3.712 1.473-1.179-4.029-3.71a.75.75 0 1 1 1.016-1.103l4.198 3.865zM10.152 11.57l-4.565 9.25 2.302.768 4.615-8.571zm18.892-1.882a14.19 14.19 0 0 0-19.088 0l3.616 2.225 2.248-.9a5.262 5.262 0 0 1 4.167.116l.95.443a3.766 3.766 0 0 1 3.603-.142l.923.462zM5.413 22.345A14.279 14.279 0 0 0 19.5 34.5a14.227 14.227 0 0 0 14.2-13.214l-1.17.41-2.82 1.319a3.73 3.73 0 0 1-1.36 2.366l-6.507 5.205a3.73 3.73 0 0 1-4.686 0l-9.27-7.417zm31.26-3.692a17.17 17.17 0 0 0-3.951-9.467l-2.502 1.54 5.628 8.217zM12.9 4.313a17.196 17.196 0 0 0-5.591 3.746l1.325.816a15.684 15.684 0 0 1 21.734 0l1.325-.816A17.198 17.198 0 0 0 19.5 3a17.196 17.196 0 0 0-6.6 1.313zm18.793 28.129A17.27 17.27 0 0 0 36.75 20.25v-.033l-1.525.534a15.732 15.732 0 0 1-31.38 1.071l-1.56-.52A17.27 17.27 0 0 0 19.5 37.5a17.27 17.27 0 0 0 12.192-5.058z"/></g></g></g></svg>