<svg width="32" height="32" viewBox="0 0 32 32" fill="none" xmlns="http://www.w3.org/2000/svg">
<path d="M30.9037 8.65981L22.7513 0.188625C22.6353 0.068125 22.4751 0 22.3079 0H10.1573C8.79744 0 7.69113 1.10588 7.69113 2.46513V11.0769H2.76694C1.74956 11.0769 0.921875 11.9044 0.921875 12.9215V22.1555C0.921875 23.1726 1.74956 24 2.76694 24H7.69113V29.5392C7.69113 30.8961 8.79744 32 10.1573 32H28.6096C29.9694 32 31.0757 30.8967 31.0757 29.5406V9.08656C31.0757 8.92744 31.0141 8.7745 30.9037 8.65981ZM22.4604 1.66131L29.1528 8.61537H22.4604V1.66131ZM2.76694 22.7693C2.42819 22.7693 2.15269 22.4939 2.15269 22.1555V12.9215C2.15269 12.5831 2.42825 12.3077 2.76694 12.3077H19.3846C19.7233 12.3077 19.9988 12.5831 19.9988 12.9215V22.1555C19.9988 22.4939 19.7232 22.7693 19.3846 22.7693H2.76694ZM29.8449 29.5406C29.8449 30.2181 29.2907 30.7693 28.6096 30.7693H10.1573C9.47606 30.7693 8.92188 30.2175 8.92188 29.5392V24H19.3846C20.4019 24 21.2296 23.1726 21.2296 22.1555V12.9215C21.2296 11.9044 20.4019 11.0769 19.3846 11.0769H8.92188V2.46513C8.92188 1.78444 9.47606 1.23075 10.1573 1.23075H21.2296V9.23075C21.2296 9.57063 21.5051 9.84612 21.8449 9.84612H29.8449V29.5406Z" fill="#C02524"/>
<path d="M8.27796 15.6182C8.07365 15.3526 7.82003 15.1801 7.51715 15.1008C7.32003 15.0479 6.89697 15.0215 6.2479 15.0215H4.53516V20.3075H5.60247V18.3135H6.2984C6.78159 18.3135 7.15059 18.2883 7.4054 18.2378C7.5929 18.1969 7.7774 18.1134 7.9589 17.9872C8.1404 17.861 8.29003 17.6873 8.40784 17.4662C8.52565 17.245 8.58453 16.9722 8.58453 16.6477C8.58446 16.227 8.48228 15.8839 8.27796 15.6182ZM7.3639 17.0732C7.2834 17.191 7.17222 17.2775 7.03034 17.3328C6.88847 17.3881 6.60728 17.4157 6.18659 17.4157H5.60247V15.9157H6.11809C6.50272 15.9157 6.75872 15.9277 6.88609 15.9518C7.05915 15.983 7.20222 16.0612 7.31515 16.1862C7.42815 16.3112 7.48465 16.4699 7.48465 16.6621C7.48472 16.8184 7.4444 16.9554 7.3639 17.0732Z" fill="#C02524"/>
<path d="M13.7155 16.4656C13.6001 16.1279 13.4318 15.8424 13.2107 15.6092C12.9895 15.376 12.7238 15.2138 12.4138 15.1224C12.183 15.0551 11.8477 15.0215 11.4078 15.0215H9.45703V20.3075H11.4655C11.8597 20.3075 12.1746 20.2703 12.4102 20.1957C12.7251 20.0948 12.9751 19.9542 13.1602 19.7738C13.4053 19.5358 13.594 19.2246 13.7263 18.84C13.8345 18.525 13.8885 18.15 13.8885 17.715C13.8885 17.2198 13.8308 16.8034 13.7155 16.4656ZM12.677 18.6363C12.6048 18.8731 12.5117 19.0432 12.3975 19.1465C12.2833 19.2499 12.1397 19.3232 11.9667 19.3664C11.8345 19.4001 11.6193 19.4169 11.3212 19.4169H10.5243V15.9157H11.0039C11.439 15.9157 11.7311 15.9325 11.8801 15.9662C12.0796 16.0095 12.2443 16.0924 12.3741 16.215C12.5039 16.3377 12.6048 16.5083 12.677 16.727C12.7491 16.9458 12.7852 17.2595 12.7852 17.6682C12.7852 18.0768 12.7491 18.3995 12.677 18.6363Z" fill="#C02524"/>
<path d="M18.4246 15.9157V15.0215H14.8008V20.3075H15.8681V18.0612H18.0748V17.1669H15.8681V15.9157H18.4246Z" fill="#C02524"/>
</svg>
