<svg xmlns="http://www.w3.org/2000/svg" width="24" height="24" viewBox="0 0 24 24"><g><g><g/><g><path fill="#c02524" d="M8.955 20.3a.906.906 0 1 1-.001 1.811.906.906 0 0 1 0-1.811zm.242 1.147a.343.343 0 1 0-.485-.485.343.343 0 0 0 .485.485z"/></g><g><path fill="#c02524" d="M16.315 21.845a.906.906 0 1 1 1.281-1.282.906.906 0 0 1-1.28 1.282zm.398-.882a.343.343 0 1 0 .484.485.343.343 0 0 0-.484-.485z"/></g><g><path fill="#c02524" d="M5.557 9.96h-.216a.281.281 0 1 0 0 .563h.216a.281.281 0 1 0 0-.563z"/></g><g><path fill="#c02524" d="M10.7 9.96H6.412a.281.281 0 1 0 0 .563h4.29a.281.281 0 0 0 0-.563z"/></g><g><path fill="#c02524" d="M22.573 9.03v3.498a3.097 3.097 0 0 1-3.094 3.094h-2.796l-3.193 2.017 2.654 1.677a2.06 2.06 0 1 1-.527.332l-2.653-1.676-2.653 1.676a2.057 2.057 0 1 1-.527-.332l2.653-1.677-3.192-2.017H6.308a3.097 3.097 0 0 1-3.094-3.094V9.03a.281.281 0 0 1 .281-.28h.367V6.76a1.502 1.502 0 0 0-1.5-1.5h-.64a.281.281 0 1 1 0-.562h.64A2.065 2.065 0 0 1 4.424 6.76v1.99h7.304L14.013.941a.281.281 0 0 1 .27-.202 8.236 8.236 0 0 1 6.165 2.749c1.47 1.928 2.125 3.637 2.125 5.541zM10.246 20.434a1.493 1.493 0 1 0-2.563 1.533 1.493 1.493 0 0 0 2.563-1.533zm5.436 0a1.497 1.497 0 0 0 .093 1.672 1.494 1.494 0 1 0-.093-1.672zm-3.26-12.052l5.394-3.496a.282.282 0 1 1 .306.472L12.89 8.749h9.115c-.06-1.595-.639-3.068-1.848-4.71l-.955.619a.282.282 0 0 1-.306-.472l.892-.579-.04-.041a7.674 7.674 0 0 0-5.255-2.26zm3.208 7.24h-5.332l2.666 1.685zm6.38-6.31H3.777v2.25h2.512a.281.281 0 1 1 0 .562H3.776v.404a2.534 2.534 0 0 0 2.532 2.531h13.171a2.534 2.534 0 0 0 2.532-2.53v-.405H7.835a.281.281 0 1 1 0-.562H22.01z"/></g></g></g></svg>