<svg xmlns="http://www.w3.org/2000/svg" width="20" height="20" viewBox="0 0 20 20"><g><g><g/><g><g><g><path fill="#c02524" d="M17.071 2.929A10 10 0 0 0 10 0a.323.323 0 0 0-.323.323v2.58a.323.323 0 0 0 .645 0V.651a9.355 9.355 0 1 1-6.937 2.734.323.323 0 0 0-.456-.456c-3.905 3.905-3.905 10.237 0 14.142 3.905 3.905 10.237 3.905 14.142 0 3.905-3.905 3.905-10.237 0-14.142z"/></g></g></g><g><g><g><path fill="#c02524" d="M11.293 10.003a1.29 1.29 0 0 1-2.58 0c0-.23.064-.455.183-.651L4.3 4.757a.323.323 0 0 1 .456-.456l4.595 4.595c.196-.119.421-.182.651-.183.713 0 1.29.578 1.29 1.29zm-.645 0a.645.645 0 1 0-1.29 0 .645.645 0 0 0 1.29 0z"/></g></g></g></g></g></svg>