<svg xmlns="http://www.w3.org/2000/svg" width="32" height="32" viewBox="0 0 32 32"><g><g><g/><g><path fill="#c02524" d="M0 7a3 3 0 0 1 3-3h18a3 3 0 0 1 3 3v3h2.04a3 3 0 0 1 2.34 1.126l2.962 3.7A3 3 0 0 1 32 16.702V21a3 3 0 0 1-3 3h-1a4 4 0 1 1-8 0H10a3.999 3.999 0 1 1-7.996-.17A3 3 0 0 1 0 21zm2.588 14.912A3.998 3.998 0 0 1 9.464 22h11.072A4.02 4.02 0 0 1 22 20.536V7a1 1 0 0 0-1-1H3a1 1 0 0 0-1 1v14a1 1 0 0 0 .588.912zM24 20a4 4 0 0 1 3.464 2H29a1 1 0 0 0 1-1v-4.3a1 1 0 0 0-.22-.624l-2.96-3.7a1 1 0 0 0-.78-.376H24zM6 22a2 2 0 1 0 0 4 2 2 0 0 0 0-4zm18 0a2 2 0 1 0 0 4 2 2 0 0 0 0-4z"/></g></g></g></svg>