<svg xmlns="http://www.w3.org/2000/svg" width="24" height="24" viewBox="0 0 24 24"><g><g><g/><g><g><path fill="#c02524" d="M18.705 22.344a.352.352 0 0 0-.481-.126 7.908 7.908 0 0 1-7.975 0 .352.352 0 0 0-.355.607 8.611 8.611 0 0 0 8.685 0 .352.352 0 0 0 .126-.48z"/></g><g><path fill="#c02524" d="M17.464 20.918a6.403 6.403 0 0 1-3.227.878 6.403 6.403 0 0 1-3.228-.878.352.352 0 0 0-.355.607c1.09.638 2.33.975 3.583.975a7.107 7.107 0 0 0 3.582-.975.352.352 0 1 0-.355-.607z"/></g><g><path fill="#c02524" d="M13.892 3.358A2.658 2.658 0 0 0 11.238.703a2.658 2.658 0 0 0-2.655 2.655V4.86a2.985 2.985 0 0 1-2.981 2.982.352.352 0 0 1 0-.704A2.281 2.281 0 0 0 7.88 4.861V3.358A3.361 3.361 0 0 1 11.238 0a3.362 3.362 0 0 1 3.358 3.358v1.151h.06c.375 0 .686.282.723.655l.313 3.133c.453.105.8.486.846.968l.677 7.117 1.104 1.556a1.09 1.09 0 0 1-.106 1.406 5.568 5.568 0 0 1-3.969 1.65 5.568 5.568 0 0 1-3.969-1.65 1.09 1.09 0 0 1-.106-1.405l1.104-1.557.098-1.034a.351.351 0 1 1 .7.067l-.07.743h4.487l-.65-6.826a.398.398 0 0 0-.398-.362h-2.391a.398.398 0 0 0-.399.362l-.436 4.58a.352.352 0 0 1-.7-.066l.436-4.58c.046-.483.393-.864.846-.97l.313-3.132a.725.725 0 0 1 .724-.655h.06zm-2.436 13.981a3.397 3.397 0 0 0 2.788 1.449c1.115 0 2.149-.54 2.788-1.449l-.34-.478h-4.897zm6.289 1.006l-.286-.404a4.098 4.098 0 0 1-3.215 1.55 4.096 4.096 0 0 1-3.215-1.55l-.286.404a.395.395 0 0 0 .03.502 4.87 4.87 0 0 0 3.47 1.444 4.87 4.87 0 0 0 3.472-1.444.394.394 0 0 0 .03-.502zM14.68 5.234a.024.024 0 0 0-.024-.022h-.823a.024.024 0 0 0-.025.022l-.303 3.033h1.478z"/></g></g></g></g></svg>