<svg xmlns="http://www.w3.org/2000/svg" width="48" height="48" viewBox="0 0 48 48"><g><g><g/><g><path fill="#c02524" d="M44.621 24.538h-3.569a8.457 8.457 0 0 0-1.773-5.575l2.16-2.163a.75.75 0 0 0-1.06-1.06l-2.16 2.16a8.462 8.462 0 0 0-5.576-1.772V14.81a.75.75 0 1 0-1.5 0v1.444c-.338.045-.675.094-1.022.168a18.01 18.01 0 0 0-5.497 2.238l-1.05-2.663a.75.75 0 1 0-1.396.55l1.161 2.949a23.54 23.54 0 0 0-3.115 2.61 23.107 23.107 0 0 0-2.603 3.117l-2.956-1.164a.75.75 0 1 0-.55 1.396l2.674 1.05a17.448 17.448 0 0 0-2.393 6.518H10.68a.75.75 0 1 0 0 1.5h3.595a8.515 8.515 0 0 0 1.749 5.573l-2.162 2.163a.75.75 0 0 0 1.06 1.06l2.151-2.152a8.46 8.46 0 0 0 5.411 1.744c.057 0 .116-.004.173-.006v3.596a.75.75 0 1 0 1.5 0v-3.71a17.474 17.474 0 0 0 6.518-2.393l1.05 2.665a.75.75 0 0 0 1.396-.549l-1.159-2.946a23.19 23.19 0 0 0 3.112-2.613 23.493 23.493 0 0 0 2.61-3.114l2.95 1.16a.75.75 0 0 0 .55-1.395l-2.663-1.05a18.012 18.012 0 0 0 2.238-5.497c.075-.347.122-.685.168-1.023h3.694a.75.75 0 1 0 0-1.5z"/></g><g><g><path d="M34.406 24.777a3 3 0 0 1-3 5.196 6.422 6.422 0 0 1-2.233-2.464 12.74 12.74 0 0 1-7.93 4.572 6.41 6.41 0 0 1 1.02 3.169 3 3 0 0 1-6 0 6.409 6.409 0 0 1 1.02-3.17 12.74 12.74 0 0 1-7.927-4.57 6.427 6.427 0 0 1-2.233 2.463 3 3 0 0 1-3-5.196 6.442 6.442 0 0 1 3.256-.692 12.562 12.562 0 0 1 0-9.168 6.455 6.455 0 0 1-3.256-.694 3 3 0 0 1 3-5.196 6.419 6.419 0 0 1 2.233 2.464 12.75 12.75 0 0 1 7.928-4.571 6.409 6.409 0 0 1-1.02-3.17 3 3 0 1 1 6 0 6.41 6.41 0 0 1-1.019 3.17 12.75 12.75 0 0 1 7.928 4.57 6.414 6.414 0 0 1 2.232-2.463 3 3 0 0 1 3 5.196 6.46 6.46 0 0 1-3.257.694 12.561 12.561 0 0 1 0 9.166 6.477 6.477 0 0 1 3.256.694zm-4.1-11.652c.407.707 5.345.254 3.896-2.25a1.5 1.5 0 0 0-2.048-.549c-.971.561-2.128 2.314-1.848 2.799zm-22.086 0c.28-.485-.877-2.238-1.847-2.799a1.5 1.5 0 0 0-1.5 2.598c.825.476 3.025.763 3.347.201zM6.373 28.673c.825-.473 2.175-2.236 1.847-2.797-.347-.605-2.65-.202-3.347.202a1.5 1.5 0 1 0 1.5 2.596zM19.263 6.75c.562 0 1.5-1.875 1.5-3a1.5 1.5 0 0 0-3 0c0 1.125.94 3 1.5 3zm0 25.5c-.56 0-1.5 1.879-1.5 3a1.5 1.5 0 1 0 3 0c0-1.121-.938-3-1.5-3zm7.952-4.799a11.263 11.263 0 0 0 3.299-7.951 11.25 11.25 0 1 0-11.25 11.25 11.263 11.263 0 0 0 7.951-3.299zm7.137-.464a1.5 1.5 0 0 0-.698-.91c-.698-.404-2.998-.812-3.348-.202-.332.57 1.063 2.348 1.848 2.798a1.5 1.5 0 0 0 2.198-1.686z"/></g><g><path d="M21.121 11.269a2.625 2.625 0 1 1-3.712 3.712 2.625 2.625 0 0 1 3.712-3.712zm-1.06 2.651a1.125 1.125 0 1 0-1.592-1.59 1.125 1.125 0 0 0 1.591 1.59z"/></g><g><path d="M21.121 24.019a2.625 2.625 0 1 1-3.712 3.712 2.625 2.625 0 0 1 3.712-3.712zm-1.06 2.652a1.125 1.125 0 1 0-1.592-1.592 1.125 1.125 0 0 0 1.591 1.591z"/></g><g><path d="M14.751 17.649a2.625 2.625 0 1 1-3.712 3.712 2.625 2.625 0 0 1 3.712-3.712zm-1.06 2.651a1.125 1.125 0 1 0-1.591-1.59 1.125 1.125 0 0 0 1.59 1.59z"/></g><g><path d="M27.501 17.649a2.625 2.625 0 1 1-3.712 3.712A2.625 2.625 0 0 1 27.5 17.65zm-1.06 2.651a1.125 1.125 0 1 0-1.591-1.59 1.125 1.125 0 0 0 1.59 1.59z"/></g></g></g></g></svg>